%TF.GenerationSoftware,KiCad,Pcbnew,9.0.6*%
%TF.CreationDate,2025-12-22T21:30:02-08:00*%
%TF.ProjectId,Devboard,44657662-6f61-4726-942e-6b696361645f,rev?*%
%TF.SameCoordinates,Original*%
%TF.FileFunction,Paste,Top*%
%TF.FilePolarity,Positive*%
%FSLAX46Y46*%
G04 Gerber Fmt 4.6, Leading zero omitted, Abs format (unit mm)*
G04 Created by KiCad (PCBNEW 9.0.6) date 2025-12-22 21:30:02*
%MOMM*%
%LPD*%
G01*
G04 APERTURE LIST*
G04 Aperture macros list*
%AMRoundRect*
0 Rectangle with rounded corners*
0 $1 Rounding radius*
0 $2 $3 $4 $5 $6 $7 $8 $9 X,Y pos of 4 corners*
0 Add a 4 corners polygon primitive as box body*
4,1,4,$2,$3,$4,$5,$6,$7,$8,$9,$2,$3,0*
0 Add four circle primitives for the rounded corners*
1,1,$1+$1,$2,$3*
1,1,$1+$1,$4,$5*
1,1,$1+$1,$6,$7*
1,1,$1+$1,$8,$9*
0 Add four rect primitives between the rounded corners*
20,1,$1+$1,$2,$3,$4,$5,0*
20,1,$1+$1,$4,$5,$6,$7,0*
20,1,$1+$1,$6,$7,$8,$9,0*
20,1,$1+$1,$8,$9,$2,$3,0*%
G04 Aperture macros list end*
%ADD10RoundRect,0.140000X0.170000X-0.140000X0.170000X0.140000X-0.170000X0.140000X-0.170000X-0.140000X0*%
%ADD11RoundRect,0.225000X0.225000X0.250000X-0.225000X0.250000X-0.225000X-0.250000X0.225000X-0.250000X0*%
%ADD12RoundRect,0.140000X0.140000X0.170000X-0.140000X0.170000X-0.140000X-0.170000X0.140000X-0.170000X0*%
%ADD13RoundRect,0.140000X-0.170000X0.140000X-0.170000X-0.140000X0.170000X-0.140000X0.170000X0.140000X0*%
%ADD14RoundRect,0.250000X0.450000X0.350000X-0.450000X0.350000X-0.450000X-0.350000X0.450000X-0.350000X0*%
%ADD15RoundRect,0.140000X0.021213X-0.219203X0.219203X-0.021213X-0.021213X0.219203X-0.219203X0.021213X0*%
%ADD16RoundRect,0.135000X-0.135000X-0.185000X0.135000X-0.185000X0.135000X0.185000X-0.135000X0.185000X0*%
%ADD17RoundRect,0.200000X-0.800000X0.200000X-0.800000X-0.200000X0.800000X-0.200000X0.800000X0.200000X0*%
%ADD18RoundRect,0.135000X0.135000X0.185000X-0.135000X0.185000X-0.135000X-0.185000X0.135000X-0.185000X0*%
%ADD19RoundRect,0.135000X-0.185000X0.135000X-0.185000X-0.135000X0.185000X-0.135000X0.185000X0.135000X0*%
%ADD20RoundRect,0.249999X-0.395001X-0.395001X0.395001X-0.395001X0.395001X0.395001X-0.395001X0.395001X0*%
%ADD21RoundRect,0.050000X-0.387500X-0.050000X0.387500X-0.050000X0.387500X0.050000X-0.387500X0.050000X0*%
%ADD22RoundRect,0.050000X-0.050000X-0.387500X0.050000X-0.387500X0.050000X0.387500X-0.050000X0.387500X0*%
%ADD23R,0.600000X1.450000*%
%ADD24R,0.300000X1.450000*%
%ADD25RoundRect,0.140000X-0.140000X-0.170000X0.140000X-0.170000X0.140000X0.170000X-0.140000X0.170000X0*%
%ADD26RoundRect,0.150000X0.150000X-0.587500X0.150000X0.587500X-0.150000X0.587500X-0.150000X-0.587500X0*%
%ADD27RoundRect,0.040000X-0.040000X-0.605000X0.040000X-0.605000X0.040000X0.605000X-0.040000X0.605000X0*%
%ADD28RoundRect,0.062500X-0.387500X-0.062500X0.387500X-0.062500X0.387500X0.062500X-0.387500X0.062500X0*%
G04 APERTURE END LIST*
D10*
%TO.C,C6*%
X154425000Y-104030000D03*
X154425000Y-103070000D03*
%TD*%
%TO.C,C5*%
X157075000Y-107230000D03*
X157075000Y-106270000D03*
%TD*%
D11*
%TO.C,C13*%
X150740000Y-90780000D03*
X149190000Y-90780000D03*
%TD*%
D12*
%TO.C,C4*%
X149005000Y-108000000D03*
X148045000Y-108000000D03*
%TD*%
D13*
%TO.C,C2*%
X155175000Y-116750000D03*
X155175000Y-117710000D03*
%TD*%
D14*
%TO.C,Y1*%
X153625000Y-118380000D03*
X151425000Y-118380000D03*
X151425000Y-120080000D03*
X153625000Y-120080000D03*
%TD*%
D15*
%TO.C,C1*%
X158235589Y-106864411D03*
X158914411Y-106185589D03*
%TD*%
D10*
%TO.C,C7*%
X155385000Y-103290000D03*
X155385000Y-102330000D03*
%TD*%
D16*
%TO.C,R7*%
X148585000Y-101970000D03*
X149605000Y-101970000D03*
%TD*%
D13*
%TO.C,C15*%
X149875000Y-118920000D03*
X149875000Y-119880000D03*
%TD*%
D16*
%TO.C,R6*%
X156390000Y-99250000D03*
X157410000Y-99250000D03*
%TD*%
D10*
%TO.C,C11*%
X156100000Y-106900000D03*
X156100000Y-105940000D03*
%TD*%
D13*
%TO.C,C10*%
X156215000Y-116760000D03*
X156215000Y-117720000D03*
%TD*%
D17*
%TO.C,SW1*%
X156425000Y-93750000D03*
X156425000Y-97950000D03*
%TD*%
D18*
%TO.C,R5*%
X153825000Y-116910000D03*
X152805000Y-116910000D03*
%TD*%
D11*
%TO.C,C14*%
X151750000Y-96550000D03*
X150200000Y-96550000D03*
%TD*%
D19*
%TO.C,R2*%
X154765000Y-90410000D03*
X154765000Y-91430000D03*
%TD*%
%TO.C,R3*%
X154050000Y-105580000D03*
X154050000Y-106600000D03*
%TD*%
D20*
%TO.C,U1*%
X152575000Y-110800000D03*
X152575000Y-112400000D03*
X154175000Y-110800000D03*
X154175000Y-112400000D03*
D21*
X149937500Y-109000000D03*
X149937500Y-109400000D03*
X149937500Y-109800000D03*
X149937500Y-110200000D03*
X149937500Y-110600000D03*
X149937500Y-111000000D03*
X149937500Y-111400000D03*
X149937500Y-111800000D03*
X149937500Y-112200000D03*
X149937500Y-112600000D03*
X149937500Y-113000000D03*
X149937500Y-113400000D03*
X149937500Y-113800000D03*
X149937500Y-114200000D03*
D22*
X150775000Y-115037500D03*
X151175000Y-115037500D03*
X151575000Y-115037500D03*
X151975000Y-115037500D03*
X152375000Y-115037500D03*
X152775000Y-115037500D03*
X153175000Y-115037500D03*
X153575000Y-115037500D03*
X153975000Y-115037500D03*
X154375000Y-115037500D03*
X154775000Y-115037500D03*
X155175000Y-115037500D03*
X155575000Y-115037500D03*
X155975000Y-115037500D03*
D21*
X156812500Y-114200000D03*
X156812500Y-113800000D03*
X156812500Y-113400000D03*
X156812500Y-113000000D03*
X156812500Y-112600000D03*
X156812500Y-112200000D03*
X156812500Y-111800000D03*
X156812500Y-111400000D03*
X156812500Y-111000000D03*
X156812500Y-110600000D03*
X156812500Y-110200000D03*
X156812500Y-109800000D03*
X156812500Y-109400000D03*
X156812500Y-109000000D03*
D22*
X155975000Y-108162500D03*
X155575000Y-108162500D03*
X155175000Y-108162500D03*
X154775000Y-108162500D03*
X154375000Y-108162500D03*
X153975000Y-108162500D03*
X153575000Y-108162500D03*
X153175000Y-108162500D03*
X152775000Y-108162500D03*
X152375000Y-108162500D03*
X151975000Y-108162500D03*
X151575000Y-108162500D03*
X151175000Y-108162500D03*
X150775000Y-108162500D03*
%TD*%
D23*
%TO.C,J1*%
X156625000Y-88645000D03*
X155825000Y-88645000D03*
D24*
X154625000Y-88645000D03*
X153625000Y-88645000D03*
X153125000Y-88645000D03*
X152125000Y-88645000D03*
D23*
X150925000Y-88645000D03*
X150125000Y-88645000D03*
X150125000Y-88645000D03*
X150925000Y-88645000D03*
D24*
X151625000Y-88645000D03*
X152625000Y-88645000D03*
X154125000Y-88645000D03*
X155125000Y-88645000D03*
D23*
X155825000Y-88645000D03*
X156625000Y-88645000D03*
%TD*%
D10*
%TO.C,C16*%
X155300000Y-119580000D03*
X155300000Y-118620000D03*
%TD*%
D25*
%TO.C,C9*%
X158915000Y-112580000D03*
X159875000Y-112580000D03*
%TD*%
D19*
%TO.C,R1*%
X152025000Y-90480000D03*
X152025000Y-91500000D03*
%TD*%
D10*
%TO.C,C12*%
X153400000Y-104025000D03*
X153400000Y-103065000D03*
%TD*%
D25*
%TO.C,C8*%
X157925000Y-108175000D03*
X158885000Y-108175000D03*
%TD*%
D19*
%TO.C,R4*%
X155100000Y-105580000D03*
X155100000Y-106600000D03*
%TD*%
D12*
%TO.C,C17*%
X151505000Y-101950000D03*
X150545000Y-101950000D03*
%TD*%
D26*
%TO.C,U2*%
X149975000Y-94587500D03*
X151875000Y-94587500D03*
X150925000Y-92712500D03*
%TD*%
D12*
%TO.C,C3*%
X148405000Y-112830000D03*
X147445000Y-112830000D03*
%TD*%
D27*
%TO.C,U4*%
X150175000Y-103925000D03*
D28*
X148750000Y-103175000D03*
X148750000Y-103675000D03*
X148750000Y-104175000D03*
X148750000Y-104675000D03*
X151600000Y-104675000D03*
X151600000Y-104175000D03*
X151600000Y-103675000D03*
X151600000Y-103175000D03*
%TD*%
M02*
