%TF.GenerationSoftware,KiCad,Pcbnew,9.0.6*%
%TF.CreationDate,2025-12-22T21:29:59-08:00*%
%TF.ProjectId,Devboard,44657662-6f61-4726-942e-6b696361645f,rev?*%
%TF.SameCoordinates,Original*%
%TF.FileFunction,Drillmap*%
%TF.FilePolarity,Positive*%
%FSLAX45Y45*%
G04 Gerber Fmt 4.5, Leading zero omitted, Abs format (unit mm)*
G04 Created by KiCad (PCBNEW 9.0.6) date 2025-12-22 21:29:59*
%MOMM*%
%LPD*%
G01*
G04 APERTURE LIST*
%ADD10C,0.050000*%
%ADD11C,0.200000*%
%ADD12C,0.100000*%
G04 APERTURE END LIST*
D10*
X14287500Y-8210000D02*
X16387500Y-8210000D01*
X16387500Y-13310000D01*
X14287500Y-13310000D01*
X14287500Y-8210000D01*
D11*
D12*
X15016000Y-8687500D02*
X15081000Y-8752500D01*
X15081000Y-8687500D02*
X15016000Y-8752500D01*
X15594000Y-8687500D02*
X15659000Y-8752500D01*
X15659000Y-8687500D02*
X15594000Y-8752500D01*
D11*
X14545777Y-13623984D02*
X14545777Y-13423984D01*
X14545777Y-13423984D02*
X14593396Y-13423984D01*
X14593396Y-13423984D02*
X14621967Y-13433508D01*
X14621967Y-13433508D02*
X14641015Y-13452555D01*
X14641015Y-13452555D02*
X14650539Y-13471603D01*
X14650539Y-13471603D02*
X14660062Y-13509698D01*
X14660062Y-13509698D02*
X14660062Y-13538269D01*
X14660062Y-13538269D02*
X14650539Y-13576365D01*
X14650539Y-13576365D02*
X14641015Y-13595412D01*
X14641015Y-13595412D02*
X14621967Y-13614460D01*
X14621967Y-13614460D02*
X14593396Y-13623984D01*
X14593396Y-13623984D02*
X14545777Y-13623984D01*
X14745777Y-13623984D02*
X14745777Y-13490650D01*
X14745777Y-13528746D02*
X14755301Y-13509698D01*
X14755301Y-13509698D02*
X14764824Y-13500174D01*
X14764824Y-13500174D02*
X14783872Y-13490650D01*
X14783872Y-13490650D02*
X14802920Y-13490650D01*
X14869586Y-13623984D02*
X14869586Y-13490650D01*
X14869586Y-13423984D02*
X14860062Y-13433508D01*
X14860062Y-13433508D02*
X14869586Y-13443031D01*
X14869586Y-13443031D02*
X14879110Y-13433508D01*
X14879110Y-13433508D02*
X14869586Y-13423984D01*
X14869586Y-13423984D02*
X14869586Y-13443031D01*
X14993396Y-13623984D02*
X14974348Y-13614460D01*
X14974348Y-13614460D02*
X14964824Y-13595412D01*
X14964824Y-13595412D02*
X14964824Y-13423984D01*
X15098158Y-13623984D02*
X15079110Y-13614460D01*
X15079110Y-13614460D02*
X15069586Y-13595412D01*
X15069586Y-13595412D02*
X15069586Y-13423984D01*
X15326729Y-13623984D02*
X15326729Y-13423984D01*
X15326729Y-13423984D02*
X15393396Y-13566841D01*
X15393396Y-13566841D02*
X15460062Y-13423984D01*
X15460062Y-13423984D02*
X15460062Y-13623984D01*
X15641015Y-13623984D02*
X15641015Y-13519222D01*
X15641015Y-13519222D02*
X15631491Y-13500174D01*
X15631491Y-13500174D02*
X15612443Y-13490650D01*
X15612443Y-13490650D02*
X15574348Y-13490650D01*
X15574348Y-13490650D02*
X15555301Y-13500174D01*
X15641015Y-13614460D02*
X15621967Y-13623984D01*
X15621967Y-13623984D02*
X15574348Y-13623984D01*
X15574348Y-13623984D02*
X15555301Y-13614460D01*
X15555301Y-13614460D02*
X15545777Y-13595412D01*
X15545777Y-13595412D02*
X15545777Y-13576365D01*
X15545777Y-13576365D02*
X15555301Y-13557317D01*
X15555301Y-13557317D02*
X15574348Y-13547793D01*
X15574348Y-13547793D02*
X15621967Y-13547793D01*
X15621967Y-13547793D02*
X15641015Y-13538269D01*
X15736253Y-13490650D02*
X15736253Y-13690650D01*
X15736253Y-13500174D02*
X15755301Y-13490650D01*
X15755301Y-13490650D02*
X15793396Y-13490650D01*
X15793396Y-13490650D02*
X15812443Y-13500174D01*
X15812443Y-13500174D02*
X15821967Y-13509698D01*
X15821967Y-13509698D02*
X15831491Y-13528746D01*
X15831491Y-13528746D02*
X15831491Y-13585888D01*
X15831491Y-13585888D02*
X15821967Y-13604936D01*
X15821967Y-13604936D02*
X15812443Y-13614460D01*
X15812443Y-13614460D02*
X15793396Y-13623984D01*
X15793396Y-13623984D02*
X15755301Y-13623984D01*
X15755301Y-13623984D02*
X15736253Y-13614460D01*
X15917205Y-13604936D02*
X15926729Y-13614460D01*
X15926729Y-13614460D02*
X15917205Y-13623984D01*
X15917205Y-13623984D02*
X15907682Y-13614460D01*
X15907682Y-13614460D02*
X15917205Y-13604936D01*
X15917205Y-13604936D02*
X15917205Y-13623984D01*
X15917205Y-13500174D02*
X15926729Y-13509698D01*
X15926729Y-13509698D02*
X15917205Y-13519222D01*
X15917205Y-13519222D02*
X15907682Y-13509698D01*
X15907682Y-13509698D02*
X15917205Y-13500174D01*
X15917205Y-13500174D02*
X15917205Y-13519222D01*
D12*
X14220000Y-13920000D02*
X14285000Y-13985000D01*
X14285000Y-13920000D02*
X14220000Y-13985000D01*
D11*
X14583872Y-13843984D02*
X14602920Y-13843984D01*
X14602920Y-13843984D02*
X14621967Y-13853508D01*
X14621967Y-13853508D02*
X14631491Y-13863031D01*
X14631491Y-13863031D02*
X14641015Y-13882079D01*
X14641015Y-13882079D02*
X14650539Y-13920174D01*
X14650539Y-13920174D02*
X14650539Y-13967793D01*
X14650539Y-13967793D02*
X14641015Y-14005888D01*
X14641015Y-14005888D02*
X14631491Y-14024936D01*
X14631491Y-14024936D02*
X14621967Y-14034460D01*
X14621967Y-14034460D02*
X14602920Y-14043984D01*
X14602920Y-14043984D02*
X14583872Y-14043984D01*
X14583872Y-14043984D02*
X14564824Y-14034460D01*
X14564824Y-14034460D02*
X14555301Y-14024936D01*
X14555301Y-14024936D02*
X14545777Y-14005888D01*
X14545777Y-14005888D02*
X14536253Y-13967793D01*
X14536253Y-13967793D02*
X14536253Y-13920174D01*
X14536253Y-13920174D02*
X14545777Y-13882079D01*
X14545777Y-13882079D02*
X14555301Y-13863031D01*
X14555301Y-13863031D02*
X14564824Y-13853508D01*
X14564824Y-13853508D02*
X14583872Y-13843984D01*
X14736253Y-14024936D02*
X14745777Y-14034460D01*
X14745777Y-14034460D02*
X14736253Y-14043984D01*
X14736253Y-14043984D02*
X14726729Y-14034460D01*
X14726729Y-14034460D02*
X14736253Y-14024936D01*
X14736253Y-14024936D02*
X14736253Y-14043984D01*
X14917205Y-13843984D02*
X14879110Y-13843984D01*
X14879110Y-13843984D02*
X14860062Y-13853508D01*
X14860062Y-13853508D02*
X14850539Y-13863031D01*
X14850539Y-13863031D02*
X14831491Y-13891603D01*
X14831491Y-13891603D02*
X14821967Y-13929698D01*
X14821967Y-13929698D02*
X14821967Y-14005888D01*
X14821967Y-14005888D02*
X14831491Y-14024936D01*
X14831491Y-14024936D02*
X14841015Y-14034460D01*
X14841015Y-14034460D02*
X14860062Y-14043984D01*
X14860062Y-14043984D02*
X14898158Y-14043984D01*
X14898158Y-14043984D02*
X14917205Y-14034460D01*
X14917205Y-14034460D02*
X14926729Y-14024936D01*
X14926729Y-14024936D02*
X14936253Y-14005888D01*
X14936253Y-14005888D02*
X14936253Y-13958269D01*
X14936253Y-13958269D02*
X14926729Y-13939222D01*
X14926729Y-13939222D02*
X14917205Y-13929698D01*
X14917205Y-13929698D02*
X14898158Y-13920174D01*
X14898158Y-13920174D02*
X14860062Y-13920174D01*
X14860062Y-13920174D02*
X14841015Y-13929698D01*
X14841015Y-13929698D02*
X14831491Y-13939222D01*
X14831491Y-13939222D02*
X14821967Y-13958269D01*
X15117205Y-13843984D02*
X15021967Y-13843984D01*
X15021967Y-13843984D02*
X15012443Y-13939222D01*
X15012443Y-13939222D02*
X15021967Y-13929698D01*
X15021967Y-13929698D02*
X15041015Y-13920174D01*
X15041015Y-13920174D02*
X15088634Y-13920174D01*
X15088634Y-13920174D02*
X15107682Y-13929698D01*
X15107682Y-13929698D02*
X15117205Y-13939222D01*
X15117205Y-13939222D02*
X15126729Y-13958269D01*
X15126729Y-13958269D02*
X15126729Y-14005888D01*
X15126729Y-14005888D02*
X15117205Y-14024936D01*
X15117205Y-14024936D02*
X15107682Y-14034460D01*
X15107682Y-14034460D02*
X15088634Y-14043984D01*
X15088634Y-14043984D02*
X15041015Y-14043984D01*
X15041015Y-14043984D02*
X15021967Y-14034460D01*
X15021967Y-14034460D02*
X15012443Y-14024936D01*
X15250539Y-13843984D02*
X15269586Y-13843984D01*
X15269586Y-13843984D02*
X15288634Y-13853508D01*
X15288634Y-13853508D02*
X15298158Y-13863031D01*
X15298158Y-13863031D02*
X15307682Y-13882079D01*
X15307682Y-13882079D02*
X15317205Y-13920174D01*
X15317205Y-13920174D02*
X15317205Y-13967793D01*
X15317205Y-13967793D02*
X15307682Y-14005888D01*
X15307682Y-14005888D02*
X15298158Y-14024936D01*
X15298158Y-14024936D02*
X15288634Y-14034460D01*
X15288634Y-14034460D02*
X15269586Y-14043984D01*
X15269586Y-14043984D02*
X15250539Y-14043984D01*
X15250539Y-14043984D02*
X15231491Y-14034460D01*
X15231491Y-14034460D02*
X15221967Y-14024936D01*
X15221967Y-14024936D02*
X15212443Y-14005888D01*
X15212443Y-14005888D02*
X15202920Y-13967793D01*
X15202920Y-13967793D02*
X15202920Y-13920174D01*
X15202920Y-13920174D02*
X15212443Y-13882079D01*
X15212443Y-13882079D02*
X15221967Y-13863031D01*
X15221967Y-13863031D02*
X15231491Y-13853508D01*
X15231491Y-13853508D02*
X15250539Y-13843984D01*
X15402920Y-14043984D02*
X15402920Y-13910650D01*
X15402920Y-13929698D02*
X15412443Y-13920174D01*
X15412443Y-13920174D02*
X15431491Y-13910650D01*
X15431491Y-13910650D02*
X15460063Y-13910650D01*
X15460063Y-13910650D02*
X15479110Y-13920174D01*
X15479110Y-13920174D02*
X15488634Y-13939222D01*
X15488634Y-13939222D02*
X15488634Y-14043984D01*
X15488634Y-13939222D02*
X15498158Y-13920174D01*
X15498158Y-13920174D02*
X15517205Y-13910650D01*
X15517205Y-13910650D02*
X15545777Y-13910650D01*
X15545777Y-13910650D02*
X15564824Y-13920174D01*
X15564824Y-13920174D02*
X15574348Y-13939222D01*
X15574348Y-13939222D02*
X15574348Y-14043984D01*
X15669586Y-14043984D02*
X15669586Y-13910650D01*
X15669586Y-13929698D02*
X15679110Y-13920174D01*
X15679110Y-13920174D02*
X15698158Y-13910650D01*
X15698158Y-13910650D02*
X15726729Y-13910650D01*
X15726729Y-13910650D02*
X15745777Y-13920174D01*
X15745777Y-13920174D02*
X15755301Y-13939222D01*
X15755301Y-13939222D02*
X15755301Y-14043984D01*
X15755301Y-13939222D02*
X15764824Y-13920174D01*
X15764824Y-13920174D02*
X15783872Y-13910650D01*
X15783872Y-13910650D02*
X15812443Y-13910650D01*
X15812443Y-13910650D02*
X15831491Y-13920174D01*
X15831491Y-13920174D02*
X15841015Y-13939222D01*
X15841015Y-13939222D02*
X15841015Y-14043984D01*
X16231491Y-13834460D02*
X16060063Y-14091603D01*
X16488634Y-13843984D02*
X16507682Y-13843984D01*
X16507682Y-13843984D02*
X16526729Y-13853508D01*
X16526729Y-13853508D02*
X16536253Y-13863031D01*
X16536253Y-13863031D02*
X16545777Y-13882079D01*
X16545777Y-13882079D02*
X16555301Y-13920174D01*
X16555301Y-13920174D02*
X16555301Y-13967793D01*
X16555301Y-13967793D02*
X16545777Y-14005888D01*
X16545777Y-14005888D02*
X16536253Y-14024936D01*
X16536253Y-14024936D02*
X16526729Y-14034460D01*
X16526729Y-14034460D02*
X16507682Y-14043984D01*
X16507682Y-14043984D02*
X16488634Y-14043984D01*
X16488634Y-14043984D02*
X16469586Y-14034460D01*
X16469586Y-14034460D02*
X16460063Y-14024936D01*
X16460063Y-14024936D02*
X16450539Y-14005888D01*
X16450539Y-14005888D02*
X16441015Y-13967793D01*
X16441015Y-13967793D02*
X16441015Y-13920174D01*
X16441015Y-13920174D02*
X16450539Y-13882079D01*
X16450539Y-13882079D02*
X16460063Y-13863031D01*
X16460063Y-13863031D02*
X16469586Y-13853508D01*
X16469586Y-13853508D02*
X16488634Y-13843984D01*
X16641015Y-14024936D02*
X16650539Y-14034460D01*
X16650539Y-14034460D02*
X16641015Y-14043984D01*
X16641015Y-14043984D02*
X16631491Y-14034460D01*
X16631491Y-14034460D02*
X16641015Y-14024936D01*
X16641015Y-14024936D02*
X16641015Y-14043984D01*
X16774348Y-13843984D02*
X16793396Y-13843984D01*
X16793396Y-13843984D02*
X16812444Y-13853508D01*
X16812444Y-13853508D02*
X16821968Y-13863031D01*
X16821968Y-13863031D02*
X16831491Y-13882079D01*
X16831491Y-13882079D02*
X16841015Y-13920174D01*
X16841015Y-13920174D02*
X16841015Y-13967793D01*
X16841015Y-13967793D02*
X16831491Y-14005888D01*
X16831491Y-14005888D02*
X16821968Y-14024936D01*
X16821968Y-14024936D02*
X16812444Y-14034460D01*
X16812444Y-14034460D02*
X16793396Y-14043984D01*
X16793396Y-14043984D02*
X16774348Y-14043984D01*
X16774348Y-14043984D02*
X16755301Y-14034460D01*
X16755301Y-14034460D02*
X16745777Y-14024936D01*
X16745777Y-14024936D02*
X16736253Y-14005888D01*
X16736253Y-14005888D02*
X16726729Y-13967793D01*
X16726729Y-13967793D02*
X16726729Y-13920174D01*
X16726729Y-13920174D02*
X16736253Y-13882079D01*
X16736253Y-13882079D02*
X16745777Y-13863031D01*
X16745777Y-13863031D02*
X16755301Y-13853508D01*
X16755301Y-13853508D02*
X16774348Y-13843984D01*
X16917206Y-13863031D02*
X16926729Y-13853508D01*
X16926729Y-13853508D02*
X16945777Y-13843984D01*
X16945777Y-13843984D02*
X16993396Y-13843984D01*
X16993396Y-13843984D02*
X17012444Y-13853508D01*
X17012444Y-13853508D02*
X17021968Y-13863031D01*
X17021968Y-13863031D02*
X17031491Y-13882079D01*
X17031491Y-13882079D02*
X17031491Y-13901127D01*
X17031491Y-13901127D02*
X17021968Y-13929698D01*
X17021968Y-13929698D02*
X16907682Y-14043984D01*
X16907682Y-14043984D02*
X17031491Y-14043984D01*
X17212444Y-13843984D02*
X17117206Y-13843984D01*
X17117206Y-13843984D02*
X17107682Y-13939222D01*
X17107682Y-13939222D02*
X17117206Y-13929698D01*
X17117206Y-13929698D02*
X17136253Y-13920174D01*
X17136253Y-13920174D02*
X17183872Y-13920174D01*
X17183872Y-13920174D02*
X17202920Y-13929698D01*
X17202920Y-13929698D02*
X17212444Y-13939222D01*
X17212444Y-13939222D02*
X17221968Y-13958269D01*
X17221968Y-13958269D02*
X17221968Y-14005888D01*
X17221968Y-14005888D02*
X17212444Y-14024936D01*
X17212444Y-14024936D02*
X17202920Y-14034460D01*
X17202920Y-14034460D02*
X17183872Y-14043984D01*
X17183872Y-14043984D02*
X17136253Y-14043984D01*
X17136253Y-14043984D02*
X17117206Y-14034460D01*
X17117206Y-14034460D02*
X17107682Y-14024936D01*
X17393396Y-13843984D02*
X17355301Y-13843984D01*
X17355301Y-13843984D02*
X17336253Y-13853508D01*
X17336253Y-13853508D02*
X17326729Y-13863031D01*
X17326729Y-13863031D02*
X17307682Y-13891603D01*
X17307682Y-13891603D02*
X17298158Y-13929698D01*
X17298158Y-13929698D02*
X17298158Y-14005888D01*
X17298158Y-14005888D02*
X17307682Y-14024936D01*
X17307682Y-14024936D02*
X17317206Y-14034460D01*
X17317206Y-14034460D02*
X17336253Y-14043984D01*
X17336253Y-14043984D02*
X17374349Y-14043984D01*
X17374349Y-14043984D02*
X17393396Y-14034460D01*
X17393396Y-14034460D02*
X17402920Y-14024936D01*
X17402920Y-14024936D02*
X17412444Y-14005888D01*
X17412444Y-14005888D02*
X17412444Y-13958269D01*
X17412444Y-13958269D02*
X17402920Y-13939222D01*
X17402920Y-13939222D02*
X17393396Y-13929698D01*
X17393396Y-13929698D02*
X17374349Y-13920174D01*
X17374349Y-13920174D02*
X17336253Y-13920174D01*
X17336253Y-13920174D02*
X17317206Y-13929698D01*
X17317206Y-13929698D02*
X17307682Y-13939222D01*
X17307682Y-13939222D02*
X17298158Y-13958269D01*
X17488634Y-13843984D02*
X17488634Y-13882079D01*
X17564825Y-13843984D02*
X17564825Y-13882079D01*
X17860063Y-14120174D02*
X17850539Y-14110650D01*
X17850539Y-14110650D02*
X17831491Y-14082079D01*
X17831491Y-14082079D02*
X17821968Y-14063031D01*
X17821968Y-14063031D02*
X17812444Y-14034460D01*
X17812444Y-14034460D02*
X17802920Y-13986841D01*
X17802920Y-13986841D02*
X17802920Y-13948746D01*
X17802920Y-13948746D02*
X17812444Y-13901127D01*
X17812444Y-13901127D02*
X17821968Y-13872555D01*
X17821968Y-13872555D02*
X17831491Y-13853508D01*
X17831491Y-13853508D02*
X17850539Y-13824936D01*
X17850539Y-13824936D02*
X17860063Y-13815412D01*
X17926730Y-13863031D02*
X17936253Y-13853508D01*
X17936253Y-13853508D02*
X17955301Y-13843984D01*
X17955301Y-13843984D02*
X18002920Y-13843984D01*
X18002920Y-13843984D02*
X18021968Y-13853508D01*
X18021968Y-13853508D02*
X18031491Y-13863031D01*
X18031491Y-13863031D02*
X18041015Y-13882079D01*
X18041015Y-13882079D02*
X18041015Y-13901127D01*
X18041015Y-13901127D02*
X18031491Y-13929698D01*
X18031491Y-13929698D02*
X17917206Y-14043984D01*
X17917206Y-14043984D02*
X18041015Y-14043984D01*
X18279111Y-14043984D02*
X18279111Y-13843984D01*
X18364825Y-14043984D02*
X18364825Y-13939222D01*
X18364825Y-13939222D02*
X18355301Y-13920174D01*
X18355301Y-13920174D02*
X18336253Y-13910650D01*
X18336253Y-13910650D02*
X18307682Y-13910650D01*
X18307682Y-13910650D02*
X18288634Y-13920174D01*
X18288634Y-13920174D02*
X18279111Y-13929698D01*
X18488634Y-14043984D02*
X18469587Y-14034460D01*
X18469587Y-14034460D02*
X18460063Y-14024936D01*
X18460063Y-14024936D02*
X18450539Y-14005888D01*
X18450539Y-14005888D02*
X18450539Y-13948746D01*
X18450539Y-13948746D02*
X18460063Y-13929698D01*
X18460063Y-13929698D02*
X18469587Y-13920174D01*
X18469587Y-13920174D02*
X18488634Y-13910650D01*
X18488634Y-13910650D02*
X18517206Y-13910650D01*
X18517206Y-13910650D02*
X18536253Y-13920174D01*
X18536253Y-13920174D02*
X18545777Y-13929698D01*
X18545777Y-13929698D02*
X18555301Y-13948746D01*
X18555301Y-13948746D02*
X18555301Y-14005888D01*
X18555301Y-14005888D02*
X18545777Y-14024936D01*
X18545777Y-14024936D02*
X18536253Y-14034460D01*
X18536253Y-14034460D02*
X18517206Y-14043984D01*
X18517206Y-14043984D02*
X18488634Y-14043984D01*
X18669587Y-14043984D02*
X18650539Y-14034460D01*
X18650539Y-14034460D02*
X18641015Y-14015412D01*
X18641015Y-14015412D02*
X18641015Y-13843984D01*
X18821968Y-14034460D02*
X18802920Y-14043984D01*
X18802920Y-14043984D02*
X18764825Y-14043984D01*
X18764825Y-14043984D02*
X18745777Y-14034460D01*
X18745777Y-14034460D02*
X18736253Y-14015412D01*
X18736253Y-14015412D02*
X18736253Y-13939222D01*
X18736253Y-13939222D02*
X18745777Y-13920174D01*
X18745777Y-13920174D02*
X18764825Y-13910650D01*
X18764825Y-13910650D02*
X18802920Y-13910650D01*
X18802920Y-13910650D02*
X18821968Y-13920174D01*
X18821968Y-13920174D02*
X18831492Y-13939222D01*
X18831492Y-13939222D02*
X18831492Y-13958269D01*
X18831492Y-13958269D02*
X18736253Y-13977317D01*
X18907682Y-14034460D02*
X18926730Y-14043984D01*
X18926730Y-14043984D02*
X18964825Y-14043984D01*
X18964825Y-14043984D02*
X18983873Y-14034460D01*
X18983873Y-14034460D02*
X18993396Y-14015412D01*
X18993396Y-14015412D02*
X18993396Y-14005888D01*
X18993396Y-14005888D02*
X18983873Y-13986841D01*
X18983873Y-13986841D02*
X18964825Y-13977317D01*
X18964825Y-13977317D02*
X18936253Y-13977317D01*
X18936253Y-13977317D02*
X18917206Y-13967793D01*
X18917206Y-13967793D02*
X18907682Y-13948746D01*
X18907682Y-13948746D02*
X18907682Y-13939222D01*
X18907682Y-13939222D02*
X18917206Y-13920174D01*
X18917206Y-13920174D02*
X18936253Y-13910650D01*
X18936253Y-13910650D02*
X18964825Y-13910650D01*
X18964825Y-13910650D02*
X18983873Y-13920174D01*
X19060063Y-14120174D02*
X19069587Y-14110650D01*
X19069587Y-14110650D02*
X19088634Y-14082079D01*
X19088634Y-14082079D02*
X19098158Y-14063031D01*
X19098158Y-14063031D02*
X19107682Y-14034460D01*
X19107682Y-14034460D02*
X19117206Y-13986841D01*
X19117206Y-13986841D02*
X19117206Y-13948746D01*
X19117206Y-13948746D02*
X19107682Y-13901127D01*
X19107682Y-13901127D02*
X19098158Y-13872555D01*
X19098158Y-13872555D02*
X19088634Y-13853508D01*
X19088634Y-13853508D02*
X19069587Y-13824936D01*
X19069587Y-13824936D02*
X19060063Y-13815412D01*
X19421968Y-14120174D02*
X19412444Y-14110650D01*
X19412444Y-14110650D02*
X19393396Y-14082079D01*
X19393396Y-14082079D02*
X19383873Y-14063031D01*
X19383873Y-14063031D02*
X19374349Y-14034460D01*
X19374349Y-14034460D02*
X19364825Y-13986841D01*
X19364825Y-13986841D02*
X19364825Y-13948746D01*
X19364825Y-13948746D02*
X19374349Y-13901127D01*
X19374349Y-13901127D02*
X19383873Y-13872555D01*
X19383873Y-13872555D02*
X19393396Y-13853508D01*
X19393396Y-13853508D02*
X19412444Y-13824936D01*
X19412444Y-13824936D02*
X19421968Y-13815412D01*
X19498158Y-13910650D02*
X19498158Y-14043984D01*
X19498158Y-13929698D02*
X19507682Y-13920174D01*
X19507682Y-13920174D02*
X19526730Y-13910650D01*
X19526730Y-13910650D02*
X19555301Y-13910650D01*
X19555301Y-13910650D02*
X19574349Y-13920174D01*
X19574349Y-13920174D02*
X19583873Y-13939222D01*
X19583873Y-13939222D02*
X19583873Y-14043984D01*
X19707682Y-14043984D02*
X19688634Y-14034460D01*
X19688634Y-14034460D02*
X19679111Y-14024936D01*
X19679111Y-14024936D02*
X19669587Y-14005888D01*
X19669587Y-14005888D02*
X19669587Y-13948746D01*
X19669587Y-13948746D02*
X19679111Y-13929698D01*
X19679111Y-13929698D02*
X19688634Y-13920174D01*
X19688634Y-13920174D02*
X19707682Y-13910650D01*
X19707682Y-13910650D02*
X19736254Y-13910650D01*
X19736254Y-13910650D02*
X19755301Y-13920174D01*
X19755301Y-13920174D02*
X19764825Y-13929698D01*
X19764825Y-13929698D02*
X19774349Y-13948746D01*
X19774349Y-13948746D02*
X19774349Y-14005888D01*
X19774349Y-14005888D02*
X19764825Y-14024936D01*
X19764825Y-14024936D02*
X19755301Y-14034460D01*
X19755301Y-14034460D02*
X19736254Y-14043984D01*
X19736254Y-14043984D02*
X19707682Y-14043984D01*
X19831492Y-13910650D02*
X19907682Y-13910650D01*
X19860063Y-13843984D02*
X19860063Y-14015412D01*
X19860063Y-14015412D02*
X19869587Y-14034460D01*
X19869587Y-14034460D02*
X19888634Y-14043984D01*
X19888634Y-14043984D02*
X19907682Y-14043984D01*
X20126730Y-13910650D02*
X20126730Y-14110650D01*
X20126730Y-13920174D02*
X20145777Y-13910650D01*
X20145777Y-13910650D02*
X20183873Y-13910650D01*
X20183873Y-13910650D02*
X20202920Y-13920174D01*
X20202920Y-13920174D02*
X20212444Y-13929698D01*
X20212444Y-13929698D02*
X20221968Y-13948746D01*
X20221968Y-13948746D02*
X20221968Y-14005888D01*
X20221968Y-14005888D02*
X20212444Y-14024936D01*
X20212444Y-14024936D02*
X20202920Y-14034460D01*
X20202920Y-14034460D02*
X20183873Y-14043984D01*
X20183873Y-14043984D02*
X20145777Y-14043984D01*
X20145777Y-14043984D02*
X20126730Y-14034460D01*
X20336254Y-14043984D02*
X20317206Y-14034460D01*
X20317206Y-14034460D02*
X20307682Y-14015412D01*
X20307682Y-14015412D02*
X20307682Y-13843984D01*
X20498158Y-14043984D02*
X20498158Y-13939222D01*
X20498158Y-13939222D02*
X20488635Y-13920174D01*
X20488635Y-13920174D02*
X20469587Y-13910650D01*
X20469587Y-13910650D02*
X20431492Y-13910650D01*
X20431492Y-13910650D02*
X20412444Y-13920174D01*
X20498158Y-14034460D02*
X20479111Y-14043984D01*
X20479111Y-14043984D02*
X20431492Y-14043984D01*
X20431492Y-14043984D02*
X20412444Y-14034460D01*
X20412444Y-14034460D02*
X20402920Y-14015412D01*
X20402920Y-14015412D02*
X20402920Y-13996365D01*
X20402920Y-13996365D02*
X20412444Y-13977317D01*
X20412444Y-13977317D02*
X20431492Y-13967793D01*
X20431492Y-13967793D02*
X20479111Y-13967793D01*
X20479111Y-13967793D02*
X20498158Y-13958269D01*
X20564825Y-13910650D02*
X20641015Y-13910650D01*
X20593396Y-13843984D02*
X20593396Y-14015412D01*
X20593396Y-14015412D02*
X20602920Y-14034460D01*
X20602920Y-14034460D02*
X20621968Y-14043984D01*
X20621968Y-14043984D02*
X20641015Y-14043984D01*
X20783873Y-14034460D02*
X20764825Y-14043984D01*
X20764825Y-14043984D02*
X20726730Y-14043984D01*
X20726730Y-14043984D02*
X20707682Y-14034460D01*
X20707682Y-14034460D02*
X20698158Y-14015412D01*
X20698158Y-14015412D02*
X20698158Y-13939222D01*
X20698158Y-13939222D02*
X20707682Y-13920174D01*
X20707682Y-13920174D02*
X20726730Y-13910650D01*
X20726730Y-13910650D02*
X20764825Y-13910650D01*
X20764825Y-13910650D02*
X20783873Y-13920174D01*
X20783873Y-13920174D02*
X20793396Y-13939222D01*
X20793396Y-13939222D02*
X20793396Y-13958269D01*
X20793396Y-13958269D02*
X20698158Y-13977317D01*
X20964825Y-14043984D02*
X20964825Y-13843984D01*
X20964825Y-14034460D02*
X20945777Y-14043984D01*
X20945777Y-14043984D02*
X20907682Y-14043984D01*
X20907682Y-14043984D02*
X20888635Y-14034460D01*
X20888635Y-14034460D02*
X20879111Y-14024936D01*
X20879111Y-14024936D02*
X20869587Y-14005888D01*
X20869587Y-14005888D02*
X20869587Y-13948746D01*
X20869587Y-13948746D02*
X20879111Y-13929698D01*
X20879111Y-13929698D02*
X20888635Y-13920174D01*
X20888635Y-13920174D02*
X20907682Y-13910650D01*
X20907682Y-13910650D02*
X20945777Y-13910650D01*
X20945777Y-13910650D02*
X20964825Y-13920174D01*
X21041016Y-14120174D02*
X21050539Y-14110650D01*
X21050539Y-14110650D02*
X21069587Y-14082079D01*
X21069587Y-14082079D02*
X21079111Y-14063031D01*
X21079111Y-14063031D02*
X21088635Y-14034460D01*
X21088635Y-14034460D02*
X21098158Y-13986841D01*
X21098158Y-13986841D02*
X21098158Y-13948746D01*
X21098158Y-13948746D02*
X21088635Y-13901127D01*
X21088635Y-13901127D02*
X21079111Y-13872555D01*
X21079111Y-13872555D02*
X21069587Y-13853508D01*
X21069587Y-13853508D02*
X21050539Y-13824936D01*
X21050539Y-13824936D02*
X21041016Y-13815412D01*
M02*
