%TF.GenerationSoftware,KiCad,Pcbnew,9.0.6*%
%TF.CreationDate,2025-12-22T21:30:02-08:00*%
%TF.ProjectId,Devboard,44657662-6f61-4726-942e-6b696361645f,rev?*%
%TF.SameCoordinates,Original*%
%TF.FileFunction,Copper,L2,Bot*%
%TF.FilePolarity,Positive*%
%FSLAX46Y46*%
G04 Gerber Fmt 4.6, Leading zero omitted, Abs format (unit mm)*
G04 Created by KiCad (PCBNEW 9.0.6) date 2025-12-22 21:30:02*
%MOMM*%
%LPD*%
G01*
G04 APERTURE LIST*
%TA.AperFunction,ComponentPad*%
%ADD10R,1.700000X1.700000*%
%TD*%
%TA.AperFunction,ComponentPad*%
%ADD11C,1.700000*%
%TD*%
%TA.AperFunction,HeatsinkPad*%
%ADD12O,1.000000X2.100000*%
%TD*%
%TA.AperFunction,HeatsinkPad*%
%ADD13O,1.000000X1.600000*%
%TD*%
%TA.AperFunction,ViaPad*%
%ADD14C,0.600000*%
%TD*%
%TA.AperFunction,Conductor*%
%ADD15C,0.200000*%
%TD*%
G04 APERTURE END LIST*
D10*
%TO.P,J4,1,Pin_1*%
%TO.N,SWCLK*%
X150835000Y-131490000D03*
D11*
%TO.P,J4,2,Pin_2*%
%TO.N,GND*%
X153375000Y-131490000D03*
%TO.P,J4,3,Pin_3*%
%TO.N,SWD*%
X155915000Y-131490000D03*
%TD*%
D12*
%TO.P,J1,S1,SHIELD*%
%TO.N,GND*%
X157695000Y-87730000D03*
D13*
X157695000Y-83550000D03*
D12*
X149055000Y-87730000D03*
D13*
X149055000Y-83550000D03*
%TD*%
D10*
%TO.P,J3,1,Pin_1*%
%TO.N,VBUS*%
X162265000Y-83470000D03*
D11*
%TO.P,J3,2,Pin_2*%
%TO.N,GPIO29_ADC3*%
X162265000Y-86010000D03*
%TO.P,J3,3,Pin_3*%
%TO.N,GND*%
X162265000Y-88550000D03*
%TO.P,J3,4,Pin_4*%
%TO.N,GPIO28_ADC2*%
X162265000Y-91090000D03*
%TO.P,J3,5,Pin_5*%
%TO.N,+3V3*%
X162265000Y-93630000D03*
%TO.P,J3,6,Pin_6*%
%TO.N,GPIO27_ADC1*%
X162265000Y-96170000D03*
%TO.P,J3,7,Pin_7*%
%TO.N,GPIO26_ADC0*%
X162265000Y-98710000D03*
%TO.P,J3,8,Pin_8*%
%TO.N,GND*%
X162265000Y-101250000D03*
%TO.P,J3,9,Pin_9*%
%TO.N,GPIO24*%
X162265000Y-103790000D03*
%TO.P,J3,10,Pin_10*%
%TO.N,GPIO23*%
X162265000Y-106330000D03*
%TO.P,J3,11,Pin_11*%
%TO.N,RUN*%
X162265000Y-108870000D03*
%TO.P,J3,12,Pin_12*%
%TO.N,GPIO22*%
X162265000Y-111410000D03*
%TO.P,J3,13,Pin_13*%
%TO.N,GND*%
X162265000Y-113950000D03*
%TO.P,J3,14,Pin_14*%
%TO.N,GPIO21*%
X162265000Y-116490000D03*
%TO.P,J3,15,Pin_15*%
%TO.N,GPIO20*%
X162265000Y-119030000D03*
%TO.P,J3,16,Pin_16*%
%TO.N,GPIO19*%
X162265000Y-121570000D03*
%TO.P,J3,17,Pin_17*%
%TO.N,GPIO18*%
X162265000Y-124110000D03*
%TO.P,J3,18,Pin_18*%
%TO.N,GND*%
X162265000Y-126650000D03*
%TO.P,J3,19,Pin_19*%
%TO.N,GPIO17*%
X162265000Y-129190000D03*
%TO.P,J3,20,Pin_20*%
%TO.N,GPIO16*%
X162265000Y-131730000D03*
%TD*%
D10*
%TO.P,J2,1,Pin_1*%
%TO.N,GPIO0*%
X144485000Y-83470000D03*
D11*
%TO.P,J2,2,Pin_2*%
%TO.N,GPIO1*%
X144485000Y-86010000D03*
%TO.P,J2,3,Pin_3*%
%TO.N,GND*%
X144485000Y-88550000D03*
%TO.P,J2,4,Pin_4*%
%TO.N,GPIO2*%
X144485000Y-91090000D03*
%TO.P,J2,5,Pin_5*%
%TO.N,GPIO3*%
X144485000Y-93630000D03*
%TO.P,J2,6,Pin_6*%
%TO.N,GPIO4*%
X144485000Y-96170000D03*
%TO.P,J2,7,Pin_7*%
%TO.N,GPIO5*%
X144485000Y-98710000D03*
%TO.P,J2,8,Pin_8*%
%TO.N,GND*%
X144485000Y-101250000D03*
%TO.P,J2,9,Pin_9*%
%TO.N,GPIO6*%
X144485000Y-103790000D03*
%TO.P,J2,10,Pin_10*%
%TO.N,GPIO7*%
X144485000Y-106330000D03*
%TO.P,J2,11,Pin_11*%
%TO.N,GPIO8*%
X144485000Y-108870000D03*
%TO.P,J2,12,Pin_12*%
%TO.N,GPIO9*%
X144485000Y-111410000D03*
%TO.P,J2,13,Pin_13*%
%TO.N,GND*%
X144485000Y-113950000D03*
%TO.P,J2,14,Pin_14*%
%TO.N,GPIO10*%
X144485000Y-116490000D03*
%TO.P,J2,15,Pin_15*%
%TO.N,GPIO11*%
X144485000Y-119030000D03*
%TO.P,J2,16,Pin_16*%
%TO.N,GPIO12*%
X144485000Y-121570000D03*
%TO.P,J2,17,Pin_17*%
%TO.N,GPIO13*%
X144485000Y-124110000D03*
%TO.P,J2,18,Pin_18*%
%TO.N,GND*%
X144485000Y-126650000D03*
%TO.P,J2,19,Pin_19*%
%TO.N,GPIO14*%
X144485000Y-129190000D03*
%TO.P,J2,20,Pin_20*%
%TO.N,GPIO15*%
X144485000Y-131730000D03*
%TD*%
D14*
%TO.N,GND*%
X156800000Y-84700000D03*
X146225000Y-94150000D03*
X155363561Y-112450000D03*
X151535000Y-117288527D03*
X158325000Y-105100000D03*
X150025000Y-107850000D03*
X155363561Y-111250000D03*
X153625000Y-101650000D03*
X148825000Y-106750000D03*
X157725000Y-116450000D03*
X160415000Y-112706441D03*
X157700000Y-103200000D03*
X153425000Y-109750000D03*
X148925000Y-96050000D03*
X146425000Y-96050000D03*
X151525000Y-109950000D03*
X152825000Y-93850000D03*
X156700000Y-89700000D03*
X148425000Y-117950000D03*
X156900000Y-104400000D03*
X153375000Y-111600000D03*
X159500000Y-83600000D03*
X150690446Y-101450000D03*
X152825000Y-95750000D03*
X154486736Y-102486736D03*
X148925000Y-94150000D03*
X152387649Y-114214932D03*
X149025000Y-100750000D03*
X148925000Y-95050000D03*
X163000000Y-115200000D03*
X146733008Y-112800000D03*
X152825000Y-94750000D03*
X161595000Y-115300000D03*
X149579265Y-104895735D03*
X155363561Y-110050000D03*
X151425000Y-111550000D03*
%TO.N,+3V3*%
X157885000Y-106153231D03*
X153775000Y-107364082D03*
X155645000Y-101550000D03*
X153999387Y-104782083D03*
%TO.N,+1V1*%
X154763561Y-109100000D03*
X152590002Y-103207591D03*
X156825000Y-116750000D03*
%TO.N,GPIO8*%
X150866075Y-114051021D03*
%TO.N,GPIO1*%
X147939263Y-109175734D03*
%TO.N,GPIO0*%
X148735053Y-109093738D03*
%TO.N,GPIO2*%
X147915000Y-110000000D03*
%TO.N,GPIO29_ADC3*%
X158373236Y-109193049D03*
%TO.N,SWCLK*%
X153823528Y-113699999D03*
%TO.N,GPIO28_ADC2*%
X159062000Y-109600000D03*
%TO.N,RUN*%
X155876180Y-113489257D03*
%TO.N,SWD*%
X154608101Y-113884572D03*
%TO.N,QSPI_SS*%
X150825000Y-98850000D03*
X155871726Y-98850000D03*
%TD*%
D15*
%TO.N,GND*%
X153625000Y-101650000D02*
X153650000Y-101650000D01*
X153650000Y-101650000D02*
X154486736Y-102486736D01*
%TO.N,+3V3*%
X155605000Y-104205000D02*
X157553231Y-106153231D01*
X155645000Y-101550000D02*
X155605000Y-101590000D01*
X155605000Y-101590000D02*
X155605000Y-104205000D01*
X153775000Y-105006470D02*
X153999387Y-104782083D01*
X157553231Y-106153231D02*
X157885000Y-106153231D01*
X153775000Y-107364082D02*
X153775000Y-105006470D01*
%TO.N,+1V1*%
X156825000Y-116750000D02*
X155275180Y-115200180D01*
X152675000Y-107200000D02*
X154725000Y-109250000D01*
X152590002Y-107115002D02*
X152675000Y-107200000D01*
X155275180Y-113350123D02*
X154763561Y-112838504D01*
X152675000Y-107200000D02*
X154575000Y-109100000D01*
X154763561Y-112838504D02*
X154763561Y-109100000D01*
X152590002Y-103207591D02*
X152590002Y-107115002D01*
X155275180Y-115200180D02*
X155275180Y-113350123D01*
X154875057Y-109250000D02*
X155000029Y-109125028D01*
X154575000Y-109100000D02*
X154763561Y-109100000D01*
X154725000Y-109250000D02*
X154875057Y-109250000D01*
%TO.N,GPIO8*%
X150866075Y-113344741D02*
X150518641Y-112997307D01*
X148612307Y-112997307D02*
X144485000Y-108870000D01*
X150866075Y-114051021D02*
X150866075Y-113344741D01*
X150518641Y-112997307D02*
X148612307Y-112997307D01*
%TO.N,GPIO1*%
X147625000Y-108861471D02*
X147625000Y-89150000D01*
X147939263Y-109175734D02*
X147625000Y-108861471D01*
X147625000Y-89150000D02*
X144485000Y-86010000D01*
%TO.N,GPIO0*%
X148026000Y-87011000D02*
X144485000Y-83470000D01*
X148735053Y-109093738D02*
X148026000Y-108384685D01*
X148026000Y-108384685D02*
X148026000Y-87011000D01*
%TO.N,GPIO2*%
X147224000Y-109309000D02*
X147224000Y-93829000D01*
X147224000Y-93829000D02*
X144485000Y-91090000D01*
X147915000Y-110000000D02*
X147224000Y-109309000D01*
%TO.N,GPIO29_ADC3*%
X158373236Y-109193049D02*
X158925000Y-108641285D01*
X158925000Y-108641285D02*
X158925000Y-89350000D01*
X158925000Y-89350000D02*
X162265000Y-86010000D01*
%TO.N,SWCLK*%
X150835000Y-116688527D02*
X150835000Y-131490000D01*
X153823528Y-113699999D02*
X150835000Y-116688527D01*
%TO.N,GPIO28_ADC2*%
X159062000Y-109600000D02*
X159325000Y-109337000D01*
X159325000Y-109337000D02*
X159325000Y-94030000D01*
X159325000Y-94030000D02*
X162265000Y-91090000D01*
%TO.N,RUN*%
X161015000Y-110120000D02*
X162265000Y-108870000D01*
X161015000Y-113270000D02*
X161015000Y-110120000D01*
X155876180Y-113489257D02*
X156296923Y-113910000D01*
X160645000Y-113640000D02*
X161015000Y-113270000D01*
X160635000Y-113640000D02*
X160645000Y-113640000D01*
X160365000Y-113910000D02*
X160635000Y-113640000D01*
X156296923Y-113910000D02*
X160365000Y-113910000D01*
%TO.N,SWD*%
X154775417Y-130350417D02*
X155915000Y-131490000D01*
X154775417Y-114051888D02*
X154775417Y-130350417D01*
X154608101Y-113884572D02*
X154775417Y-114051888D01*
%TO.N,QSPI_SS*%
X150825000Y-98850000D02*
X155871726Y-98850000D01*
%TD*%
%TA.AperFunction,Conductor*%
%TO.N,GND*%
G36*
X148361881Y-82620185D02*
G01*
X148407636Y-82672989D01*
X148417580Y-82742147D01*
X148397944Y-82793391D01*
X148346052Y-82871051D01*
X148346047Y-82871060D01*
X148285743Y-83016648D01*
X148285741Y-83016656D01*
X148255000Y-83171202D01*
X148255000Y-83300000D01*
X148755000Y-83300000D01*
X148755000Y-83800000D01*
X148255000Y-83800000D01*
X148255000Y-83928797D01*
X148285741Y-84083343D01*
X148285743Y-84083351D01*
X148346047Y-84228939D01*
X148346052Y-84228948D01*
X148433598Y-84359969D01*
X148433601Y-84359973D01*
X148545026Y-84471398D01*
X148545034Y-84471404D01*
X148676047Y-84558944D01*
X148676065Y-84558954D01*
X148804999Y-84612360D01*
X148805000Y-84612360D01*
X148805000Y-84016988D01*
X148814940Y-84034205D01*
X148870795Y-84090060D01*
X148939204Y-84129556D01*
X149015504Y-84150000D01*
X149094496Y-84150000D01*
X149170796Y-84129556D01*
X149239205Y-84090060D01*
X149295060Y-84034205D01*
X149305000Y-84016988D01*
X149305000Y-84612360D01*
X149433934Y-84558954D01*
X149433952Y-84558944D01*
X149564965Y-84471404D01*
X149564973Y-84471398D01*
X149676398Y-84359973D01*
X149676401Y-84359969D01*
X149763947Y-84228948D01*
X149763952Y-84228939D01*
X149824256Y-84083351D01*
X149824258Y-84083343D01*
X149854999Y-83928797D01*
X149855000Y-83928794D01*
X149855000Y-83800000D01*
X149355000Y-83800000D01*
X149355000Y-83300000D01*
X149855000Y-83300000D01*
X149855000Y-83171206D01*
X149854999Y-83171202D01*
X149824258Y-83016656D01*
X149824256Y-83016648D01*
X149763952Y-82871060D01*
X149763947Y-82871051D01*
X149712056Y-82793391D01*
X149691178Y-82726714D01*
X149709662Y-82659333D01*
X149761641Y-82612643D01*
X149815158Y-82600500D01*
X156934842Y-82600500D01*
X157001881Y-82620185D01*
X157047636Y-82672989D01*
X157057580Y-82742147D01*
X157037944Y-82793391D01*
X156986052Y-82871051D01*
X156986047Y-82871060D01*
X156925743Y-83016648D01*
X156925741Y-83016656D01*
X156895000Y-83171202D01*
X156895000Y-83300000D01*
X157395000Y-83300000D01*
X157395000Y-83800000D01*
X156895000Y-83800000D01*
X156895000Y-83928797D01*
X156925741Y-84083343D01*
X156925743Y-84083351D01*
X156986047Y-84228939D01*
X156986052Y-84228948D01*
X157073598Y-84359969D01*
X157073601Y-84359973D01*
X157185026Y-84471398D01*
X157185034Y-84471404D01*
X157316047Y-84558944D01*
X157316065Y-84558954D01*
X157444999Y-84612360D01*
X157445000Y-84612360D01*
X157445000Y-84016988D01*
X157454940Y-84034205D01*
X157510795Y-84090060D01*
X157579204Y-84129556D01*
X157655504Y-84150000D01*
X157734496Y-84150000D01*
X157810796Y-84129556D01*
X157879205Y-84090060D01*
X157935060Y-84034205D01*
X157945000Y-84016988D01*
X157945000Y-84612360D01*
X158073934Y-84558954D01*
X158073952Y-84558944D01*
X158204965Y-84471404D01*
X158204973Y-84471398D01*
X158316398Y-84359973D01*
X158316401Y-84359969D01*
X158403947Y-84228948D01*
X158403952Y-84228939D01*
X158464256Y-84083351D01*
X158464258Y-84083343D01*
X158494999Y-83928797D01*
X158495000Y-83928794D01*
X158495000Y-83800000D01*
X157995000Y-83800000D01*
X157995000Y-83300000D01*
X158495000Y-83300000D01*
X158495000Y-83171206D01*
X158494999Y-83171202D01*
X158464258Y-83016656D01*
X158464256Y-83016648D01*
X158403952Y-82871060D01*
X158403947Y-82871051D01*
X158352056Y-82793391D01*
X158331178Y-82726714D01*
X158349662Y-82659333D01*
X158401641Y-82612643D01*
X158455158Y-82600500D01*
X160990500Y-82600500D01*
X161057539Y-82620185D01*
X161103294Y-82672989D01*
X161114500Y-82724500D01*
X161114500Y-84364856D01*
X161114502Y-84364882D01*
X161117413Y-84389987D01*
X161117415Y-84389991D01*
X161162793Y-84492764D01*
X161162794Y-84492765D01*
X161242235Y-84572206D01*
X161345009Y-84617585D01*
X161370135Y-84620500D01*
X162107873Y-84620499D01*
X162174910Y-84640183D01*
X162220665Y-84692987D01*
X162230609Y-84762146D01*
X162201584Y-84825702D01*
X162142806Y-84863476D01*
X162127270Y-84866972D01*
X161995589Y-84887829D01*
X161823363Y-84943787D01*
X161823360Y-84943788D01*
X161662002Y-85026006D01*
X161515505Y-85132441D01*
X161515500Y-85132445D01*
X161387445Y-85260500D01*
X161387441Y-85260505D01*
X161281006Y-85407002D01*
X161198788Y-85568360D01*
X161198787Y-85568363D01*
X161142829Y-85740589D01*
X161114500Y-85919448D01*
X161114500Y-86100551D01*
X161142829Y-86279410D01*
X161189575Y-86423281D01*
X161191570Y-86493122D01*
X161159325Y-86549280D01*
X158604522Y-89104084D01*
X158604518Y-89104090D01*
X158551792Y-89195412D01*
X158551793Y-89195413D01*
X158524500Y-89297273D01*
X158524500Y-105644133D01*
X158504815Y-105711172D01*
X158452011Y-105756927D01*
X158382853Y-105766871D01*
X158319297Y-105737846D01*
X158312819Y-105731814D01*
X158253717Y-105672712D01*
X158253709Y-105672706D01*
X158116790Y-105593657D01*
X158116786Y-105593655D01*
X158116784Y-105593654D01*
X157964057Y-105552731D01*
X157805943Y-105552731D01*
X157648886Y-105594814D01*
X157579036Y-105593151D01*
X157529112Y-105562720D01*
X156041819Y-104075426D01*
X156008334Y-104014103D01*
X156005500Y-103987745D01*
X156005500Y-102090098D01*
X156025185Y-102023059D01*
X156041819Y-102002417D01*
X156060496Y-101983740D01*
X156125520Y-101918716D01*
X156204577Y-101781784D01*
X156245500Y-101629057D01*
X156245500Y-101470943D01*
X156204577Y-101318216D01*
X156203197Y-101315826D01*
X156125524Y-101181290D01*
X156125518Y-101181282D01*
X156013717Y-101069481D01*
X156013709Y-101069475D01*
X155876790Y-100990426D01*
X155876786Y-100990424D01*
X155876784Y-100990423D01*
X155724057Y-100949500D01*
X155565943Y-100949500D01*
X155413216Y-100990423D01*
X155413209Y-100990426D01*
X155276290Y-101069475D01*
X155276282Y-101069481D01*
X155164481Y-101181282D01*
X155164475Y-101181290D01*
X155085426Y-101318209D01*
X155085423Y-101318216D01*
X155044500Y-101470943D01*
X155044500Y-101629057D01*
X155061218Y-101691447D01*
X155085423Y-101781783D01*
X155085426Y-101781790D01*
X155164475Y-101918709D01*
X155164481Y-101918717D01*
X155168181Y-101922417D01*
X155201666Y-101983740D01*
X155204500Y-102010098D01*
X155204500Y-104257726D01*
X155231793Y-104359589D01*
X155251080Y-104392994D01*
X155284520Y-104450913D01*
X157232749Y-106399141D01*
X157232751Y-106399144D01*
X157307318Y-106473711D01*
X157376616Y-106513720D01*
X157396378Y-106525129D01*
X157405684Y-106530503D01*
X157404871Y-106531910D01*
X157433715Y-106551182D01*
X157516284Y-106633751D01*
X157516286Y-106633752D01*
X157516290Y-106633755D01*
X157653209Y-106712804D01*
X157653216Y-106712808D01*
X157805943Y-106753731D01*
X157805945Y-106753731D01*
X157964055Y-106753731D01*
X157964057Y-106753731D01*
X158116784Y-106712808D01*
X158253716Y-106633751D01*
X158312819Y-106574648D01*
X158374142Y-106541163D01*
X158443834Y-106546147D01*
X158499767Y-106588019D01*
X158524184Y-106653483D01*
X158524500Y-106662329D01*
X158524500Y-108424030D01*
X158515855Y-108453470D01*
X158509332Y-108483457D01*
X158505577Y-108488472D01*
X158504815Y-108491069D01*
X158488181Y-108511711D01*
X158443662Y-108556230D01*
X158382339Y-108589715D01*
X158355981Y-108592549D01*
X158294179Y-108592549D01*
X158141452Y-108633472D01*
X158141445Y-108633475D01*
X158004526Y-108712524D01*
X158004518Y-108712530D01*
X157892717Y-108824331D01*
X157892711Y-108824339D01*
X157813662Y-108961258D01*
X157813659Y-108961265D01*
X157772736Y-109113992D01*
X157772736Y-109272106D01*
X157804253Y-109389727D01*
X157813659Y-109424832D01*
X157813662Y-109424839D01*
X157892711Y-109561758D01*
X157892715Y-109561763D01*
X157892716Y-109561765D01*
X158004520Y-109673569D01*
X158004522Y-109673570D01*
X158004526Y-109673573D01*
X158132665Y-109747553D01*
X158141452Y-109752626D01*
X158294179Y-109793549D01*
X158294181Y-109793549D01*
X158408756Y-109793549D01*
X158475795Y-109813234D01*
X158516143Y-109855549D01*
X158581477Y-109968712D01*
X158581479Y-109968715D01*
X158581480Y-109968716D01*
X158693284Y-110080520D01*
X158693286Y-110080521D01*
X158693290Y-110080524D01*
X158738747Y-110106768D01*
X158830216Y-110159577D01*
X158982943Y-110200500D01*
X158982945Y-110200500D01*
X159141055Y-110200500D01*
X159141057Y-110200500D01*
X159293784Y-110159577D01*
X159430716Y-110080520D01*
X159542520Y-109968716D01*
X159621577Y-109831784D01*
X159662500Y-109679057D01*
X159662500Y-109586660D01*
X159679113Y-109524659D01*
X159698207Y-109491588D01*
X159725500Y-109389727D01*
X159725500Y-109284273D01*
X159725500Y-94247254D01*
X159745185Y-94180215D01*
X159761814Y-94159578D01*
X161725719Y-92195672D01*
X161787040Y-92162189D01*
X161851716Y-92165424D01*
X161995591Y-92212171D01*
X162068639Y-92223740D01*
X162155678Y-92237527D01*
X162218813Y-92267456D01*
X162255744Y-92326768D01*
X162254746Y-92396631D01*
X162216136Y-92454863D01*
X162155678Y-92482473D01*
X161995589Y-92507829D01*
X161823363Y-92563787D01*
X161823360Y-92563788D01*
X161662003Y-92646005D01*
X161530750Y-92741364D01*
X161530740Y-92741373D01*
X161515499Y-92752447D01*
X161387447Y-92880499D01*
X161376373Y-92895740D01*
X161376364Y-92895750D01*
X161281005Y-93027003D01*
X161198788Y-93188360D01*
X161198787Y-93188363D01*
X161142829Y-93360589D01*
X161114500Y-93539448D01*
X161114500Y-93720551D01*
X161142829Y-93899410D01*
X161198787Y-94071636D01*
X161198788Y-94071639D01*
X161281006Y-94232997D01*
X161387441Y-94379494D01*
X161387445Y-94379499D01*
X161515500Y-94507554D01*
X161515505Y-94507558D01*
X161643287Y-94600396D01*
X161662006Y-94613996D01*
X161767484Y-94667740D01*
X161823360Y-94696211D01*
X161823363Y-94696212D01*
X161909476Y-94724191D01*
X161995591Y-94752171D01*
X162068639Y-94763740D01*
X162155678Y-94777527D01*
X162218813Y-94807456D01*
X162255744Y-94866768D01*
X162254746Y-94936631D01*
X162216136Y-94994863D01*
X162155678Y-95022473D01*
X161995589Y-95047829D01*
X161823363Y-95103787D01*
X161823360Y-95103788D01*
X161662002Y-95186006D01*
X161515505Y-95292441D01*
X161515500Y-95292445D01*
X161387445Y-95420500D01*
X161387441Y-95420505D01*
X161281006Y-95567002D01*
X161198788Y-95728360D01*
X161198787Y-95728363D01*
X161142829Y-95900589D01*
X161114500Y-96079448D01*
X161114500Y-96260551D01*
X161142829Y-96439410D01*
X161198787Y-96611636D01*
X161198788Y-96611639D01*
X161281006Y-96772997D01*
X161387441Y-96919494D01*
X161387445Y-96919499D01*
X161515500Y-97047554D01*
X161515505Y-97047558D01*
X161643287Y-97140396D01*
X161662006Y-97153996D01*
X161767484Y-97207740D01*
X161823360Y-97236211D01*
X161823363Y-97236212D01*
X161909476Y-97264191D01*
X161995591Y-97292171D01*
X162068639Y-97303740D01*
X162155678Y-97317527D01*
X162218813Y-97347456D01*
X162255744Y-97406768D01*
X162254746Y-97476631D01*
X162216136Y-97534863D01*
X162155678Y-97562473D01*
X161995589Y-97587829D01*
X161823363Y-97643787D01*
X161823360Y-97643788D01*
X161662002Y-97726006D01*
X161515505Y-97832441D01*
X161515500Y-97832445D01*
X161387445Y-97960500D01*
X161387441Y-97960505D01*
X161281006Y-98107002D01*
X161198788Y-98268360D01*
X161198787Y-98268363D01*
X161142829Y-98440589D01*
X161114500Y-98619448D01*
X161114500Y-98800551D01*
X161142829Y-98979410D01*
X161198787Y-99151636D01*
X161198788Y-99151639D01*
X161281006Y-99312997D01*
X161387441Y-99459494D01*
X161387445Y-99459499D01*
X161515500Y-99587554D01*
X161515505Y-99587558D01*
X161643287Y-99680396D01*
X161662006Y-99693996D01*
X161767484Y-99747740D01*
X161823360Y-99776211D01*
X161823363Y-99776212D01*
X161909476Y-99804191D01*
X161995591Y-99832171D01*
X162115038Y-99851089D01*
X162157279Y-99857780D01*
X162220414Y-99887709D01*
X162257345Y-99947021D01*
X162256347Y-100016883D01*
X162217737Y-100075116D01*
X162157279Y-100102726D01*
X161995706Y-100128317D01*
X161823555Y-100184251D01*
X161823547Y-100184254D01*
X161662269Y-100266432D01*
X161646466Y-100277912D01*
X161646466Y-100277913D01*
X162135591Y-100767037D01*
X162072007Y-100784075D01*
X161957993Y-100849901D01*
X161864901Y-100942993D01*
X161799075Y-101057007D01*
X161782037Y-101120590D01*
X161292913Y-100631466D01*
X161292912Y-100631466D01*
X161281432Y-100647269D01*
X161199254Y-100808547D01*
X161199251Y-100808555D01*
X161143317Y-100980706D01*
X161115000Y-101159493D01*
X161115000Y-101340506D01*
X161143317Y-101519293D01*
X161199251Y-101691444D01*
X161199252Y-101691447D01*
X161281431Y-101852730D01*
X161292913Y-101868532D01*
X161292913Y-101868533D01*
X161782037Y-101379409D01*
X161799075Y-101442993D01*
X161864901Y-101557007D01*
X161957993Y-101650099D01*
X162072007Y-101715925D01*
X162135590Y-101732962D01*
X161646466Y-102222085D01*
X161646466Y-102222086D01*
X161662267Y-102233566D01*
X161662275Y-102233571D01*
X161823552Y-102315747D01*
X161823555Y-102315748D01*
X161995706Y-102371682D01*
X162157279Y-102397273D01*
X162220413Y-102427202D01*
X162257345Y-102486513D01*
X162256347Y-102556376D01*
X162217738Y-102614609D01*
X162157280Y-102642219D01*
X161995589Y-102667829D01*
X161823363Y-102723787D01*
X161823360Y-102723788D01*
X161662002Y-102806006D01*
X161515505Y-102912441D01*
X161515500Y-102912445D01*
X161387445Y-103040500D01*
X161387441Y-103040505D01*
X161281006Y-103187002D01*
X161198788Y-103348360D01*
X161198787Y-103348363D01*
X161142829Y-103520589D01*
X161114500Y-103699448D01*
X161114500Y-103880551D01*
X161142829Y-104059410D01*
X161198787Y-104231636D01*
X161198788Y-104231639D01*
X161281006Y-104392997D01*
X161387441Y-104539494D01*
X161387445Y-104539499D01*
X161515500Y-104667554D01*
X161515505Y-104667558D01*
X161564326Y-104703028D01*
X161662006Y-104773996D01*
X161767484Y-104827740D01*
X161823360Y-104856211D01*
X161823363Y-104856212D01*
X161909476Y-104884191D01*
X161995591Y-104912171D01*
X162068639Y-104923740D01*
X162155678Y-104937527D01*
X162218813Y-104967456D01*
X162255744Y-105026768D01*
X162254746Y-105096631D01*
X162216136Y-105154863D01*
X162155678Y-105182473D01*
X161995589Y-105207829D01*
X161823363Y-105263787D01*
X161823360Y-105263788D01*
X161662002Y-105346006D01*
X161515505Y-105452441D01*
X161515500Y-105452445D01*
X161387445Y-105580500D01*
X161387441Y-105580505D01*
X161281006Y-105727002D01*
X161198788Y-105888360D01*
X161198787Y-105888363D01*
X161142829Y-106060589D01*
X161114500Y-106239448D01*
X161114500Y-106420551D01*
X161142829Y-106599410D01*
X161198787Y-106771636D01*
X161198788Y-106771639D01*
X161281006Y-106932997D01*
X161387441Y-107079494D01*
X161387445Y-107079499D01*
X161515500Y-107207554D01*
X161515505Y-107207558D01*
X161622133Y-107285027D01*
X161662006Y-107313996D01*
X161754087Y-107360914D01*
X161823360Y-107396211D01*
X161823363Y-107396212D01*
X161909476Y-107424191D01*
X161995591Y-107452171D01*
X162068639Y-107463740D01*
X162155678Y-107477527D01*
X162218813Y-107507456D01*
X162255744Y-107566768D01*
X162254746Y-107636631D01*
X162216136Y-107694863D01*
X162155678Y-107722473D01*
X161995589Y-107747829D01*
X161823363Y-107803787D01*
X161823360Y-107803788D01*
X161662002Y-107886006D01*
X161515505Y-107992441D01*
X161515500Y-107992445D01*
X161387445Y-108120500D01*
X161387441Y-108120505D01*
X161281006Y-108267002D01*
X161198788Y-108428360D01*
X161198787Y-108428363D01*
X161142829Y-108600589D01*
X161114500Y-108779448D01*
X161114500Y-108960551D01*
X161142829Y-109139412D01*
X161189575Y-109283283D01*
X161191570Y-109353124D01*
X161159325Y-109409281D01*
X160694522Y-109874084D01*
X160694520Y-109874087D01*
X160641793Y-109965410D01*
X160627220Y-110019800D01*
X160614500Y-110067269D01*
X160614500Y-113052744D01*
X160605855Y-113082184D01*
X160599332Y-113112171D01*
X160595577Y-113117186D01*
X160594815Y-113119783D01*
X160578181Y-113140425D01*
X160499132Y-113219474D01*
X160424289Y-113294317D01*
X160398612Y-113314020D01*
X160389085Y-113319520D01*
X160235425Y-113473181D01*
X160174102Y-113506666D01*
X160147744Y-113509500D01*
X156598436Y-113509500D01*
X156531397Y-113489815D01*
X156485642Y-113437011D01*
X156478661Y-113417594D01*
X156475675Y-113406451D01*
X156435757Y-113257473D01*
X156413822Y-113219480D01*
X156356704Y-113120547D01*
X156356698Y-113120539D01*
X156244897Y-113008738D01*
X156244889Y-113008732D01*
X156107970Y-112929683D01*
X156107966Y-112929681D01*
X156107964Y-112929680D01*
X155955237Y-112888757D01*
X155797123Y-112888757D01*
X155644396Y-112929680D01*
X155644391Y-112929682D01*
X155585249Y-112963827D01*
X155517349Y-112980298D01*
X155451322Y-112957445D01*
X155435570Y-112944120D01*
X155200380Y-112708930D01*
X155166895Y-112647607D01*
X155164061Y-112621249D01*
X155164061Y-109600098D01*
X155170823Y-109577066D01*
X155173278Y-109553184D01*
X155181442Y-109540902D01*
X155183746Y-109533059D01*
X155191145Y-109522746D01*
X155195470Y-109517326D01*
X155244081Y-109468716D01*
X155269738Y-109424274D01*
X155275549Y-109416994D01*
X155278384Y-109415005D01*
X155284785Y-109406664D01*
X155320509Y-109370941D01*
X155373236Y-109279616D01*
X155400529Y-109177755D01*
X155400529Y-109072301D01*
X155373236Y-108970440D01*
X155339024Y-108911184D01*
X155326638Y-108881280D01*
X155323138Y-108868216D01*
X155297806Y-108824339D01*
X155244085Y-108731290D01*
X155244079Y-108731282D01*
X155132278Y-108619481D01*
X155132270Y-108619475D01*
X154995351Y-108540426D01*
X154995347Y-108540424D01*
X154995345Y-108540423D01*
X154842618Y-108499500D01*
X154684504Y-108499500D01*
X154684499Y-108499500D01*
X154640390Y-108511319D01*
X154570540Y-108509655D01*
X154520618Y-108479225D01*
X154094595Y-108053202D01*
X154061110Y-107991879D01*
X154066094Y-107922187D01*
X154107966Y-107866254D01*
X154120272Y-107858137D01*
X154143716Y-107844602D01*
X154255520Y-107732798D01*
X154334577Y-107595866D01*
X154375500Y-107443139D01*
X154375500Y-107285025D01*
X154334577Y-107132298D01*
X154323895Y-107113796D01*
X154255524Y-106995372D01*
X154255518Y-106995364D01*
X154211819Y-106951665D01*
X154178334Y-106890342D01*
X154175500Y-106863984D01*
X154175500Y-105445393D01*
X154195185Y-105378354D01*
X154237499Y-105338006D01*
X154368103Y-105262603D01*
X154479907Y-105150799D01*
X154558964Y-105013867D01*
X154599887Y-104861140D01*
X154599887Y-104703026D01*
X154558964Y-104550299D01*
X154550043Y-104534847D01*
X154479911Y-104413373D01*
X154479905Y-104413365D01*
X154368104Y-104301564D01*
X154368096Y-104301558D01*
X154231177Y-104222509D01*
X154231173Y-104222507D01*
X154231171Y-104222506D01*
X154078444Y-104181583D01*
X153920330Y-104181583D01*
X153767603Y-104222506D01*
X153767596Y-104222509D01*
X153630677Y-104301558D01*
X153630669Y-104301564D01*
X153518868Y-104413365D01*
X153518862Y-104413373D01*
X153439813Y-104550292D01*
X153439810Y-104550299D01*
X153398887Y-104703026D01*
X153398887Y-104846398D01*
X153394663Y-104878486D01*
X153385640Y-104912166D01*
X153385639Y-104912170D01*
X153374500Y-104953741D01*
X153374500Y-106863984D01*
X153367423Y-106888083D01*
X153364394Y-106913016D01*
X153356825Y-106924174D01*
X153354815Y-106931023D01*
X153345967Y-106943117D01*
X153342275Y-106947570D01*
X153294480Y-106995366D01*
X153275712Y-107027872D01*
X153269027Y-107035938D01*
X153248392Y-107049845D01*
X153230380Y-107067021D01*
X153219919Y-107069036D01*
X153211089Y-107074989D01*
X153186209Y-107075533D01*
X153161773Y-107080243D01*
X153151886Y-107076284D01*
X153141236Y-107076518D01*
X153120009Y-107063523D01*
X153096908Y-107054275D01*
X153085879Y-107044486D01*
X153026821Y-106985428D01*
X152993336Y-106924105D01*
X152990502Y-106897747D01*
X152990502Y-103707689D01*
X153010187Y-103640650D01*
X153026821Y-103620008D01*
X153070522Y-103576307D01*
X153149579Y-103439375D01*
X153190502Y-103286648D01*
X153190502Y-103128534D01*
X153149579Y-102975807D01*
X153149575Y-102975800D01*
X153070526Y-102838881D01*
X153070520Y-102838873D01*
X152958719Y-102727072D01*
X152958711Y-102727066D01*
X152821792Y-102648017D01*
X152821788Y-102648015D01*
X152821786Y-102648014D01*
X152669059Y-102607091D01*
X152510945Y-102607091D01*
X152358218Y-102648014D01*
X152358211Y-102648017D01*
X152221292Y-102727066D01*
X152221284Y-102727072D01*
X152109483Y-102838873D01*
X152109477Y-102838881D01*
X152030428Y-102975800D01*
X152030425Y-102975807D01*
X151989502Y-103128534D01*
X151989502Y-103286648D01*
X152006039Y-103348363D01*
X152030425Y-103439374D01*
X152030428Y-103439381D01*
X152109477Y-103576300D01*
X152109483Y-103576308D01*
X152153183Y-103620008D01*
X152186668Y-103681331D01*
X152189502Y-103707689D01*
X152189502Y-107167728D01*
X152216795Y-107269591D01*
X152242431Y-107313993D01*
X152269522Y-107360915D01*
X152269524Y-107360917D01*
X154167163Y-109258556D01*
X154199256Y-109314140D01*
X154203983Y-109331782D01*
X154203987Y-109331790D01*
X154283036Y-109468709D01*
X154283042Y-109468717D01*
X154326742Y-109512417D01*
X154360227Y-109573740D01*
X154363061Y-109600098D01*
X154363061Y-112891230D01*
X154390354Y-112993093D01*
X154401487Y-113012375D01*
X154443081Y-113084417D01*
X154443083Y-113084419D01*
X154466842Y-113108178D01*
X154469751Y-113113507D01*
X154474781Y-113116911D01*
X154486301Y-113143815D01*
X154500327Y-113169501D01*
X154499893Y-113175558D01*
X154502284Y-113181140D01*
X154497430Y-113209999D01*
X154495343Y-113239193D01*
X154491703Y-113244054D01*
X154490697Y-113250042D01*
X154471009Y-113271697D01*
X154453471Y-113295126D01*
X154446736Y-113298397D01*
X154443697Y-113301741D01*
X154411253Y-113315634D01*
X154383511Y-113323067D01*
X154313661Y-113321403D01*
X154263738Y-113290973D01*
X154192245Y-113219480D01*
X154192237Y-113219474D01*
X154055318Y-113140425D01*
X154055314Y-113140423D01*
X154055312Y-113140422D01*
X153902585Y-113099499D01*
X153744471Y-113099499D01*
X153591744Y-113140422D01*
X153591737Y-113140425D01*
X153454818Y-113219474D01*
X153454810Y-113219480D01*
X153343009Y-113331281D01*
X153343003Y-113331289D01*
X153263954Y-113468208D01*
X153263951Y-113468215D01*
X153223028Y-113620942D01*
X153223028Y-113682744D01*
X153203343Y-113749783D01*
X153186709Y-113770425D01*
X150514522Y-116442611D01*
X150514520Y-116442614D01*
X150461793Y-116533939D01*
X150449305Y-116580546D01*
X150449305Y-116580547D01*
X150449304Y-116580546D01*
X150434500Y-116635798D01*
X150434500Y-130215500D01*
X150414815Y-130282539D01*
X150362011Y-130328294D01*
X150310500Y-130339500D01*
X149940143Y-130339500D01*
X149940117Y-130339502D01*
X149915012Y-130342413D01*
X149915008Y-130342415D01*
X149812235Y-130387793D01*
X149732794Y-130467234D01*
X149687415Y-130570006D01*
X149687415Y-130570008D01*
X149684500Y-130595131D01*
X149684500Y-132384856D01*
X149684502Y-132384882D01*
X149687413Y-132409986D01*
X149687414Y-132409990D01*
X149687415Y-132409991D01*
X149694225Y-132425414D01*
X149703297Y-132494690D01*
X149673475Y-132557876D01*
X149614226Y-132594907D01*
X149580791Y-132599500D01*
X145518733Y-132599500D01*
X145451694Y-132579815D01*
X145405939Y-132527011D01*
X145395995Y-132457853D01*
X145418414Y-132402615D01*
X145443887Y-132367554D01*
X145468996Y-132332994D01*
X145551211Y-132171639D01*
X145607171Y-131999409D01*
X145624484Y-131890099D01*
X145635500Y-131820551D01*
X145635500Y-131639448D01*
X145611829Y-131490001D01*
X145607171Y-131460591D01*
X145566713Y-131336073D01*
X145551212Y-131288363D01*
X145551211Y-131288360D01*
X145497523Y-131182993D01*
X145468996Y-131127006D01*
X145442038Y-131089901D01*
X145362558Y-130980505D01*
X145362554Y-130980500D01*
X145234499Y-130852445D01*
X145234494Y-130852441D01*
X145087997Y-130746006D01*
X145087996Y-130746005D01*
X145087994Y-130746004D01*
X145036300Y-130719664D01*
X144926639Y-130663788D01*
X144926636Y-130663787D01*
X144754410Y-130607829D01*
X144594321Y-130582473D01*
X144531186Y-130552544D01*
X144494255Y-130493232D01*
X144495253Y-130423370D01*
X144533863Y-130365137D01*
X144594321Y-130337527D01*
X144664425Y-130326422D01*
X144754409Y-130312171D01*
X144926639Y-130256211D01*
X145087994Y-130173996D01*
X145234501Y-130067553D01*
X145362553Y-129939501D01*
X145468996Y-129792994D01*
X145551211Y-129631639D01*
X145607171Y-129459409D01*
X145621765Y-129367259D01*
X145635500Y-129280551D01*
X145635500Y-129099448D01*
X145619019Y-128995397D01*
X145607171Y-128920591D01*
X145551211Y-128748361D01*
X145551211Y-128748360D01*
X145522740Y-128692484D01*
X145468996Y-128587006D01*
X145406401Y-128500851D01*
X145362558Y-128440505D01*
X145362554Y-128440500D01*
X145234499Y-128312445D01*
X145234494Y-128312441D01*
X145087997Y-128206006D01*
X145087996Y-128206005D01*
X145087994Y-128206004D01*
X145036300Y-128179664D01*
X144926639Y-128123788D01*
X144926636Y-128123787D01*
X144754410Y-128067828D01*
X144592720Y-128042219D01*
X144529585Y-128012289D01*
X144492654Y-127952978D01*
X144493652Y-127883115D01*
X144532262Y-127824883D01*
X144592721Y-127797273D01*
X144754292Y-127771683D01*
X144926444Y-127715748D01*
X144926452Y-127715745D01*
X145087730Y-127633568D01*
X145103532Y-127622085D01*
X145103533Y-127622085D01*
X144614410Y-127132962D01*
X144677993Y-127115925D01*
X144792007Y-127050099D01*
X144885099Y-126957007D01*
X144950925Y-126842993D01*
X144967962Y-126779409D01*
X145457085Y-127268532D01*
X145468568Y-127252730D01*
X145550745Y-127091452D01*
X145550748Y-127091444D01*
X145606682Y-126919293D01*
X145635000Y-126740506D01*
X145635000Y-126559493D01*
X145606682Y-126380706D01*
X145550748Y-126208555D01*
X145550747Y-126208552D01*
X145468571Y-126047275D01*
X145468566Y-126047267D01*
X145457085Y-126031466D01*
X144967962Y-126520589D01*
X144950925Y-126457007D01*
X144885099Y-126342993D01*
X144792007Y-126249901D01*
X144677993Y-126184075D01*
X144614409Y-126167037D01*
X145103533Y-125677913D01*
X145087730Y-125666431D01*
X144926447Y-125584252D01*
X144926444Y-125584251D01*
X144754293Y-125528317D01*
X144592720Y-125502726D01*
X144529585Y-125472797D01*
X144492654Y-125413485D01*
X144493652Y-125343623D01*
X144532262Y-125285390D01*
X144592720Y-125257780D01*
X144607270Y-125255475D01*
X144754409Y-125232171D01*
X144926639Y-125176211D01*
X145087994Y-125093996D01*
X145234501Y-124987553D01*
X145362553Y-124859501D01*
X145468996Y-124712994D01*
X145551211Y-124551639D01*
X145607171Y-124379409D01*
X145621765Y-124287259D01*
X145635500Y-124200551D01*
X145635500Y-124019448D01*
X145619019Y-123915397D01*
X145607171Y-123840591D01*
X145551211Y-123668361D01*
X145551211Y-123668360D01*
X145522740Y-123612484D01*
X145468996Y-123507006D01*
X145406401Y-123420851D01*
X145362558Y-123360505D01*
X145362554Y-123360500D01*
X145234499Y-123232445D01*
X145234494Y-123232441D01*
X145087997Y-123126006D01*
X145087996Y-123126005D01*
X145087994Y-123126004D01*
X145036300Y-123099664D01*
X144926639Y-123043788D01*
X144926636Y-123043787D01*
X144754410Y-122987829D01*
X144594321Y-122962473D01*
X144531186Y-122932544D01*
X144494255Y-122873232D01*
X144495253Y-122803370D01*
X144533863Y-122745137D01*
X144594321Y-122717527D01*
X144664425Y-122706422D01*
X144754409Y-122692171D01*
X144926639Y-122636211D01*
X145087994Y-122553996D01*
X145234501Y-122447553D01*
X145362553Y-122319501D01*
X145468996Y-122172994D01*
X145551211Y-122011639D01*
X145607171Y-121839409D01*
X145621765Y-121747259D01*
X145635500Y-121660551D01*
X145635500Y-121479448D01*
X145619019Y-121375397D01*
X145607171Y-121300591D01*
X145551211Y-121128361D01*
X145551211Y-121128360D01*
X145522740Y-121072484D01*
X145468996Y-120967006D01*
X145406401Y-120880851D01*
X145362558Y-120820505D01*
X145362554Y-120820500D01*
X145234499Y-120692445D01*
X145234494Y-120692441D01*
X145087997Y-120586006D01*
X145087996Y-120586005D01*
X145087994Y-120586004D01*
X145036300Y-120559664D01*
X144926639Y-120503788D01*
X144926636Y-120503787D01*
X144754410Y-120447829D01*
X144594321Y-120422473D01*
X144531186Y-120392544D01*
X144494255Y-120333232D01*
X144495253Y-120263370D01*
X144533863Y-120205137D01*
X144594321Y-120177527D01*
X144664425Y-120166422D01*
X144754409Y-120152171D01*
X144926639Y-120096211D01*
X145087994Y-120013996D01*
X145234501Y-119907553D01*
X145362553Y-119779501D01*
X145468996Y-119632994D01*
X145551211Y-119471639D01*
X145607171Y-119299409D01*
X145621765Y-119207259D01*
X145635500Y-119120551D01*
X145635500Y-118939448D01*
X145619019Y-118835397D01*
X145607171Y-118760591D01*
X145551211Y-118588361D01*
X145551211Y-118588360D01*
X145522740Y-118532484D01*
X145468996Y-118427006D01*
X145406401Y-118340851D01*
X145362558Y-118280505D01*
X145362554Y-118280500D01*
X145234499Y-118152445D01*
X145234494Y-118152441D01*
X145087997Y-118046006D01*
X145087996Y-118046005D01*
X145087994Y-118046004D01*
X145036300Y-118019664D01*
X144926639Y-117963788D01*
X144926636Y-117963787D01*
X144754410Y-117907829D01*
X144594321Y-117882473D01*
X144531186Y-117852544D01*
X144494255Y-117793232D01*
X144495253Y-117723370D01*
X144533863Y-117665137D01*
X144594321Y-117637527D01*
X144664425Y-117626422D01*
X144754409Y-117612171D01*
X144926639Y-117556211D01*
X145087994Y-117473996D01*
X145234501Y-117367553D01*
X145362553Y-117239501D01*
X145468996Y-117092994D01*
X145551211Y-116931639D01*
X145607171Y-116759409D01*
X145635500Y-116580546D01*
X145635500Y-116399454D01*
X145635500Y-116399448D01*
X145614913Y-116269475D01*
X145607171Y-116220591D01*
X145551211Y-116048361D01*
X145551211Y-116048360D01*
X145509588Y-115966672D01*
X145468996Y-115887006D01*
X145406401Y-115800851D01*
X145362558Y-115740505D01*
X145362554Y-115740500D01*
X145234499Y-115612445D01*
X145234494Y-115612441D01*
X145087997Y-115506006D01*
X145087996Y-115506005D01*
X145087994Y-115506004D01*
X145036300Y-115479664D01*
X144926639Y-115423788D01*
X144926636Y-115423787D01*
X144754410Y-115367828D01*
X144592720Y-115342219D01*
X144529585Y-115312289D01*
X144492654Y-115252978D01*
X144493652Y-115183115D01*
X144532262Y-115124883D01*
X144592721Y-115097273D01*
X144754292Y-115071683D01*
X144926444Y-115015748D01*
X144926452Y-115015745D01*
X145087730Y-114933568D01*
X145103532Y-114922085D01*
X145103533Y-114922085D01*
X144614410Y-114432962D01*
X144677993Y-114415925D01*
X144792007Y-114350099D01*
X144885099Y-114257007D01*
X144950925Y-114142993D01*
X144967962Y-114079409D01*
X145457085Y-114568532D01*
X145468568Y-114552730D01*
X145550745Y-114391452D01*
X145550748Y-114391444D01*
X145606682Y-114219293D01*
X145635000Y-114040506D01*
X145635000Y-113859493D01*
X145606682Y-113680706D01*
X145550748Y-113508555D01*
X145550747Y-113508552D01*
X145468571Y-113347275D01*
X145468566Y-113347267D01*
X145457085Y-113331466D01*
X144967962Y-113820589D01*
X144950925Y-113757007D01*
X144885099Y-113642993D01*
X144792007Y-113549901D01*
X144677993Y-113484075D01*
X144614409Y-113467037D01*
X145103533Y-112977913D01*
X145087730Y-112966431D01*
X144926447Y-112884252D01*
X144926444Y-112884251D01*
X144754293Y-112828317D01*
X144592720Y-112802726D01*
X144529585Y-112772797D01*
X144492654Y-112713485D01*
X144493652Y-112643623D01*
X144532262Y-112585390D01*
X144592720Y-112557780D01*
X144607270Y-112555475D01*
X144754409Y-112532171D01*
X144926639Y-112476211D01*
X145087994Y-112393996D01*
X145234501Y-112287553D01*
X145362553Y-112159501D01*
X145468996Y-112012994D01*
X145551211Y-111851639D01*
X145607171Y-111679409D01*
X145621765Y-111587259D01*
X145635500Y-111500551D01*
X145635500Y-111319448D01*
X145619019Y-111215397D01*
X145607171Y-111140591D01*
X145551211Y-110968361D01*
X145551211Y-110968360D01*
X145522740Y-110912484D01*
X145468996Y-110807006D01*
X145406401Y-110720851D01*
X145373637Y-110675754D01*
X145373634Y-110675751D01*
X145362553Y-110660499D01*
X145234501Y-110532447D01*
X145219248Y-110521365D01*
X145219244Y-110521361D01*
X145087997Y-110426006D01*
X145087996Y-110426005D01*
X145087994Y-110426004D01*
X145036300Y-110399664D01*
X144926639Y-110343788D01*
X144926636Y-110343787D01*
X144754410Y-110287829D01*
X144594321Y-110262473D01*
X144531186Y-110232544D01*
X144494255Y-110173232D01*
X144495253Y-110103370D01*
X144533863Y-110045137D01*
X144594321Y-110017527D01*
X144754409Y-109992171D01*
X144805182Y-109975674D01*
X144898284Y-109945423D01*
X144968123Y-109943429D01*
X145024281Y-109975674D01*
X145555900Y-110507293D01*
X148287486Y-113238878D01*
X148287496Y-113238889D01*
X148291826Y-113243219D01*
X148291827Y-113243220D01*
X148366394Y-113317787D01*
X148457720Y-113370514D01*
X148559580Y-113397808D01*
X148559582Y-113397808D01*
X148672630Y-113397808D01*
X148672646Y-113397807D01*
X150301386Y-113397807D01*
X150330826Y-113406451D01*
X150360813Y-113412975D01*
X150365828Y-113416729D01*
X150368425Y-113417492D01*
X150389067Y-113434126D01*
X150423719Y-113468778D01*
X150457204Y-113530101D01*
X150452220Y-113599793D01*
X150423720Y-113644139D01*
X150385556Y-113682303D01*
X150385550Y-113682311D01*
X150306501Y-113819230D01*
X150306498Y-113819237D01*
X150265575Y-113971964D01*
X150265575Y-114130078D01*
X150300819Y-114261608D01*
X150306498Y-114282804D01*
X150306501Y-114282811D01*
X150385550Y-114419730D01*
X150385554Y-114419735D01*
X150385555Y-114419737D01*
X150497359Y-114531541D01*
X150497361Y-114531542D01*
X150497365Y-114531545D01*
X150579677Y-114579067D01*
X150634291Y-114610598D01*
X150787018Y-114651521D01*
X150787020Y-114651521D01*
X150945130Y-114651521D01*
X150945132Y-114651521D01*
X151097859Y-114610598D01*
X151234791Y-114531541D01*
X151346595Y-114419737D01*
X151425652Y-114282805D01*
X151466575Y-114130078D01*
X151466575Y-113971964D01*
X151425652Y-113819237D01*
X151376502Y-113734106D01*
X151346599Y-113682311D01*
X151346593Y-113682303D01*
X151302894Y-113638604D01*
X151269409Y-113577281D01*
X151266575Y-113550923D01*
X151266575Y-113292016D01*
X151266575Y-113292014D01*
X151264447Y-113284072D01*
X151239282Y-113190153D01*
X151186555Y-113098828D01*
X150764554Y-112676827D01*
X150707044Y-112643623D01*
X150673230Y-112624100D01*
X150622298Y-112610453D01*
X150571368Y-112596807D01*
X150571367Y-112596807D01*
X148829561Y-112596807D01*
X148762522Y-112577122D01*
X148741880Y-112560488D01*
X145590674Y-109409281D01*
X145557189Y-109347958D01*
X145560424Y-109283283D01*
X145607171Y-109139409D01*
X145626926Y-109014681D01*
X145635500Y-108960551D01*
X145635500Y-108779448D01*
X145612379Y-108633475D01*
X145607171Y-108600591D01*
X145574325Y-108499500D01*
X145551212Y-108428363D01*
X145551211Y-108428360D01*
X145522740Y-108372484D01*
X145468996Y-108267006D01*
X145433967Y-108218792D01*
X145362558Y-108120505D01*
X145362554Y-108120500D01*
X145234499Y-107992445D01*
X145234494Y-107992441D01*
X145087997Y-107886006D01*
X145087996Y-107886005D01*
X145087994Y-107886004D01*
X145036300Y-107859664D01*
X144926639Y-107803788D01*
X144926636Y-107803787D01*
X144754410Y-107747829D01*
X144594321Y-107722473D01*
X144531186Y-107692544D01*
X144494255Y-107633232D01*
X144495253Y-107563370D01*
X144533863Y-107505137D01*
X144594321Y-107477527D01*
X144664425Y-107466422D01*
X144754409Y-107452171D01*
X144926639Y-107396211D01*
X145087994Y-107313996D01*
X145234501Y-107207553D01*
X145362553Y-107079501D01*
X145468996Y-106932994D01*
X145551211Y-106771639D01*
X145607171Y-106599409D01*
X145627080Y-106473711D01*
X145635500Y-106420551D01*
X145635500Y-106239448D01*
X145609322Y-106074174D01*
X145607171Y-106060591D01*
X145551211Y-105888361D01*
X145551211Y-105888360D01*
X145489308Y-105766871D01*
X145468996Y-105727006D01*
X145406401Y-105640851D01*
X145362558Y-105580505D01*
X145362554Y-105580500D01*
X145234499Y-105452445D01*
X145234494Y-105452441D01*
X145087997Y-105346006D01*
X145087996Y-105346005D01*
X145087994Y-105346004D01*
X145036300Y-105319664D01*
X144926639Y-105263788D01*
X144926636Y-105263787D01*
X144754410Y-105207829D01*
X144594321Y-105182473D01*
X144531186Y-105152544D01*
X144494255Y-105093232D01*
X144495253Y-105023370D01*
X144533863Y-104965137D01*
X144594321Y-104937527D01*
X144664425Y-104926422D01*
X144754409Y-104912171D01*
X144926639Y-104856211D01*
X145087994Y-104773996D01*
X145234501Y-104667553D01*
X145362553Y-104539501D01*
X145468996Y-104392994D01*
X145551211Y-104231639D01*
X145607171Y-104059409D01*
X145621765Y-103967259D01*
X145635500Y-103880551D01*
X145635500Y-103699448D01*
X145619019Y-103595397D01*
X145607171Y-103520591D01*
X145551211Y-103348361D01*
X145551211Y-103348360D01*
X145519765Y-103286646D01*
X145468996Y-103187006D01*
X145406401Y-103100851D01*
X145362558Y-103040505D01*
X145362554Y-103040500D01*
X145234499Y-102912445D01*
X145234494Y-102912441D01*
X145087997Y-102806006D01*
X145087996Y-102806005D01*
X145087994Y-102806004D01*
X145036300Y-102779664D01*
X144926639Y-102723788D01*
X144926636Y-102723787D01*
X144754410Y-102667828D01*
X144592720Y-102642219D01*
X144529585Y-102612289D01*
X144492654Y-102552978D01*
X144493652Y-102483115D01*
X144532262Y-102424883D01*
X144592721Y-102397273D01*
X144754292Y-102371683D01*
X144926444Y-102315748D01*
X144926452Y-102315745D01*
X145087730Y-102233568D01*
X145103532Y-102222085D01*
X145103533Y-102222085D01*
X144614410Y-101732962D01*
X144677993Y-101715925D01*
X144792007Y-101650099D01*
X144885099Y-101557007D01*
X144950925Y-101442993D01*
X144967962Y-101379409D01*
X145457085Y-101868532D01*
X145468568Y-101852730D01*
X145550745Y-101691452D01*
X145550748Y-101691444D01*
X145606682Y-101519293D01*
X145635000Y-101340506D01*
X145635000Y-101159493D01*
X145606682Y-100980706D01*
X145550748Y-100808555D01*
X145550747Y-100808552D01*
X145468571Y-100647275D01*
X145468566Y-100647267D01*
X145457085Y-100631466D01*
X144967962Y-101120589D01*
X144950925Y-101057007D01*
X144885099Y-100942993D01*
X144792007Y-100849901D01*
X144677993Y-100784075D01*
X144614409Y-100767037D01*
X145103533Y-100277913D01*
X145087730Y-100266431D01*
X144926447Y-100184252D01*
X144926444Y-100184251D01*
X144754293Y-100128317D01*
X144592720Y-100102726D01*
X144529585Y-100072797D01*
X144492654Y-100013485D01*
X144493652Y-99943623D01*
X144532262Y-99885390D01*
X144592720Y-99857780D01*
X144607270Y-99855475D01*
X144754409Y-99832171D01*
X144926639Y-99776211D01*
X145087994Y-99693996D01*
X145234501Y-99587553D01*
X145362553Y-99459501D01*
X145468996Y-99312994D01*
X145551211Y-99151639D01*
X145607171Y-98979409D01*
X145621765Y-98887259D01*
X145635500Y-98800551D01*
X145635500Y-98619448D01*
X145613616Y-98481284D01*
X145607171Y-98440591D01*
X145558380Y-98290426D01*
X145551212Y-98268363D01*
X145551211Y-98268360D01*
X145522740Y-98212484D01*
X145468996Y-98107006D01*
X145406401Y-98020851D01*
X145362558Y-97960505D01*
X145362554Y-97960500D01*
X145234499Y-97832445D01*
X145234494Y-97832441D01*
X145087997Y-97726006D01*
X145087996Y-97726005D01*
X145087994Y-97726004D01*
X145036300Y-97699664D01*
X144926639Y-97643788D01*
X144926636Y-97643787D01*
X144754410Y-97587829D01*
X144594321Y-97562473D01*
X144531186Y-97532544D01*
X144494255Y-97473232D01*
X144495253Y-97403370D01*
X144533863Y-97345137D01*
X144594321Y-97317527D01*
X144664425Y-97306422D01*
X144754409Y-97292171D01*
X144926639Y-97236211D01*
X145087994Y-97153996D01*
X145234501Y-97047553D01*
X145362553Y-96919501D01*
X145468996Y-96772994D01*
X145551211Y-96611639D01*
X145607171Y-96439409D01*
X145621765Y-96347259D01*
X145635500Y-96260551D01*
X145635500Y-96079448D01*
X145619019Y-95975397D01*
X145607171Y-95900591D01*
X145551211Y-95728361D01*
X145551211Y-95728360D01*
X145522740Y-95672484D01*
X145468996Y-95567006D01*
X145406401Y-95480851D01*
X145362558Y-95420505D01*
X145362554Y-95420500D01*
X145234499Y-95292445D01*
X145234494Y-95292441D01*
X145087997Y-95186006D01*
X145087996Y-95186005D01*
X145087994Y-95186004D01*
X145036300Y-95159664D01*
X144926639Y-95103788D01*
X144926636Y-95103787D01*
X144754410Y-95047829D01*
X144594321Y-95022473D01*
X144531186Y-94992544D01*
X144494255Y-94933232D01*
X144495253Y-94863370D01*
X144533863Y-94805137D01*
X144594321Y-94777527D01*
X144664425Y-94766422D01*
X144754409Y-94752171D01*
X144926639Y-94696211D01*
X145087994Y-94613996D01*
X145234501Y-94507553D01*
X145362553Y-94379501D01*
X145468996Y-94232994D01*
X145551211Y-94071639D01*
X145607171Y-93899409D01*
X145621765Y-93807259D01*
X145635500Y-93720551D01*
X145635500Y-93539448D01*
X145619019Y-93435397D01*
X145607171Y-93360591D01*
X145551211Y-93188361D01*
X145551211Y-93188360D01*
X145494234Y-93076539D01*
X145468996Y-93027006D01*
X145459894Y-93014479D01*
X145367902Y-92887860D01*
X145344422Y-92822054D01*
X145360248Y-92754000D01*
X145364756Y-92749618D01*
X145308870Y-92770463D01*
X145240597Y-92755611D01*
X145227139Y-92747097D01*
X145087997Y-92646006D01*
X145087996Y-92646005D01*
X145087994Y-92646004D01*
X145036300Y-92619664D01*
X144926639Y-92563788D01*
X144926636Y-92563787D01*
X144754410Y-92507829D01*
X144594321Y-92482473D01*
X144531186Y-92452544D01*
X144494255Y-92393232D01*
X144495253Y-92323370D01*
X144533863Y-92265137D01*
X144594321Y-92237527D01*
X144754409Y-92212171D01*
X144805182Y-92195674D01*
X144898284Y-92165423D01*
X144968123Y-92163429D01*
X145024281Y-92195674D01*
X145387705Y-92559098D01*
X145421190Y-92620421D01*
X145416206Y-92690113D01*
X145390091Y-92724996D01*
X145410354Y-92705305D01*
X145478832Y-92691430D01*
X145543941Y-92716779D01*
X145555901Y-92727294D01*
X146787181Y-93958574D01*
X146820666Y-94019897D01*
X146823500Y-94046255D01*
X146823500Y-109256273D01*
X146823500Y-109361727D01*
X146835541Y-109406664D01*
X146850793Y-109463589D01*
X146877156Y-109509250D01*
X146903520Y-109554913D01*
X147101233Y-109752626D01*
X147278181Y-109929573D01*
X147311666Y-109990896D01*
X147314500Y-110017254D01*
X147314500Y-110079057D01*
X147347041Y-110200500D01*
X147355423Y-110231783D01*
X147355426Y-110231790D01*
X147434475Y-110368709D01*
X147434479Y-110368714D01*
X147434480Y-110368716D01*
X147546284Y-110480520D01*
X147546286Y-110480521D01*
X147546290Y-110480524D01*
X147636225Y-110532447D01*
X147683216Y-110559577D01*
X147835943Y-110600500D01*
X147835945Y-110600500D01*
X147994055Y-110600500D01*
X147994057Y-110600500D01*
X148146784Y-110559577D01*
X148283716Y-110480520D01*
X148395520Y-110368716D01*
X148474577Y-110231784D01*
X148515500Y-110079057D01*
X148515500Y-109920943D01*
X148494775Y-109843596D01*
X148496438Y-109773750D01*
X148535600Y-109715887D01*
X148599828Y-109688383D01*
X148646642Y-109691731D01*
X148655996Y-109694238D01*
X148655999Y-109694238D01*
X148814108Y-109694238D01*
X148814110Y-109694238D01*
X148966837Y-109653315D01*
X149103769Y-109574258D01*
X149215573Y-109462454D01*
X149294630Y-109325522D01*
X149335553Y-109172795D01*
X149335553Y-109014681D01*
X149294630Y-108861954D01*
X149219192Y-108731290D01*
X149215577Y-108725028D01*
X149215571Y-108725020D01*
X149103770Y-108613219D01*
X149103762Y-108613213D01*
X148966843Y-108534164D01*
X148966839Y-108534162D01*
X148966837Y-108534161D01*
X148814110Y-108493238D01*
X148814109Y-108493238D01*
X148752308Y-108493238D01*
X148685269Y-108473553D01*
X148664627Y-108456919D01*
X148462819Y-108255111D01*
X148429334Y-108193788D01*
X148426500Y-108167430D01*
X148426500Y-98770943D01*
X150224500Y-98770943D01*
X150224500Y-98929056D01*
X150265423Y-99081783D01*
X150265426Y-99081790D01*
X150344475Y-99218709D01*
X150344479Y-99218714D01*
X150344480Y-99218716D01*
X150456284Y-99330520D01*
X150456286Y-99330521D01*
X150456290Y-99330524D01*
X150575152Y-99399148D01*
X150593216Y-99409577D01*
X150745943Y-99450500D01*
X150745945Y-99450500D01*
X150904055Y-99450500D01*
X150904057Y-99450500D01*
X151056784Y-99409577D01*
X151193716Y-99330520D01*
X151237417Y-99286819D01*
X151298740Y-99253334D01*
X151325098Y-99250500D01*
X155371628Y-99250500D01*
X155438667Y-99270185D01*
X155459309Y-99286819D01*
X155503010Y-99330520D01*
X155503012Y-99330521D01*
X155503016Y-99330524D01*
X155621878Y-99399148D01*
X155639942Y-99409577D01*
X155792669Y-99450500D01*
X155792671Y-99450500D01*
X155950781Y-99450500D01*
X155950783Y-99450500D01*
X156103510Y-99409577D01*
X156240442Y-99330520D01*
X156352246Y-99218716D01*
X156431303Y-99081784D01*
X156472226Y-98929057D01*
X156472226Y-98770943D01*
X156431303Y-98618216D01*
X156431299Y-98618209D01*
X156352250Y-98481290D01*
X156352244Y-98481282D01*
X156240443Y-98369481D01*
X156240435Y-98369475D01*
X156103516Y-98290426D01*
X156103512Y-98290424D01*
X156103510Y-98290423D01*
X155950783Y-98249500D01*
X155792669Y-98249500D01*
X155639942Y-98290423D01*
X155639935Y-98290426D01*
X155503016Y-98369475D01*
X155503008Y-98369481D01*
X155459309Y-98413181D01*
X155397986Y-98446666D01*
X155371628Y-98449500D01*
X151325098Y-98449500D01*
X151258059Y-98429815D01*
X151237417Y-98413181D01*
X151193717Y-98369481D01*
X151193709Y-98369475D01*
X151056790Y-98290426D01*
X151056786Y-98290424D01*
X151056784Y-98290423D01*
X150904057Y-98249500D01*
X150745943Y-98249500D01*
X150593216Y-98290423D01*
X150593209Y-98290426D01*
X150456290Y-98369475D01*
X150456282Y-98369481D01*
X150344481Y-98481282D01*
X150344475Y-98481290D01*
X150265426Y-98618209D01*
X150265423Y-98618216D01*
X150224500Y-98770943D01*
X148426500Y-98770943D01*
X148426500Y-89054189D01*
X148446185Y-88987150D01*
X148498989Y-88941395D01*
X148568147Y-88931451D01*
X148619391Y-88951087D01*
X148676052Y-88988947D01*
X148676065Y-88988954D01*
X148804999Y-89042360D01*
X148805000Y-89042360D01*
X148805000Y-88446988D01*
X148814940Y-88464205D01*
X148870795Y-88520060D01*
X148939204Y-88559556D01*
X149015504Y-88580000D01*
X149094496Y-88580000D01*
X149170796Y-88559556D01*
X149239205Y-88520060D01*
X149295060Y-88464205D01*
X149305000Y-88446988D01*
X149305000Y-89042360D01*
X149433934Y-88988954D01*
X149433952Y-88988944D01*
X149564965Y-88901404D01*
X149564973Y-88901398D01*
X149676398Y-88789973D01*
X149676401Y-88789969D01*
X149763947Y-88658948D01*
X149763952Y-88658939D01*
X149824256Y-88513351D01*
X149824258Y-88513343D01*
X149854999Y-88358797D01*
X149855000Y-88358794D01*
X149855000Y-87980000D01*
X149355000Y-87980000D01*
X149355000Y-87480000D01*
X149906362Y-87480000D01*
X149906362Y-87481884D01*
X149952320Y-87485163D01*
X150008261Y-87527024D01*
X150016391Y-87539346D01*
X150024485Y-87553365D01*
X150131635Y-87660515D01*
X150262865Y-87736281D01*
X150409234Y-87775500D01*
X150409236Y-87775500D01*
X150560764Y-87775500D01*
X150560766Y-87775500D01*
X150707135Y-87736281D01*
X150838365Y-87660515D01*
X150945515Y-87553365D01*
X151021281Y-87422135D01*
X151060500Y-87275766D01*
X151060500Y-87124234D01*
X155689500Y-87124234D01*
X155689500Y-87275765D01*
X155728719Y-87422136D01*
X155763215Y-87481884D01*
X155804485Y-87553365D01*
X155911635Y-87660515D01*
X156042865Y-87736281D01*
X156189234Y-87775500D01*
X156189236Y-87775500D01*
X156340764Y-87775500D01*
X156340766Y-87775500D01*
X156487135Y-87736281D01*
X156618365Y-87660515D01*
X156725515Y-87553365D01*
X156733604Y-87539353D01*
X156784168Y-87491139D01*
X156852774Y-87477914D01*
X156857985Y-87480000D01*
X157395000Y-87480000D01*
X157395000Y-87980000D01*
X156895000Y-87980000D01*
X156895000Y-88358797D01*
X156925741Y-88513343D01*
X156925743Y-88513351D01*
X156986047Y-88658939D01*
X156986052Y-88658948D01*
X157073598Y-88789969D01*
X157073601Y-88789973D01*
X157185026Y-88901398D01*
X157185034Y-88901404D01*
X157316047Y-88988944D01*
X157316065Y-88988954D01*
X157444999Y-89042360D01*
X157445000Y-89042360D01*
X157445000Y-88446988D01*
X157454940Y-88464205D01*
X157510795Y-88520060D01*
X157579204Y-88559556D01*
X157655504Y-88580000D01*
X157734496Y-88580000D01*
X157810796Y-88559556D01*
X157879205Y-88520060D01*
X157935060Y-88464205D01*
X157945000Y-88446988D01*
X157945000Y-89042360D01*
X158073934Y-88988954D01*
X158073952Y-88988944D01*
X158204965Y-88901404D01*
X158204973Y-88901398D01*
X158316398Y-88789973D01*
X158316401Y-88789969D01*
X158403947Y-88658948D01*
X158403952Y-88658939D01*
X158464256Y-88513351D01*
X158464258Y-88513343D01*
X158494999Y-88358797D01*
X158495000Y-88358794D01*
X158495000Y-87980000D01*
X157995000Y-87980000D01*
X157995000Y-87480000D01*
X158495000Y-87480000D01*
X158495000Y-87101206D01*
X158494999Y-87101202D01*
X158464258Y-86946656D01*
X158464256Y-86946648D01*
X158403952Y-86801060D01*
X158403947Y-86801051D01*
X158316401Y-86670030D01*
X158316398Y-86670026D01*
X158204973Y-86558601D01*
X158204969Y-86558598D01*
X158073948Y-86471052D01*
X158073938Y-86471047D01*
X157945000Y-86417639D01*
X157945000Y-87013011D01*
X157935060Y-86995795D01*
X157879205Y-86939940D01*
X157810796Y-86900444D01*
X157734496Y-86880000D01*
X157655504Y-86880000D01*
X157579204Y-86900444D01*
X157510795Y-86939940D01*
X157454940Y-86995795D01*
X157445000Y-87013011D01*
X157445000Y-86417639D01*
X157444999Y-86417639D01*
X157316061Y-86471047D01*
X157316051Y-86471052D01*
X157185030Y-86558598D01*
X157185026Y-86558601D01*
X157073601Y-86670026D01*
X157073598Y-86670030D01*
X156986052Y-86801051D01*
X156986049Y-86801057D01*
X156962446Y-86858040D01*
X156918604Y-86912443D01*
X156852310Y-86934507D01*
X156784611Y-86917227D01*
X156740498Y-86872587D01*
X156725515Y-86846635D01*
X156618365Y-86739485D01*
X156548500Y-86699148D01*
X156487136Y-86663719D01*
X156413950Y-86644109D01*
X156340766Y-86624500D01*
X156189234Y-86624500D01*
X156042863Y-86663719D01*
X155911635Y-86739485D01*
X155911632Y-86739487D01*
X155804487Y-86846632D01*
X155804485Y-86846635D01*
X155728719Y-86977863D01*
X155689500Y-87124234D01*
X151060500Y-87124234D01*
X151021281Y-86977865D01*
X150945515Y-86846635D01*
X150838365Y-86739485D01*
X150768500Y-86699148D01*
X150707136Y-86663719D01*
X150633950Y-86644109D01*
X150560766Y-86624500D01*
X150409234Y-86624500D01*
X150262863Y-86663719D01*
X150131635Y-86739485D01*
X150131632Y-86739487D01*
X150024487Y-86846632D01*
X150024481Y-86846641D01*
X150009499Y-86872589D01*
X149958931Y-86920803D01*
X149890324Y-86934024D01*
X149825460Y-86908054D01*
X149787553Y-86858038D01*
X149763954Y-86801064D01*
X149763947Y-86801051D01*
X149676401Y-86670030D01*
X149676398Y-86670026D01*
X149564973Y-86558601D01*
X149564969Y-86558598D01*
X149433948Y-86471052D01*
X149433938Y-86471047D01*
X149305000Y-86417639D01*
X149305000Y-87013011D01*
X149295060Y-86995795D01*
X149239205Y-86939940D01*
X149170796Y-86900444D01*
X149094496Y-86880000D01*
X149015504Y-86880000D01*
X148939204Y-86900444D01*
X148870795Y-86939940D01*
X148814940Y-86995795D01*
X148805000Y-87013011D01*
X148805000Y-86417639D01*
X148804999Y-86417639D01*
X148676061Y-86471047D01*
X148676051Y-86471052D01*
X148545030Y-86558598D01*
X148430191Y-86673437D01*
X148368868Y-86706921D01*
X148299176Y-86701937D01*
X148254829Y-86673436D01*
X145671818Y-84090425D01*
X145638333Y-84029102D01*
X145635499Y-84002744D01*
X145635499Y-82724500D01*
X145655184Y-82657461D01*
X145707988Y-82611706D01*
X145759499Y-82600500D01*
X148294842Y-82600500D01*
X148361881Y-82620185D01*
G37*
%TD.AperFunction*%
%TA.AperFunction,Conductor*%
G36*
X152190702Y-131550214D02*
G01*
X152228476Y-131608992D01*
X152231972Y-131624529D01*
X152253317Y-131759293D01*
X152309251Y-131931444D01*
X152309252Y-131931447D01*
X152391431Y-132092730D01*
X152402913Y-132108532D01*
X152402913Y-132108533D01*
X152892037Y-131619409D01*
X152909075Y-131682993D01*
X152974901Y-131797007D01*
X153067993Y-131890099D01*
X153182007Y-131955925D01*
X153245590Y-131972962D01*
X152756466Y-132462085D01*
X152756757Y-132465771D01*
X152742393Y-132534149D01*
X152693341Y-132583905D01*
X152633139Y-132599500D01*
X152089210Y-132599500D01*
X152022171Y-132579815D01*
X151976416Y-132527011D01*
X151966472Y-132457853D01*
X151975775Y-132425414D01*
X151975776Y-132425412D01*
X151982585Y-132409991D01*
X151985500Y-132384865D01*
X151985499Y-131643925D01*
X152005183Y-131576888D01*
X152057987Y-131531133D01*
X152127146Y-131521189D01*
X152190702Y-131550214D01*
G37*
%TD.AperFunction*%
%TA.AperFunction,Conductor*%
G36*
X154681376Y-131498652D02*
G01*
X154739609Y-131537261D01*
X154767219Y-131597720D01*
X154792828Y-131759410D01*
X154848787Y-131931636D01*
X154848788Y-131931639D01*
X154883320Y-131999410D01*
X154930869Y-132092730D01*
X154931006Y-132092997D01*
X155037441Y-132239494D01*
X155037445Y-132239499D01*
X155165500Y-132367554D01*
X155165505Y-132367558D01*
X155175998Y-132375182D01*
X155218664Y-132430512D01*
X155224643Y-132500125D01*
X155192037Y-132561920D01*
X155131199Y-132596277D01*
X155103113Y-132599500D01*
X154116861Y-132599500D01*
X154049822Y-132579815D01*
X154004067Y-132527011D01*
X153993243Y-132465774D01*
X153993533Y-132462085D01*
X153504410Y-131972962D01*
X153567993Y-131955925D01*
X153682007Y-131890099D01*
X153775099Y-131797007D01*
X153840925Y-131682993D01*
X153857962Y-131619409D01*
X154347085Y-132108532D01*
X154358568Y-132092730D01*
X154440745Y-131931452D01*
X154440748Y-131931444D01*
X154496683Y-131759292D01*
X154522273Y-131597721D01*
X154552202Y-131534586D01*
X154611513Y-131497654D01*
X154681376Y-131498652D01*
G37*
%TD.AperFunction*%
%TA.AperFunction,Conductor*%
G36*
X161006430Y-113917577D02*
G01*
X161034330Y-113919572D01*
X161040279Y-113924025D01*
X161047580Y-113925416D01*
X161067868Y-113944677D01*
X161090265Y-113961442D01*
X161092862Y-113968405D01*
X161098252Y-113973522D01*
X161104906Y-114000693D01*
X161114684Y-114026906D01*
X161115000Y-114035755D01*
X161115000Y-114040506D01*
X161143317Y-114219293D01*
X161199251Y-114391444D01*
X161199252Y-114391447D01*
X161281431Y-114552730D01*
X161292913Y-114568532D01*
X161292913Y-114568533D01*
X161782037Y-114079408D01*
X161799075Y-114142993D01*
X161864901Y-114257007D01*
X161957993Y-114350099D01*
X162072007Y-114415925D01*
X162135590Y-114432962D01*
X161646466Y-114922085D01*
X161646466Y-114922086D01*
X161662267Y-114933566D01*
X161662275Y-114933571D01*
X161823552Y-115015747D01*
X161823555Y-115015748D01*
X161995706Y-115071682D01*
X162157279Y-115097273D01*
X162220413Y-115127202D01*
X162257345Y-115186513D01*
X162256347Y-115256376D01*
X162217738Y-115314609D01*
X162157280Y-115342219D01*
X161995589Y-115367829D01*
X161823363Y-115423787D01*
X161823360Y-115423788D01*
X161662002Y-115506006D01*
X161515505Y-115612441D01*
X161515500Y-115612445D01*
X161387445Y-115740500D01*
X161387441Y-115740505D01*
X161281006Y-115887002D01*
X161198788Y-116048360D01*
X161198787Y-116048363D01*
X161142829Y-116220589D01*
X161114500Y-116399448D01*
X161114500Y-116580547D01*
X161114499Y-116580549D01*
X161142829Y-116759410D01*
X161198787Y-116931636D01*
X161198788Y-116931639D01*
X161281006Y-117092997D01*
X161387441Y-117239494D01*
X161387445Y-117239499D01*
X161515500Y-117367554D01*
X161515505Y-117367558D01*
X161643287Y-117460396D01*
X161662006Y-117473996D01*
X161767484Y-117527740D01*
X161823360Y-117556211D01*
X161823363Y-117556212D01*
X161909476Y-117584191D01*
X161995591Y-117612171D01*
X162068639Y-117623740D01*
X162155678Y-117637527D01*
X162218813Y-117667456D01*
X162255744Y-117726768D01*
X162254746Y-117796631D01*
X162216136Y-117854863D01*
X162155678Y-117882473D01*
X161995589Y-117907829D01*
X161823363Y-117963787D01*
X161823360Y-117963788D01*
X161662002Y-118046006D01*
X161515505Y-118152441D01*
X161515500Y-118152445D01*
X161387445Y-118280500D01*
X161387441Y-118280505D01*
X161281006Y-118427002D01*
X161198788Y-118588360D01*
X161198787Y-118588363D01*
X161142829Y-118760589D01*
X161114500Y-118939448D01*
X161114500Y-119120551D01*
X161142829Y-119299410D01*
X161198787Y-119471636D01*
X161198788Y-119471639D01*
X161281006Y-119632997D01*
X161387441Y-119779494D01*
X161387445Y-119779499D01*
X161515500Y-119907554D01*
X161515505Y-119907558D01*
X161643287Y-120000396D01*
X161662006Y-120013996D01*
X161767484Y-120067740D01*
X161823360Y-120096211D01*
X161823363Y-120096212D01*
X161909476Y-120124191D01*
X161995591Y-120152171D01*
X162068639Y-120163740D01*
X162155678Y-120177527D01*
X162218813Y-120207456D01*
X162255744Y-120266768D01*
X162254746Y-120336631D01*
X162216136Y-120394863D01*
X162155678Y-120422473D01*
X161995589Y-120447829D01*
X161823363Y-120503787D01*
X161823360Y-120503788D01*
X161662002Y-120586006D01*
X161515505Y-120692441D01*
X161515500Y-120692445D01*
X161387445Y-120820500D01*
X161387441Y-120820505D01*
X161281006Y-120967002D01*
X161198788Y-121128360D01*
X161198787Y-121128363D01*
X161142829Y-121300589D01*
X161114500Y-121479448D01*
X161114500Y-121660551D01*
X161142829Y-121839410D01*
X161198787Y-122011636D01*
X161198788Y-122011639D01*
X161281006Y-122172997D01*
X161387441Y-122319494D01*
X161387445Y-122319499D01*
X161515500Y-122447554D01*
X161515505Y-122447558D01*
X161643287Y-122540396D01*
X161662006Y-122553996D01*
X161767484Y-122607740D01*
X161823360Y-122636211D01*
X161823363Y-122636212D01*
X161909476Y-122664191D01*
X161995591Y-122692171D01*
X162068639Y-122703740D01*
X162155678Y-122717527D01*
X162218813Y-122747456D01*
X162255744Y-122806768D01*
X162254746Y-122876631D01*
X162216136Y-122934863D01*
X162155678Y-122962473D01*
X161995589Y-122987829D01*
X161823363Y-123043787D01*
X161823360Y-123043788D01*
X161662002Y-123126006D01*
X161515505Y-123232441D01*
X161515500Y-123232445D01*
X161387445Y-123360500D01*
X161387441Y-123360505D01*
X161281006Y-123507002D01*
X161198788Y-123668360D01*
X161198787Y-123668363D01*
X161142829Y-123840589D01*
X161114500Y-124019448D01*
X161114500Y-124200551D01*
X161142829Y-124379410D01*
X161198787Y-124551636D01*
X161198788Y-124551639D01*
X161281006Y-124712997D01*
X161387441Y-124859494D01*
X161387445Y-124859499D01*
X161515500Y-124987554D01*
X161515505Y-124987558D01*
X161643287Y-125080396D01*
X161662006Y-125093996D01*
X161767484Y-125147740D01*
X161823360Y-125176211D01*
X161823363Y-125176212D01*
X161909476Y-125204191D01*
X161995591Y-125232171D01*
X162115038Y-125251089D01*
X162157279Y-125257780D01*
X162220414Y-125287709D01*
X162257345Y-125347021D01*
X162256347Y-125416883D01*
X162217737Y-125475116D01*
X162157279Y-125502726D01*
X161995706Y-125528317D01*
X161823555Y-125584251D01*
X161823547Y-125584254D01*
X161662269Y-125666432D01*
X161646466Y-125677912D01*
X161646466Y-125677913D01*
X162135591Y-126167037D01*
X162072007Y-126184075D01*
X161957993Y-126249901D01*
X161864901Y-126342993D01*
X161799075Y-126457007D01*
X161782037Y-126520590D01*
X161292913Y-126031466D01*
X161292912Y-126031466D01*
X161281432Y-126047269D01*
X161199254Y-126208547D01*
X161199251Y-126208555D01*
X161143317Y-126380706D01*
X161115000Y-126559493D01*
X161115000Y-126740506D01*
X161143317Y-126919293D01*
X161199251Y-127091444D01*
X161199252Y-127091447D01*
X161281431Y-127252730D01*
X161292913Y-127268532D01*
X161292913Y-127268533D01*
X161782037Y-126779409D01*
X161799075Y-126842993D01*
X161864901Y-126957007D01*
X161957993Y-127050099D01*
X162072007Y-127115925D01*
X162135590Y-127132962D01*
X161646466Y-127622085D01*
X161646466Y-127622086D01*
X161662267Y-127633566D01*
X161662275Y-127633571D01*
X161823552Y-127715747D01*
X161823555Y-127715748D01*
X161995706Y-127771682D01*
X162157279Y-127797273D01*
X162220413Y-127827202D01*
X162257345Y-127886513D01*
X162256347Y-127956376D01*
X162217738Y-128014609D01*
X162157280Y-128042219D01*
X161995589Y-128067829D01*
X161823363Y-128123787D01*
X161823360Y-128123788D01*
X161662002Y-128206006D01*
X161515505Y-128312441D01*
X161515500Y-128312445D01*
X161387445Y-128440500D01*
X161387441Y-128440505D01*
X161281006Y-128587002D01*
X161198788Y-128748360D01*
X161198787Y-128748363D01*
X161142829Y-128920589D01*
X161114500Y-129099448D01*
X161114500Y-129280551D01*
X161142829Y-129459410D01*
X161198787Y-129631636D01*
X161198788Y-129631639D01*
X161281006Y-129792997D01*
X161387441Y-129939494D01*
X161387445Y-129939499D01*
X161515500Y-130067554D01*
X161515505Y-130067558D01*
X161642081Y-130159520D01*
X161662006Y-130173996D01*
X161743462Y-130215500D01*
X161823360Y-130256211D01*
X161823363Y-130256212D01*
X161904392Y-130282539D01*
X161995591Y-130312171D01*
X162068639Y-130323740D01*
X162155678Y-130337527D01*
X162218813Y-130367456D01*
X162255744Y-130426768D01*
X162254746Y-130496631D01*
X162216136Y-130554863D01*
X162155678Y-130582473D01*
X161995589Y-130607829D01*
X161823363Y-130663787D01*
X161823360Y-130663788D01*
X161662002Y-130746006D01*
X161515505Y-130852441D01*
X161515500Y-130852445D01*
X161387445Y-130980500D01*
X161387441Y-130980505D01*
X161281006Y-131127002D01*
X161198788Y-131288360D01*
X161198787Y-131288363D01*
X161142829Y-131460589D01*
X161114500Y-131639448D01*
X161114500Y-131820551D01*
X161142829Y-131999410D01*
X161198787Y-132171636D01*
X161198788Y-132171639D01*
X161281003Y-132332993D01*
X161331586Y-132402615D01*
X161355065Y-132468422D01*
X161339239Y-132536476D01*
X161289133Y-132585170D01*
X161231267Y-132599500D01*
X156726887Y-132599500D01*
X156659848Y-132579815D01*
X156614093Y-132527011D01*
X156604149Y-132457853D01*
X156633174Y-132394297D01*
X156654002Y-132375182D01*
X156664494Y-132367558D01*
X156664492Y-132367558D01*
X156664501Y-132367553D01*
X156792553Y-132239501D01*
X156898996Y-132092994D01*
X156981211Y-131931639D01*
X157037171Y-131759409D01*
X157051765Y-131667259D01*
X157065500Y-131580551D01*
X157065500Y-131399448D01*
X157047905Y-131288361D01*
X157037171Y-131220591D01*
X156981273Y-131048552D01*
X156981212Y-131048363D01*
X156981211Y-131048360D01*
X156931459Y-130950718D01*
X156898996Y-130887006D01*
X156873883Y-130852441D01*
X156792558Y-130740505D01*
X156792554Y-130740500D01*
X156664499Y-130612445D01*
X156664494Y-130612441D01*
X156517997Y-130506006D01*
X156517996Y-130506005D01*
X156517994Y-130506004D01*
X156441906Y-130467235D01*
X156356639Y-130423788D01*
X156356636Y-130423787D01*
X156184410Y-130367829D01*
X156005551Y-130339500D01*
X156005546Y-130339500D01*
X155824454Y-130339500D01*
X155824449Y-130339500D01*
X155645587Y-130367829D01*
X155501716Y-130414575D01*
X155486504Y-130415009D01*
X155472245Y-130420328D01*
X155452289Y-130415986D01*
X155431875Y-130416570D01*
X155417788Y-130408481D01*
X155403972Y-130405476D01*
X155375718Y-130384325D01*
X155212236Y-130220843D01*
X155178751Y-130159520D01*
X155175917Y-130133162D01*
X155175917Y-115966672D01*
X155195602Y-115899633D01*
X155248406Y-115853878D01*
X155317564Y-115843934D01*
X155381120Y-115872959D01*
X155387598Y-115878991D01*
X156188181Y-116679574D01*
X156221666Y-116740897D01*
X156224500Y-116767255D01*
X156224500Y-116829057D01*
X156245059Y-116905782D01*
X156265423Y-116981783D01*
X156265426Y-116981790D01*
X156344475Y-117118709D01*
X156344479Y-117118714D01*
X156344480Y-117118716D01*
X156456284Y-117230520D01*
X156456286Y-117230521D01*
X156456290Y-117230524D01*
X156579895Y-117301886D01*
X156593216Y-117309577D01*
X156745943Y-117350500D01*
X156745945Y-117350500D01*
X156904055Y-117350500D01*
X156904057Y-117350500D01*
X157056784Y-117309577D01*
X157193716Y-117230520D01*
X157305520Y-117118716D01*
X157384577Y-116981784D01*
X157425500Y-116829057D01*
X157425500Y-116670943D01*
X157384577Y-116518216D01*
X157340927Y-116442611D01*
X157305524Y-116381290D01*
X157305518Y-116381282D01*
X157193717Y-116269481D01*
X157193709Y-116269475D01*
X157056790Y-116190426D01*
X157056786Y-116190424D01*
X157056784Y-116190423D01*
X156904057Y-116149500D01*
X156904056Y-116149500D01*
X156842255Y-116149500D01*
X156775216Y-116129815D01*
X156754574Y-116113181D01*
X155711999Y-115070606D01*
X155678514Y-115009283D01*
X155675680Y-114982925D01*
X155675680Y-114213757D01*
X155678230Y-114205071D01*
X155676942Y-114196110D01*
X155687920Y-114172069D01*
X155695365Y-114146718D01*
X155702205Y-114140790D01*
X155705967Y-114132554D01*
X155728201Y-114118264D01*
X155748169Y-114100963D01*
X155758683Y-114098675D01*
X155764745Y-114094780D01*
X155799680Y-114089757D01*
X155858925Y-114089757D01*
X155925964Y-114109442D01*
X155946606Y-114126076D01*
X155976442Y-114155912D01*
X155976443Y-114155913D01*
X156051010Y-114230480D01*
X156142336Y-114283207D01*
X156244196Y-114310500D01*
X156244198Y-114310500D01*
X160417725Y-114310500D01*
X160417727Y-114310500D01*
X160519588Y-114283207D01*
X160610913Y-114230480D01*
X160855714Y-113985676D01*
X160866524Y-113976062D01*
X160873587Y-113970482D01*
X160890913Y-113960480D01*
X160908448Y-113942944D01*
X160914137Y-113938451D01*
X160940088Y-113927995D01*
X160964639Y-113914590D01*
X160972049Y-113915119D01*
X160978945Y-113912342D01*
X161006430Y-113917577D01*
G37*
%TD.AperFunction*%
%TA.AperFunction,Conductor*%
G36*
X154087153Y-114262432D02*
G01*
X154117965Y-114263166D01*
X154122113Y-114265694D01*
X154126048Y-114266062D01*
X154156651Y-114283643D01*
X154162571Y-114288278D01*
X154239385Y-114365092D01*
X154320480Y-114411911D01*
X154327359Y-114417297D01*
X154342808Y-114438893D01*
X154361132Y-114458111D01*
X154362820Y-114466868D01*
X154368010Y-114474124D01*
X154374917Y-114514932D01*
X154374917Y-130297690D01*
X154374917Y-130403144D01*
X154380573Y-130424252D01*
X154402210Y-130505006D01*
X154428573Y-130550667D01*
X154454937Y-130596330D01*
X154454939Y-130596332D01*
X154809325Y-130950718D01*
X154842810Y-131012041D01*
X154839575Y-131076716D01*
X154792829Y-131220586D01*
X154767219Y-131382280D01*
X154737289Y-131445414D01*
X154677978Y-131482345D01*
X154608115Y-131481347D01*
X154549883Y-131442737D01*
X154522273Y-131382279D01*
X154496682Y-131220706D01*
X154440748Y-131048555D01*
X154440747Y-131048552D01*
X154358571Y-130887275D01*
X154358566Y-130887267D01*
X154347085Y-130871466D01*
X153857962Y-131360589D01*
X153840925Y-131297007D01*
X153775099Y-131182993D01*
X153682007Y-131089901D01*
X153567993Y-131024075D01*
X153504409Y-131007037D01*
X153993533Y-130517913D01*
X153977730Y-130506431D01*
X153816447Y-130424252D01*
X153816444Y-130424251D01*
X153644293Y-130368317D01*
X153465506Y-130340000D01*
X153284494Y-130340000D01*
X153105706Y-130368317D01*
X152933555Y-130424251D01*
X152933547Y-130424254D01*
X152772269Y-130506432D01*
X152756466Y-130517912D01*
X152756466Y-130517913D01*
X153245591Y-131007037D01*
X153182007Y-131024075D01*
X153067993Y-131089901D01*
X152974901Y-131182993D01*
X152909075Y-131297007D01*
X152892037Y-131360590D01*
X152402912Y-130871466D01*
X152391432Y-130887269D01*
X152309254Y-131048547D01*
X152309251Y-131048555D01*
X152253317Y-131220706D01*
X152231972Y-131355471D01*
X152202043Y-131418606D01*
X152142731Y-131455537D01*
X152072868Y-131454539D01*
X152014636Y-131415929D01*
X151986522Y-131351965D01*
X151985499Y-131336073D01*
X151985499Y-130595143D01*
X151985499Y-130595136D01*
X151984292Y-130584735D01*
X151983681Y-130579458D01*
X151983680Y-130579455D01*
X151982585Y-130570009D01*
X151937206Y-130467235D01*
X151857765Y-130387794D01*
X151857763Y-130387793D01*
X151754992Y-130342415D01*
X151729868Y-130339500D01*
X151729865Y-130339500D01*
X151359500Y-130339500D01*
X151292461Y-130319815D01*
X151246706Y-130267011D01*
X151235500Y-130215500D01*
X151235500Y-116905782D01*
X151255185Y-116838743D01*
X151271819Y-116818101D01*
X153753102Y-114336818D01*
X153814425Y-114303333D01*
X153840783Y-114300499D01*
X153902582Y-114300499D01*
X153902585Y-114300499D01*
X154048119Y-114261503D01*
X154052546Y-114261608D01*
X154056480Y-114259570D01*
X154087153Y-114262432D01*
G37*
%TD.AperFunction*%
%TA.AperFunction,Conductor*%
G36*
X163237084Y-127268532D02*
G01*
X163240772Y-127268242D01*
X163309149Y-127282606D01*
X163358905Y-127331658D01*
X163374500Y-127391860D01*
X163374500Y-128378113D01*
X163354815Y-128445152D01*
X163302011Y-128490907D01*
X163232853Y-128500851D01*
X163169297Y-128471826D01*
X163150182Y-128450998D01*
X163142558Y-128440505D01*
X163142554Y-128440500D01*
X163014499Y-128312445D01*
X163014494Y-128312441D01*
X162867997Y-128206006D01*
X162867996Y-128206005D01*
X162867994Y-128206004D01*
X162816300Y-128179664D01*
X162706639Y-128123788D01*
X162706636Y-128123787D01*
X162534410Y-128067828D01*
X162372720Y-128042219D01*
X162309585Y-128012289D01*
X162272654Y-127952978D01*
X162273652Y-127883115D01*
X162312262Y-127824883D01*
X162372721Y-127797273D01*
X162534292Y-127771683D01*
X162706444Y-127715748D01*
X162706452Y-127715745D01*
X162867730Y-127633568D01*
X162883532Y-127622085D01*
X162883533Y-127622085D01*
X162394410Y-127132962D01*
X162457993Y-127115925D01*
X162572007Y-127050099D01*
X162665099Y-126957007D01*
X162730925Y-126842993D01*
X162747962Y-126779409D01*
X163237084Y-127268532D01*
G37*
%TD.AperFunction*%
%TA.AperFunction,Conductor*%
G36*
X144019075Y-126842993D02*
G01*
X144084901Y-126957007D01*
X144177993Y-127050099D01*
X144292007Y-127115925D01*
X144355590Y-127132962D01*
X143866466Y-127622085D01*
X143866466Y-127622086D01*
X143882267Y-127633566D01*
X143882275Y-127633571D01*
X144043552Y-127715747D01*
X144043555Y-127715748D01*
X144215706Y-127771682D01*
X144377279Y-127797273D01*
X144440413Y-127827202D01*
X144477345Y-127886513D01*
X144476347Y-127956376D01*
X144437738Y-128014609D01*
X144377280Y-128042219D01*
X144215589Y-128067829D01*
X144043363Y-128123787D01*
X144043360Y-128123788D01*
X143882002Y-128206006D01*
X143735505Y-128312441D01*
X143735500Y-128312445D01*
X143607445Y-128440500D01*
X143607441Y-128440505D01*
X143599818Y-128450998D01*
X143544488Y-128493664D01*
X143474875Y-128499643D01*
X143413080Y-128467037D01*
X143378723Y-128406199D01*
X143375500Y-128378113D01*
X143375500Y-127391861D01*
X143395185Y-127324822D01*
X143447989Y-127279067D01*
X143509229Y-127268243D01*
X143512913Y-127268533D01*
X144002037Y-126779409D01*
X144019075Y-126842993D01*
G37*
%TD.AperFunction*%
%TA.AperFunction,Conductor*%
G36*
X143580703Y-124828173D02*
G01*
X143599821Y-124849004D01*
X143607446Y-124859500D01*
X143735500Y-124987554D01*
X143735505Y-124987558D01*
X143863287Y-125080396D01*
X143882006Y-125093996D01*
X143987484Y-125147740D01*
X144043360Y-125176211D01*
X144043363Y-125176212D01*
X144129476Y-125204191D01*
X144215591Y-125232171D01*
X144335038Y-125251089D01*
X144377279Y-125257780D01*
X144440414Y-125287709D01*
X144477345Y-125347021D01*
X144476347Y-125416883D01*
X144437737Y-125475116D01*
X144377279Y-125502726D01*
X144215706Y-125528317D01*
X144043555Y-125584251D01*
X144043547Y-125584254D01*
X143882269Y-125666432D01*
X143866466Y-125677912D01*
X143866466Y-125677913D01*
X144355591Y-126167037D01*
X144292007Y-126184075D01*
X144177993Y-126249901D01*
X144084901Y-126342993D01*
X144019075Y-126457007D01*
X144002037Y-126520590D01*
X143512913Y-126031466D01*
X143509229Y-126031756D01*
X143440852Y-126017392D01*
X143391095Y-125968340D01*
X143375500Y-125908138D01*
X143375500Y-124921886D01*
X143395185Y-124854847D01*
X143447989Y-124809092D01*
X143517147Y-124799148D01*
X143580703Y-124828173D01*
G37*
%TD.AperFunction*%
%TA.AperFunction,Conductor*%
G36*
X163336917Y-124832959D02*
G01*
X163371277Y-124893796D01*
X163374500Y-124921886D01*
X163374500Y-125908138D01*
X163354815Y-125975177D01*
X163302011Y-126020932D01*
X163240773Y-126031756D01*
X163237086Y-126031465D01*
X162747962Y-126520589D01*
X162730925Y-126457007D01*
X162665099Y-126342993D01*
X162572007Y-126249901D01*
X162457993Y-126184075D01*
X162394409Y-126167037D01*
X162883533Y-125677913D01*
X162867730Y-125666431D01*
X162706447Y-125584252D01*
X162706444Y-125584251D01*
X162534293Y-125528317D01*
X162372720Y-125502726D01*
X162309585Y-125472797D01*
X162272654Y-125413485D01*
X162273652Y-125343623D01*
X162312262Y-125285390D01*
X162372720Y-125257780D01*
X162387270Y-125255475D01*
X162534409Y-125232171D01*
X162706639Y-125176211D01*
X162867994Y-125093996D01*
X163014501Y-124987553D01*
X163142553Y-124859501D01*
X163150180Y-124849003D01*
X163205508Y-124806336D01*
X163275121Y-124800355D01*
X163336917Y-124832959D01*
G37*
%TD.AperFunction*%
%TA.AperFunction,Conductor*%
G36*
X163237084Y-114568532D02*
G01*
X163240772Y-114568242D01*
X163309149Y-114582606D01*
X163358905Y-114631658D01*
X163374500Y-114691860D01*
X163374500Y-115678113D01*
X163354815Y-115745152D01*
X163302011Y-115790907D01*
X163232853Y-115800851D01*
X163169297Y-115771826D01*
X163150182Y-115750998D01*
X163142558Y-115740505D01*
X163142554Y-115740500D01*
X163014499Y-115612445D01*
X163014494Y-115612441D01*
X162867997Y-115506006D01*
X162867996Y-115506005D01*
X162867994Y-115506004D01*
X162816300Y-115479664D01*
X162706639Y-115423788D01*
X162706636Y-115423787D01*
X162534410Y-115367828D01*
X162372720Y-115342219D01*
X162309585Y-115312289D01*
X162272654Y-115252978D01*
X162273652Y-115183115D01*
X162312262Y-115124883D01*
X162372721Y-115097273D01*
X162534292Y-115071683D01*
X162706444Y-115015748D01*
X162706452Y-115015745D01*
X162867730Y-114933568D01*
X162883532Y-114922085D01*
X162883533Y-114922085D01*
X162394410Y-114432962D01*
X162457993Y-114415925D01*
X162572007Y-114350099D01*
X162665099Y-114257007D01*
X162730925Y-114142993D01*
X162747962Y-114079409D01*
X163237084Y-114568532D01*
G37*
%TD.AperFunction*%
%TA.AperFunction,Conductor*%
G36*
X144019075Y-114142993D02*
G01*
X144084901Y-114257007D01*
X144177993Y-114350099D01*
X144292007Y-114415925D01*
X144355590Y-114432962D01*
X143866466Y-114922085D01*
X143866466Y-114922086D01*
X143882267Y-114933566D01*
X143882275Y-114933571D01*
X144043552Y-115015747D01*
X144043555Y-115015748D01*
X144215706Y-115071682D01*
X144377279Y-115097273D01*
X144440413Y-115127202D01*
X144477345Y-115186513D01*
X144476347Y-115256376D01*
X144437738Y-115314609D01*
X144377280Y-115342219D01*
X144215589Y-115367829D01*
X144043363Y-115423787D01*
X144043360Y-115423788D01*
X143882002Y-115506006D01*
X143735505Y-115612441D01*
X143735500Y-115612445D01*
X143607445Y-115740500D01*
X143607441Y-115740505D01*
X143599818Y-115750998D01*
X143544488Y-115793664D01*
X143474875Y-115799643D01*
X143413080Y-115767037D01*
X143378723Y-115706199D01*
X143375500Y-115678113D01*
X143375500Y-114691861D01*
X143395185Y-114624822D01*
X143447989Y-114579067D01*
X143509229Y-114568243D01*
X143512913Y-114568533D01*
X144002037Y-114079409D01*
X144019075Y-114142993D01*
G37*
%TD.AperFunction*%
%TA.AperFunction,Conductor*%
G36*
X143580703Y-112128173D02*
G01*
X143599821Y-112149004D01*
X143607446Y-112159500D01*
X143735500Y-112287554D01*
X143735505Y-112287558D01*
X143801527Y-112335525D01*
X143882006Y-112393996D01*
X143984426Y-112446182D01*
X144043360Y-112476211D01*
X144043363Y-112476212D01*
X144129476Y-112504191D01*
X144215591Y-112532171D01*
X144335038Y-112551089D01*
X144377279Y-112557780D01*
X144440414Y-112587709D01*
X144477345Y-112647021D01*
X144476347Y-112716883D01*
X144437737Y-112775116D01*
X144377279Y-112802726D01*
X144215706Y-112828317D01*
X144043555Y-112884251D01*
X144043547Y-112884254D01*
X143882269Y-112966432D01*
X143866466Y-112977912D01*
X143866466Y-112977913D01*
X144355591Y-113467037D01*
X144292007Y-113484075D01*
X144177993Y-113549901D01*
X144084901Y-113642993D01*
X144019075Y-113757007D01*
X144002037Y-113820590D01*
X143512913Y-113331466D01*
X143509229Y-113331756D01*
X143440852Y-113317392D01*
X143391095Y-113268340D01*
X143375500Y-113208138D01*
X143375500Y-112221886D01*
X143395185Y-112154847D01*
X143447989Y-112109092D01*
X143517147Y-112099148D01*
X143580703Y-112128173D01*
G37*
%TD.AperFunction*%
%TA.AperFunction,Conductor*%
G36*
X163336917Y-112132959D02*
G01*
X163371277Y-112193796D01*
X163374500Y-112221886D01*
X163374500Y-113208138D01*
X163354815Y-113275177D01*
X163302011Y-113320932D01*
X163240773Y-113331756D01*
X163237086Y-113331465D01*
X162747962Y-113820589D01*
X162730925Y-113757007D01*
X162665099Y-113642993D01*
X162572007Y-113549901D01*
X162457993Y-113484075D01*
X162394408Y-113467037D01*
X162883533Y-112977913D01*
X162867730Y-112966431D01*
X162706447Y-112884252D01*
X162706444Y-112884251D01*
X162534293Y-112828317D01*
X162372720Y-112802726D01*
X162309585Y-112772797D01*
X162272654Y-112713485D01*
X162273652Y-112643623D01*
X162312262Y-112585390D01*
X162372720Y-112557780D01*
X162387270Y-112555475D01*
X162534409Y-112532171D01*
X162706639Y-112476211D01*
X162867994Y-112393996D01*
X163014501Y-112287553D01*
X163142553Y-112159501D01*
X163150180Y-112149003D01*
X163205508Y-112106336D01*
X163275121Y-112100355D01*
X163336917Y-112132959D01*
G37*
%TD.AperFunction*%
%TA.AperFunction,Conductor*%
G36*
X163237084Y-101868532D02*
G01*
X163240772Y-101868242D01*
X163309149Y-101882606D01*
X163358905Y-101931658D01*
X163374500Y-101991860D01*
X163374500Y-102978113D01*
X163354815Y-103045152D01*
X163302011Y-103090907D01*
X163232853Y-103100851D01*
X163169297Y-103071826D01*
X163150182Y-103050998D01*
X163142558Y-103040505D01*
X163142554Y-103040500D01*
X163014499Y-102912445D01*
X163014494Y-102912441D01*
X162867997Y-102806006D01*
X162867996Y-102806005D01*
X162867994Y-102806004D01*
X162816300Y-102779664D01*
X162706639Y-102723788D01*
X162706636Y-102723787D01*
X162534410Y-102667828D01*
X162372720Y-102642219D01*
X162309585Y-102612289D01*
X162272654Y-102552978D01*
X162273652Y-102483115D01*
X162312262Y-102424883D01*
X162372721Y-102397273D01*
X162534292Y-102371683D01*
X162706444Y-102315748D01*
X162706452Y-102315745D01*
X162867730Y-102233568D01*
X162883532Y-102222085D01*
X162883533Y-102222085D01*
X162394410Y-101732962D01*
X162457993Y-101715925D01*
X162572007Y-101650099D01*
X162665099Y-101557007D01*
X162730925Y-101442993D01*
X162747962Y-101379409D01*
X163237084Y-101868532D01*
G37*
%TD.AperFunction*%
%TA.AperFunction,Conductor*%
G36*
X144019075Y-101442993D02*
G01*
X144084901Y-101557007D01*
X144177993Y-101650099D01*
X144292007Y-101715925D01*
X144355590Y-101732962D01*
X143866466Y-102222085D01*
X143866466Y-102222086D01*
X143882267Y-102233566D01*
X143882275Y-102233571D01*
X144043552Y-102315747D01*
X144043555Y-102315748D01*
X144215706Y-102371682D01*
X144377279Y-102397273D01*
X144440413Y-102427202D01*
X144477345Y-102486513D01*
X144476347Y-102556376D01*
X144437738Y-102614609D01*
X144377280Y-102642219D01*
X144215589Y-102667829D01*
X144043363Y-102723787D01*
X144043360Y-102723788D01*
X143882002Y-102806006D01*
X143735505Y-102912441D01*
X143735500Y-102912445D01*
X143607445Y-103040500D01*
X143607441Y-103040505D01*
X143599818Y-103050998D01*
X143544488Y-103093664D01*
X143474875Y-103099643D01*
X143413080Y-103067037D01*
X143378723Y-103006199D01*
X143375500Y-102978113D01*
X143375500Y-101991861D01*
X143395185Y-101924822D01*
X143447989Y-101879067D01*
X143509229Y-101868243D01*
X143512913Y-101868533D01*
X144002037Y-101379409D01*
X144019075Y-101442993D01*
G37*
%TD.AperFunction*%
%TA.AperFunction,Conductor*%
G36*
X143580703Y-99428173D02*
G01*
X143599818Y-99449001D01*
X143604066Y-99454847D01*
X143607446Y-99459500D01*
X143735500Y-99587554D01*
X143735505Y-99587558D01*
X143863287Y-99680396D01*
X143882006Y-99693996D01*
X143987484Y-99747740D01*
X144043360Y-99776211D01*
X144043363Y-99776212D01*
X144129476Y-99804191D01*
X144215591Y-99832171D01*
X144335038Y-99851089D01*
X144377279Y-99857780D01*
X144440414Y-99887709D01*
X144477345Y-99947021D01*
X144476347Y-100016883D01*
X144437737Y-100075116D01*
X144377279Y-100102726D01*
X144215706Y-100128317D01*
X144043555Y-100184251D01*
X144043547Y-100184254D01*
X143882269Y-100266432D01*
X143866466Y-100277912D01*
X143866466Y-100277913D01*
X144355591Y-100767037D01*
X144292007Y-100784075D01*
X144177993Y-100849901D01*
X144084901Y-100942993D01*
X144019075Y-101057007D01*
X144002037Y-101120590D01*
X143512913Y-100631466D01*
X143509229Y-100631756D01*
X143440852Y-100617392D01*
X143391095Y-100568340D01*
X143375500Y-100508138D01*
X143375500Y-99521886D01*
X143395185Y-99454847D01*
X143447989Y-99409092D01*
X143517147Y-99399148D01*
X143580703Y-99428173D01*
G37*
%TD.AperFunction*%
%TA.AperFunction,Conductor*%
G36*
X163336917Y-99432959D02*
G01*
X163371277Y-99493796D01*
X163374500Y-99521886D01*
X163374500Y-100508138D01*
X163354815Y-100575177D01*
X163302011Y-100620932D01*
X163240773Y-100631756D01*
X163237086Y-100631465D01*
X162747962Y-101120589D01*
X162730925Y-101057007D01*
X162665099Y-100942993D01*
X162572007Y-100849901D01*
X162457993Y-100784075D01*
X162394409Y-100767037D01*
X162883533Y-100277913D01*
X162867730Y-100266431D01*
X162706447Y-100184252D01*
X162706444Y-100184251D01*
X162534293Y-100128317D01*
X162372720Y-100102726D01*
X162309585Y-100072797D01*
X162272654Y-100013485D01*
X162273652Y-99943623D01*
X162312262Y-99885390D01*
X162372720Y-99857780D01*
X162387270Y-99855475D01*
X162534409Y-99832171D01*
X162706639Y-99776211D01*
X162867994Y-99693996D01*
X163014501Y-99587553D01*
X163142553Y-99459501D01*
X163150180Y-99449003D01*
X163205508Y-99406336D01*
X163275121Y-99400355D01*
X163336917Y-99432959D01*
G37*
%TD.AperFunction*%
%TA.AperFunction,Conductor*%
G36*
X161851716Y-87085424D02*
G01*
X161995591Y-87132171D01*
X162115038Y-87151089D01*
X162157279Y-87157780D01*
X162220414Y-87187709D01*
X162257345Y-87247021D01*
X162256347Y-87316883D01*
X162217737Y-87375116D01*
X162157279Y-87402726D01*
X161995706Y-87428317D01*
X161823555Y-87484251D01*
X161823547Y-87484254D01*
X161662269Y-87566432D01*
X161646466Y-87577912D01*
X161646466Y-87577913D01*
X162135591Y-88067037D01*
X162072007Y-88084075D01*
X161957993Y-88149901D01*
X161864901Y-88242993D01*
X161799075Y-88357007D01*
X161782037Y-88420590D01*
X161292913Y-87931466D01*
X161292912Y-87931466D01*
X161281432Y-87947269D01*
X161199254Y-88108547D01*
X161199251Y-88108555D01*
X161143317Y-88280706D01*
X161115000Y-88459493D01*
X161115000Y-88640506D01*
X161143317Y-88819293D01*
X161199251Y-88991444D01*
X161199252Y-88991447D01*
X161281431Y-89152730D01*
X161292913Y-89168532D01*
X161292913Y-89168533D01*
X161782037Y-88679409D01*
X161799075Y-88742993D01*
X161864901Y-88857007D01*
X161957993Y-88950099D01*
X162072007Y-89015925D01*
X162135590Y-89032962D01*
X161646466Y-89522085D01*
X161646466Y-89522086D01*
X161662267Y-89533566D01*
X161662275Y-89533571D01*
X161823552Y-89615747D01*
X161823555Y-89615748D01*
X161995706Y-89671682D01*
X162157279Y-89697273D01*
X162220413Y-89727202D01*
X162257345Y-89786513D01*
X162256347Y-89856376D01*
X162217738Y-89914609D01*
X162157280Y-89942219D01*
X161995589Y-89967829D01*
X161823363Y-90023787D01*
X161823360Y-90023788D01*
X161662002Y-90106006D01*
X161515505Y-90212441D01*
X161515500Y-90212445D01*
X161387445Y-90340500D01*
X161387441Y-90340505D01*
X161281006Y-90487002D01*
X161198788Y-90648360D01*
X161198787Y-90648363D01*
X161142829Y-90820589D01*
X161114500Y-90999448D01*
X161114500Y-91180551D01*
X161142829Y-91359410D01*
X161189575Y-91503281D01*
X161191570Y-91573122D01*
X161159325Y-91629280D01*
X159537181Y-93251425D01*
X159475858Y-93284910D01*
X159406166Y-93279926D01*
X159350233Y-93238054D01*
X159325816Y-93172590D01*
X159325500Y-93163744D01*
X159325500Y-89567254D01*
X159345185Y-89500215D01*
X159361814Y-89479578D01*
X161725719Y-87115672D01*
X161787040Y-87082189D01*
X161851716Y-87085424D01*
G37*
%TD.AperFunction*%
%TA.AperFunction,Conductor*%
G36*
X145024281Y-87115674D02*
G01*
X147188181Y-89279573D01*
X147221666Y-89340896D01*
X147224500Y-89367254D01*
X147224500Y-92963745D01*
X147204815Y-93030784D01*
X147152011Y-93076539D01*
X147082853Y-93086483D01*
X147019297Y-93057458D01*
X147012819Y-93051426D01*
X145590674Y-91629281D01*
X145557189Y-91567958D01*
X145560423Y-91503284D01*
X145607171Y-91359409D01*
X145635500Y-91180551D01*
X145635500Y-90999448D01*
X145619019Y-90895397D01*
X145607171Y-90820591D01*
X145551211Y-90648361D01*
X145551211Y-90648360D01*
X145522740Y-90592484D01*
X145468996Y-90487006D01*
X145406401Y-90400851D01*
X145362558Y-90340505D01*
X145362554Y-90340500D01*
X145234499Y-90212445D01*
X145234494Y-90212441D01*
X145087997Y-90106006D01*
X145087996Y-90106005D01*
X145087994Y-90106004D01*
X145036300Y-90079664D01*
X144926639Y-90023788D01*
X144926636Y-90023787D01*
X144754410Y-89967828D01*
X144592720Y-89942219D01*
X144529585Y-89912289D01*
X144492654Y-89852978D01*
X144493652Y-89783115D01*
X144532262Y-89724883D01*
X144592721Y-89697273D01*
X144754292Y-89671683D01*
X144926444Y-89615748D01*
X144926452Y-89615745D01*
X145087730Y-89533568D01*
X145103532Y-89522085D01*
X145103533Y-89522085D01*
X144614410Y-89032962D01*
X144677993Y-89015925D01*
X144792007Y-88950099D01*
X144885099Y-88857007D01*
X144950925Y-88742993D01*
X144967962Y-88679409D01*
X145457085Y-89168532D01*
X145468568Y-89152730D01*
X145550745Y-88991452D01*
X145550748Y-88991444D01*
X145606682Y-88819293D01*
X145635000Y-88640506D01*
X145635000Y-88459493D01*
X145606682Y-88280706D01*
X145550748Y-88108555D01*
X145550747Y-88108552D01*
X145468571Y-87947275D01*
X145468566Y-87947267D01*
X145457085Y-87931466D01*
X144967962Y-88420589D01*
X144950925Y-88357007D01*
X144885099Y-88242993D01*
X144792007Y-88149901D01*
X144677993Y-88084075D01*
X144614409Y-88067037D01*
X145103533Y-87577913D01*
X145087730Y-87566431D01*
X144926447Y-87484252D01*
X144926444Y-87484251D01*
X144754293Y-87428317D01*
X144592720Y-87402726D01*
X144529585Y-87372797D01*
X144492654Y-87313485D01*
X144493652Y-87243623D01*
X144532262Y-87185390D01*
X144592720Y-87157780D01*
X144607270Y-87155475D01*
X144754409Y-87132171D01*
X144898284Y-87085423D01*
X144968123Y-87083429D01*
X145024281Y-87115674D01*
G37*
%TD.AperFunction*%
%TA.AperFunction,Conductor*%
G36*
X163237084Y-89168532D02*
G01*
X163240772Y-89168242D01*
X163309149Y-89182606D01*
X163358905Y-89231658D01*
X163374500Y-89291860D01*
X163374500Y-90278113D01*
X163354815Y-90345152D01*
X163302011Y-90390907D01*
X163232853Y-90400851D01*
X163169297Y-90371826D01*
X163150182Y-90350998D01*
X163142558Y-90340505D01*
X163142554Y-90340500D01*
X163014499Y-90212445D01*
X163014494Y-90212441D01*
X162867997Y-90106006D01*
X162867996Y-90106005D01*
X162867994Y-90106004D01*
X162816300Y-90079664D01*
X162706639Y-90023788D01*
X162706636Y-90023787D01*
X162534410Y-89967828D01*
X162372720Y-89942219D01*
X162309585Y-89912289D01*
X162272654Y-89852978D01*
X162273652Y-89783115D01*
X162312262Y-89724883D01*
X162372721Y-89697273D01*
X162534292Y-89671683D01*
X162706444Y-89615748D01*
X162706452Y-89615745D01*
X162867730Y-89533568D01*
X162883532Y-89522085D01*
X162883533Y-89522085D01*
X162394410Y-89032962D01*
X162457993Y-89015925D01*
X162572007Y-88950099D01*
X162665099Y-88857007D01*
X162730925Y-88742993D01*
X162747962Y-88679409D01*
X163237084Y-89168532D01*
G37*
%TD.AperFunction*%
%TA.AperFunction,Conductor*%
G36*
X144019075Y-88742993D02*
G01*
X144084901Y-88857007D01*
X144177993Y-88950099D01*
X144292007Y-89015925D01*
X144355590Y-89032962D01*
X143866466Y-89522085D01*
X143866466Y-89522086D01*
X143882267Y-89533566D01*
X143882275Y-89533571D01*
X144043552Y-89615747D01*
X144043555Y-89615748D01*
X144215706Y-89671682D01*
X144377279Y-89697273D01*
X144440413Y-89727202D01*
X144477345Y-89786513D01*
X144476347Y-89856376D01*
X144437738Y-89914609D01*
X144377280Y-89942219D01*
X144215589Y-89967829D01*
X144043363Y-90023787D01*
X144043360Y-90023788D01*
X143882002Y-90106006D01*
X143735505Y-90212441D01*
X143735500Y-90212445D01*
X143607445Y-90340500D01*
X143607441Y-90340505D01*
X143599818Y-90350998D01*
X143544488Y-90393664D01*
X143474875Y-90399643D01*
X143413080Y-90367037D01*
X143378723Y-90306199D01*
X143375500Y-90278113D01*
X143375500Y-89291861D01*
X143395185Y-89224822D01*
X143447989Y-89179067D01*
X143509229Y-89168243D01*
X143512913Y-89168533D01*
X144002037Y-88679409D01*
X144019075Y-88742993D01*
G37*
%TD.AperFunction*%
%TA.AperFunction,Conductor*%
G36*
X143580703Y-86728173D02*
G01*
X143599821Y-86749004D01*
X143607446Y-86759500D01*
X143735500Y-86887554D01*
X143735505Y-86887558D01*
X143832837Y-86958273D01*
X143882006Y-86993996D01*
X143987484Y-87047740D01*
X144043360Y-87076211D01*
X144043363Y-87076212D01*
X144120277Y-87101202D01*
X144215591Y-87132171D01*
X144335038Y-87151089D01*
X144377279Y-87157780D01*
X144440414Y-87187709D01*
X144477345Y-87247021D01*
X144476347Y-87316883D01*
X144437737Y-87375116D01*
X144377279Y-87402726D01*
X144215706Y-87428317D01*
X144043555Y-87484251D01*
X144043547Y-87484254D01*
X143882269Y-87566432D01*
X143866466Y-87577912D01*
X143866466Y-87577913D01*
X144355591Y-88067037D01*
X144292007Y-88084075D01*
X144177993Y-88149901D01*
X144084901Y-88242993D01*
X144019075Y-88357007D01*
X144002037Y-88420590D01*
X143512913Y-87931466D01*
X143509229Y-87931756D01*
X143440852Y-87917392D01*
X143391095Y-87868340D01*
X143375500Y-87808138D01*
X143375500Y-86821886D01*
X143395185Y-86754847D01*
X143447989Y-86709092D01*
X143517147Y-86699148D01*
X143580703Y-86728173D01*
G37*
%TD.AperFunction*%
%TA.AperFunction,Conductor*%
G36*
X163336917Y-86732959D02*
G01*
X163371277Y-86793796D01*
X163374500Y-86821886D01*
X163374500Y-87808138D01*
X163354815Y-87875177D01*
X163302011Y-87920932D01*
X163240773Y-87931756D01*
X163237086Y-87931465D01*
X162747962Y-88420589D01*
X162730925Y-88357007D01*
X162665099Y-88242993D01*
X162572007Y-88149901D01*
X162457993Y-88084075D01*
X162394409Y-88067037D01*
X162883533Y-87577913D01*
X162867730Y-87566431D01*
X162706447Y-87484252D01*
X162706444Y-87484251D01*
X162534293Y-87428317D01*
X162372720Y-87402726D01*
X162309585Y-87372797D01*
X162272654Y-87313485D01*
X162273652Y-87243623D01*
X162312262Y-87185390D01*
X162372720Y-87157780D01*
X162387270Y-87155475D01*
X162534409Y-87132171D01*
X162706639Y-87076211D01*
X162867994Y-86993996D01*
X163014501Y-86887553D01*
X163142553Y-86759501D01*
X163150180Y-86749003D01*
X163205508Y-86706336D01*
X163275121Y-86700355D01*
X163336917Y-86732959D01*
G37*
%TD.AperFunction*%
%TD*%
%TA.AperFunction,NonConductor*%
G36*
X143549584Y-84610774D02*
G01*
X143565009Y-84617585D01*
X143590135Y-84620500D01*
X144327873Y-84620499D01*
X144394911Y-84640183D01*
X144440666Y-84692987D01*
X144450610Y-84762146D01*
X144421585Y-84825702D01*
X144362807Y-84863476D01*
X144347271Y-84866972D01*
X144215589Y-84887829D01*
X144043363Y-84943787D01*
X144043360Y-84943788D01*
X143882002Y-85026006D01*
X143735505Y-85132441D01*
X143735500Y-85132445D01*
X143607445Y-85260500D01*
X143607441Y-85260505D01*
X143599818Y-85270998D01*
X143544488Y-85313664D01*
X143474875Y-85319643D01*
X143413080Y-85287037D01*
X143378723Y-85226199D01*
X143375500Y-85198113D01*
X143375500Y-84724209D01*
X143395185Y-84657170D01*
X143447989Y-84611415D01*
X143517147Y-84601471D01*
X143549584Y-84610774D01*
G37*
%TD.AperFunction*%
%TA.AperFunction,NonConductor*%
G36*
X163332876Y-84631525D02*
G01*
X163369907Y-84690774D01*
X163374500Y-84724209D01*
X163374500Y-85198113D01*
X163354815Y-85265152D01*
X163302011Y-85310907D01*
X163232853Y-85320851D01*
X163169297Y-85291826D01*
X163150182Y-85270998D01*
X163142558Y-85260505D01*
X163142554Y-85260500D01*
X163014499Y-85132445D01*
X163014494Y-85132441D01*
X162867997Y-85026006D01*
X162867996Y-85026005D01*
X162867994Y-85026004D01*
X162816300Y-84999664D01*
X162706639Y-84943788D01*
X162706636Y-84943787D01*
X162534410Y-84887829D01*
X162402728Y-84866972D01*
X162339594Y-84837042D01*
X162302663Y-84777731D01*
X162303661Y-84707868D01*
X162342271Y-84649636D01*
X162406235Y-84621522D01*
X162422120Y-84620499D01*
X163159864Y-84620499D01*
X163159879Y-84620497D01*
X163159882Y-84620497D01*
X163184986Y-84617586D01*
X163184987Y-84617585D01*
X163184991Y-84617585D01*
X163200415Y-84610774D01*
X163269690Y-84601703D01*
X163332876Y-84631525D01*
G37*
%TD.AperFunction*%
%TA.AperFunction,NonConductor*%
G36*
X145084783Y-84640184D02*
G01*
X145105425Y-84656818D01*
X147589181Y-87140574D01*
X147622666Y-87201897D01*
X147625500Y-87228255D01*
X147625500Y-88284745D01*
X147605815Y-88351784D01*
X147553011Y-88397539D01*
X147483853Y-88407483D01*
X147420297Y-88378458D01*
X147413819Y-88372426D01*
X145590674Y-86549281D01*
X145557189Y-86487958D01*
X145560423Y-86423284D01*
X145607171Y-86279409D01*
X145635500Y-86100551D01*
X145635500Y-85919448D01*
X145619019Y-85815397D01*
X145607171Y-85740591D01*
X145551211Y-85568361D01*
X145551211Y-85568360D01*
X145522740Y-85512484D01*
X145468996Y-85407006D01*
X145460219Y-85394926D01*
X145373638Y-85275755D01*
X145373634Y-85275751D01*
X145362553Y-85260499D01*
X145234501Y-85132447D01*
X145219248Y-85121365D01*
X145219244Y-85121361D01*
X145087997Y-85026006D01*
X145087996Y-85026005D01*
X145087994Y-85026004D01*
X145036300Y-84999664D01*
X144926639Y-84943788D01*
X144926636Y-84943787D01*
X144754410Y-84887829D01*
X144622728Y-84866972D01*
X144559593Y-84837042D01*
X144522662Y-84777731D01*
X144523660Y-84707868D01*
X144562270Y-84649636D01*
X144626234Y-84621522D01*
X144642121Y-84620499D01*
X145017744Y-84620499D01*
X145084783Y-84640184D01*
G37*
%TD.AperFunction*%
%TA.AperFunction,NonConductor*%
G36*
X143580703Y-91808173D02*
G01*
X143599821Y-91829004D01*
X143607446Y-91839500D01*
X143735500Y-91967554D01*
X143735505Y-91967558D01*
X143863287Y-92060396D01*
X143882006Y-92073996D01*
X143987484Y-92127740D01*
X144043360Y-92156211D01*
X144043363Y-92156212D01*
X144129476Y-92184191D01*
X144215591Y-92212171D01*
X144288639Y-92223740D01*
X144375678Y-92237527D01*
X144438813Y-92267456D01*
X144475744Y-92326768D01*
X144474746Y-92396631D01*
X144436136Y-92454863D01*
X144375678Y-92482473D01*
X144215589Y-92507829D01*
X144043363Y-92563787D01*
X144043360Y-92563788D01*
X143882002Y-92646006D01*
X143735505Y-92752441D01*
X143735500Y-92752445D01*
X143607445Y-92880500D01*
X143607441Y-92880505D01*
X143599818Y-92890998D01*
X143544488Y-92933664D01*
X143474875Y-92939643D01*
X143413080Y-92907037D01*
X143378723Y-92846199D01*
X143375500Y-92818113D01*
X143375500Y-91901886D01*
X143395185Y-91834847D01*
X143447989Y-91789092D01*
X143517147Y-91779148D01*
X143580703Y-91808173D01*
G37*
%TD.AperFunction*%
%TA.AperFunction,NonConductor*%
G36*
X163336917Y-91812959D02*
G01*
X163371277Y-91873796D01*
X163374500Y-91901886D01*
X163374500Y-92818113D01*
X163354815Y-92885152D01*
X163302011Y-92930907D01*
X163232853Y-92940851D01*
X163169297Y-92911826D01*
X163150182Y-92890998D01*
X163142558Y-92880505D01*
X163142554Y-92880500D01*
X163014499Y-92752445D01*
X163014494Y-92752441D01*
X162867997Y-92646006D01*
X162867996Y-92646005D01*
X162867994Y-92646004D01*
X162816300Y-92619664D01*
X162706639Y-92563788D01*
X162706636Y-92563787D01*
X162534410Y-92507829D01*
X162374321Y-92482473D01*
X162311186Y-92452544D01*
X162274255Y-92393232D01*
X162275253Y-92323370D01*
X162313863Y-92265137D01*
X162374321Y-92237527D01*
X162444425Y-92226422D01*
X162534409Y-92212171D01*
X162706639Y-92156211D01*
X162867994Y-92073996D01*
X163014501Y-91967553D01*
X163142553Y-91839501D01*
X163150180Y-91829003D01*
X163205508Y-91786336D01*
X163275121Y-91780355D01*
X163336917Y-91812959D01*
G37*
%TD.AperFunction*%
%TA.AperFunction,NonConductor*%
G36*
X143580703Y-94348173D02*
G01*
X143599821Y-94369004D01*
X143607446Y-94379500D01*
X143735500Y-94507554D01*
X143735505Y-94507558D01*
X143863287Y-94600396D01*
X143882006Y-94613996D01*
X143987484Y-94667740D01*
X144043360Y-94696211D01*
X144043363Y-94696212D01*
X144129476Y-94724191D01*
X144215591Y-94752171D01*
X144288639Y-94763740D01*
X144375678Y-94777527D01*
X144438813Y-94807456D01*
X144475744Y-94866768D01*
X144474746Y-94936631D01*
X144436136Y-94994863D01*
X144375678Y-95022473D01*
X144215589Y-95047829D01*
X144043363Y-95103787D01*
X144043360Y-95103788D01*
X143882002Y-95186006D01*
X143735505Y-95292441D01*
X143735500Y-95292445D01*
X143607445Y-95420500D01*
X143607441Y-95420505D01*
X143599818Y-95430998D01*
X143544488Y-95473664D01*
X143474875Y-95479643D01*
X143413080Y-95447037D01*
X143378723Y-95386199D01*
X143375500Y-95358113D01*
X143375500Y-94441886D01*
X143395185Y-94374847D01*
X143447989Y-94329092D01*
X143517147Y-94319148D01*
X143580703Y-94348173D01*
G37*
%TD.AperFunction*%
%TA.AperFunction,NonConductor*%
G36*
X163336917Y-94352959D02*
G01*
X163371277Y-94413796D01*
X163374500Y-94441886D01*
X163374500Y-95358113D01*
X163354815Y-95425152D01*
X163302011Y-95470907D01*
X163232853Y-95480851D01*
X163169297Y-95451826D01*
X163150182Y-95430998D01*
X163142558Y-95420505D01*
X163142554Y-95420500D01*
X163014499Y-95292445D01*
X163014494Y-95292441D01*
X162867997Y-95186006D01*
X162867996Y-95186005D01*
X162867994Y-95186004D01*
X162816300Y-95159664D01*
X162706639Y-95103788D01*
X162706636Y-95103787D01*
X162534410Y-95047829D01*
X162374321Y-95022473D01*
X162311186Y-94992544D01*
X162274255Y-94933232D01*
X162275253Y-94863370D01*
X162313863Y-94805137D01*
X162374321Y-94777527D01*
X162444425Y-94766422D01*
X162534409Y-94752171D01*
X162706639Y-94696211D01*
X162867994Y-94613996D01*
X163014501Y-94507553D01*
X163142553Y-94379501D01*
X163150180Y-94369003D01*
X163205508Y-94326336D01*
X163275121Y-94320355D01*
X163336917Y-94352959D01*
G37*
%TD.AperFunction*%
%TA.AperFunction,NonConductor*%
G36*
X143580703Y-96888173D02*
G01*
X143599821Y-96909004D01*
X143607446Y-96919500D01*
X143735500Y-97047554D01*
X143735505Y-97047558D01*
X143863287Y-97140396D01*
X143882006Y-97153996D01*
X143987484Y-97207740D01*
X144043360Y-97236211D01*
X144043363Y-97236212D01*
X144129476Y-97264191D01*
X144215591Y-97292171D01*
X144288639Y-97303740D01*
X144375678Y-97317527D01*
X144438813Y-97347456D01*
X144475744Y-97406768D01*
X144474746Y-97476631D01*
X144436136Y-97534863D01*
X144375678Y-97562473D01*
X144215589Y-97587829D01*
X144043363Y-97643787D01*
X144043360Y-97643788D01*
X143882002Y-97726006D01*
X143735505Y-97832441D01*
X143735500Y-97832445D01*
X143607445Y-97960500D01*
X143607441Y-97960505D01*
X143599818Y-97970998D01*
X143544488Y-98013664D01*
X143474875Y-98019643D01*
X143413080Y-97987037D01*
X143378723Y-97926199D01*
X143375500Y-97898113D01*
X143375500Y-96981886D01*
X143395185Y-96914847D01*
X143447989Y-96869092D01*
X143517147Y-96859148D01*
X143580703Y-96888173D01*
G37*
%TD.AperFunction*%
%TA.AperFunction,NonConductor*%
G36*
X163336917Y-96892959D02*
G01*
X163371277Y-96953796D01*
X163374500Y-96981886D01*
X163374500Y-97898113D01*
X163354815Y-97965152D01*
X163302011Y-98010907D01*
X163232853Y-98020851D01*
X163169297Y-97991826D01*
X163150182Y-97970998D01*
X163142558Y-97960505D01*
X163142554Y-97960500D01*
X163014499Y-97832445D01*
X163014494Y-97832441D01*
X162867997Y-97726006D01*
X162867996Y-97726005D01*
X162867994Y-97726004D01*
X162816300Y-97699664D01*
X162706639Y-97643788D01*
X162706636Y-97643787D01*
X162534410Y-97587829D01*
X162374321Y-97562473D01*
X162311186Y-97532544D01*
X162274255Y-97473232D01*
X162275253Y-97403370D01*
X162313863Y-97345137D01*
X162374321Y-97317527D01*
X162444425Y-97306422D01*
X162534409Y-97292171D01*
X162706639Y-97236211D01*
X162867994Y-97153996D01*
X163014501Y-97047553D01*
X163142553Y-96919501D01*
X163150180Y-96909003D01*
X163205508Y-96866336D01*
X163275121Y-96860355D01*
X163336917Y-96892959D01*
G37*
%TD.AperFunction*%
%TA.AperFunction,NonConductor*%
G36*
X143580703Y-104508173D02*
G01*
X143599821Y-104529004D01*
X143607446Y-104539500D01*
X143735500Y-104667554D01*
X143735505Y-104667558D01*
X143784326Y-104703028D01*
X143882006Y-104773996D01*
X143987484Y-104827740D01*
X144043360Y-104856211D01*
X144043363Y-104856212D01*
X144129476Y-104884191D01*
X144215591Y-104912171D01*
X144288639Y-104923740D01*
X144375678Y-104937527D01*
X144438813Y-104967456D01*
X144475744Y-105026768D01*
X144474746Y-105096631D01*
X144436136Y-105154863D01*
X144375678Y-105182473D01*
X144215589Y-105207829D01*
X144043363Y-105263787D01*
X144043360Y-105263788D01*
X143882002Y-105346006D01*
X143735505Y-105452441D01*
X143735500Y-105452445D01*
X143607445Y-105580500D01*
X143607441Y-105580505D01*
X143599818Y-105590998D01*
X143544488Y-105633664D01*
X143474875Y-105639643D01*
X143413080Y-105607037D01*
X143378723Y-105546199D01*
X143375500Y-105518113D01*
X143375500Y-104601886D01*
X143395185Y-104534847D01*
X143447989Y-104489092D01*
X143517147Y-104479148D01*
X143580703Y-104508173D01*
G37*
%TD.AperFunction*%
%TA.AperFunction,NonConductor*%
G36*
X163336917Y-104512959D02*
G01*
X163371277Y-104573796D01*
X163374500Y-104601886D01*
X163374500Y-105518113D01*
X163354815Y-105585152D01*
X163302011Y-105630907D01*
X163232853Y-105640851D01*
X163169297Y-105611826D01*
X163150182Y-105590998D01*
X163142558Y-105580505D01*
X163142554Y-105580500D01*
X163014499Y-105452445D01*
X163014494Y-105452441D01*
X162867997Y-105346006D01*
X162867996Y-105346005D01*
X162867994Y-105346004D01*
X162816300Y-105319664D01*
X162706639Y-105263788D01*
X162706636Y-105263787D01*
X162534410Y-105207829D01*
X162374321Y-105182473D01*
X162311186Y-105152544D01*
X162274255Y-105093232D01*
X162275253Y-105023370D01*
X162313863Y-104965137D01*
X162374321Y-104937527D01*
X162444425Y-104926422D01*
X162534409Y-104912171D01*
X162706639Y-104856211D01*
X162867994Y-104773996D01*
X163014501Y-104667553D01*
X163142553Y-104539501D01*
X163150180Y-104529003D01*
X163205508Y-104486336D01*
X163275121Y-104480355D01*
X163336917Y-104512959D01*
G37*
%TD.AperFunction*%
%TA.AperFunction,NonConductor*%
G36*
X143580703Y-107048173D02*
G01*
X143599821Y-107069004D01*
X143607446Y-107079500D01*
X143735500Y-107207554D01*
X143735505Y-107207558D01*
X143842133Y-107285027D01*
X143882006Y-107313996D01*
X143974087Y-107360914D01*
X144043360Y-107396211D01*
X144043363Y-107396212D01*
X144129476Y-107424191D01*
X144215591Y-107452171D01*
X144288639Y-107463740D01*
X144375678Y-107477527D01*
X144438813Y-107507456D01*
X144475744Y-107566768D01*
X144474746Y-107636631D01*
X144436136Y-107694863D01*
X144375678Y-107722473D01*
X144215589Y-107747829D01*
X144043363Y-107803787D01*
X144043360Y-107803788D01*
X143882002Y-107886006D01*
X143735505Y-107992441D01*
X143735500Y-107992445D01*
X143607445Y-108120500D01*
X143607441Y-108120505D01*
X143599818Y-108130998D01*
X143544488Y-108173664D01*
X143474875Y-108179643D01*
X143413080Y-108147037D01*
X143378723Y-108086199D01*
X143375500Y-108058113D01*
X143375500Y-107141886D01*
X143395185Y-107074847D01*
X143447989Y-107029092D01*
X143517147Y-107019148D01*
X143580703Y-107048173D01*
G37*
%TD.AperFunction*%
%TA.AperFunction,NonConductor*%
G36*
X163336917Y-107052959D02*
G01*
X163371277Y-107113796D01*
X163374500Y-107141886D01*
X163374500Y-108058113D01*
X163354815Y-108125152D01*
X163302011Y-108170907D01*
X163232853Y-108180851D01*
X163169297Y-108151826D01*
X163150182Y-108130998D01*
X163142558Y-108120505D01*
X163142554Y-108120500D01*
X163014499Y-107992445D01*
X163014494Y-107992441D01*
X162867997Y-107886006D01*
X162867996Y-107886005D01*
X162867994Y-107886004D01*
X162816300Y-107859664D01*
X162706639Y-107803788D01*
X162706636Y-107803787D01*
X162534410Y-107747829D01*
X162374321Y-107722473D01*
X162311186Y-107692544D01*
X162274255Y-107633232D01*
X162275253Y-107563370D01*
X162313863Y-107505137D01*
X162374321Y-107477527D01*
X162444425Y-107466422D01*
X162534409Y-107452171D01*
X162706639Y-107396211D01*
X162867994Y-107313996D01*
X163014501Y-107207553D01*
X163142553Y-107079501D01*
X163150180Y-107069003D01*
X163205508Y-107026336D01*
X163275121Y-107020355D01*
X163336917Y-107052959D01*
G37*
%TD.AperFunction*%
%TA.AperFunction,NonConductor*%
G36*
X161851716Y-109945424D02*
G01*
X161995591Y-109992171D01*
X162068639Y-110003740D01*
X162155678Y-110017527D01*
X162218813Y-110047456D01*
X162255744Y-110106768D01*
X162254746Y-110176631D01*
X162216136Y-110234863D01*
X162155678Y-110262473D01*
X161995589Y-110287829D01*
X161823363Y-110343787D01*
X161823360Y-110343788D01*
X161662003Y-110426005D01*
X161612384Y-110462055D01*
X161546577Y-110485534D01*
X161478524Y-110469708D01*
X161429830Y-110419601D01*
X161415500Y-110361736D01*
X161415500Y-110337254D01*
X161435185Y-110270215D01*
X161451815Y-110249577D01*
X161725719Y-109975672D01*
X161739072Y-109968381D01*
X161749364Y-109957168D01*
X161769116Y-109951976D01*
X161787040Y-109942189D01*
X161803263Y-109943000D01*
X161816939Y-109939406D01*
X161851716Y-109945424D01*
G37*
%TD.AperFunction*%
%TA.AperFunction,NonConductor*%
G36*
X143580703Y-109588173D02*
G01*
X143599821Y-109609004D01*
X143607446Y-109619500D01*
X143735500Y-109747554D01*
X143735505Y-109747558D01*
X143851432Y-109831783D01*
X143882006Y-109853996D01*
X143987484Y-109907740D01*
X144043360Y-109936211D01*
X144043363Y-109936212D01*
X144091881Y-109951976D01*
X144215591Y-109992171D01*
X144288639Y-110003740D01*
X144375678Y-110017527D01*
X144438813Y-110047456D01*
X144475744Y-110106768D01*
X144474746Y-110176631D01*
X144436136Y-110234863D01*
X144375678Y-110262473D01*
X144215589Y-110287829D01*
X144043363Y-110343787D01*
X144043360Y-110343788D01*
X143882002Y-110426006D01*
X143735505Y-110532441D01*
X143735500Y-110532445D01*
X143607445Y-110660500D01*
X143607441Y-110660505D01*
X143599818Y-110670998D01*
X143544488Y-110713664D01*
X143474875Y-110719643D01*
X143413080Y-110687037D01*
X143378723Y-110626199D01*
X143375500Y-110598113D01*
X143375500Y-109681886D01*
X143395185Y-109614847D01*
X143447989Y-109569092D01*
X143517147Y-109559148D01*
X143580703Y-109588173D01*
G37*
%TD.AperFunction*%
%TA.AperFunction,NonConductor*%
G36*
X163336917Y-109592959D02*
G01*
X163371277Y-109653796D01*
X163374500Y-109681886D01*
X163374500Y-110598113D01*
X163354815Y-110665152D01*
X163302011Y-110710907D01*
X163232853Y-110720851D01*
X163169297Y-110691826D01*
X163150182Y-110670998D01*
X163142558Y-110660505D01*
X163142554Y-110660500D01*
X163014499Y-110532445D01*
X163014494Y-110532441D01*
X162867997Y-110426006D01*
X162867996Y-110426005D01*
X162867994Y-110426004D01*
X162816300Y-110399664D01*
X162706639Y-110343788D01*
X162706636Y-110343787D01*
X162534410Y-110287829D01*
X162374321Y-110262473D01*
X162311186Y-110232544D01*
X162274255Y-110173232D01*
X162275253Y-110103370D01*
X162313863Y-110045137D01*
X162374321Y-110017527D01*
X162444425Y-110006422D01*
X162534409Y-109992171D01*
X162706639Y-109936211D01*
X162867994Y-109853996D01*
X163014501Y-109747553D01*
X163142553Y-109619501D01*
X163150180Y-109609003D01*
X163205508Y-109566336D01*
X163275121Y-109560355D01*
X163336917Y-109592959D01*
G37*
%TD.AperFunction*%
%TA.AperFunction,NonConductor*%
G36*
X161570268Y-112340850D02*
G01*
X161581170Y-112341474D01*
X161612385Y-112357945D01*
X161646842Y-112382979D01*
X161662006Y-112393996D01*
X161764426Y-112446182D01*
X161823360Y-112476211D01*
X161823363Y-112476212D01*
X161909476Y-112504191D01*
X161995591Y-112532171D01*
X162115038Y-112551089D01*
X162157279Y-112557780D01*
X162220414Y-112587709D01*
X162257345Y-112647021D01*
X162256347Y-112716883D01*
X162217737Y-112775116D01*
X162157279Y-112802726D01*
X161995706Y-112828317D01*
X161823555Y-112884251D01*
X161823552Y-112884252D01*
X161662266Y-112966433D01*
X161612384Y-113002674D01*
X161546577Y-113026153D01*
X161478524Y-113010327D01*
X161429830Y-112960220D01*
X161415500Y-112902355D01*
X161415500Y-112458263D01*
X161419047Y-112446182D01*
X161417970Y-112433638D01*
X161428704Y-112413293D01*
X161435185Y-112391224D01*
X161444700Y-112382979D01*
X161450576Y-112371843D01*
X161470606Y-112360531D01*
X161487989Y-112345469D01*
X161500450Y-112343677D01*
X161511414Y-112337486D01*
X161534378Y-112338798D01*
X161557147Y-112335525D01*
X161570268Y-112340850D01*
G37*
%TD.AperFunction*%
%TA.AperFunction,NonConductor*%
G36*
X143580703Y-117208173D02*
G01*
X143599821Y-117229004D01*
X143607446Y-117239500D01*
X143735500Y-117367554D01*
X143735505Y-117367558D01*
X143863287Y-117460396D01*
X143882006Y-117473996D01*
X143987484Y-117527740D01*
X144043360Y-117556211D01*
X144043363Y-117556212D01*
X144129476Y-117584191D01*
X144215591Y-117612171D01*
X144288639Y-117623740D01*
X144375678Y-117637527D01*
X144438813Y-117667456D01*
X144475744Y-117726768D01*
X144474746Y-117796631D01*
X144436136Y-117854863D01*
X144375678Y-117882473D01*
X144215589Y-117907829D01*
X144043363Y-117963787D01*
X144043360Y-117963788D01*
X143882002Y-118046006D01*
X143735505Y-118152441D01*
X143735500Y-118152445D01*
X143607445Y-118280500D01*
X143607441Y-118280505D01*
X143599818Y-118290998D01*
X143544488Y-118333664D01*
X143474875Y-118339643D01*
X143413080Y-118307037D01*
X143378723Y-118246199D01*
X143375500Y-118218113D01*
X143375500Y-117301886D01*
X143395185Y-117234847D01*
X143447989Y-117189092D01*
X143517147Y-117179148D01*
X143580703Y-117208173D01*
G37*
%TD.AperFunction*%
%TA.AperFunction,NonConductor*%
G36*
X163336917Y-117212959D02*
G01*
X163371277Y-117273796D01*
X163374500Y-117301886D01*
X163374500Y-118218113D01*
X163354815Y-118285152D01*
X163302011Y-118330907D01*
X163232853Y-118340851D01*
X163169297Y-118311826D01*
X163150182Y-118290998D01*
X163142558Y-118280505D01*
X163142554Y-118280500D01*
X163014499Y-118152445D01*
X163014494Y-118152441D01*
X162867997Y-118046006D01*
X162867996Y-118046005D01*
X162867994Y-118046004D01*
X162816300Y-118019664D01*
X162706639Y-117963788D01*
X162706636Y-117963787D01*
X162534410Y-117907829D01*
X162374321Y-117882473D01*
X162311186Y-117852544D01*
X162274255Y-117793232D01*
X162275253Y-117723370D01*
X162313863Y-117665137D01*
X162374321Y-117637527D01*
X162444425Y-117626422D01*
X162534409Y-117612171D01*
X162706639Y-117556211D01*
X162867994Y-117473996D01*
X163014501Y-117367553D01*
X163142553Y-117239501D01*
X163150180Y-117229003D01*
X163205508Y-117186336D01*
X163275121Y-117180355D01*
X163336917Y-117212959D01*
G37*
%TD.AperFunction*%
%TA.AperFunction,NonConductor*%
G36*
X143580703Y-119748173D02*
G01*
X143599821Y-119769004D01*
X143607446Y-119779500D01*
X143735500Y-119907554D01*
X143735505Y-119907558D01*
X143863287Y-120000396D01*
X143882006Y-120013996D01*
X143987484Y-120067740D01*
X144043360Y-120096211D01*
X144043363Y-120096212D01*
X144129476Y-120124191D01*
X144215591Y-120152171D01*
X144288639Y-120163740D01*
X144375678Y-120177527D01*
X144438813Y-120207456D01*
X144475744Y-120266768D01*
X144474746Y-120336631D01*
X144436136Y-120394863D01*
X144375678Y-120422473D01*
X144215589Y-120447829D01*
X144043363Y-120503787D01*
X144043360Y-120503788D01*
X143882002Y-120586006D01*
X143735505Y-120692441D01*
X143735500Y-120692445D01*
X143607445Y-120820500D01*
X143607441Y-120820505D01*
X143599818Y-120830998D01*
X143544488Y-120873664D01*
X143474875Y-120879643D01*
X143413080Y-120847037D01*
X143378723Y-120786199D01*
X143375500Y-120758113D01*
X143375500Y-119841886D01*
X143395185Y-119774847D01*
X143447989Y-119729092D01*
X143517147Y-119719148D01*
X143580703Y-119748173D01*
G37*
%TD.AperFunction*%
%TA.AperFunction,NonConductor*%
G36*
X163336917Y-119752959D02*
G01*
X163371277Y-119813796D01*
X163374500Y-119841886D01*
X163374500Y-120758113D01*
X163354815Y-120825152D01*
X163302011Y-120870907D01*
X163232853Y-120880851D01*
X163169297Y-120851826D01*
X163150182Y-120830998D01*
X163142558Y-120820505D01*
X163142554Y-120820500D01*
X163014499Y-120692445D01*
X163014494Y-120692441D01*
X162867997Y-120586006D01*
X162867996Y-120586005D01*
X162867994Y-120586004D01*
X162816300Y-120559664D01*
X162706639Y-120503788D01*
X162706636Y-120503787D01*
X162534410Y-120447829D01*
X162374321Y-120422473D01*
X162311186Y-120392544D01*
X162274255Y-120333232D01*
X162275253Y-120263370D01*
X162313863Y-120205137D01*
X162374321Y-120177527D01*
X162444425Y-120166422D01*
X162534409Y-120152171D01*
X162706639Y-120096211D01*
X162867994Y-120013996D01*
X163014501Y-119907553D01*
X163142553Y-119779501D01*
X163150180Y-119769003D01*
X163205508Y-119726336D01*
X163275121Y-119720355D01*
X163336917Y-119752959D01*
G37*
%TD.AperFunction*%
%TA.AperFunction,NonConductor*%
G36*
X143580703Y-122288173D02*
G01*
X143599821Y-122309004D01*
X143607446Y-122319500D01*
X143735500Y-122447554D01*
X143735505Y-122447558D01*
X143863287Y-122540396D01*
X143882006Y-122553996D01*
X143987484Y-122607740D01*
X144043360Y-122636211D01*
X144043363Y-122636212D01*
X144129476Y-122664191D01*
X144215591Y-122692171D01*
X144288639Y-122703740D01*
X144375678Y-122717527D01*
X144438813Y-122747456D01*
X144475744Y-122806768D01*
X144474746Y-122876631D01*
X144436136Y-122934863D01*
X144375678Y-122962473D01*
X144215589Y-122987829D01*
X144043363Y-123043787D01*
X144043360Y-123043788D01*
X143882002Y-123126006D01*
X143735505Y-123232441D01*
X143735500Y-123232445D01*
X143607445Y-123360500D01*
X143607441Y-123360505D01*
X143599818Y-123370998D01*
X143544488Y-123413664D01*
X143474875Y-123419643D01*
X143413080Y-123387037D01*
X143378723Y-123326199D01*
X143375500Y-123298113D01*
X143375500Y-122381886D01*
X143395185Y-122314847D01*
X143447989Y-122269092D01*
X143517147Y-122259148D01*
X143580703Y-122288173D01*
G37*
%TD.AperFunction*%
%TA.AperFunction,NonConductor*%
G36*
X163336917Y-122292959D02*
G01*
X163371277Y-122353796D01*
X163374500Y-122381886D01*
X163374500Y-123298113D01*
X163354815Y-123365152D01*
X163302011Y-123410907D01*
X163232853Y-123420851D01*
X163169297Y-123391826D01*
X163150182Y-123370998D01*
X163142558Y-123360505D01*
X163142554Y-123360500D01*
X163014499Y-123232445D01*
X163014494Y-123232441D01*
X162867997Y-123126006D01*
X162867996Y-123126005D01*
X162867994Y-123126004D01*
X162816300Y-123099664D01*
X162706639Y-123043788D01*
X162706636Y-123043787D01*
X162534410Y-122987829D01*
X162374321Y-122962473D01*
X162311186Y-122932544D01*
X162274255Y-122873232D01*
X162275253Y-122803370D01*
X162313863Y-122745137D01*
X162374321Y-122717527D01*
X162444425Y-122706422D01*
X162534409Y-122692171D01*
X162706639Y-122636211D01*
X162867994Y-122553996D01*
X163014501Y-122447553D01*
X163142553Y-122319501D01*
X163150180Y-122309003D01*
X163205508Y-122266336D01*
X163275121Y-122260355D01*
X163336917Y-122292959D01*
G37*
%TD.AperFunction*%
%TA.AperFunction,NonConductor*%
G36*
X143580703Y-129908173D02*
G01*
X143599821Y-129929004D01*
X143607446Y-129939500D01*
X143735500Y-130067554D01*
X143735505Y-130067558D01*
X143862081Y-130159520D01*
X143882006Y-130173996D01*
X143963462Y-130215500D01*
X144043360Y-130256211D01*
X144043363Y-130256212D01*
X144124392Y-130282539D01*
X144215591Y-130312171D01*
X144288639Y-130323740D01*
X144375678Y-130337527D01*
X144438813Y-130367456D01*
X144475744Y-130426768D01*
X144474746Y-130496631D01*
X144436136Y-130554863D01*
X144375678Y-130582473D01*
X144215589Y-130607829D01*
X144043363Y-130663787D01*
X144043360Y-130663788D01*
X143882002Y-130746006D01*
X143735505Y-130852441D01*
X143735500Y-130852445D01*
X143607445Y-130980500D01*
X143607441Y-130980505D01*
X143599818Y-130990998D01*
X143544488Y-131033664D01*
X143474875Y-131039643D01*
X143413080Y-131007037D01*
X143378723Y-130946199D01*
X143375500Y-130918113D01*
X143375500Y-130001886D01*
X143395185Y-129934847D01*
X143447989Y-129889092D01*
X143517147Y-129879148D01*
X143580703Y-129908173D01*
G37*
%TD.AperFunction*%
%TA.AperFunction,NonConductor*%
G36*
X163336917Y-129912959D02*
G01*
X163371277Y-129973796D01*
X163374500Y-130001886D01*
X163374500Y-130918113D01*
X163354815Y-130985152D01*
X163302011Y-131030907D01*
X163232853Y-131040851D01*
X163169297Y-131011826D01*
X163150182Y-130990998D01*
X163142558Y-130980505D01*
X163142554Y-130980500D01*
X163014499Y-130852445D01*
X163014494Y-130852441D01*
X162867997Y-130746006D01*
X162867996Y-130746005D01*
X162867994Y-130746004D01*
X162816300Y-130719664D01*
X162706639Y-130663788D01*
X162706636Y-130663787D01*
X162534410Y-130607829D01*
X162374321Y-130582473D01*
X162311186Y-130552544D01*
X162274255Y-130493232D01*
X162275253Y-130423370D01*
X162313863Y-130365137D01*
X162374321Y-130337527D01*
X162444425Y-130326422D01*
X162534409Y-130312171D01*
X162706639Y-130256211D01*
X162867994Y-130173996D01*
X163014501Y-130067553D01*
X163142553Y-129939501D01*
X163150180Y-129929003D01*
X163205508Y-129886336D01*
X163275121Y-129880355D01*
X163336917Y-129912959D01*
G37*
%TD.AperFunction*%
M02*
