%TF.GenerationSoftware,KiCad,Pcbnew,9.0.6*%
%TF.CreationDate,2025-12-22T21:30:02-08:00*%
%TF.ProjectId,Devboard,44657662-6f61-4726-942e-6b696361645f,rev?*%
%TF.SameCoordinates,Original*%
%TF.FileFunction,Copper,L1,Top*%
%TF.FilePolarity,Positive*%
%FSLAX46Y46*%
G04 Gerber Fmt 4.6, Leading zero omitted, Abs format (unit mm)*
G04 Created by KiCad (PCBNEW 9.0.6) date 2025-12-22 21:30:02*
%MOMM*%
%LPD*%
G01*
G04 APERTURE LIST*
G04 Aperture macros list*
%AMRoundRect*
0 Rectangle with rounded corners*
0 $1 Rounding radius*
0 $2 $3 $4 $5 $6 $7 $8 $9 X,Y pos of 4 corners*
0 Add a 4 corners polygon primitive as box body*
4,1,4,$2,$3,$4,$5,$6,$7,$8,$9,$2,$3,0*
0 Add four circle primitives for the rounded corners*
1,1,$1+$1,$2,$3*
1,1,$1+$1,$4,$5*
1,1,$1+$1,$6,$7*
1,1,$1+$1,$8,$9*
0 Add four rect primitives between the rounded corners*
20,1,$1+$1,$2,$3,$4,$5,0*
20,1,$1+$1,$4,$5,$6,$7,0*
20,1,$1+$1,$6,$7,$8,$9,0*
20,1,$1+$1,$8,$9,$2,$3,0*%
G04 Aperture macros list end*
%TA.AperFunction,SMDPad,CuDef*%
%ADD10RoundRect,0.140000X0.170000X-0.140000X0.170000X0.140000X-0.170000X0.140000X-0.170000X-0.140000X0*%
%TD*%
%TA.AperFunction,SMDPad,CuDef*%
%ADD11RoundRect,0.225000X0.225000X0.250000X-0.225000X0.250000X-0.225000X-0.250000X0.225000X-0.250000X0*%
%TD*%
%TA.AperFunction,SMDPad,CuDef*%
%ADD12RoundRect,0.140000X0.140000X0.170000X-0.140000X0.170000X-0.140000X-0.170000X0.140000X-0.170000X0*%
%TD*%
%TA.AperFunction,SMDPad,CuDef*%
%ADD13RoundRect,0.140000X-0.170000X0.140000X-0.170000X-0.140000X0.170000X-0.140000X0.170000X0.140000X0*%
%TD*%
%TA.AperFunction,SMDPad,CuDef*%
%ADD14RoundRect,0.250000X0.450000X0.350000X-0.450000X0.350000X-0.450000X-0.350000X0.450000X-0.350000X0*%
%TD*%
%TA.AperFunction,SMDPad,CuDef*%
%ADD15RoundRect,0.140000X0.021213X-0.219203X0.219203X-0.021213X-0.021213X0.219203X-0.219203X0.021213X0*%
%TD*%
%TA.AperFunction,SMDPad,CuDef*%
%ADD16RoundRect,0.135000X-0.135000X-0.185000X0.135000X-0.185000X0.135000X0.185000X-0.135000X0.185000X0*%
%TD*%
%TA.AperFunction,SMDPad,CuDef*%
%ADD17RoundRect,0.200000X-0.800000X0.200000X-0.800000X-0.200000X0.800000X-0.200000X0.800000X0.200000X0*%
%TD*%
%TA.AperFunction,ComponentPad*%
%ADD18R,1.700000X1.700000*%
%TD*%
%TA.AperFunction,ComponentPad*%
%ADD19C,1.700000*%
%TD*%
%TA.AperFunction,SMDPad,CuDef*%
%ADD20RoundRect,0.135000X0.135000X0.185000X-0.135000X0.185000X-0.135000X-0.185000X0.135000X-0.185000X0*%
%TD*%
%TA.AperFunction,SMDPad,CuDef*%
%ADD21RoundRect,0.135000X-0.185000X0.135000X-0.185000X-0.135000X0.185000X-0.135000X0.185000X0.135000X0*%
%TD*%
%TA.AperFunction,SMDPad,CuDef*%
%ADD22RoundRect,0.050000X-0.387500X-0.050000X0.387500X-0.050000X0.387500X0.050000X-0.387500X0.050000X0*%
%TD*%
%TA.AperFunction,SMDPad,CuDef*%
%ADD23RoundRect,0.050000X-0.050000X-0.387500X0.050000X-0.387500X0.050000X0.387500X-0.050000X0.387500X0*%
%TD*%
%TA.AperFunction,HeatsinkPad*%
%ADD24R,3.200000X3.200000*%
%TD*%
%TA.AperFunction,SMDPad,CuDef*%
%ADD25R,0.600000X1.450000*%
%TD*%
%TA.AperFunction,SMDPad,CuDef*%
%ADD26R,0.300000X1.450000*%
%TD*%
%TA.AperFunction,HeatsinkPad*%
%ADD27O,1.000000X2.100000*%
%TD*%
%TA.AperFunction,HeatsinkPad*%
%ADD28O,1.000000X1.600000*%
%TD*%
%TA.AperFunction,SMDPad,CuDef*%
%ADD29RoundRect,0.140000X-0.140000X-0.170000X0.140000X-0.170000X0.140000X0.170000X-0.140000X0.170000X0*%
%TD*%
%TA.AperFunction,SMDPad,CuDef*%
%ADD30RoundRect,0.150000X0.150000X-0.587500X0.150000X0.587500X-0.150000X0.587500X-0.150000X-0.587500X0*%
%TD*%
%TA.AperFunction,SMDPad,CuDef*%
%ADD31RoundRect,0.062500X-0.387500X-0.062500X0.387500X-0.062500X0.387500X0.062500X-0.387500X0.062500X0*%
%TD*%
%TA.AperFunction,HeatsinkPad*%
%ADD32R,0.200000X1.600000*%
%TD*%
%TA.AperFunction,ViaPad*%
%ADD33C,0.600000*%
%TD*%
%TA.AperFunction,Conductor*%
%ADD34C,0.200000*%
%TD*%
G04 APERTURE END LIST*
D10*
%TO.P,C6,1*%
%TO.N,+3V3*%
X154425000Y-104030000D03*
%TO.P,C6,2*%
%TO.N,GND*%
X154425000Y-103070000D03*
%TD*%
%TO.P,C5,1*%
%TO.N,+3V3*%
X157075000Y-107230000D03*
%TO.P,C5,2*%
%TO.N,GND*%
X157075000Y-106270000D03*
%TD*%
D11*
%TO.P,C13,1*%
%TO.N,VBUS*%
X150740000Y-90780000D03*
%TO.P,C13,2*%
%TO.N,GND*%
X149190000Y-90780000D03*
%TD*%
D12*
%TO.P,C4,1*%
%TO.N,+3V3*%
X149005000Y-108000000D03*
%TO.P,C4,2*%
%TO.N,GND*%
X148045000Y-108000000D03*
%TD*%
D13*
%TO.P,C2,1*%
%TO.N,+3V3*%
X155175000Y-116750000D03*
%TO.P,C2,2*%
%TO.N,GND*%
X155175000Y-117710000D03*
%TD*%
D14*
%TO.P,Y1,1,1*%
%TO.N,Net-(C16-Pad2)*%
X153625000Y-118380000D03*
%TO.P,Y1,2,2*%
%TO.N,GND*%
X151425000Y-118380000D03*
%TO.P,Y1,3,3*%
%TO.N,XIN*%
X151425000Y-120080000D03*
%TO.P,Y1,4,4*%
%TO.N,GND*%
X153625000Y-120080000D03*
%TD*%
D15*
%TO.P,C1,1*%
%TO.N,+3V3*%
X158235589Y-106864411D03*
%TO.P,C1,2*%
%TO.N,GND*%
X158914411Y-106185589D03*
%TD*%
D10*
%TO.P,C7,1*%
%TO.N,+3V3*%
X155385000Y-103290000D03*
%TO.P,C7,2*%
%TO.N,GND*%
X155385000Y-102330000D03*
%TD*%
D16*
%TO.P,R7,1*%
%TO.N,QSPI_SS*%
X148585000Y-101970000D03*
%TO.P,R7,2*%
%TO.N,+3V3*%
X149605000Y-101970000D03*
%TD*%
D13*
%TO.P,C15,1*%
%TO.N,GND*%
X149875000Y-118920000D03*
%TO.P,C15,2*%
%TO.N,XIN*%
X149875000Y-119880000D03*
%TD*%
D16*
%TO.P,R6,1*%
%TO.N,QSPI_SS*%
X156390000Y-99250000D03*
%TO.P,R6,2*%
%TO.N,Net-(R6-Pad2)*%
X157410000Y-99250000D03*
%TD*%
D10*
%TO.P,C11,1*%
%TO.N,+1V1*%
X156100000Y-106900000D03*
%TO.P,C11,2*%
%TO.N,GND*%
X156100000Y-105940000D03*
%TD*%
D13*
%TO.P,C10,1*%
%TO.N,+1V1*%
X156215000Y-116760000D03*
%TO.P,C10,2*%
%TO.N,GND*%
X156215000Y-117720000D03*
%TD*%
D17*
%TO.P,SW1,1,1*%
%TO.N,GND*%
X156425000Y-93750000D03*
%TO.P,SW1,2,2*%
%TO.N,Net-(R6-Pad2)*%
X156425000Y-97950000D03*
%TD*%
D18*
%TO.P,J4,1,Pin_1*%
%TO.N,SWCLK*%
X150835000Y-131490000D03*
D19*
%TO.P,J4,2,Pin_2*%
%TO.N,GND*%
X153375000Y-131490000D03*
%TO.P,J4,3,Pin_3*%
%TO.N,SWD*%
X155915000Y-131490000D03*
%TD*%
D20*
%TO.P,R5,1*%
%TO.N,Net-(C16-Pad2)*%
X153825000Y-116910000D03*
%TO.P,R5,2*%
%TO.N,XOUT*%
X152805000Y-116910000D03*
%TD*%
D11*
%TO.P,C14,1*%
%TO.N,+3V3*%
X151750000Y-96550000D03*
%TO.P,C14,2*%
%TO.N,GND*%
X150200000Y-96550000D03*
%TD*%
D21*
%TO.P,R2,1*%
%TO.N,Net-(J1-CC1)*%
X154765000Y-90410000D03*
%TO.P,R2,2*%
%TO.N,GND*%
X154765000Y-91430000D03*
%TD*%
%TO.P,R3,1*%
%TO.N,USB_D+*%
X154050000Y-105580000D03*
%TO.P,R3,2*%
%TO.N,Net-(U1-USB_DP)*%
X154050000Y-106600000D03*
%TD*%
D22*
%TO.P,U1,1,IOVDD*%
%TO.N,+3V3*%
X149937500Y-109000000D03*
%TO.P,U1,2,GPIO0*%
%TO.N,GPIO0*%
X149937500Y-109400000D03*
%TO.P,U1,3,GPIO1*%
%TO.N,GPIO1*%
X149937500Y-109800000D03*
%TO.P,U1,4,GPIO2*%
%TO.N,GPIO2*%
X149937500Y-110200000D03*
%TO.P,U1,5,GPIO3*%
%TO.N,GPIO3*%
X149937500Y-110600000D03*
%TO.P,U1,6,GPIO4*%
%TO.N,GPIO4*%
X149937500Y-111000000D03*
%TO.P,U1,7,GPIO5*%
%TO.N,GPIO5*%
X149937500Y-111400000D03*
%TO.P,U1,8,GPIO6*%
%TO.N,GPIO6*%
X149937500Y-111800000D03*
%TO.P,U1,9,GPIO7*%
%TO.N,GPIO7*%
X149937500Y-112200000D03*
%TO.P,U1,10,IOVDD*%
%TO.N,+3V3*%
X149937500Y-112600000D03*
%TO.P,U1,11,GPIO8*%
%TO.N,GPIO8*%
X149937500Y-113000000D03*
%TO.P,U1,12,GPIO9*%
%TO.N,GPIO9*%
X149937500Y-113400000D03*
%TO.P,U1,13,GPIO10*%
%TO.N,GPIO10*%
X149937500Y-113800000D03*
%TO.P,U1,14,GPIO11*%
%TO.N,GPIO11*%
X149937500Y-114200000D03*
D23*
%TO.P,U1,15,GPIO12*%
%TO.N,GPIO12*%
X150775000Y-115037500D03*
%TO.P,U1,16,GPIO13*%
%TO.N,GPIO13*%
X151175000Y-115037500D03*
%TO.P,U1,17,GPIO14*%
%TO.N,GPIO14*%
X151575000Y-115037500D03*
%TO.P,U1,18,GPIO15*%
%TO.N,GPIO15*%
X151975000Y-115037500D03*
%TO.P,U1,19,TESTEN*%
%TO.N,GND*%
X152375000Y-115037500D03*
%TO.P,U1,20,XIN*%
%TO.N,XIN*%
X152775000Y-115037500D03*
%TO.P,U1,21,XOUT*%
%TO.N,XOUT*%
X153175000Y-115037500D03*
%TO.P,U1,22,IOVDD*%
%TO.N,+3V3*%
X153575000Y-115037500D03*
%TO.P,U1,23,DVDD*%
%TO.N,+1V1*%
X153975000Y-115037500D03*
%TO.P,U1,24,SWCLK*%
%TO.N,SWCLK*%
X154375000Y-115037500D03*
%TO.P,U1,25,SWD*%
%TO.N,SWD*%
X154775000Y-115037500D03*
%TO.P,U1,26,RUN*%
%TO.N,RUN*%
X155175000Y-115037500D03*
%TO.P,U1,27,GPIO16*%
%TO.N,GPIO16*%
X155575000Y-115037500D03*
%TO.P,U1,28,GPIO17*%
%TO.N,GPIO17*%
X155975000Y-115037500D03*
D22*
%TO.P,U1,29,GPIO18*%
%TO.N,GPIO18*%
X156812500Y-114200000D03*
%TO.P,U1,30,GPIO19*%
%TO.N,GPIO19*%
X156812500Y-113800000D03*
%TO.P,U1,31,GPIO20*%
%TO.N,GPIO20*%
X156812500Y-113400000D03*
%TO.P,U1,32,GPIO21*%
%TO.N,GPIO21*%
X156812500Y-113000000D03*
%TO.P,U1,33,IOVDD*%
%TO.N,+3V3*%
X156812500Y-112600000D03*
%TO.P,U1,34,GPIO22*%
%TO.N,GPIO22*%
X156812500Y-112200000D03*
%TO.P,U1,35,GPIO23*%
%TO.N,GPIO23*%
X156812500Y-111800000D03*
%TO.P,U1,36,GPIO24*%
%TO.N,GPIO24*%
X156812500Y-111400000D03*
%TO.P,U1,37,GPIO25*%
%TO.N,unconnected-(U1-GPIO25-Pad37)*%
X156812500Y-111000000D03*
%TO.P,U1,38,GPIO26_ADC0*%
%TO.N,GPIO26_ADC0*%
X156812500Y-110600000D03*
%TO.P,U1,39,GPIO27_ADC1*%
%TO.N,GPIO27_ADC1*%
X156812500Y-110200000D03*
%TO.P,U1,40,GPIO28_ADC2*%
%TO.N,GPIO28_ADC2*%
X156812500Y-109800000D03*
%TO.P,U1,41,GPIO29_ADC3*%
%TO.N,GPIO29_ADC3*%
X156812500Y-109400000D03*
%TO.P,U1,42,IOVDD*%
%TO.N,+3V3*%
X156812500Y-109000000D03*
D23*
%TO.P,U1,43,ADC_AVDD*%
X155975000Y-108162500D03*
%TO.P,U1,44,VREG_IN*%
X155575000Y-108162500D03*
%TO.P,U1,45,VREG_VOUT*%
%TO.N,+1V1*%
X155175000Y-108162500D03*
%TO.P,U1,46,USB_DM*%
%TO.N,Net-(U1-USB_DM)*%
X154775000Y-108162500D03*
%TO.P,U1,47,USB_DP*%
%TO.N,Net-(U1-USB_DP)*%
X154375000Y-108162500D03*
%TO.P,U1,48,USB_VDD*%
%TO.N,+3V3*%
X153975000Y-108162500D03*
%TO.P,U1,49,IOVDD*%
X153575000Y-108162500D03*
%TO.P,U1,50,DVDD*%
%TO.N,+1V1*%
X153175000Y-108162500D03*
%TO.P,U1,51,QSPI_SD3*%
%TO.N,QSPI_SD3*%
X152775000Y-108162500D03*
%TO.P,U1,52,QSPI_SCLK*%
%TO.N,QSPI_SCLK*%
X152375000Y-108162500D03*
%TO.P,U1,53,QSPI_SD0*%
%TO.N,QSPI_SD0*%
X151975000Y-108162500D03*
%TO.P,U1,54,QSPI_SD2*%
%TO.N,QSPI_SD2*%
X151575000Y-108162500D03*
%TO.P,U1,55,QSPI_SD1*%
%TO.N,QSPI_SD1*%
X151175000Y-108162500D03*
%TO.P,U1,56,QSPI_SS*%
%TO.N,QSPI_SS*%
X150775000Y-108162500D03*
D24*
%TO.P,U1,57,GND*%
%TO.N,GND*%
X153375000Y-111600000D03*
%TD*%
D25*
%TO.P,J1,A1,GND*%
%TO.N,GND*%
X156625000Y-88645000D03*
%TO.P,J1,A4,VBUS*%
%TO.N,VBUS*%
X155825000Y-88645000D03*
D26*
%TO.P,J1,A5,CC1*%
%TO.N,Net-(J1-CC1)*%
X154625000Y-88645000D03*
%TO.P,J1,A6,D+*%
%TO.N,USB_D+*%
X153625000Y-88645000D03*
%TO.P,J1,A7,D-*%
%TO.N,USB_D-*%
X153125000Y-88645000D03*
%TO.P,J1,A8*%
%TO.N,N/C*%
X152125000Y-88645000D03*
D25*
%TO.P,J1,A9,VBUS*%
%TO.N,VBUS*%
X150925000Y-88645000D03*
%TO.P,J1,A12,GND*%
%TO.N,GND*%
X150125000Y-88645000D03*
%TO.P,J1,B1,GND*%
X150125000Y-88645000D03*
%TO.P,J1,B4,VBUS*%
%TO.N,VBUS*%
X150925000Y-88645000D03*
D26*
%TO.P,J1,B5,CC2*%
%TO.N,Net-(J1-CC2)*%
X151625000Y-88645000D03*
%TO.P,J1,B6,D+*%
%TO.N,USB_D+*%
X152625000Y-88645000D03*
%TO.P,J1,B7,D-*%
%TO.N,USB_D-*%
X154125000Y-88645000D03*
%TO.P,J1,B8*%
%TO.N,N/C*%
X155125000Y-88645000D03*
D25*
%TO.P,J1,B9,VBUS*%
%TO.N,VBUS*%
X155825000Y-88645000D03*
%TO.P,J1,B12,GND*%
%TO.N,GND*%
X156625000Y-88645000D03*
D27*
%TO.P,J1,S1,SHIELD*%
X157695000Y-87730000D03*
D28*
X157695000Y-83550000D03*
D27*
X149055000Y-87730000D03*
D28*
X149055000Y-83550000D03*
%TD*%
D10*
%TO.P,C16,1*%
%TO.N,GND*%
X155300000Y-119580000D03*
%TO.P,C16,2*%
%TO.N,Net-(C16-Pad2)*%
X155300000Y-118620000D03*
%TD*%
D29*
%TO.P,C9,1*%
%TO.N,+3V3*%
X158915000Y-112580000D03*
%TO.P,C9,2*%
%TO.N,GND*%
X159875000Y-112580000D03*
%TD*%
D18*
%TO.P,J3,1,Pin_1*%
%TO.N,VBUS*%
X162265000Y-83470000D03*
D19*
%TO.P,J3,2,Pin_2*%
%TO.N,GPIO29_ADC3*%
X162265000Y-86010000D03*
%TO.P,J3,3,Pin_3*%
%TO.N,GND*%
X162265000Y-88550000D03*
%TO.P,J3,4,Pin_4*%
%TO.N,GPIO28_ADC2*%
X162265000Y-91090000D03*
%TO.P,J3,5,Pin_5*%
%TO.N,+3V3*%
X162265000Y-93630000D03*
%TO.P,J3,6,Pin_6*%
%TO.N,GPIO27_ADC1*%
X162265000Y-96170000D03*
%TO.P,J3,7,Pin_7*%
%TO.N,GPIO26_ADC0*%
X162265000Y-98710000D03*
%TO.P,J3,8,Pin_8*%
%TO.N,GND*%
X162265000Y-101250000D03*
%TO.P,J3,9,Pin_9*%
%TO.N,GPIO24*%
X162265000Y-103790000D03*
%TO.P,J3,10,Pin_10*%
%TO.N,GPIO23*%
X162265000Y-106330000D03*
%TO.P,J3,11,Pin_11*%
%TO.N,RUN*%
X162265000Y-108870000D03*
%TO.P,J3,12,Pin_12*%
%TO.N,GPIO22*%
X162265000Y-111410000D03*
%TO.P,J3,13,Pin_13*%
%TO.N,GND*%
X162265000Y-113950000D03*
%TO.P,J3,14,Pin_14*%
%TO.N,GPIO21*%
X162265000Y-116490000D03*
%TO.P,J3,15,Pin_15*%
%TO.N,GPIO20*%
X162265000Y-119030000D03*
%TO.P,J3,16,Pin_16*%
%TO.N,GPIO19*%
X162265000Y-121570000D03*
%TO.P,J3,17,Pin_17*%
%TO.N,GPIO18*%
X162265000Y-124110000D03*
%TO.P,J3,18,Pin_18*%
%TO.N,GND*%
X162265000Y-126650000D03*
%TO.P,J3,19,Pin_19*%
%TO.N,GPIO17*%
X162265000Y-129190000D03*
%TO.P,J3,20,Pin_20*%
%TO.N,GPIO16*%
X162265000Y-131730000D03*
%TD*%
D21*
%TO.P,R1,1*%
%TO.N,Net-(J1-CC2)*%
X152025000Y-90480000D03*
%TO.P,R1,2*%
%TO.N,GND*%
X152025000Y-91500000D03*
%TD*%
D10*
%TO.P,C12,1*%
%TO.N,+1V1*%
X153400000Y-104025000D03*
%TO.P,C12,2*%
%TO.N,GND*%
X153400000Y-103065000D03*
%TD*%
D29*
%TO.P,C8,1*%
%TO.N,+3V3*%
X157925000Y-108175000D03*
%TO.P,C8,2*%
%TO.N,GND*%
X158885000Y-108175000D03*
%TD*%
D21*
%TO.P,R4,1*%
%TO.N,USB_D-*%
X155100000Y-105580000D03*
%TO.P,R4,2*%
%TO.N,Net-(U1-USB_DM)*%
X155100000Y-106600000D03*
%TD*%
D12*
%TO.P,C17,1*%
%TO.N,+3V3*%
X151505000Y-101950000D03*
%TO.P,C17,2*%
%TO.N,GND*%
X150545000Y-101950000D03*
%TD*%
D18*
%TO.P,J2,1,Pin_1*%
%TO.N,GPIO0*%
X144485000Y-83470000D03*
D19*
%TO.P,J2,2,Pin_2*%
%TO.N,GPIO1*%
X144485000Y-86010000D03*
%TO.P,J2,3,Pin_3*%
%TO.N,GND*%
X144485000Y-88550000D03*
%TO.P,J2,4,Pin_4*%
%TO.N,GPIO2*%
X144485000Y-91090000D03*
%TO.P,J2,5,Pin_5*%
%TO.N,GPIO3*%
X144485000Y-93630000D03*
%TO.P,J2,6,Pin_6*%
%TO.N,GPIO4*%
X144485000Y-96170000D03*
%TO.P,J2,7,Pin_7*%
%TO.N,GPIO5*%
X144485000Y-98710000D03*
%TO.P,J2,8,Pin_8*%
%TO.N,GND*%
X144485000Y-101250000D03*
%TO.P,J2,9,Pin_9*%
%TO.N,GPIO6*%
X144485000Y-103790000D03*
%TO.P,J2,10,Pin_10*%
%TO.N,GPIO7*%
X144485000Y-106330000D03*
%TO.P,J2,11,Pin_11*%
%TO.N,GPIO8*%
X144485000Y-108870000D03*
%TO.P,J2,12,Pin_12*%
%TO.N,GPIO9*%
X144485000Y-111410000D03*
%TO.P,J2,13,Pin_13*%
%TO.N,GND*%
X144485000Y-113950000D03*
%TO.P,J2,14,Pin_14*%
%TO.N,GPIO10*%
X144485000Y-116490000D03*
%TO.P,J2,15,Pin_15*%
%TO.N,GPIO11*%
X144485000Y-119030000D03*
%TO.P,J2,16,Pin_16*%
%TO.N,GPIO12*%
X144485000Y-121570000D03*
%TO.P,J2,17,Pin_17*%
%TO.N,GPIO13*%
X144485000Y-124110000D03*
%TO.P,J2,18,Pin_18*%
%TO.N,GND*%
X144485000Y-126650000D03*
%TO.P,J2,19,Pin_19*%
%TO.N,GPIO14*%
X144485000Y-129190000D03*
%TO.P,J2,20,Pin_20*%
%TO.N,GPIO15*%
X144485000Y-131730000D03*
%TD*%
D30*
%TO.P,U2,1,GND*%
%TO.N,GND*%
X149975000Y-94587500D03*
%TO.P,U2,2,VO*%
%TO.N,+3V3*%
X151875000Y-94587500D03*
%TO.P,U2,3,VI*%
%TO.N,VBUS*%
X150925000Y-92712500D03*
%TD*%
D12*
%TO.P,C3,1*%
%TO.N,+3V3*%
X148405000Y-112830000D03*
%TO.P,C3,2*%
%TO.N,GND*%
X147445000Y-112830000D03*
%TD*%
D31*
%TO.P,U4,1,~{CS}*%
%TO.N,QSPI_SS*%
X148750000Y-103175000D03*
%TO.P,U4,2,DO/IO_{1}*%
%TO.N,QSPI_SD1*%
X148750000Y-103675000D03*
%TO.P,U4,3,~{WP}/IO_{2}*%
%TO.N,QSPI_SD2*%
X148750000Y-104175000D03*
%TO.P,U4,4,GND*%
%TO.N,GND*%
X148750000Y-104675000D03*
%TO.P,U4,5,DI/IO_{0}*%
%TO.N,QSPI_SD0*%
X151600000Y-104675000D03*
%TO.P,U4,6,CLK*%
%TO.N,QSPI_SCLK*%
X151600000Y-104175000D03*
%TO.P,U4,7,~{HOLD}/~{RESET}/IO_{3}*%
%TO.N,QSPI_SD3*%
X151600000Y-103675000D03*
%TO.P,U4,8,VCC*%
%TO.N,+3V3*%
X151600000Y-103175000D03*
D32*
%TO.P,U4,9*%
%TO.N,N/C*%
X150175000Y-103925000D03*
%TD*%
D33*
%TO.N,GND*%
X156800000Y-84700000D03*
X146225000Y-94150000D03*
X155363561Y-112450000D03*
X151535000Y-117288527D03*
X158325000Y-105100000D03*
X150025000Y-107850000D03*
X155363561Y-111250000D03*
X153625000Y-101650000D03*
X148825000Y-106750000D03*
X157725000Y-116450000D03*
X160415000Y-112706441D03*
X157700000Y-103200000D03*
X153425000Y-109750000D03*
X148925000Y-96050000D03*
X146425000Y-96050000D03*
X151525000Y-109950000D03*
X152825000Y-93850000D03*
X156700000Y-89700000D03*
X148425000Y-117950000D03*
X156900000Y-104400000D03*
X153375000Y-111600000D03*
X159500000Y-83600000D03*
X150690446Y-101450000D03*
X152825000Y-95750000D03*
X154486736Y-102486736D03*
X148925000Y-94150000D03*
X152387649Y-114214932D03*
X149025000Y-100750000D03*
X148925000Y-95050000D03*
X163000000Y-115200000D03*
X146733008Y-112800000D03*
X152825000Y-94750000D03*
X161595000Y-115300000D03*
X149579265Y-104895735D03*
X155363561Y-110050000D03*
X151425000Y-111550000D03*
%TO.N,+3V3*%
X157885000Y-106153231D03*
X153775000Y-107364082D03*
X155645000Y-101550000D03*
X153999387Y-104782083D03*
%TO.N,+1V1*%
X154763561Y-109100000D03*
X152590002Y-103207591D03*
X156825000Y-116750000D03*
%TO.N,GPIO8*%
X150866075Y-114051021D03*
%TO.N,GPIO1*%
X147939263Y-109175734D03*
%TO.N,GPIO0*%
X148735053Y-109093738D03*
%TO.N,GPIO2*%
X147915000Y-110000000D03*
%TO.N,GPIO29_ADC3*%
X158373236Y-109193049D03*
%TO.N,SWCLK*%
X153823528Y-113699999D03*
%TO.N,GPIO28_ADC2*%
X159062000Y-109600000D03*
%TO.N,RUN*%
X155876180Y-113489257D03*
%TO.N,SWD*%
X154608101Y-113884572D03*
%TO.N,QSPI_SS*%
X150825000Y-98850000D03*
X155871726Y-98850000D03*
%TD*%
D34*
%TO.N,GND*%
X154425000Y-102548472D02*
X154486736Y-102486736D01*
X158885000Y-107115000D02*
X158885000Y-108175000D01*
X162900000Y-115300000D02*
X163000000Y-115200000D01*
X156100000Y-105200000D02*
X156900000Y-104400000D01*
X156430000Y-106270000D02*
X156100000Y-105940000D01*
X146763008Y-112830000D02*
X146733008Y-112800000D01*
X156625000Y-88645000D02*
X156625000Y-89625000D01*
X150545000Y-101595446D02*
X150690446Y-101450000D01*
X154425000Y-103070000D02*
X154425000Y-102548472D01*
X148045000Y-107530000D02*
X148825000Y-106750000D01*
X152375000Y-114227581D02*
X152375000Y-115037500D01*
X155185000Y-117720000D02*
X155175000Y-117710000D01*
X155385000Y-102330000D02*
X155165000Y-102330000D01*
X159875000Y-112580000D02*
X160288559Y-112580000D01*
X158914411Y-105689411D02*
X158325000Y-105100000D01*
X158914411Y-106185589D02*
X158914411Y-107085589D01*
X148045000Y-108000000D02*
X148045000Y-107530000D01*
X158914411Y-107085589D02*
X158885000Y-107115000D01*
X157075000Y-104575000D02*
X156900000Y-104400000D01*
X156215000Y-117720000D02*
X155185000Y-117720000D01*
X155165000Y-102330000D02*
X154425000Y-103070000D01*
X157075000Y-106270000D02*
X156430000Y-106270000D01*
X154425000Y-103070000D02*
X153405000Y-103070000D01*
X152387649Y-114214932D02*
X152375000Y-114227581D01*
X151425000Y-117398527D02*
X151535000Y-117288527D01*
X160288559Y-112580000D02*
X160415000Y-112706441D01*
X150545000Y-101950000D02*
X150545000Y-101595446D01*
X148750000Y-104675000D02*
X149358530Y-104675000D01*
X158914411Y-106185589D02*
X158914411Y-105689411D01*
X153405000Y-103070000D02*
X153400000Y-103065000D01*
X156100000Y-105940000D02*
X156100000Y-105200000D01*
X162265000Y-113950000D02*
X162265000Y-114630000D01*
X157075000Y-106270000D02*
X157075000Y-104575000D01*
X161595000Y-115300000D02*
X162900000Y-115300000D01*
X147445000Y-112830000D02*
X146763008Y-112830000D01*
X149358530Y-104675000D02*
X149579265Y-104895735D01*
X156625000Y-89625000D02*
X156700000Y-89700000D01*
%TO.N,+3V3*%
X151276000Y-112959242D02*
X150866758Y-112550000D01*
X149005000Y-108000000D02*
X149005000Y-108067500D01*
X150725000Y-112550000D02*
X150725000Y-108949000D01*
X156237439Y-112600000D02*
X156026000Y-112388561D01*
X157637500Y-108175000D02*
X156812500Y-109000000D01*
X150866758Y-112550000D02*
X150725000Y-112550000D01*
X155996000Y-101271000D02*
X155655000Y-100930000D01*
X156812500Y-112600000D02*
X156237439Y-112600000D01*
X153999387Y-104455613D02*
X154425000Y-104030000D01*
X151276000Y-113201000D02*
X151276000Y-112959242D01*
X155575000Y-108162500D02*
X156142500Y-108162500D01*
X149005000Y-108067500D02*
X149937500Y-109000000D01*
X155655000Y-100930000D02*
X155312500Y-100587500D01*
X151750000Y-97025000D02*
X151750000Y-96550000D01*
X155312500Y-100812443D02*
X155312500Y-100587500D01*
X156142500Y-108162500D02*
X157075000Y-107230000D01*
X153575000Y-115037500D02*
X153575000Y-114300000D01*
X155312500Y-100587500D02*
X151750000Y-97025000D01*
X157686000Y-105943450D02*
X157500000Y-105757450D01*
X153575000Y-108700000D02*
X153326000Y-108949000D01*
X153575000Y-108162500D02*
X153575000Y-108700000D01*
X149937500Y-112600000D02*
X148635000Y-112600000D01*
X150725000Y-108949000D02*
X149988500Y-108949000D01*
X158235589Y-106864411D02*
X158235589Y-107864411D01*
X157885000Y-106513822D02*
X158235589Y-106864411D01*
X153575000Y-114300000D02*
X152776000Y-113501000D01*
X153326000Y-108949000D02*
X150725000Y-108949000D01*
X156175000Y-109000000D02*
X156812500Y-109000000D01*
X152291000Y-102484000D02*
X153640943Y-102484000D01*
X159261000Y-102939000D02*
X159261000Y-96634000D01*
X154104000Y-116289000D02*
X154106900Y-116289000D01*
X157885000Y-106153231D02*
X157686000Y-105954231D01*
X153575000Y-115760000D02*
X153795000Y-115980000D01*
X158895000Y-112600000D02*
X158915000Y-112580000D01*
X155385000Y-103290000D02*
X155996000Y-102679000D01*
X153640943Y-102484000D02*
X155312500Y-100812443D01*
X155655000Y-101540000D02*
X155645000Y-101550000D01*
X153975000Y-107564082D02*
X153775000Y-107364082D01*
X151505000Y-101950000D02*
X151505000Y-101229105D01*
X153575000Y-115037500D02*
X153575000Y-115760000D01*
X151875000Y-94587500D02*
X151875000Y-96425000D01*
X152776000Y-113501000D02*
X151576000Y-113501000D01*
X155345000Y-103290000D02*
X155165000Y-103290000D01*
X155175000Y-116750000D02*
X154605340Y-116750000D01*
X151505000Y-103080000D02*
X151600000Y-103175000D01*
X151505000Y-101950000D02*
X151505000Y-103080000D01*
X157885000Y-106153231D02*
X157885000Y-106513822D01*
X151600000Y-103175000D02*
X152291000Y-102484000D01*
X156026000Y-112388561D02*
X156026000Y-109149000D01*
X155165000Y-103290000D02*
X154425000Y-104030000D01*
X158235589Y-106864411D02*
X157440589Y-106864411D01*
X151576000Y-113501000D02*
X151276000Y-113201000D01*
X149937500Y-112600000D02*
X150675000Y-112600000D01*
X157440589Y-106864411D02*
X157075000Y-107230000D01*
X153575000Y-107564082D02*
X153775000Y-107364082D01*
X151875000Y-96425000D02*
X151750000Y-96550000D01*
X157500000Y-105757450D02*
X157500000Y-104700000D01*
X149988500Y-108949000D02*
X149937500Y-109000000D01*
X151125895Y-100850000D02*
X150255000Y-100850000D01*
X157686000Y-105954231D02*
X157686000Y-105943450D01*
X153795000Y-115980000D02*
X154104000Y-116289000D01*
X154605340Y-116750000D02*
X154186340Y-116331000D01*
X150255000Y-100850000D02*
X149605000Y-101500000D01*
X155655000Y-100930000D02*
X155655000Y-101540000D01*
X158235589Y-107864411D02*
X157925000Y-108175000D01*
X156812500Y-112600000D02*
X158895000Y-112600000D01*
X150675000Y-112600000D02*
X150725000Y-112550000D01*
X148635000Y-112600000D02*
X148405000Y-112830000D01*
X153999387Y-104782083D02*
X153999387Y-104455613D01*
X157500000Y-104700000D02*
X159261000Y-102939000D01*
X156026000Y-109149000D02*
X156175000Y-109000000D01*
X149605000Y-101500000D02*
X149605000Y-101970000D01*
X153575000Y-108162500D02*
X153575000Y-107564082D01*
X155996000Y-102679000D02*
X155996000Y-101271000D01*
X159261000Y-96634000D02*
X162265000Y-93630000D01*
X157925000Y-108175000D02*
X157637500Y-108175000D01*
X151505000Y-101229105D02*
X151125895Y-100850000D01*
X153975000Y-108162500D02*
X153975000Y-107564082D01*
%TO.N,+1V1*%
X156815000Y-116760000D02*
X156825000Y-116750000D01*
X156157900Y-116760000D02*
X156215000Y-116760000D01*
X153975000Y-115590000D02*
X154315000Y-115930000D01*
X155175000Y-107590000D02*
X155865000Y-106900000D01*
X155175000Y-108162500D02*
X155175000Y-107590000D01*
X155175000Y-108162500D02*
X155175000Y-108800000D01*
X155865000Y-106900000D02*
X156100000Y-106900000D01*
X155327900Y-115930000D02*
X156157900Y-116760000D01*
X155175000Y-108800000D02*
X154875000Y-109100000D01*
X153400000Y-104025000D02*
X153400000Y-104017589D01*
X154875000Y-109100000D02*
X154763561Y-109100000D01*
X153175000Y-104250000D02*
X153400000Y-104025000D01*
X156215000Y-116760000D02*
X156815000Y-116760000D01*
X153975000Y-115037500D02*
X153975000Y-115590000D01*
X154315000Y-115930000D02*
X155327900Y-115930000D01*
X153400000Y-104017589D02*
X152590002Y-103207591D01*
X153175000Y-108162500D02*
X153175000Y-104250000D01*
%TO.N,VBUS*%
X150925000Y-89320000D02*
X150740000Y-89505000D01*
X150925000Y-87720000D02*
X150925000Y-88645000D01*
X150740000Y-92527500D02*
X150925000Y-92712500D01*
X150925000Y-88645000D02*
X150925000Y-89320000D01*
X157649992Y-84859000D02*
X160876000Y-84859000D01*
X150740000Y-90780000D02*
X150740000Y-92527500D01*
X155589000Y-88409000D02*
X155589000Y-86919992D01*
X155825000Y-88645000D02*
X155589000Y-88409000D01*
X151725008Y-86919992D02*
X150925000Y-87720000D01*
X155589000Y-86919992D02*
X151725008Y-86919992D01*
X160876000Y-84859000D02*
X162265000Y-83470000D01*
X150740000Y-89505000D02*
X150740000Y-90780000D01*
X155589000Y-86919992D02*
X157649992Y-84859000D01*
%TO.N,XIN*%
X152426000Y-117794840D02*
X152426000Y-118965160D01*
X150065000Y-119900000D02*
X151245000Y-119900000D01*
X152135000Y-116480000D02*
X152135000Y-117503840D01*
X152426000Y-118965160D02*
X152135000Y-119256160D01*
X152135000Y-117503840D02*
X152426000Y-117794840D01*
X152135000Y-119370000D02*
X151425000Y-120080000D01*
X152135000Y-119256160D02*
X152135000Y-119370000D01*
X149875000Y-119710000D02*
X150065000Y-119900000D01*
X151245000Y-119900000D02*
X151425000Y-120080000D01*
X152775000Y-115840000D02*
X152135000Y-116480000D01*
X152775000Y-115037500D02*
X152775000Y-115840000D01*
%TO.N,Net-(C16-Pad2)*%
X153825000Y-116910000D02*
X153825000Y-118180000D01*
X153995000Y-118750000D02*
X153625000Y-118380000D01*
X155175000Y-118750000D02*
X153995000Y-118750000D01*
X153825000Y-118180000D02*
X153625000Y-118380000D01*
%TO.N,Net-(J1-CC1)*%
X154625000Y-90270000D02*
X154765000Y-90410000D01*
X154625000Y-88645000D02*
X154625000Y-90270000D01*
%TO.N,Net-(J1-CC2)*%
X151625000Y-88645000D02*
X151625000Y-90080000D01*
X151625000Y-90080000D02*
X152025000Y-90480000D01*
%TO.N,GPIO12*%
X150775000Y-115037500D02*
X150399500Y-114662000D01*
X150399500Y-114662000D02*
X147447200Y-114662000D01*
X146324550Y-115784650D02*
X146324550Y-119730450D01*
X146324550Y-119730450D02*
X144485000Y-121570000D01*
X147447200Y-114662000D02*
X146324550Y-115784650D01*
%TO.N,GPIO6*%
X144485000Y-104610000D02*
X144485000Y-103790000D01*
X146106000Y-106231000D02*
X144485000Y-104610000D01*
X146106000Y-111151000D02*
X146106000Y-106231000D01*
X149937500Y-111800000D02*
X146755000Y-111800000D01*
X146755000Y-111800000D02*
X146106000Y-111151000D01*
%TO.N,GPIO11*%
X149937500Y-114200000D02*
X149292100Y-114200000D01*
X145923550Y-117591450D02*
X144485000Y-119030000D01*
X145923550Y-115618550D02*
X145923550Y-117591450D01*
X149231100Y-114261000D02*
X147281100Y-114261000D01*
X149292100Y-114200000D02*
X149231100Y-114261000D01*
X147281100Y-114261000D02*
X145923550Y-115618550D01*
%TO.N,GPIO8*%
X150875000Y-113125342D02*
X150749658Y-113000000D01*
X150875000Y-114042096D02*
X150875000Y-113125342D01*
X150749658Y-113000000D02*
X149937500Y-113000000D01*
X150866075Y-114051021D02*
X150875000Y-114042096D01*
%TO.N,GPIO1*%
X149937500Y-109800000D02*
X148563529Y-109800000D01*
X148563529Y-109800000D02*
X147939263Y-109175734D01*
%TO.N,GPIO13*%
X146725550Y-121869450D02*
X144485000Y-124110000D01*
X146725550Y-116649450D02*
X146725550Y-121869450D01*
X151175000Y-115590000D02*
X150655000Y-116110000D01*
X147265000Y-116110000D02*
X146725550Y-116649450D01*
X150655000Y-116110000D02*
X147265000Y-116110000D01*
X151175000Y-115037500D02*
X151175000Y-115590000D01*
%TO.N,GPIO3*%
X146547000Y-104970700D02*
X146547000Y-100307800D01*
X145763550Y-94908550D02*
X144485000Y-93630000D01*
X145763550Y-96881450D02*
X145763550Y-94908550D01*
X146162600Y-97280500D02*
X145763550Y-96881450D01*
X149937500Y-110600000D02*
X147415000Y-110600000D01*
X147415000Y-110600000D02*
X147315000Y-110500000D01*
X146547000Y-100307800D02*
X146162600Y-99923400D01*
X146162600Y-99923400D02*
X146162600Y-97280500D01*
X147315000Y-110500000D02*
X147315000Y-105738700D01*
X147315000Y-105738700D02*
X146547000Y-104970700D01*
%TO.N,GPIO5*%
X146507000Y-106064900D02*
X145745000Y-105302900D01*
X144485000Y-99380000D02*
X144485000Y-98710000D01*
X146507000Y-110982000D02*
X146507000Y-106064900D01*
X145745000Y-100640000D02*
X144485000Y-99380000D01*
X145745000Y-105302900D02*
X145745000Y-100640000D01*
X146925000Y-111400000D02*
X146507000Y-110982000D01*
X149937500Y-111400000D02*
X146925000Y-111400000D01*
%TO.N,GPIO0*%
X149937500Y-109400000D02*
X149041315Y-109400000D01*
X149041315Y-109400000D02*
X148735053Y-109093738D01*
%TO.N,GPIO9*%
X144485000Y-111487550D02*
X144485000Y-111410000D01*
X148925000Y-113400000D02*
X148874000Y-113451000D01*
X149937500Y-113400000D02*
X148925000Y-113400000D01*
X146448450Y-113451000D02*
X144485000Y-111487550D01*
X148874000Y-113451000D02*
X146448450Y-113451000D01*
%TO.N,GPIO2*%
X149937500Y-110200000D02*
X148115000Y-110200000D01*
X148115000Y-110200000D02*
X147915000Y-110000000D01*
%TO.N,GPIO10*%
X149065000Y-113860000D02*
X147115000Y-113860000D01*
X149937500Y-113800000D02*
X149125000Y-113800000D01*
X149125000Y-113800000D02*
X149065000Y-113860000D01*
X147115000Y-113860000D02*
X144485000Y-116490000D01*
%TO.N,GPIO7*%
X145705000Y-107550000D02*
X144485000Y-106330000D01*
X145705000Y-111320000D02*
X145705000Y-107550000D01*
X146585000Y-112200000D02*
X145705000Y-111320000D01*
X149937500Y-112200000D02*
X146585000Y-112200000D01*
%TO.N,GPIO4*%
X146146000Y-100473900D02*
X145705000Y-100032900D01*
X145705000Y-100032900D02*
X145705000Y-97390000D01*
X146146000Y-105136800D02*
X146146000Y-100473900D01*
X146908000Y-110753000D02*
X146908000Y-105898800D01*
X146908000Y-105898800D02*
X146146000Y-105136800D01*
X149937500Y-111000000D02*
X147155000Y-111000000D01*
X147155000Y-111000000D02*
X146908000Y-110753000D01*
X145705000Y-97390000D02*
X144485000Y-96170000D01*
%TO.N,GPIO15*%
X147527550Y-117037450D02*
X147527550Y-128687450D01*
X147653000Y-116912000D02*
X147527550Y-117037450D01*
X147527550Y-128687450D02*
X144485000Y-131730000D01*
X151975000Y-116000000D02*
X151063000Y-116912000D01*
X151975000Y-115037500D02*
X151975000Y-116000000D01*
X151063000Y-116912000D02*
X147653000Y-116912000D01*
%TO.N,GPIO14*%
X147126550Y-116815550D02*
X147126550Y-126548450D01*
X151575000Y-115037500D02*
X151575000Y-115820000D01*
X147126550Y-126548450D02*
X144485000Y-129190000D01*
X147431100Y-116511000D02*
X147126550Y-116815550D01*
X151575000Y-115820000D02*
X150884000Y-116511000D01*
X150884000Y-116511000D02*
X147431100Y-116511000D01*
%TO.N,GPIO29_ADC3*%
X158166285Y-109400000D02*
X158373236Y-109193049D01*
X156812500Y-109400000D02*
X158166285Y-109400000D01*
%TO.N,GPIO18*%
X159626700Y-114503000D02*
X159792000Y-114668300D01*
X159792000Y-121637000D02*
X162265000Y-124110000D01*
X159792000Y-114668300D02*
X159792000Y-115200000D01*
X159575000Y-114503000D02*
X159626700Y-114503000D01*
X157115500Y-114503000D02*
X159575000Y-114503000D01*
X159792000Y-115200000D02*
X159792000Y-121637000D01*
X156812500Y-114200000D02*
X157115500Y-114503000D01*
%TO.N,SWCLK*%
X154375000Y-115037500D02*
X154375000Y-114500000D01*
X153823528Y-113948528D02*
X153823528Y-113699999D01*
X154375000Y-114500000D02*
X153823528Y-113948528D01*
%TO.N,GPIO27_ADC1*%
X156812500Y-110200000D02*
X159375000Y-110200000D01*
X159375000Y-110200000D02*
X159662000Y-109913000D01*
X159662000Y-109913000D02*
X159662000Y-98773000D01*
X159662000Y-98773000D02*
X162265000Y-96170000D01*
%TO.N,GPIO28_ADC2*%
X156812500Y-109800000D02*
X158862000Y-109800000D01*
X158862000Y-109800000D02*
X159062000Y-109600000D01*
%TO.N,GPIO26_ADC0*%
X159763000Y-110600000D02*
X160063000Y-110300000D01*
X156812500Y-110600000D02*
X159763000Y-110600000D01*
X160063000Y-110300000D02*
X160063000Y-100912000D01*
X160063000Y-100912000D02*
X162265000Y-98710000D01*
%TO.N,GPIO19*%
X160193000Y-114502200D02*
X160193000Y-119498000D01*
X158247000Y-114102000D02*
X159792800Y-114102000D01*
X156812500Y-113800000D02*
X157945000Y-113800000D01*
X160193000Y-119498000D02*
X162265000Y-121570000D01*
X159792800Y-114102000D02*
X160193000Y-114502200D01*
X157945000Y-113800000D02*
X158247000Y-114102000D01*
%TO.N,GPIO21*%
X158397450Y-113000000D02*
X158697450Y-113300000D01*
X156812500Y-113000000D02*
X158397450Y-113000000D01*
X160125000Y-113300000D02*
X160995000Y-114170000D01*
X158697450Y-113300000D02*
X160125000Y-113300000D01*
X160995000Y-115695000D02*
X161790000Y-116490000D01*
X160995000Y-114170000D02*
X160995000Y-115695000D01*
X161790000Y-116490000D02*
X162265000Y-116490000D01*
%TO.N,GPIO17*%
X159239000Y-114904000D02*
X159391000Y-115056000D01*
X159391000Y-115056000D02*
X159391000Y-126316000D01*
X155975000Y-115037500D02*
X156108500Y-114904000D01*
X156108500Y-114904000D02*
X159239000Y-114904000D01*
X159391000Y-126316000D02*
X162265000Y-129190000D01*
%TO.N,GPIO22*%
X158235000Y-111880000D02*
X161795000Y-111880000D01*
X156812500Y-112200000D02*
X157915000Y-112200000D01*
X161795000Y-111880000D02*
X162265000Y-111410000D01*
X157915000Y-112200000D02*
X158235000Y-111880000D01*
%TO.N,GPIO16*%
X155575000Y-115037500D02*
X155575000Y-115610000D01*
X158825000Y-115305000D02*
X158990000Y-115470000D01*
X155575000Y-115610000D02*
X155825000Y-115860000D01*
X155825000Y-115860000D02*
X156087774Y-115860000D01*
X156642774Y-115305000D02*
X158825000Y-115305000D01*
X156087774Y-115860000D02*
X156642774Y-115305000D01*
X158990000Y-115470000D02*
X158990000Y-128455000D01*
X158990000Y-128455000D02*
X162265000Y-131730000D01*
%TO.N,GPIO20*%
X159958900Y-113701000D02*
X160594000Y-114336100D01*
X158516000Y-113701000D02*
X159958900Y-113701000D01*
X160594000Y-114336100D02*
X160594000Y-117359000D01*
X160594000Y-117359000D02*
X162265000Y-119030000D01*
X158215000Y-113400000D02*
X158516000Y-113701000D01*
X156812500Y-113400000D02*
X158215000Y-113400000D01*
%TO.N,RUN*%
X155876180Y-113798820D02*
X155175000Y-114500000D01*
X155175000Y-114500000D02*
X155175000Y-115037500D01*
X155876180Y-113489257D02*
X155876180Y-113798820D01*
%TO.N,GPIO23*%
X161114000Y-107481000D02*
X162265000Y-106330000D01*
X156812500Y-111800000D02*
X157607000Y-111800000D01*
X160095200Y-111402000D02*
X161114000Y-110383200D01*
X161114000Y-110383200D02*
X161114000Y-107481000D01*
X158005000Y-111402000D02*
X160095200Y-111402000D01*
X157607000Y-111800000D02*
X158005000Y-111402000D01*
%TO.N,GPIO24*%
X156812500Y-111400000D02*
X157375000Y-111400000D01*
X160464000Y-105591000D02*
X162265000Y-103790000D01*
X160464000Y-110466100D02*
X160464000Y-105591000D01*
X157375000Y-111400000D02*
X157774000Y-111001000D01*
X157774000Y-111001000D02*
X159929100Y-111001000D01*
X159929100Y-111001000D02*
X160464000Y-110466100D01*
%TO.N,SWD*%
X154775000Y-114051470D02*
X154775000Y-115037500D01*
X154608101Y-113884572D02*
X154775000Y-114051470D01*
%TO.N,Net-(U1-USB_DP)*%
X154375000Y-106925000D02*
X154050000Y-106600000D01*
X154375000Y-108162500D02*
X154375000Y-106925000D01*
%TO.N,Net-(U1-USB_DM)*%
X154775000Y-106925000D02*
X155100000Y-106600000D01*
X154775000Y-108162500D02*
X154775000Y-106925000D01*
%TO.N,XOUT*%
X153175000Y-115037500D02*
X153175000Y-116540000D01*
X153175000Y-116540000D02*
X152805000Y-116910000D01*
%TO.N,QSPI_SS*%
X156205000Y-99183274D02*
X155871726Y-98850000D01*
X150124997Y-98850000D02*
X148824997Y-100150000D01*
X150775000Y-107510000D02*
X149825000Y-106560000D01*
X148585000Y-101970000D02*
X148585000Y-103010000D01*
X148424000Y-100501057D02*
X148424000Y-101809000D01*
X147574000Y-103818102D02*
X148217102Y-103175000D01*
X149825000Y-106560000D02*
X149825000Y-106557100D01*
X147574000Y-105031898D02*
X147574000Y-103818102D01*
X148585000Y-103010000D02*
X148750000Y-103175000D01*
X149825000Y-106557100D02*
X148786450Y-105518550D01*
X148060652Y-105518550D02*
X147574000Y-105031898D01*
X148775057Y-100150000D02*
X148424000Y-100501057D01*
X148424000Y-101809000D02*
X148585000Y-101970000D01*
X156205000Y-99250000D02*
X156205000Y-99183274D01*
X148786450Y-105518550D02*
X148060652Y-105518550D01*
X148824997Y-100150000D02*
X148775057Y-100150000D01*
X150825000Y-98850000D02*
X150124997Y-98850000D01*
X148217102Y-103175000D02*
X148750000Y-103175000D01*
X150775000Y-108162500D02*
X150775000Y-107510000D01*
%TO.N,Net-(R6-Pad2)*%
X157225000Y-98750000D02*
X156425000Y-97950000D01*
X157225000Y-99250000D02*
X157225000Y-98750000D01*
%TO.N,QSPI_SCLK*%
X152375000Y-108162500D02*
X152375000Y-104484202D01*
X152065798Y-104175000D02*
X151600000Y-104175000D01*
X152375000Y-104484202D02*
X152065798Y-104175000D01*
%TO.N,QSPI_SD2*%
X150849000Y-106446900D02*
X150849000Y-103274000D01*
X149948000Y-102650000D02*
X149774000Y-102824000D01*
X151575000Y-108162500D02*
X151575000Y-107172900D01*
X150849000Y-103274000D02*
X150225000Y-102650000D01*
X150225000Y-102650000D02*
X149948000Y-102650000D01*
X149774000Y-102824000D02*
X149774000Y-103616798D01*
X149774000Y-103616798D02*
X149215798Y-104175000D01*
X151575000Y-107172900D02*
X150849000Y-106446900D01*
X149215798Y-104175000D02*
X148750000Y-104175000D01*
%TO.N,QSPI_SD1*%
X151175000Y-108162500D02*
X151175000Y-107340000D01*
X148210202Y-105101000D02*
X147999000Y-104889798D01*
X147999000Y-104841798D02*
X147975000Y-104865798D01*
X148284202Y-103675000D02*
X148750000Y-103675000D01*
X151175000Y-107340000D02*
X148936000Y-105101000D01*
X147999000Y-104889798D02*
X147999000Y-104841798D01*
X147975000Y-103984202D02*
X148284202Y-103675000D01*
X148936000Y-105101000D02*
X148210202Y-105101000D01*
X147975000Y-104865798D02*
X147975000Y-103984202D01*
%TO.N,QSPI_SD0*%
X151350000Y-106200000D02*
X151350000Y-104925000D01*
X151975000Y-108162500D02*
X151975000Y-106825000D01*
X151350000Y-104925000D02*
X151600000Y-104675000D01*
X151975000Y-106825000D02*
X151350000Y-106200000D01*
%TO.N,QSPI_SD3*%
X152213798Y-103675000D02*
X151600000Y-103675000D01*
X152775000Y-104236202D02*
X152213798Y-103675000D01*
X152775000Y-108162500D02*
X152775000Y-104236202D01*
%TO.N,USB_D+*%
X153576000Y-89671000D02*
X153625000Y-89622000D01*
X152674000Y-89671000D02*
X153576000Y-89671000D01*
X156400000Y-103230000D02*
X154050000Y-105580000D01*
X152625000Y-89622000D02*
X152674000Y-89671000D01*
X153625000Y-88645000D02*
X153625000Y-89732501D01*
X153625000Y-89732501D02*
X153650000Y-89757501D01*
X153625000Y-89622000D02*
X153625000Y-88645000D01*
X153650000Y-89757501D02*
X153650000Y-98113198D01*
X153650000Y-98113198D02*
X156400000Y-100863198D01*
X152625000Y-88645000D02*
X152625000Y-89622000D01*
X156400000Y-100863198D02*
X156400000Y-103230000D01*
%TO.N,USB_D-*%
X154125000Y-88645000D02*
X154125000Y-89732501D01*
X154125000Y-87668000D02*
X154125000Y-88645000D01*
X154100000Y-89757501D02*
X154100000Y-92806431D01*
X154100000Y-93624203D02*
X154100000Y-94006431D01*
X153125000Y-87668000D02*
X153174000Y-87619000D01*
X154317772Y-93024203D02*
X154317772Y-93406431D01*
X156850000Y-100676802D02*
X156850000Y-103416397D01*
X154076000Y-87619000D02*
X154125000Y-87668000D01*
X153125000Y-88645000D02*
X153125000Y-87668000D01*
X154100000Y-97926802D02*
X156850000Y-100676802D01*
X156850000Y-103416397D02*
X155100000Y-105166397D01*
X154125000Y-89732501D02*
X154100000Y-89757501D01*
X155100000Y-105166397D02*
X155100000Y-105580000D01*
X154100000Y-94356899D02*
X154100000Y-97926802D01*
X153174000Y-87619000D02*
X154076000Y-87619000D01*
X154100000Y-94006431D02*
X154100000Y-94356899D01*
X154317772Y-93406431D02*
G75*
G02*
X154208886Y-93515272I-108872J31D01*
G01*
X154100000Y-92806431D02*
G75*
G03*
X154208886Y-92915300I108900J31D01*
G01*
X154208886Y-92915317D02*
G75*
G02*
X154317783Y-93024203I14J-108883D01*
G01*
X154208886Y-93515317D02*
G75*
G03*
X154100017Y-93624203I14J-108883D01*
G01*
%TD*%
%TA.AperFunction,Conductor*%
%TO.N,GND*%
G36*
X158532539Y-115725185D02*
G01*
X158578294Y-115777989D01*
X158589500Y-115829500D01*
X158589500Y-128507726D01*
X158616793Y-128609589D01*
X158640539Y-128650717D01*
X158669520Y-128700913D01*
X158669522Y-128700915D01*
X161159325Y-131190718D01*
X161192810Y-131252041D01*
X161189575Y-131316716D01*
X161142829Y-131460587D01*
X161114500Y-131639448D01*
X161114500Y-131820551D01*
X161142829Y-131999410D01*
X161198787Y-132171636D01*
X161198788Y-132171639D01*
X161281003Y-132332993D01*
X161331586Y-132402615D01*
X161355065Y-132468422D01*
X161339239Y-132536476D01*
X161289133Y-132585170D01*
X161231267Y-132599500D01*
X156726887Y-132599500D01*
X156659848Y-132579815D01*
X156614093Y-132527011D01*
X156604149Y-132457853D01*
X156633174Y-132394297D01*
X156654002Y-132375182D01*
X156664494Y-132367558D01*
X156664492Y-132367558D01*
X156664501Y-132367553D01*
X156792553Y-132239501D01*
X156898996Y-132092994D01*
X156981211Y-131931639D01*
X157037171Y-131759409D01*
X157051765Y-131667259D01*
X157065500Y-131580551D01*
X157065500Y-131399448D01*
X157037189Y-131220706D01*
X157037171Y-131220591D01*
X156981273Y-131048552D01*
X156981212Y-131048363D01*
X156981211Y-131048360D01*
X156946633Y-130980499D01*
X156898996Y-130887006D01*
X156873883Y-130852441D01*
X156792558Y-130740505D01*
X156792554Y-130740500D01*
X156664499Y-130612445D01*
X156664494Y-130612441D01*
X156517997Y-130506006D01*
X156517996Y-130506005D01*
X156517994Y-130506004D01*
X156441906Y-130467235D01*
X156356639Y-130423788D01*
X156356636Y-130423787D01*
X156184410Y-130367829D01*
X156005551Y-130339500D01*
X156005546Y-130339500D01*
X155824454Y-130339500D01*
X155824449Y-130339500D01*
X155645589Y-130367829D01*
X155473363Y-130423787D01*
X155473360Y-130423788D01*
X155312002Y-130506006D01*
X155165505Y-130612441D01*
X155165500Y-130612445D01*
X155037445Y-130740500D01*
X155037441Y-130740505D01*
X154931006Y-130887002D01*
X154848788Y-131048360D01*
X154848787Y-131048363D01*
X154792829Y-131220589D01*
X154767219Y-131382280D01*
X154737289Y-131445414D01*
X154677978Y-131482345D01*
X154608115Y-131481347D01*
X154549883Y-131442737D01*
X154522273Y-131382279D01*
X154496682Y-131220706D01*
X154440748Y-131048555D01*
X154440747Y-131048552D01*
X154358571Y-130887275D01*
X154358566Y-130887267D01*
X154347085Y-130871466D01*
X153857962Y-131360589D01*
X153840925Y-131297007D01*
X153775099Y-131182993D01*
X153682007Y-131089901D01*
X153567993Y-131024075D01*
X153504409Y-131007037D01*
X153993533Y-130517913D01*
X153977730Y-130506431D01*
X153816447Y-130424252D01*
X153816444Y-130424251D01*
X153644293Y-130368317D01*
X153465506Y-130340000D01*
X153284494Y-130340000D01*
X153105706Y-130368317D01*
X152933555Y-130424251D01*
X152933547Y-130424254D01*
X152772269Y-130506432D01*
X152756466Y-130517912D01*
X152756466Y-130517913D01*
X153245591Y-131007037D01*
X153182007Y-131024075D01*
X153067993Y-131089901D01*
X152974901Y-131182993D01*
X152909075Y-131297007D01*
X152892037Y-131360590D01*
X152402912Y-130871466D01*
X152391432Y-130887269D01*
X152309254Y-131048547D01*
X152309251Y-131048555D01*
X152253317Y-131220706D01*
X152231972Y-131355471D01*
X152202043Y-131418606D01*
X152142731Y-131455537D01*
X152072868Y-131454539D01*
X152014636Y-131415929D01*
X151986522Y-131351965D01*
X151985499Y-131336073D01*
X151985499Y-130595143D01*
X151985499Y-130595136D01*
X151984292Y-130584735D01*
X151983681Y-130579458D01*
X151983680Y-130579455D01*
X151982585Y-130570009D01*
X151937206Y-130467235D01*
X151857765Y-130387794D01*
X151813654Y-130368317D01*
X151754992Y-130342415D01*
X151729865Y-130339500D01*
X149940143Y-130339500D01*
X149940117Y-130339502D01*
X149915012Y-130342413D01*
X149915008Y-130342415D01*
X149812235Y-130387793D01*
X149732794Y-130467234D01*
X149687415Y-130570006D01*
X149687415Y-130570008D01*
X149684500Y-130595131D01*
X149684500Y-132384856D01*
X149684502Y-132384882D01*
X149687413Y-132409986D01*
X149687414Y-132409990D01*
X149687415Y-132409991D01*
X149694225Y-132425414D01*
X149703297Y-132494690D01*
X149673475Y-132557876D01*
X149614226Y-132594907D01*
X149580791Y-132599500D01*
X145518733Y-132599500D01*
X145451694Y-132579815D01*
X145405939Y-132527011D01*
X145395995Y-132457853D01*
X145418414Y-132402615D01*
X145443887Y-132367554D01*
X145468996Y-132332994D01*
X145551211Y-132171639D01*
X145607171Y-131999409D01*
X145624484Y-131890099D01*
X145635500Y-131820551D01*
X145635500Y-131639448D01*
X145611829Y-131490001D01*
X145607171Y-131460591D01*
X145560424Y-131316716D01*
X145558429Y-131246875D01*
X145590672Y-131190719D01*
X147848030Y-128933363D01*
X147900756Y-128842038D01*
X147900757Y-128842037D01*
X147928050Y-128740177D01*
X147928050Y-118670000D01*
X149277332Y-118670000D01*
X149625000Y-118670000D01*
X149625000Y-118342531D01*
X149624999Y-118342530D01*
X149622274Y-118342786D01*
X149622272Y-118342787D01*
X149497080Y-118386594D01*
X149390358Y-118465358D01*
X149311596Y-118572077D01*
X149277332Y-118670000D01*
X147928050Y-118670000D01*
X147928050Y-117436500D01*
X147947735Y-117369461D01*
X148000539Y-117323706D01*
X148052050Y-117312500D01*
X150644787Y-117312500D01*
X150711826Y-117332185D01*
X150757581Y-117384989D01*
X150767525Y-117454147D01*
X150738500Y-117517703D01*
X150705558Y-117544587D01*
X150702909Y-117546076D01*
X150582435Y-117637435D01*
X150491079Y-117757904D01*
X150435613Y-117898556D01*
X150425000Y-117986946D01*
X150425000Y-118130000D01*
X151175000Y-118130000D01*
X151175000Y-117475046D01*
X151147473Y-117424635D01*
X151152457Y-117354943D01*
X151194329Y-117299010D01*
X151210768Y-117289651D01*
X151210549Y-117289271D01*
X151219935Y-117283852D01*
X151308913Y-117232480D01*
X151522820Y-117018572D01*
X151584142Y-116985088D01*
X151653833Y-116990072D01*
X151709767Y-117031943D01*
X151734184Y-117097408D01*
X151734500Y-117106254D01*
X151734500Y-117369138D01*
X151714815Y-117436177D01*
X151698181Y-117456819D01*
X151675000Y-117480000D01*
X151675000Y-118256000D01*
X151655315Y-118323039D01*
X151602511Y-118368794D01*
X151551000Y-118380000D01*
X151425000Y-118380000D01*
X151425000Y-118506000D01*
X151405315Y-118573039D01*
X151352511Y-118618794D01*
X151301000Y-118630000D01*
X150419000Y-118630000D01*
X150351961Y-118610315D01*
X150306206Y-118557511D01*
X150295000Y-118506000D01*
X150295000Y-118417651D01*
X150252920Y-118386594D01*
X150127727Y-118342787D01*
X150127725Y-118342786D01*
X150125000Y-118342530D01*
X150125000Y-118796000D01*
X150105315Y-118863039D01*
X150052511Y-118908794D01*
X150001000Y-118920000D01*
X149875000Y-118920000D01*
X149875000Y-119046000D01*
X149855315Y-119113039D01*
X149802511Y-119158794D01*
X149751000Y-119170000D01*
X149277332Y-119170000D01*
X149311596Y-119267922D01*
X149354419Y-119325945D01*
X149378390Y-119391574D01*
X149363075Y-119459744D01*
X149354419Y-119473213D01*
X149311147Y-119531844D01*
X149267291Y-119657173D01*
X149267289Y-119657185D01*
X149264500Y-119686929D01*
X149264500Y-120073070D01*
X149267289Y-120102814D01*
X149267291Y-120102826D01*
X149303904Y-120207456D01*
X149311148Y-120228157D01*
X149390001Y-120334999D01*
X149496843Y-120413852D01*
X149535003Y-120427204D01*
X149622173Y-120457708D01*
X149622177Y-120457708D01*
X149622181Y-120457710D01*
X149637057Y-120459105D01*
X149651930Y-120460500D01*
X149651934Y-120460500D01*
X150098070Y-120460500D01*
X150111289Y-120459260D01*
X150127819Y-120457710D01*
X150127823Y-120457708D01*
X150127826Y-120457708D01*
X150261928Y-120410783D01*
X150262891Y-120413537D01*
X150316492Y-120402631D01*
X150381622Y-120427926D01*
X150422737Y-120484418D01*
X150429098Y-120511400D01*
X150435121Y-120561558D01*
X150490639Y-120702343D01*
X150582077Y-120822922D01*
X150702656Y-120914360D01*
X150702657Y-120914360D01*
X150702658Y-120914361D01*
X150843436Y-120969877D01*
X150931898Y-120980500D01*
X150931903Y-120980500D01*
X151918097Y-120980500D01*
X151918102Y-120980500D01*
X152006564Y-120969877D01*
X152147342Y-120914361D01*
X152267922Y-120822922D01*
X152359361Y-120702342D01*
X152409916Y-120574144D01*
X152452818Y-120519004D01*
X152518726Y-120495810D01*
X152586711Y-120511930D01*
X152635188Y-120562246D01*
X152640622Y-120574147D01*
X152691077Y-120702091D01*
X152691078Y-120702093D01*
X152782435Y-120822564D01*
X152902904Y-120913920D01*
X153043556Y-120969386D01*
X153131946Y-120980000D01*
X153375000Y-120980000D01*
X153875000Y-120980000D01*
X154118054Y-120980000D01*
X154206443Y-120969386D01*
X154347095Y-120913920D01*
X154467564Y-120822564D01*
X154558920Y-120702095D01*
X154614386Y-120561443D01*
X154625000Y-120473053D01*
X154625000Y-120330000D01*
X153875000Y-120330000D01*
X153875000Y-120980000D01*
X153375000Y-120980000D01*
X153375000Y-120204000D01*
X153394685Y-120136961D01*
X153447489Y-120091206D01*
X153499000Y-120080000D01*
X153625000Y-120080000D01*
X153625000Y-119954000D01*
X153644685Y-119886961D01*
X153697489Y-119841206D01*
X153749000Y-119830000D01*
X154631000Y-119830000D01*
X154698039Y-119849685D01*
X154743794Y-119902489D01*
X154754267Y-119950634D01*
X154754999Y-119952858D01*
X154815357Y-120034639D01*
X154815362Y-120034643D01*
X154922080Y-120113405D01*
X155047271Y-120157212D01*
X155047269Y-120157212D01*
X155050000Y-120157467D01*
X155550000Y-120157467D01*
X155552729Y-120157212D01*
X155677919Y-120113405D01*
X155784641Y-120034641D01*
X155863403Y-119927922D01*
X155897668Y-119830000D01*
X155550000Y-119830000D01*
X155550000Y-120157467D01*
X155050000Y-120157467D01*
X155050000Y-119704000D01*
X155069685Y-119636961D01*
X155122489Y-119591206D01*
X155174000Y-119580000D01*
X155300000Y-119580000D01*
X155300000Y-119454000D01*
X155319685Y-119386961D01*
X155372489Y-119341206D01*
X155424000Y-119330000D01*
X155897668Y-119330000D01*
X155863403Y-119232077D01*
X155820581Y-119174056D01*
X155796609Y-119108427D01*
X155811924Y-119040257D01*
X155820572Y-119026798D01*
X155863852Y-118968157D01*
X155907710Y-118842819D01*
X155910500Y-118813066D01*
X155910500Y-118426934D01*
X155909379Y-118414983D01*
X155922716Y-118346400D01*
X155949342Y-118311728D01*
X155965000Y-118297467D01*
X156465000Y-118297467D01*
X156467729Y-118297212D01*
X156592919Y-118253405D01*
X156699641Y-118174641D01*
X156778403Y-118067922D01*
X156812668Y-117970000D01*
X156465000Y-117970000D01*
X156465000Y-118297467D01*
X155965000Y-118297467D01*
X155965000Y-117970000D01*
X155536362Y-117970000D01*
X155531143Y-117969890D01*
X155293781Y-117959890D01*
X155263074Y-117949450D01*
X155231961Y-117940315D01*
X155230190Y-117938271D01*
X155227629Y-117937401D01*
X155207431Y-117912007D01*
X155186206Y-117887511D01*
X155185549Y-117884494D01*
X155184137Y-117882718D01*
X155183247Y-117873909D01*
X155175000Y-117836000D01*
X155175000Y-117584000D01*
X155194685Y-117516961D01*
X155247489Y-117471206D01*
X155299000Y-117460000D01*
X155853638Y-117460000D01*
X155887694Y-117470000D01*
X156812669Y-117470000D01*
X156823618Y-117454568D01*
X156822849Y-117439492D01*
X156857578Y-117378865D01*
X156911354Y-117348544D01*
X157056784Y-117309577D01*
X157193716Y-117230520D01*
X157305520Y-117118716D01*
X157384577Y-116981784D01*
X157425500Y-116829057D01*
X157425500Y-116670943D01*
X157384577Y-116518216D01*
X157384573Y-116518209D01*
X157305524Y-116381290D01*
X157305518Y-116381282D01*
X157193717Y-116269481D01*
X157193709Y-116269475D01*
X157056790Y-116190426D01*
X157056786Y-116190424D01*
X157056784Y-116190423D01*
X156904057Y-116149500D01*
X156745943Y-116149500D01*
X156672111Y-116169282D01*
X156602264Y-116167620D01*
X156544401Y-116128457D01*
X156516897Y-116064229D01*
X156528483Y-115995327D01*
X156552337Y-115961828D01*
X156772347Y-115741818D01*
X156833670Y-115708334D01*
X156860028Y-115705500D01*
X158465500Y-115705500D01*
X158532539Y-115725185D01*
G37*
%TD.AperFunction*%
%TA.AperFunction,Conductor*%
G36*
X152190702Y-131550214D02*
G01*
X152228476Y-131608992D01*
X152231972Y-131624529D01*
X152253317Y-131759293D01*
X152309251Y-131931444D01*
X152309252Y-131931447D01*
X152391431Y-132092730D01*
X152402913Y-132108532D01*
X152402913Y-132108533D01*
X152892037Y-131619409D01*
X152909075Y-131682993D01*
X152974901Y-131797007D01*
X153067993Y-131890099D01*
X153182007Y-131955925D01*
X153245590Y-131972962D01*
X152756466Y-132462085D01*
X152756757Y-132465771D01*
X152742393Y-132534149D01*
X152693341Y-132583905D01*
X152633139Y-132599500D01*
X152089210Y-132599500D01*
X152022171Y-132579815D01*
X151976416Y-132527011D01*
X151966472Y-132457853D01*
X151975775Y-132425414D01*
X151975776Y-132425412D01*
X151982585Y-132409991D01*
X151985500Y-132384865D01*
X151985499Y-131643925D01*
X152005183Y-131576888D01*
X152057987Y-131531133D01*
X152127146Y-131521189D01*
X152190702Y-131550214D01*
G37*
%TD.AperFunction*%
%TA.AperFunction,Conductor*%
G36*
X154681376Y-131498652D02*
G01*
X154739609Y-131537261D01*
X154767219Y-131597720D01*
X154792828Y-131759410D01*
X154848787Y-131931636D01*
X154848788Y-131931639D01*
X154883320Y-131999410D01*
X154930869Y-132092730D01*
X154931006Y-132092997D01*
X155037441Y-132239494D01*
X155037445Y-132239499D01*
X155165500Y-132367554D01*
X155165505Y-132367558D01*
X155175998Y-132375182D01*
X155218664Y-132430512D01*
X155224643Y-132500125D01*
X155192037Y-132561920D01*
X155131199Y-132596277D01*
X155103113Y-132599500D01*
X154116861Y-132599500D01*
X154049822Y-132579815D01*
X154004067Y-132527011D01*
X153993243Y-132465774D01*
X153993533Y-132462085D01*
X153504410Y-131972962D01*
X153567993Y-131955925D01*
X153682007Y-131890099D01*
X153775099Y-131797007D01*
X153840925Y-131682993D01*
X153857962Y-131619409D01*
X154347085Y-132108532D01*
X154358568Y-132092730D01*
X154440745Y-131931452D01*
X154440748Y-131931444D01*
X154496683Y-131759292D01*
X154522273Y-131597721D01*
X154552202Y-131534586D01*
X154611513Y-131497654D01*
X154681376Y-131498652D01*
G37*
%TD.AperFunction*%
%TA.AperFunction,Conductor*%
G36*
X163237084Y-127268532D02*
G01*
X163240772Y-127268242D01*
X163309149Y-127282606D01*
X163358905Y-127331658D01*
X163374500Y-127391860D01*
X163374500Y-128378113D01*
X163354815Y-128445152D01*
X163302011Y-128490907D01*
X163232853Y-128500851D01*
X163169297Y-128471826D01*
X163150182Y-128450998D01*
X163142558Y-128440505D01*
X163142554Y-128440500D01*
X163014499Y-128312445D01*
X163014494Y-128312441D01*
X162867997Y-128206006D01*
X162867996Y-128206005D01*
X162867994Y-128206004D01*
X162816300Y-128179664D01*
X162706639Y-128123788D01*
X162706636Y-128123787D01*
X162534410Y-128067828D01*
X162372720Y-128042219D01*
X162309585Y-128012289D01*
X162272654Y-127952978D01*
X162273652Y-127883115D01*
X162312262Y-127824883D01*
X162372721Y-127797273D01*
X162534292Y-127771683D01*
X162706444Y-127715748D01*
X162706452Y-127715745D01*
X162867730Y-127633568D01*
X162883532Y-127622085D01*
X162883533Y-127622085D01*
X162394410Y-127132962D01*
X162457993Y-127115925D01*
X162572007Y-127050099D01*
X162665099Y-126957007D01*
X162730925Y-126842993D01*
X162747962Y-126779409D01*
X163237084Y-127268532D01*
G37*
%TD.AperFunction*%
%TA.AperFunction,Conductor*%
G36*
X144019075Y-126842993D02*
G01*
X144084901Y-126957007D01*
X144177993Y-127050099D01*
X144292007Y-127115925D01*
X144355590Y-127132962D01*
X143866466Y-127622085D01*
X143866466Y-127622086D01*
X143882267Y-127633566D01*
X143882275Y-127633571D01*
X144043552Y-127715747D01*
X144043555Y-127715748D01*
X144215706Y-127771682D01*
X144377279Y-127797273D01*
X144440413Y-127827202D01*
X144477345Y-127886513D01*
X144476347Y-127956376D01*
X144437738Y-128014609D01*
X144377280Y-128042219D01*
X144215589Y-128067829D01*
X144043363Y-128123787D01*
X144043360Y-128123788D01*
X143882002Y-128206006D01*
X143735505Y-128312441D01*
X143735500Y-128312445D01*
X143607445Y-128440500D01*
X143607441Y-128440505D01*
X143599818Y-128450998D01*
X143544488Y-128493664D01*
X143474875Y-128499643D01*
X143413080Y-128467037D01*
X143378723Y-128406199D01*
X143375500Y-128378113D01*
X143375500Y-127391861D01*
X143395185Y-127324822D01*
X143447989Y-127279067D01*
X143509229Y-127268243D01*
X143512913Y-127268533D01*
X144002037Y-126779409D01*
X144019075Y-126842993D01*
G37*
%TD.AperFunction*%
%TA.AperFunction,Conductor*%
G36*
X146645384Y-122618522D02*
G01*
X146701317Y-122660394D01*
X146725734Y-122725858D01*
X146726050Y-122734704D01*
X146726050Y-126331194D01*
X146706365Y-126398233D01*
X146689731Y-126418875D01*
X145024280Y-128084325D01*
X144962957Y-128117810D01*
X144898281Y-128114575D01*
X144754410Y-128067828D01*
X144592720Y-128042219D01*
X144529585Y-128012289D01*
X144492654Y-127952978D01*
X144493652Y-127883115D01*
X144532262Y-127824883D01*
X144592721Y-127797273D01*
X144754292Y-127771683D01*
X144926444Y-127715748D01*
X144926452Y-127715745D01*
X145087730Y-127633568D01*
X145103532Y-127622085D01*
X145103533Y-127622085D01*
X144614410Y-127132962D01*
X144677993Y-127115925D01*
X144792007Y-127050099D01*
X144885099Y-126957007D01*
X144950925Y-126842993D01*
X144967962Y-126779409D01*
X145457085Y-127268532D01*
X145468568Y-127252730D01*
X145550745Y-127091452D01*
X145550748Y-127091444D01*
X145606682Y-126919293D01*
X145635000Y-126740506D01*
X145635000Y-126559493D01*
X145606682Y-126380706D01*
X145550748Y-126208555D01*
X145550747Y-126208552D01*
X145468571Y-126047275D01*
X145468566Y-126047267D01*
X145457085Y-126031466D01*
X144967962Y-126520589D01*
X144950925Y-126457007D01*
X144885099Y-126342993D01*
X144792007Y-126249901D01*
X144677993Y-126184075D01*
X144614409Y-126167037D01*
X145103533Y-125677913D01*
X145087730Y-125666431D01*
X144926447Y-125584252D01*
X144926444Y-125584251D01*
X144754293Y-125528317D01*
X144592720Y-125502726D01*
X144529585Y-125472797D01*
X144492654Y-125413485D01*
X144493652Y-125343623D01*
X144532262Y-125285390D01*
X144592720Y-125257780D01*
X144607270Y-125255475D01*
X144754409Y-125232171D01*
X144926639Y-125176211D01*
X145087994Y-125093996D01*
X145234501Y-124987553D01*
X145362553Y-124859501D01*
X145468996Y-124712994D01*
X145551211Y-124551639D01*
X145607171Y-124379409D01*
X145621765Y-124287259D01*
X145635500Y-124200551D01*
X145635500Y-124019448D01*
X145619019Y-123915397D01*
X145607171Y-123840591D01*
X145560424Y-123696716D01*
X145558429Y-123626875D01*
X145590672Y-123570719D01*
X146514370Y-122647022D01*
X146575692Y-122613538D01*
X146645384Y-122618522D01*
G37*
%TD.AperFunction*%
%TA.AperFunction,Conductor*%
G36*
X159996703Y-122408542D02*
G01*
X160003181Y-122414574D01*
X161159325Y-123570718D01*
X161192810Y-123632041D01*
X161189575Y-123696716D01*
X161142829Y-123840587D01*
X161114500Y-124019448D01*
X161114500Y-124200551D01*
X161142829Y-124379410D01*
X161198787Y-124551636D01*
X161198788Y-124551639D01*
X161281006Y-124712997D01*
X161387441Y-124859494D01*
X161387445Y-124859499D01*
X161515500Y-124987554D01*
X161515505Y-124987558D01*
X161643287Y-125080396D01*
X161662006Y-125093996D01*
X161767484Y-125147740D01*
X161823360Y-125176211D01*
X161823363Y-125176212D01*
X161909476Y-125204191D01*
X161995591Y-125232171D01*
X162115038Y-125251089D01*
X162157279Y-125257780D01*
X162220414Y-125287709D01*
X162257345Y-125347021D01*
X162256347Y-125416883D01*
X162217737Y-125475116D01*
X162157279Y-125502726D01*
X161995706Y-125528317D01*
X161823555Y-125584251D01*
X161823547Y-125584254D01*
X161662269Y-125666432D01*
X161646466Y-125677912D01*
X161646466Y-125677913D01*
X162135591Y-126167037D01*
X162072007Y-126184075D01*
X161957993Y-126249901D01*
X161864901Y-126342993D01*
X161799075Y-126457007D01*
X161782037Y-126520590D01*
X161292913Y-126031466D01*
X161292912Y-126031466D01*
X161281432Y-126047269D01*
X161199254Y-126208547D01*
X161199251Y-126208555D01*
X161143317Y-126380706D01*
X161115000Y-126559493D01*
X161115000Y-126740506D01*
X161143317Y-126919293D01*
X161199251Y-127091444D01*
X161199252Y-127091447D01*
X161281431Y-127252730D01*
X161292913Y-127268532D01*
X161292913Y-127268533D01*
X161782037Y-126779409D01*
X161799075Y-126842993D01*
X161864901Y-126957007D01*
X161957993Y-127050099D01*
X162072007Y-127115925D01*
X162135590Y-127132962D01*
X161646466Y-127622085D01*
X161646466Y-127622086D01*
X161662267Y-127633566D01*
X161662275Y-127633571D01*
X161823552Y-127715747D01*
X161823555Y-127715748D01*
X161995706Y-127771682D01*
X162157279Y-127797273D01*
X162220413Y-127827202D01*
X162257345Y-127886513D01*
X162256347Y-127956376D01*
X162217738Y-128014609D01*
X162157280Y-128042219D01*
X161995586Y-128067829D01*
X161851715Y-128114575D01*
X161781874Y-128116570D01*
X161725717Y-128084325D01*
X160283695Y-126642302D01*
X159827819Y-126186426D01*
X159794334Y-126125103D01*
X159791500Y-126098745D01*
X159791500Y-122502255D01*
X159811185Y-122435216D01*
X159863989Y-122389461D01*
X159933147Y-122379517D01*
X159996703Y-122408542D01*
G37*
%TD.AperFunction*%
%TA.AperFunction,Conductor*%
G36*
X143580703Y-124828173D02*
G01*
X143599821Y-124849004D01*
X143607446Y-124859500D01*
X143735500Y-124987554D01*
X143735505Y-124987558D01*
X143863287Y-125080396D01*
X143882006Y-125093996D01*
X143987484Y-125147740D01*
X144043360Y-125176211D01*
X144043363Y-125176212D01*
X144129476Y-125204191D01*
X144215591Y-125232171D01*
X144335038Y-125251089D01*
X144377279Y-125257780D01*
X144440414Y-125287709D01*
X144477345Y-125347021D01*
X144476347Y-125416883D01*
X144437737Y-125475116D01*
X144377279Y-125502726D01*
X144215706Y-125528317D01*
X144043555Y-125584251D01*
X144043547Y-125584254D01*
X143882269Y-125666432D01*
X143866466Y-125677912D01*
X143866466Y-125677913D01*
X144355591Y-126167037D01*
X144292007Y-126184075D01*
X144177993Y-126249901D01*
X144084901Y-126342993D01*
X144019075Y-126457007D01*
X144002037Y-126520590D01*
X143512913Y-126031466D01*
X143509229Y-126031756D01*
X143440852Y-126017392D01*
X143391095Y-125968340D01*
X143375500Y-125908138D01*
X143375500Y-124921886D01*
X143395185Y-124854847D01*
X143447989Y-124809092D01*
X143517147Y-124799148D01*
X143580703Y-124828173D01*
G37*
%TD.AperFunction*%
%TA.AperFunction,Conductor*%
G36*
X163336917Y-124832959D02*
G01*
X163371277Y-124893796D01*
X163374500Y-124921886D01*
X163374500Y-125908138D01*
X163354815Y-125975177D01*
X163302011Y-126020932D01*
X163240773Y-126031756D01*
X163237086Y-126031465D01*
X162747962Y-126520589D01*
X162730925Y-126457007D01*
X162665099Y-126342993D01*
X162572007Y-126249901D01*
X162457993Y-126184075D01*
X162394409Y-126167037D01*
X162883533Y-125677913D01*
X162867730Y-125666431D01*
X162706447Y-125584252D01*
X162706444Y-125584251D01*
X162534293Y-125528317D01*
X162372720Y-125502726D01*
X162309585Y-125472797D01*
X162272654Y-125413485D01*
X162273652Y-125343623D01*
X162312262Y-125285390D01*
X162372720Y-125257780D01*
X162387270Y-125255475D01*
X162534409Y-125232171D01*
X162706639Y-125176211D01*
X162867994Y-125093996D01*
X163014501Y-124987553D01*
X163142553Y-124859501D01*
X163150180Y-124849003D01*
X163205508Y-124806336D01*
X163275121Y-124800355D01*
X163336917Y-124832959D01*
G37*
%TD.AperFunction*%
%TA.AperFunction,Conductor*%
G36*
X163237084Y-114568532D02*
G01*
X163240772Y-114568242D01*
X163309149Y-114582606D01*
X163358905Y-114631658D01*
X163374500Y-114691860D01*
X163374500Y-115678113D01*
X163354815Y-115745152D01*
X163302011Y-115790907D01*
X163232853Y-115800851D01*
X163169297Y-115771826D01*
X163150182Y-115750998D01*
X163142558Y-115740505D01*
X163142554Y-115740500D01*
X163014499Y-115612445D01*
X163014494Y-115612441D01*
X162867997Y-115506006D01*
X162867996Y-115506005D01*
X162867994Y-115506004D01*
X162774292Y-115458260D01*
X162706639Y-115423788D01*
X162706636Y-115423787D01*
X162534410Y-115367828D01*
X162372720Y-115342219D01*
X162309585Y-115312289D01*
X162272654Y-115252978D01*
X162273652Y-115183115D01*
X162312262Y-115124883D01*
X162372721Y-115097273D01*
X162534292Y-115071683D01*
X162706444Y-115015748D01*
X162706452Y-115015745D01*
X162867730Y-114933568D01*
X162883532Y-114922085D01*
X162394409Y-114432962D01*
X162457993Y-114415925D01*
X162572007Y-114350099D01*
X162665099Y-114257007D01*
X162730925Y-114142993D01*
X162747962Y-114079409D01*
X163237084Y-114568532D01*
G37*
%TD.AperFunction*%
%TA.AperFunction,Conductor*%
G36*
X144019075Y-114142993D02*
G01*
X144084901Y-114257007D01*
X144177993Y-114350099D01*
X144292007Y-114415925D01*
X144355590Y-114432962D01*
X143866466Y-114922085D01*
X143866466Y-114922086D01*
X143882267Y-114933566D01*
X143882275Y-114933571D01*
X144043552Y-115015747D01*
X144043555Y-115015748D01*
X144215706Y-115071682D01*
X144377279Y-115097273D01*
X144440413Y-115127202D01*
X144477345Y-115186513D01*
X144476347Y-115256376D01*
X144437738Y-115314609D01*
X144377280Y-115342219D01*
X144215589Y-115367829D01*
X144043363Y-115423787D01*
X144043360Y-115423788D01*
X143882002Y-115506006D01*
X143735505Y-115612441D01*
X143735500Y-115612445D01*
X143607445Y-115740500D01*
X143607441Y-115740505D01*
X143599818Y-115750998D01*
X143544488Y-115793664D01*
X143474875Y-115799643D01*
X143413080Y-115767037D01*
X143378723Y-115706199D01*
X143375500Y-115678113D01*
X143375500Y-114691861D01*
X143395185Y-114624822D01*
X143447989Y-114579067D01*
X143509229Y-114568243D01*
X143512913Y-114568533D01*
X144002037Y-114079409D01*
X144019075Y-114142993D01*
G37*
%TD.AperFunction*%
%TA.AperFunction,Conductor*%
G36*
X161550268Y-114865700D02*
G01*
X161561170Y-114866324D01*
X161592385Y-114882795D01*
X161662265Y-114933565D01*
X161823552Y-115015747D01*
X161823555Y-115015748D01*
X161995706Y-115071682D01*
X162157279Y-115097273D01*
X162220413Y-115127202D01*
X162257345Y-115186513D01*
X162256347Y-115256376D01*
X162217738Y-115314609D01*
X162157280Y-115342219D01*
X161995589Y-115367829D01*
X161823363Y-115423787D01*
X161823360Y-115423788D01*
X161662006Y-115506003D01*
X161592385Y-115556586D01*
X161526578Y-115580065D01*
X161458524Y-115564239D01*
X161409830Y-115514133D01*
X161395500Y-115456267D01*
X161395500Y-114983113D01*
X161399047Y-114971032D01*
X161397970Y-114958488D01*
X161408704Y-114938143D01*
X161415185Y-114916074D01*
X161424700Y-114907829D01*
X161430576Y-114896693D01*
X161450606Y-114885381D01*
X161467989Y-114870319D01*
X161480450Y-114868527D01*
X161491414Y-114862336D01*
X161514378Y-114863648D01*
X161537147Y-114860375D01*
X161550268Y-114865700D01*
G37*
%TD.AperFunction*%
%TA.AperFunction,Conductor*%
G36*
X145700375Y-113269318D02*
G01*
X145915133Y-113484075D01*
X146127968Y-113696910D01*
X146127970Y-113696913D01*
X146202537Y-113771480D01*
X146285255Y-113819237D01*
X146293863Y-113824207D01*
X146315548Y-113830017D01*
X146375207Y-113866382D01*
X146405736Y-113929230D01*
X146397441Y-113998605D01*
X146371134Y-114037473D01*
X145024281Y-115384325D01*
X144962958Y-115417810D01*
X144898283Y-115414575D01*
X144754411Y-115367829D01*
X144754412Y-115367829D01*
X144592720Y-115342219D01*
X144529585Y-115312289D01*
X144492654Y-115252978D01*
X144493652Y-115183115D01*
X144532262Y-115124883D01*
X144592721Y-115097273D01*
X144754292Y-115071683D01*
X144926444Y-115015748D01*
X144926452Y-115015745D01*
X145087730Y-114933568D01*
X145103532Y-114922085D01*
X145103533Y-114922085D01*
X144614410Y-114432962D01*
X144677993Y-114415925D01*
X144792007Y-114350099D01*
X144885099Y-114257007D01*
X144950925Y-114142993D01*
X144967962Y-114079409D01*
X145457085Y-114568532D01*
X145468568Y-114552730D01*
X145550745Y-114391452D01*
X145550748Y-114391444D01*
X145606682Y-114219293D01*
X145635000Y-114040506D01*
X145635000Y-113859493D01*
X145606682Y-113680706D01*
X145550748Y-113508555D01*
X145550745Y-113508548D01*
X145502210Y-113413295D01*
X145489313Y-113344626D01*
X145515589Y-113279885D01*
X145572695Y-113239628D01*
X145642500Y-113236635D01*
X145700375Y-113269318D01*
G37*
%TD.AperFunction*%
%TA.AperFunction,Conductor*%
G36*
X152625784Y-113921185D02*
G01*
X152646426Y-113937819D01*
X152796426Y-114087819D01*
X152829911Y-114149142D01*
X152824927Y-114218834D01*
X152783055Y-114274767D01*
X152717591Y-114299184D01*
X152708745Y-114299500D01*
X152691739Y-114299500D01*
X152623611Y-114309425D01*
X152614408Y-114312270D01*
X152613542Y-114309468D01*
X152559989Y-114318598D01*
X152535835Y-114311504D01*
X152535449Y-114312755D01*
X152526250Y-114309912D01*
X152458214Y-114300000D01*
X152291786Y-114300000D01*
X152223747Y-114309913D01*
X152214550Y-114312755D01*
X152213592Y-114309655D01*
X152161111Y-114318596D01*
X152135926Y-114311197D01*
X152135595Y-114312270D01*
X152126392Y-114309426D01*
X152058261Y-114299500D01*
X152058260Y-114299500D01*
X151891740Y-114299500D01*
X151891739Y-114299500D01*
X151823611Y-114309425D01*
X151814408Y-114312270D01*
X151813523Y-114309408D01*
X151762380Y-114318521D01*
X151740394Y-114316271D01*
X151726393Y-114309427D01*
X151658260Y-114299500D01*
X151576453Y-114299500D01*
X151570158Y-114298856D01*
X151543431Y-114287946D01*
X151515739Y-114279815D01*
X151511485Y-114274906D01*
X151505470Y-114272451D01*
X151488881Y-114248820D01*
X151469984Y-114227011D01*
X151469059Y-114220582D01*
X151465327Y-114215265D01*
X151464147Y-114186422D01*
X151460040Y-114157853D01*
X151462491Y-114145900D01*
X151462473Y-114145453D01*
X151462642Y-114145164D01*
X151463000Y-114143418D01*
X151466575Y-114130078D01*
X151466575Y-114025500D01*
X151486260Y-113958461D01*
X151539064Y-113912706D01*
X151590575Y-113901500D01*
X151628727Y-113901500D01*
X152558745Y-113901500D01*
X152625784Y-113921185D01*
G37*
%TD.AperFunction*%
%TA.AperFunction,Conductor*%
G36*
X143580703Y-112128173D02*
G01*
X143599821Y-112149004D01*
X143607446Y-112159500D01*
X143735500Y-112287554D01*
X143735505Y-112287558D01*
X143801952Y-112335834D01*
X143882006Y-112393996D01*
X143974819Y-112441287D01*
X144043360Y-112476211D01*
X144043363Y-112476212D01*
X144124108Y-112502447D01*
X144215591Y-112532171D01*
X144335038Y-112551089D01*
X144377279Y-112557780D01*
X144440414Y-112587709D01*
X144477345Y-112647021D01*
X144476347Y-112716883D01*
X144437737Y-112775116D01*
X144377279Y-112802726D01*
X144215706Y-112828317D01*
X144043555Y-112884251D01*
X144043547Y-112884254D01*
X143882269Y-112966432D01*
X143866466Y-112977912D01*
X143866466Y-112977913D01*
X144355590Y-113467037D01*
X144292007Y-113484075D01*
X144177993Y-113549901D01*
X144084901Y-113642993D01*
X144019075Y-113757007D01*
X144002037Y-113820590D01*
X143512913Y-113331466D01*
X143509229Y-113331756D01*
X143440852Y-113317392D01*
X143391095Y-113268340D01*
X143375500Y-113208138D01*
X143375500Y-112221886D01*
X143395185Y-112154847D01*
X143447989Y-112109092D01*
X143517147Y-112099148D01*
X143580703Y-112128173D01*
G37*
%TD.AperFunction*%
%TA.AperFunction,Conductor*%
G36*
X161532540Y-112300185D02*
G01*
X161538386Y-112304182D01*
X161581952Y-112335834D01*
X161662006Y-112393996D01*
X161754819Y-112441287D01*
X161823360Y-112476211D01*
X161823363Y-112476212D01*
X161904108Y-112502447D01*
X161995591Y-112532171D01*
X162115038Y-112551089D01*
X162157279Y-112557780D01*
X162220414Y-112587709D01*
X162257345Y-112647021D01*
X162256347Y-112716883D01*
X162217737Y-112775116D01*
X162157279Y-112802726D01*
X161995706Y-112828317D01*
X161823555Y-112884251D01*
X161823547Y-112884254D01*
X161662269Y-112966432D01*
X161646466Y-112977912D01*
X161646466Y-112977913D01*
X162135591Y-113467037D01*
X162072007Y-113484075D01*
X161957993Y-113549901D01*
X161864901Y-113642993D01*
X161799075Y-113757007D01*
X161782037Y-113820590D01*
X161292913Y-113331466D01*
X161292912Y-113331466D01*
X161281432Y-113347269D01*
X161199254Y-113508547D01*
X161199251Y-113508555D01*
X161188381Y-113542013D01*
X161148944Y-113599688D01*
X161084585Y-113626887D01*
X161015739Y-113614973D01*
X160982769Y-113591376D01*
X160448181Y-113056788D01*
X160414696Y-112995465D01*
X160418821Y-112928151D01*
X160452213Y-112832725D01*
X160452469Y-112830000D01*
X159999000Y-112830000D01*
X159931961Y-112810315D01*
X159886206Y-112757511D01*
X159875000Y-112706000D01*
X159875000Y-112454000D01*
X159894685Y-112386961D01*
X159947489Y-112341206D01*
X159999000Y-112330000D01*
X160452468Y-112330000D01*
X160460662Y-112321003D01*
X160520357Y-112284695D01*
X160552337Y-112280500D01*
X161465501Y-112280500D01*
X161532540Y-112300185D01*
G37*
%TD.AperFunction*%
%TA.AperFunction,Conductor*%
G36*
X163336917Y-112132959D02*
G01*
X163371277Y-112193796D01*
X163374500Y-112221886D01*
X163374500Y-113208138D01*
X163354815Y-113275177D01*
X163302011Y-113320932D01*
X163240773Y-113331756D01*
X163237086Y-113331465D01*
X162747962Y-113820589D01*
X162730925Y-113757007D01*
X162665099Y-113642993D01*
X162572007Y-113549901D01*
X162457993Y-113484075D01*
X162394409Y-113467037D01*
X162883533Y-112977913D01*
X162867730Y-112966431D01*
X162706447Y-112884252D01*
X162706444Y-112884251D01*
X162534293Y-112828317D01*
X162372720Y-112802726D01*
X162309585Y-112772797D01*
X162272654Y-112713485D01*
X162273652Y-112643623D01*
X162312262Y-112585390D01*
X162372720Y-112557780D01*
X162387270Y-112555475D01*
X162534409Y-112532171D01*
X162706639Y-112476211D01*
X162867994Y-112393996D01*
X163014501Y-112287553D01*
X163142553Y-112159501D01*
X163150180Y-112149003D01*
X163205508Y-112106336D01*
X163275121Y-112100355D01*
X163336917Y-112132959D01*
G37*
%TD.AperFunction*%
%TA.AperFunction,Conductor*%
G36*
X154047746Y-108903050D02*
G01*
X154056708Y-108901762D01*
X154080748Y-108912740D01*
X154106100Y-108920185D01*
X154112027Y-108927025D01*
X154120264Y-108930787D01*
X154134553Y-108953021D01*
X154151855Y-108972989D01*
X154154142Y-108983503D01*
X154158038Y-108989565D01*
X154163061Y-109024500D01*
X154163061Y-109179057D01*
X154187290Y-109269479D01*
X154203984Y-109331783D01*
X154203987Y-109331790D01*
X154283036Y-109468709D01*
X154283040Y-109468714D01*
X154283041Y-109468716D01*
X154394845Y-109580520D01*
X154394847Y-109580521D01*
X154394851Y-109580524D01*
X154518017Y-109651633D01*
X154531777Y-109659577D01*
X154684504Y-109700500D01*
X154684506Y-109700500D01*
X154842616Y-109700500D01*
X154842618Y-109700500D01*
X154995345Y-109659577D01*
X155132277Y-109580520D01*
X155244081Y-109468716D01*
X155323138Y-109331784D01*
X155356093Y-109208790D01*
X155364110Y-109194905D01*
X155367036Y-109181458D01*
X155388181Y-109153211D01*
X155413822Y-109127570D01*
X155475144Y-109094088D01*
X155544836Y-109099074D01*
X155600769Y-109140947D01*
X155625184Y-109206411D01*
X155625500Y-109215255D01*
X155625500Y-112441287D01*
X155652793Y-112543150D01*
X155670147Y-112573207D01*
X155705520Y-112634474D01*
X155705522Y-112634476D01*
X155773556Y-112702510D01*
X155807041Y-112763833D01*
X155802057Y-112833525D01*
X155760185Y-112889458D01*
X155717970Y-112909965D01*
X155644396Y-112929680D01*
X155644395Y-112929680D01*
X155644393Y-112929681D01*
X155644389Y-112929683D01*
X155507470Y-113008732D01*
X155507462Y-113008738D01*
X155395661Y-113120539D01*
X155395655Y-113120547D01*
X155316606Y-113257466D01*
X155316603Y-113257473D01*
X155275680Y-113410200D01*
X155274619Y-113418260D01*
X155271482Y-113417847D01*
X155255995Y-113470592D01*
X155203191Y-113516347D01*
X155134033Y-113526291D01*
X155070477Y-113497266D01*
X155063999Y-113491234D01*
X154976818Y-113404053D01*
X154976810Y-113404047D01*
X154839891Y-113324998D01*
X154839887Y-113324996D01*
X154839885Y-113324995D01*
X154687158Y-113284072D01*
X154529044Y-113284072D01*
X154383512Y-113323067D01*
X154313662Y-113321404D01*
X154263738Y-113290973D01*
X154192245Y-113219480D01*
X154192237Y-113219474D01*
X154055318Y-113140425D01*
X154055314Y-113140423D01*
X154055312Y-113140422D01*
X153902585Y-113099499D01*
X153744471Y-113099499D01*
X153591744Y-113140422D01*
X153591737Y-113140425D01*
X153454818Y-113219474D01*
X153454810Y-113219480D01*
X153345523Y-113328768D01*
X153284200Y-113362253D01*
X153214508Y-113357269D01*
X153170161Y-113328768D01*
X153021915Y-113180522D01*
X153021913Y-113180520D01*
X152976250Y-113154156D01*
X152930589Y-113127793D01*
X152879657Y-113114146D01*
X152828727Y-113100500D01*
X152828726Y-113100500D01*
X151800501Y-113100500D01*
X151733462Y-113080815D01*
X151687707Y-113028011D01*
X151676501Y-112976500D01*
X151676501Y-112906516D01*
X151671742Y-112888757D01*
X151649207Y-112804655D01*
X151649206Y-112804654D01*
X151649206Y-112804652D01*
X151649204Y-112804649D01*
X151625734Y-112763998D01*
X151625732Y-112763996D01*
X151620300Y-112754587D01*
X151596480Y-112713329D01*
X151521913Y-112638762D01*
X151521910Y-112638760D01*
X151359361Y-112476211D01*
X151161819Y-112278668D01*
X151128334Y-112217345D01*
X151125500Y-112190987D01*
X151125500Y-109473500D01*
X151145185Y-109406461D01*
X151197989Y-109360706D01*
X151249500Y-109349500D01*
X153378725Y-109349500D01*
X153378727Y-109349500D01*
X153480588Y-109322207D01*
X153571913Y-109269480D01*
X153895480Y-108945913D01*
X153895480Y-108945912D01*
X153901227Y-108940166D01*
X153902911Y-108941850D01*
X153949523Y-108907813D01*
X153991476Y-108900500D01*
X154039061Y-108900500D01*
X154047746Y-108903050D01*
G37*
%TD.AperFunction*%
%TA.AperFunction,Conductor*%
G36*
X146476670Y-112585601D02*
G01*
X146532273Y-112600500D01*
X147321000Y-112600500D01*
X147329685Y-112603050D01*
X147338647Y-112601762D01*
X147362687Y-112612740D01*
X147388039Y-112620185D01*
X147393966Y-112627025D01*
X147402203Y-112630787D01*
X147416492Y-112653021D01*
X147433794Y-112672989D01*
X147436081Y-112683503D01*
X147439977Y-112689565D01*
X147445000Y-112724500D01*
X147445000Y-112926500D01*
X147425315Y-112993539D01*
X147372511Y-113039294D01*
X147321000Y-113050500D01*
X146665704Y-113050500D01*
X146598665Y-113030815D01*
X146578023Y-113014181D01*
X146356900Y-112793058D01*
X146323415Y-112731735D01*
X146328399Y-112662043D01*
X146370271Y-112606110D01*
X146435735Y-112581693D01*
X146476670Y-112585601D01*
G37*
%TD.AperFunction*%
%TA.AperFunction,Conductor*%
G36*
X147901502Y-105889123D02*
G01*
X147906064Y-105891757D01*
X148007925Y-105919050D01*
X148569195Y-105919050D01*
X148636234Y-105938735D01*
X148656876Y-105955369D01*
X149489208Y-106787701D01*
X149499905Y-106799898D01*
X149504524Y-106805918D01*
X150338181Y-107639574D01*
X150371666Y-107700897D01*
X150374500Y-107727255D01*
X150374500Y-108424500D01*
X150371949Y-108433185D01*
X150373238Y-108442147D01*
X150362259Y-108466187D01*
X150354815Y-108491539D01*
X150347974Y-108497466D01*
X150344213Y-108505703D01*
X150321978Y-108519992D01*
X150302011Y-108537294D01*
X150291496Y-108539581D01*
X150285435Y-108543477D01*
X150250500Y-108548500D01*
X150103755Y-108548500D01*
X150036716Y-108528815D01*
X150016074Y-108512181D01*
X149621819Y-108117926D01*
X149588334Y-108056603D01*
X149585500Y-108030245D01*
X149585500Y-107776929D01*
X149583801Y-107758812D01*
X149582710Y-107747181D01*
X149582708Y-107747177D01*
X149582708Y-107747173D01*
X149545056Y-107639574D01*
X149538852Y-107621843D01*
X149459999Y-107515001D01*
X149353157Y-107436148D01*
X149353155Y-107436147D01*
X149227826Y-107392291D01*
X149227814Y-107392289D01*
X149198070Y-107389500D01*
X149198066Y-107389500D01*
X148811934Y-107389500D01*
X148811930Y-107389500D01*
X148782185Y-107392289D01*
X148782173Y-107392291D01*
X148656844Y-107436147D01*
X148612227Y-107469075D01*
X148600777Y-107477527D01*
X148598213Y-107479419D01*
X148532584Y-107503390D01*
X148464413Y-107488074D01*
X148450945Y-107479419D01*
X148392920Y-107436594D01*
X148295000Y-107402330D01*
X148295000Y-107876000D01*
X148275315Y-107943039D01*
X148222511Y-107988794D01*
X148171000Y-108000000D01*
X147919000Y-108000000D01*
X147851961Y-107980315D01*
X147806206Y-107927511D01*
X147795000Y-107876000D01*
X147795000Y-107402330D01*
X147767745Y-107382992D01*
X147724461Y-107328144D01*
X147715500Y-107281862D01*
X147715500Y-105996509D01*
X147735185Y-105929470D01*
X147787989Y-105883715D01*
X147857147Y-105873771D01*
X147901502Y-105889123D01*
G37*
%TD.AperFunction*%
%TA.AperFunction,Conductor*%
G36*
X159164889Y-106815789D02*
G01*
X159178220Y-106816443D01*
X159196336Y-106829381D01*
X159216771Y-106838214D01*
X159224214Y-106849292D01*
X159235077Y-106857050D01*
X159243322Y-106877728D01*
X159255739Y-106896208D01*
X159258922Y-106916854D01*
X159260955Y-106921951D01*
X159260260Y-106925527D01*
X159261500Y-106933566D01*
X159261500Y-107446832D01*
X159241815Y-107513871D01*
X159189011Y-107559626D01*
X159152566Y-107564866D01*
X159135000Y-107577330D01*
X159135000Y-108051000D01*
X159115315Y-108118039D01*
X159062511Y-108163794D01*
X159011000Y-108175000D01*
X158759000Y-108175000D01*
X158750314Y-108172449D01*
X158741353Y-108173738D01*
X158717312Y-108162759D01*
X158691961Y-108155315D01*
X158686033Y-108148474D01*
X158677797Y-108144713D01*
X158663507Y-108122478D01*
X158646206Y-108102511D01*
X158643918Y-108091996D01*
X158640023Y-108085935D01*
X158635000Y-108051000D01*
X158635000Y-107933536D01*
X158636061Y-107917347D01*
X158636087Y-107917141D01*
X158636089Y-107917138D01*
X158636089Y-107811684D01*
X158636089Y-107378650D01*
X158655774Y-107311611D01*
X158672403Y-107290973D01*
X158803796Y-107159581D01*
X158815095Y-107145943D01*
X158822859Y-107136574D01*
X158822862Y-107136570D01*
X158855400Y-107069004D01*
X158880477Y-107016930D01*
X158891337Y-106944875D01*
X158899930Y-106926392D01*
X158903816Y-106906382D01*
X158914361Y-106895353D01*
X158920793Y-106881519D01*
X158938013Y-106870616D01*
X158952102Y-106855882D01*
X158972575Y-106848734D01*
X158979826Y-106844144D01*
X158984886Y-106842811D01*
X159108434Y-106813021D01*
X159130668Y-106814111D01*
X159152636Y-106810493D01*
X159164889Y-106815789D01*
G37*
%TD.AperFunction*%
%TA.AperFunction,Conductor*%
G36*
X159180834Y-103688073D02*
G01*
X159236767Y-103729945D01*
X159261184Y-103795409D01*
X159261500Y-103804255D01*
X159261500Y-105458042D01*
X159241815Y-105525081D01*
X159189011Y-105570836D01*
X159119853Y-105580780D01*
X159083699Y-105569762D01*
X159024356Y-105541184D01*
X158893198Y-105521416D01*
X158762039Y-105541184D01*
X158668572Y-105586195D01*
X158668572Y-105586197D01*
X159003506Y-105921131D01*
X159036991Y-105982454D01*
X159032007Y-106052146D01*
X159003506Y-106096493D01*
X158825315Y-106274685D01*
X158817369Y-106279023D01*
X158811944Y-106286271D01*
X158787184Y-106295505D01*
X158763992Y-106308170D01*
X158754962Y-106307524D01*
X158746480Y-106310688D01*
X158720659Y-106305071D01*
X158694301Y-106303186D01*
X158685247Y-106297367D01*
X158678207Y-106295836D01*
X158649953Y-106274685D01*
X158520730Y-106145462D01*
X158487245Y-106084139D01*
X158485524Y-106074268D01*
X158485500Y-106074178D01*
X158485500Y-106074174D01*
X158444577Y-105921447D01*
X158427435Y-105891756D01*
X158365524Y-105784521D01*
X158365518Y-105784513D01*
X158253717Y-105672712D01*
X158253709Y-105672706D01*
X158116790Y-105593657D01*
X158116785Y-105593654D01*
X157992406Y-105560327D01*
X157932746Y-105523961D01*
X157902217Y-105461114D01*
X157900500Y-105440552D01*
X157900500Y-104917255D01*
X157920185Y-104850216D01*
X157936819Y-104829574D01*
X159049819Y-103716574D01*
X159111142Y-103683089D01*
X159180834Y-103688073D01*
G37*
%TD.AperFunction*%
%TA.AperFunction,Conductor*%
G36*
X162174914Y-84640184D02*
G01*
X162220669Y-84692988D01*
X162230613Y-84762146D01*
X162201588Y-84825702D01*
X162142810Y-84863476D01*
X162127273Y-84866972D01*
X161995589Y-84887829D01*
X161823363Y-84943787D01*
X161823360Y-84943788D01*
X161662006Y-85026003D01*
X161530754Y-85121363D01*
X161530751Y-85121365D01*
X161515499Y-85132447D01*
X161387447Y-85260499D01*
X161376365Y-85275751D01*
X161376361Y-85275756D01*
X161281003Y-85407006D01*
X161198788Y-85568360D01*
X161198787Y-85568363D01*
X161142829Y-85740589D01*
X161114500Y-85919448D01*
X161114500Y-86100551D01*
X161142829Y-86279410D01*
X161198787Y-86451636D01*
X161198788Y-86451639D01*
X161253288Y-86558598D01*
X161273220Y-86597718D01*
X161281006Y-86612997D01*
X161387441Y-86759494D01*
X161387445Y-86759499D01*
X161515500Y-86887554D01*
X161515505Y-86887558D01*
X161597950Y-86947457D01*
X161662006Y-86993996D01*
X161767484Y-87047740D01*
X161823360Y-87076211D01*
X161823363Y-87076212D01*
X161900277Y-87101202D01*
X161995591Y-87132171D01*
X162115038Y-87151089D01*
X162157279Y-87157780D01*
X162220414Y-87187709D01*
X162257345Y-87247021D01*
X162256347Y-87316883D01*
X162217737Y-87375116D01*
X162157279Y-87402726D01*
X161995706Y-87428317D01*
X161823555Y-87484251D01*
X161823547Y-87484254D01*
X161662269Y-87566432D01*
X161646466Y-87577912D01*
X161646466Y-87577913D01*
X162135591Y-88067037D01*
X162072007Y-88084075D01*
X161957993Y-88149901D01*
X161864901Y-88242993D01*
X161799075Y-88357007D01*
X161782037Y-88420590D01*
X161292913Y-87931466D01*
X161292912Y-87931466D01*
X161281432Y-87947269D01*
X161199254Y-88108547D01*
X161199251Y-88108555D01*
X161143317Y-88280706D01*
X161115000Y-88459493D01*
X161115000Y-88640506D01*
X161143317Y-88819293D01*
X161199251Y-88991444D01*
X161199252Y-88991447D01*
X161281431Y-89152730D01*
X161292913Y-89168532D01*
X161292913Y-89168533D01*
X161782037Y-88679409D01*
X161799075Y-88742993D01*
X161864901Y-88857007D01*
X161957993Y-88950099D01*
X162072007Y-89015925D01*
X162135590Y-89032962D01*
X161646466Y-89522085D01*
X161646466Y-89522086D01*
X161662267Y-89533566D01*
X161662275Y-89533571D01*
X161823552Y-89615747D01*
X161823555Y-89615748D01*
X161995706Y-89671682D01*
X162157279Y-89697273D01*
X162220413Y-89727202D01*
X162257345Y-89786513D01*
X162256347Y-89856376D01*
X162217738Y-89914609D01*
X162157280Y-89942219D01*
X161995589Y-89967829D01*
X161823363Y-90023787D01*
X161823360Y-90023788D01*
X161662002Y-90106006D01*
X161515505Y-90212441D01*
X161515500Y-90212445D01*
X161387445Y-90340500D01*
X161387441Y-90340505D01*
X161281006Y-90487002D01*
X161198788Y-90648360D01*
X161198787Y-90648363D01*
X161142829Y-90820589D01*
X161114500Y-90999448D01*
X161114500Y-91180551D01*
X161142829Y-91359410D01*
X161198787Y-91531636D01*
X161198788Y-91531639D01*
X161254664Y-91641300D01*
X161274383Y-91680000D01*
X161281006Y-91692997D01*
X161387441Y-91839494D01*
X161387445Y-91839499D01*
X161515500Y-91967554D01*
X161515505Y-91967558D01*
X161643287Y-92060396D01*
X161662006Y-92073996D01*
X161767484Y-92127740D01*
X161823360Y-92156211D01*
X161823363Y-92156212D01*
X161909476Y-92184191D01*
X161995591Y-92212171D01*
X162068639Y-92223740D01*
X162155678Y-92237527D01*
X162218813Y-92267456D01*
X162255744Y-92326768D01*
X162254746Y-92396631D01*
X162216136Y-92454863D01*
X162155678Y-92482473D01*
X161995589Y-92507829D01*
X161823363Y-92563787D01*
X161823360Y-92563788D01*
X161662002Y-92646006D01*
X161515505Y-92752441D01*
X161515500Y-92752445D01*
X161387445Y-92880500D01*
X161387441Y-92880505D01*
X161281006Y-93027002D01*
X161198788Y-93188360D01*
X161198787Y-93188363D01*
X161142829Y-93360589D01*
X161114500Y-93539448D01*
X161114500Y-93720551D01*
X161142829Y-93899412D01*
X161189575Y-94043283D01*
X161191570Y-94113124D01*
X161159325Y-94169281D01*
X158940522Y-96388084D01*
X158940518Y-96388090D01*
X158887792Y-96479412D01*
X158887793Y-96479413D01*
X158860500Y-96581273D01*
X158860500Y-102721745D01*
X158840815Y-102788784D01*
X158824181Y-102809426D01*
X157179522Y-104454084D01*
X157179520Y-104454087D01*
X157126791Y-104545414D01*
X157106321Y-104621819D01*
X157106199Y-104622273D01*
X157099500Y-104647273D01*
X157099500Y-105704723D01*
X157099500Y-105810177D01*
X157101060Y-105816000D01*
X157126793Y-105912039D01*
X157142937Y-105940000D01*
X157179520Y-106003363D01*
X157228303Y-106052146D01*
X157234476Y-106058318D01*
X157267961Y-106119641D01*
X157262977Y-106189333D01*
X157221106Y-106245267D01*
X157155642Y-106269684D01*
X157146795Y-106270000D01*
X156949000Y-106270000D01*
X156881961Y-106250315D01*
X156836206Y-106197511D01*
X156825000Y-106146000D01*
X156825000Y-105692531D01*
X156824999Y-105692530D01*
X156822274Y-105692786D01*
X156814905Y-105694397D01*
X156814216Y-105691245D01*
X156758744Y-105693778D01*
X156698304Y-105658723D01*
X156671174Y-105614283D01*
X156663405Y-105592079D01*
X156584641Y-105485358D01*
X156477919Y-105406594D01*
X156352727Y-105362787D01*
X156352725Y-105362786D01*
X156350000Y-105362530D01*
X156350000Y-105816000D01*
X156330315Y-105883039D01*
X156277511Y-105928794D01*
X156226000Y-105940000D01*
X155974000Y-105940000D01*
X155906961Y-105920315D01*
X155861206Y-105867511D01*
X155850000Y-105816000D01*
X155850000Y-105362531D01*
X155849999Y-105362530D01*
X155847274Y-105362786D01*
X155839905Y-105364397D01*
X155839560Y-105362818D01*
X155831736Y-105366886D01*
X155805415Y-105364463D01*
X155779011Y-105365807D01*
X155771164Y-105361310D01*
X155762161Y-105360482D01*
X155741326Y-105344212D01*
X155718389Y-105331069D01*
X155712763Y-105321908D01*
X155707092Y-105317480D01*
X155690814Y-105286169D01*
X155679169Y-105252891D01*
X155675607Y-105183117D01*
X155708528Y-105124260D01*
X157085703Y-103747084D01*
X157085708Y-103747081D01*
X157095911Y-103736877D01*
X157095913Y-103736877D01*
X157170480Y-103662310D01*
X157223207Y-103570984D01*
X157226825Y-103557480D01*
X157236711Y-103520590D01*
X157244599Y-103491148D01*
X157250501Y-103469124D01*
X157250501Y-103363670D01*
X157250501Y-103356075D01*
X157250500Y-103356057D01*
X157250500Y-100624077D01*
X157250500Y-100624075D01*
X157226572Y-100534773D01*
X157223207Y-100522214D01*
X157170480Y-100430889D01*
X156736698Y-99997107D01*
X156727957Y-99981099D01*
X156715145Y-99968112D01*
X156711558Y-99951067D01*
X156703213Y-99935784D01*
X156704514Y-99917589D01*
X156700758Y-99899739D01*
X156706954Y-99883463D01*
X156708197Y-99866092D01*
X156719128Y-99851490D01*
X156725619Y-99834442D01*
X156749599Y-99810785D01*
X156750069Y-99810159D01*
X156750671Y-99809710D01*
X156826367Y-99753844D01*
X156891995Y-99729874D01*
X156960165Y-99745189D01*
X156973629Y-99753842D01*
X157069206Y-99824381D01*
X157097959Y-99834442D01*
X157193119Y-99867741D01*
X157200796Y-99868460D01*
X157222543Y-99870500D01*
X157597456Y-99870499D01*
X157626879Y-99867741D01*
X157750794Y-99824381D01*
X157856423Y-99746423D01*
X157934381Y-99640794D01*
X157957288Y-99575330D01*
X157977741Y-99516881D01*
X157977741Y-99516879D01*
X157980500Y-99487457D01*
X157980499Y-99012544D01*
X157977741Y-98983121D01*
X157976442Y-98979410D01*
X157934381Y-98859207D01*
X157934381Y-98859206D01*
X157891088Y-98800546D01*
X157856423Y-98753576D01*
X157784860Y-98700761D01*
X157750794Y-98675619D01*
X157750792Y-98675618D01*
X157677487Y-98649967D01*
X157620711Y-98609245D01*
X157594964Y-98544292D01*
X157608421Y-98475731D01*
X157619173Y-98458618D01*
X157668796Y-98392331D01*
X157719091Y-98257483D01*
X157725500Y-98197873D01*
X157725499Y-97702128D01*
X157719091Y-97642517D01*
X157695221Y-97578519D01*
X157668797Y-97507671D01*
X157668793Y-97507664D01*
X157582547Y-97392455D01*
X157582544Y-97392452D01*
X157467335Y-97306206D01*
X157467328Y-97306202D01*
X157332482Y-97255908D01*
X157332483Y-97255908D01*
X157272883Y-97249501D01*
X157272881Y-97249500D01*
X157272873Y-97249500D01*
X157272864Y-97249500D01*
X155577129Y-97249500D01*
X155577123Y-97249501D01*
X155517516Y-97255908D01*
X155382671Y-97306202D01*
X155382664Y-97306206D01*
X155267455Y-97392452D01*
X155267452Y-97392455D01*
X155181206Y-97507664D01*
X155181202Y-97507671D01*
X155144061Y-97607254D01*
X155130909Y-97642517D01*
X155124500Y-97702127D01*
X155124500Y-97702134D01*
X155124500Y-97702135D01*
X155124500Y-98085547D01*
X155104815Y-98152586D01*
X155052011Y-98198341D01*
X154982853Y-98208285D01*
X154919297Y-98179260D01*
X154912819Y-98173228D01*
X154536819Y-97797228D01*
X154503334Y-97735905D01*
X154500500Y-97709547D01*
X154500500Y-94000000D01*
X155125234Y-94000000D01*
X155131401Y-94057375D01*
X155181645Y-94192086D01*
X155181649Y-94192093D01*
X155267809Y-94307187D01*
X155267812Y-94307190D01*
X155382906Y-94393350D01*
X155382913Y-94393354D01*
X155517620Y-94443596D01*
X155517627Y-94443598D01*
X155577155Y-94449999D01*
X155577172Y-94450000D01*
X156175000Y-94450000D01*
X156675000Y-94450000D01*
X157272828Y-94450000D01*
X157272844Y-94449999D01*
X157332372Y-94443598D01*
X157332379Y-94443596D01*
X157467086Y-94393354D01*
X157467093Y-94393350D01*
X157582187Y-94307190D01*
X157582190Y-94307187D01*
X157668350Y-94192093D01*
X157668354Y-94192086D01*
X157718598Y-94057375D01*
X157724766Y-94000000D01*
X156675000Y-94000000D01*
X156675000Y-94450000D01*
X156175000Y-94450000D01*
X156175000Y-94000000D01*
X155125234Y-94000000D01*
X154500500Y-94000000D01*
X154500500Y-93885090D01*
X154520185Y-93818051D01*
X154547207Y-93788127D01*
X154548177Y-93787354D01*
X154571284Y-93768934D01*
X154586129Y-93750328D01*
X154642864Y-93679216D01*
X154642866Y-93679213D01*
X154692686Y-93575823D01*
X154692685Y-93575823D01*
X154692687Y-93575821D01*
X154710014Y-93500000D01*
X155125234Y-93500000D01*
X156175000Y-93500000D01*
X156675000Y-93500000D01*
X157724765Y-93500000D01*
X157718598Y-93442624D01*
X157668354Y-93307913D01*
X157668350Y-93307906D01*
X157582190Y-93192812D01*
X157582187Y-93192809D01*
X157467093Y-93106649D01*
X157467086Y-93106645D01*
X157332379Y-93056403D01*
X157332372Y-93056401D01*
X157272844Y-93050000D01*
X156675000Y-93050000D01*
X156675000Y-93500000D01*
X156175000Y-93500000D01*
X156175000Y-93050000D01*
X155577155Y-93050000D01*
X155517627Y-93056401D01*
X155517620Y-93056403D01*
X155382913Y-93106645D01*
X155382906Y-93106649D01*
X155267812Y-93192809D01*
X155267809Y-93192812D01*
X155181649Y-93307906D01*
X155181645Y-93307913D01*
X155131401Y-93442624D01*
X155125234Y-93500000D01*
X154710014Y-93500000D01*
X154718256Y-93463932D01*
X154718257Y-93459212D01*
X154718272Y-93459158D01*
X154718272Y-93406317D01*
X154718288Y-93348962D01*
X154718286Y-93348957D01*
X154718289Y-93340324D01*
X154718272Y-93340070D01*
X154718272Y-93075587D01*
X154718282Y-93075552D01*
X154718282Y-93024214D01*
X154718283Y-93024214D01*
X154718284Y-92966815D01*
X154692739Y-92854894D01*
X154642928Y-92751465D01*
X154571349Y-92661715D01*
X154566468Y-92657823D01*
X154547191Y-92642451D01*
X154507048Y-92585264D01*
X154500500Y-92545501D01*
X154500500Y-92066811D01*
X154515000Y-92017429D01*
X154515000Y-91998817D01*
X155015000Y-91998817D01*
X155031780Y-91997244D01*
X155155561Y-91953931D01*
X155261065Y-91876065D01*
X155338933Y-91770559D01*
X155338934Y-91770557D01*
X155370621Y-91680000D01*
X155015000Y-91680000D01*
X155015000Y-91998817D01*
X154515000Y-91998817D01*
X154515000Y-91554000D01*
X154534685Y-91486961D01*
X154587489Y-91441206D01*
X154639000Y-91430000D01*
X154765000Y-91430000D01*
X154765000Y-91304000D01*
X154784685Y-91236961D01*
X154837489Y-91191206D01*
X154889000Y-91180000D01*
X155370622Y-91180000D01*
X155370621Y-91179999D01*
X155338934Y-91089442D01*
X155338932Y-91089439D01*
X155268535Y-90994056D01*
X155244563Y-90928427D01*
X155259878Y-90860257D01*
X155268529Y-90846794D01*
X155339381Y-90750794D01*
X155368542Y-90667457D01*
X155382741Y-90626881D01*
X155382741Y-90626879D01*
X155385500Y-90597457D01*
X155385499Y-90222544D01*
X155382741Y-90193121D01*
X155339381Y-90069206D01*
X155291995Y-90005000D01*
X155261423Y-89963576D01*
X155167514Y-89894269D01*
X155152259Y-89874176D01*
X155133949Y-89856824D01*
X155131490Y-89846823D01*
X155125264Y-89838622D01*
X155123293Y-89813473D01*
X155117271Y-89788974D01*
X155120609Y-89779232D01*
X155119805Y-89768966D01*
X155131744Y-89746742D01*
X155139923Y-89722878D01*
X155147998Y-89716487D01*
X155152872Y-89707416D01*
X155174929Y-89695176D01*
X155194713Y-89679521D01*
X155207684Y-89677000D01*
X155213966Y-89673515D01*
X155228987Y-89671097D01*
X155235055Y-89670499D01*
X155319864Y-89670499D01*
X155344991Y-89667585D01*
X155368080Y-89657390D01*
X155387838Y-89655443D01*
X155403438Y-89658400D01*
X155419183Y-89656338D01*
X155450084Y-89665410D01*
X155455009Y-89667585D01*
X155480135Y-89670500D01*
X156169864Y-89670499D01*
X156169879Y-89670497D01*
X156169882Y-89670497D01*
X156204258Y-89666511D01*
X156204432Y-89668016D01*
X156245629Y-89668017D01*
X156245862Y-89666015D01*
X156280206Y-89669999D01*
X156375000Y-89669998D01*
X156375000Y-89573917D01*
X156385565Y-89523832D01*
X156422585Y-89439991D01*
X156425500Y-89414865D01*
X156425499Y-88744859D01*
X156445183Y-88677822D01*
X156497987Y-88632067D01*
X156564248Y-88621741D01*
X156765749Y-88645880D01*
X156791336Y-88656844D01*
X156818039Y-88664685D01*
X156823002Y-88670412D01*
X156829971Y-88673399D01*
X156845569Y-88696456D01*
X156863794Y-88717489D01*
X156865688Y-88726196D01*
X156869121Y-88731271D01*
X156869403Y-88743276D01*
X156875000Y-88769000D01*
X156875000Y-89669999D01*
X156969786Y-89669999D01*
X156969808Y-89669997D01*
X156994869Y-89667091D01*
X156994873Y-89667090D01*
X157097474Y-89621788D01*
X157097479Y-89621785D01*
X157176785Y-89542479D01*
X157176788Y-89542474D01*
X157222089Y-89439877D01*
X157222089Y-89439875D01*
X157224999Y-89414794D01*
X157224999Y-89136812D01*
X157244683Y-89069773D01*
X157297487Y-89024018D01*
X157366646Y-89014074D01*
X157396451Y-89022251D01*
X157444999Y-89042360D01*
X157445000Y-89042360D01*
X157445000Y-88446988D01*
X157454940Y-88464205D01*
X157510795Y-88520060D01*
X157579204Y-88559556D01*
X157655504Y-88580000D01*
X157734496Y-88580000D01*
X157810796Y-88559556D01*
X157879205Y-88520060D01*
X157935060Y-88464205D01*
X157945000Y-88446988D01*
X157945000Y-89042360D01*
X158073934Y-88988954D01*
X158073952Y-88988944D01*
X158204965Y-88901404D01*
X158204973Y-88901398D01*
X158316398Y-88789973D01*
X158316401Y-88789969D01*
X158403947Y-88658948D01*
X158403952Y-88658939D01*
X158464256Y-88513352D01*
X158480750Y-88430430D01*
X158480751Y-88430426D01*
X158494999Y-88358796D01*
X158495000Y-88358794D01*
X158495000Y-87980000D01*
X157995000Y-87980000D01*
X157995000Y-87480000D01*
X158495000Y-87480000D01*
X158495000Y-87101206D01*
X158494999Y-87101202D01*
X158464258Y-86946656D01*
X158464256Y-86946648D01*
X158403952Y-86801060D01*
X158403947Y-86801051D01*
X158316401Y-86670030D01*
X158316398Y-86670026D01*
X158204973Y-86558601D01*
X158204969Y-86558598D01*
X158073948Y-86471052D01*
X158073938Y-86471047D01*
X157945000Y-86417639D01*
X157945000Y-87013011D01*
X157935060Y-86995795D01*
X157879205Y-86939940D01*
X157810796Y-86900444D01*
X157734496Y-86880000D01*
X157655504Y-86880000D01*
X157579204Y-86900444D01*
X157510795Y-86939940D01*
X157454940Y-86995795D01*
X157445000Y-87013011D01*
X157445000Y-86417639D01*
X157444999Y-86417639D01*
X157316061Y-86471047D01*
X157316051Y-86471052D01*
X157185030Y-86558598D01*
X157185026Y-86558601D01*
X157073601Y-86670026D01*
X157073598Y-86670030D01*
X156986052Y-86801051D01*
X156986049Y-86801057D01*
X156962446Y-86858040D01*
X156918604Y-86912443D01*
X156852310Y-86934507D01*
X156784611Y-86917227D01*
X156740498Y-86872587D01*
X156725515Y-86846635D01*
X156618365Y-86739485D01*
X156607062Y-86732959D01*
X156579236Y-86716893D01*
X156531021Y-86666325D01*
X156517800Y-86597718D01*
X156543769Y-86532854D01*
X156553548Y-86521835D01*
X157779566Y-85295819D01*
X157840889Y-85262334D01*
X157867247Y-85259500D01*
X160928725Y-85259500D01*
X160928727Y-85259500D01*
X161030588Y-85232207D01*
X161121913Y-85179480D01*
X161644573Y-84656817D01*
X161705896Y-84623333D01*
X161732254Y-84620499D01*
X162107875Y-84620499D01*
X162174914Y-84640184D01*
G37*
%TD.AperFunction*%
%TA.AperFunction,Conductor*%
G36*
X149693834Y-104365869D02*
G01*
X149749767Y-104407741D01*
X149774184Y-104473205D01*
X149774500Y-104482051D01*
X149774500Y-104769856D01*
X149774502Y-104769882D01*
X149777413Y-104794987D01*
X149777415Y-104794991D01*
X149822793Y-104897764D01*
X149822794Y-104897765D01*
X149902235Y-104977206D01*
X150005009Y-105022585D01*
X150030135Y-105025500D01*
X150319864Y-105025499D01*
X150323444Y-105025499D01*
X150323444Y-105027084D01*
X150385310Y-105041372D01*
X150434081Y-105091403D01*
X150448500Y-105149437D01*
X150448500Y-105747745D01*
X150428815Y-105814784D01*
X150376011Y-105860539D01*
X150306853Y-105870483D01*
X150243297Y-105841458D01*
X150236819Y-105835426D01*
X149471571Y-105070178D01*
X149438086Y-105008855D01*
X149443070Y-104939163D01*
X149447851Y-104928037D01*
X149489733Y-104842365D01*
X149495906Y-104800000D01*
X149372553Y-104800000D01*
X149354063Y-104794570D01*
X149334797Y-104794112D01*
X149321229Y-104784929D01*
X149305514Y-104780315D01*
X149292896Y-104765753D01*
X149276934Y-104754950D01*
X149270484Y-104739888D01*
X149259759Y-104727511D01*
X149257016Y-104708438D01*
X149249430Y-104690722D01*
X149252146Y-104674567D01*
X149249815Y-104658353D01*
X149257820Y-104640823D01*
X149261016Y-104621819D01*
X149272035Y-104609697D01*
X149278840Y-104594797D01*
X149295052Y-104584377D01*
X149308015Y-104570119D01*
X149335665Y-104558277D01*
X149337618Y-104557023D01*
X149340418Y-104556236D01*
X149347927Y-104554224D01*
X149380017Y-104550000D01*
X149495905Y-104550000D01*
X149495905Y-104549999D01*
X149493593Y-104534127D01*
X149503409Y-104464950D01*
X149528612Y-104428577D01*
X149562822Y-104394367D01*
X149624142Y-104360885D01*
X149693834Y-104365869D01*
G37*
%TD.AperFunction*%
%TA.AperFunction,Conductor*%
G36*
X161851716Y-99785424D02*
G01*
X161995591Y-99832171D01*
X162115038Y-99851089D01*
X162157279Y-99857780D01*
X162220414Y-99887709D01*
X162257345Y-99947021D01*
X162256347Y-100016883D01*
X162217737Y-100075116D01*
X162157279Y-100102726D01*
X161995706Y-100128317D01*
X161823555Y-100184251D01*
X161823547Y-100184254D01*
X161662269Y-100266432D01*
X161646466Y-100277912D01*
X161646466Y-100277913D01*
X162135591Y-100767037D01*
X162072007Y-100784075D01*
X161957993Y-100849901D01*
X161864901Y-100942993D01*
X161799075Y-101057007D01*
X161782037Y-101120590D01*
X161292913Y-100631466D01*
X161292912Y-100631466D01*
X161281432Y-100647269D01*
X161199254Y-100808547D01*
X161199251Y-100808555D01*
X161143317Y-100980706D01*
X161115000Y-101159493D01*
X161115000Y-101340506D01*
X161143317Y-101519293D01*
X161199251Y-101691444D01*
X161199252Y-101691447D01*
X161281431Y-101852730D01*
X161292913Y-101868532D01*
X161292913Y-101868533D01*
X161782037Y-101379409D01*
X161799075Y-101442993D01*
X161864901Y-101557007D01*
X161957993Y-101650099D01*
X162072007Y-101715925D01*
X162135590Y-101732962D01*
X161646466Y-102222085D01*
X161646466Y-102222086D01*
X161662267Y-102233566D01*
X161662275Y-102233571D01*
X161823552Y-102315747D01*
X161823555Y-102315748D01*
X161995706Y-102371682D01*
X162157279Y-102397273D01*
X162220413Y-102427202D01*
X162257345Y-102486513D01*
X162256347Y-102556376D01*
X162217738Y-102614609D01*
X162157280Y-102642219D01*
X161995589Y-102667829D01*
X161823363Y-102723787D01*
X161823360Y-102723788D01*
X161662002Y-102806006D01*
X161515505Y-102912441D01*
X161515500Y-102912445D01*
X161387445Y-103040500D01*
X161387441Y-103040505D01*
X161281006Y-103187002D01*
X161198788Y-103348360D01*
X161198787Y-103348363D01*
X161142829Y-103520589D01*
X161114500Y-103699448D01*
X161114500Y-103880551D01*
X161142829Y-104059412D01*
X161189575Y-104203283D01*
X161191570Y-104273124D01*
X161159325Y-104329281D01*
X160675181Y-104813426D01*
X160613858Y-104846911D01*
X160544167Y-104841927D01*
X160488233Y-104800056D01*
X160463816Y-104734591D01*
X160463500Y-104725745D01*
X160463500Y-101129254D01*
X160483185Y-101062215D01*
X160499814Y-101041578D01*
X161725719Y-99815672D01*
X161787040Y-99782189D01*
X161851716Y-99785424D01*
G37*
%TD.AperFunction*%
%TA.AperFunction,Conductor*%
G36*
X148361881Y-82620185D02*
G01*
X148407636Y-82672989D01*
X148417580Y-82742147D01*
X148397944Y-82793391D01*
X148346052Y-82871051D01*
X148346047Y-82871060D01*
X148285743Y-83016648D01*
X148285741Y-83016656D01*
X148255000Y-83171202D01*
X148255000Y-83300000D01*
X148755000Y-83300000D01*
X148755000Y-83800000D01*
X148255000Y-83800000D01*
X148255000Y-83928797D01*
X148285741Y-84083343D01*
X148285743Y-84083351D01*
X148346047Y-84228939D01*
X148346052Y-84228948D01*
X148433598Y-84359969D01*
X148433601Y-84359973D01*
X148545026Y-84471398D01*
X148545034Y-84471404D01*
X148676047Y-84558944D01*
X148676065Y-84558954D01*
X148804999Y-84612360D01*
X148805000Y-84612360D01*
X148805000Y-84016988D01*
X148814940Y-84034205D01*
X148870795Y-84090060D01*
X148939204Y-84129556D01*
X149015504Y-84150000D01*
X149094496Y-84150000D01*
X149170796Y-84129556D01*
X149239205Y-84090060D01*
X149295060Y-84034205D01*
X149305000Y-84016988D01*
X149305000Y-84612360D01*
X149433934Y-84558954D01*
X149433952Y-84558944D01*
X149564965Y-84471404D01*
X149564973Y-84471398D01*
X149676398Y-84359973D01*
X149676401Y-84359969D01*
X149763947Y-84228948D01*
X149763952Y-84228939D01*
X149824256Y-84083351D01*
X149824258Y-84083343D01*
X149854999Y-83928797D01*
X149855000Y-83928794D01*
X149855000Y-83800000D01*
X149355000Y-83800000D01*
X149355000Y-83300000D01*
X149855000Y-83300000D01*
X149855000Y-83171206D01*
X149854999Y-83171202D01*
X149824258Y-83016656D01*
X149824256Y-83016648D01*
X149763952Y-82871060D01*
X149763947Y-82871051D01*
X149712056Y-82793391D01*
X149691178Y-82726714D01*
X149709662Y-82659333D01*
X149761641Y-82612643D01*
X149815158Y-82600500D01*
X156934842Y-82600500D01*
X157001881Y-82620185D01*
X157047636Y-82672989D01*
X157057580Y-82742147D01*
X157037944Y-82793391D01*
X156986052Y-82871051D01*
X156986047Y-82871060D01*
X156925743Y-83016648D01*
X156925741Y-83016656D01*
X156895000Y-83171202D01*
X156895000Y-83300000D01*
X157395000Y-83300000D01*
X157395000Y-83800000D01*
X156895000Y-83800000D01*
X156895000Y-83928797D01*
X156925741Y-84083343D01*
X156925743Y-84083351D01*
X156986047Y-84228939D01*
X156986052Y-84228948D01*
X157073598Y-84359969D01*
X157073601Y-84359973D01*
X157185029Y-84471401D01*
X157230944Y-84502080D01*
X157275749Y-84555692D01*
X157284456Y-84625017D01*
X157254302Y-84688044D01*
X157249734Y-84692863D01*
X155459426Y-86483173D01*
X155398103Y-86516658D01*
X155371745Y-86519492D01*
X151672281Y-86519492D01*
X151570418Y-86546785D01*
X151479096Y-86599511D01*
X151164633Y-86913973D01*
X151103310Y-86947457D01*
X151033618Y-86942473D01*
X150977685Y-86900601D01*
X150969565Y-86888291D01*
X150969142Y-86887558D01*
X150945515Y-86846635D01*
X150838365Y-86739485D01*
X150768500Y-86699148D01*
X150707136Y-86663719D01*
X150633950Y-86644109D01*
X150560766Y-86624500D01*
X150409234Y-86624500D01*
X150262863Y-86663719D01*
X150131635Y-86739485D01*
X150131632Y-86739487D01*
X150024487Y-86846632D01*
X150024481Y-86846641D01*
X150009499Y-86872589D01*
X149958931Y-86920803D01*
X149890324Y-86934024D01*
X149825460Y-86908054D01*
X149787553Y-86858038D01*
X149763954Y-86801064D01*
X149763947Y-86801051D01*
X149676401Y-86670030D01*
X149676398Y-86670026D01*
X149564973Y-86558601D01*
X149564969Y-86558598D01*
X149433948Y-86471052D01*
X149433938Y-86471047D01*
X149305000Y-86417639D01*
X149305000Y-87013011D01*
X149295060Y-86995795D01*
X149239205Y-86939940D01*
X149170796Y-86900444D01*
X149094496Y-86880000D01*
X149015504Y-86880000D01*
X148939204Y-86900444D01*
X148870795Y-86939940D01*
X148814940Y-86995795D01*
X148805000Y-87013011D01*
X148805000Y-86417639D01*
X148804999Y-86417639D01*
X148676061Y-86471047D01*
X148676051Y-86471052D01*
X148545030Y-86558598D01*
X148545026Y-86558601D01*
X148433601Y-86670026D01*
X148433598Y-86670030D01*
X148346052Y-86801051D01*
X148346047Y-86801060D01*
X148285743Y-86946648D01*
X148285741Y-86946656D01*
X148255000Y-87101202D01*
X148255000Y-87480000D01*
X148755000Y-87480000D01*
X148755000Y-87980000D01*
X148255000Y-87980000D01*
X148255000Y-88358797D01*
X148285741Y-88513343D01*
X148285743Y-88513351D01*
X148346047Y-88658939D01*
X148346052Y-88658948D01*
X148433598Y-88789969D01*
X148433601Y-88789973D01*
X148545026Y-88901398D01*
X148545034Y-88901404D01*
X148676047Y-88988944D01*
X148676065Y-88988954D01*
X148804999Y-89042360D01*
X148805000Y-89042360D01*
X148805000Y-88446988D01*
X148814940Y-88464205D01*
X148870795Y-88520060D01*
X148939204Y-88559556D01*
X149015504Y-88580000D01*
X149094496Y-88580000D01*
X149170796Y-88559556D01*
X149239205Y-88520060D01*
X149295060Y-88464205D01*
X149305000Y-88446988D01*
X149305000Y-89042359D01*
X149353547Y-89022251D01*
X149423017Y-89014782D01*
X149485496Y-89046057D01*
X149521148Y-89106146D01*
X149525000Y-89136812D01*
X149525000Y-89414785D01*
X149525002Y-89414808D01*
X149527908Y-89439869D01*
X149527909Y-89439873D01*
X149573211Y-89542474D01*
X149573214Y-89542479D01*
X149652520Y-89621785D01*
X149652525Y-89621788D01*
X149755123Y-89667089D01*
X149780206Y-89669999D01*
X149875000Y-89669998D01*
X149875000Y-88895000D01*
X149519000Y-88895000D01*
X149451961Y-88875315D01*
X149406206Y-88822511D01*
X149395000Y-88771000D01*
X149395000Y-88519000D01*
X149414685Y-88451961D01*
X149467489Y-88406206D01*
X149519000Y-88395000D01*
X150001000Y-88395000D01*
X150068039Y-88414685D01*
X150113794Y-88467489D01*
X150125000Y-88519000D01*
X150125000Y-88645000D01*
X150200501Y-88645000D01*
X150267540Y-88664685D01*
X150313295Y-88717489D01*
X150324501Y-88769000D01*
X150324501Y-89414856D01*
X150324502Y-89414882D01*
X150327413Y-89439987D01*
X150327414Y-89439988D01*
X150327414Y-89439990D01*
X150327415Y-89439991D01*
X150327415Y-89439992D01*
X150328933Y-89443428D01*
X150339500Y-89493517D01*
X150339500Y-89949928D01*
X150319815Y-90016967D01*
X150267011Y-90062722D01*
X150260996Y-90065280D01*
X150255028Y-90067633D01*
X150255026Y-90067634D01*
X150139920Y-90154922D01*
X150063488Y-90255712D01*
X150007295Y-90297235D01*
X149937574Y-90301786D01*
X149876460Y-90267920D01*
X149865881Y-90255711D01*
X149789721Y-90155278D01*
X149674729Y-90068077D01*
X149540467Y-90015131D01*
X149456102Y-90005000D01*
X149440000Y-90005000D01*
X149440000Y-91555000D01*
X149456102Y-91555000D01*
X149540467Y-91544868D01*
X149540468Y-91544868D01*
X149674729Y-91491922D01*
X149789721Y-91404721D01*
X149865881Y-91304288D01*
X149922073Y-91262765D01*
X149991794Y-91258213D01*
X150052908Y-91292077D01*
X150063488Y-91304287D01*
X150134862Y-91398406D01*
X150139922Y-91405078D01*
X150255025Y-91492364D01*
X150260988Y-91494715D01*
X150316131Y-91537617D01*
X150339327Y-91603524D01*
X150339500Y-91610070D01*
X150339500Y-91984520D01*
X150332542Y-92025473D01*
X150327354Y-92040298D01*
X150327353Y-92040305D01*
X150324500Y-92070730D01*
X150324500Y-93354269D01*
X150327353Y-93384699D01*
X150328964Y-93392073D01*
X150326423Y-93392627D01*
X150329343Y-93450023D01*
X150294604Y-93510644D01*
X150276465Y-93520069D01*
X150277245Y-93521168D01*
X150225000Y-93558237D01*
X150225000Y-94337500D01*
X150574999Y-94337500D01*
X150574999Y-93945803D01*
X150572148Y-93915395D01*
X150571298Y-93912966D01*
X150571200Y-93911052D01*
X150570538Y-93908020D01*
X150571039Y-93907910D01*
X150567733Y-93843188D01*
X150602459Y-93782559D01*
X150664451Y-93750328D01*
X150699916Y-93748548D01*
X150720731Y-93750500D01*
X150720734Y-93750500D01*
X151129265Y-93750500D01*
X151129266Y-93750500D01*
X151149532Y-93748599D01*
X151218116Y-93761936D01*
X151268603Y-93810237D01*
X151284962Y-93878164D01*
X151278158Y-93913000D01*
X151277354Y-93915298D01*
X151277353Y-93915300D01*
X151274500Y-93945730D01*
X151274500Y-95229269D01*
X151277353Y-95259699D01*
X151277353Y-95259701D01*
X151311790Y-95358113D01*
X151322207Y-95387882D01*
X151402850Y-95497150D01*
X151424132Y-95512857D01*
X151427155Y-95516838D01*
X151431703Y-95518915D01*
X151448070Y-95544384D01*
X151466384Y-95568503D01*
X151467511Y-95574635D01*
X151469477Y-95577693D01*
X151474500Y-95612628D01*
X151474500Y-95670635D01*
X151454815Y-95737674D01*
X151402011Y-95783429D01*
X151395990Y-95785989D01*
X151265027Y-95837634D01*
X151265026Y-95837634D01*
X151149920Y-95924922D01*
X151073488Y-96025712D01*
X151017295Y-96067235D01*
X150947574Y-96071786D01*
X150886460Y-96037920D01*
X150875881Y-96025711D01*
X150799721Y-95925278D01*
X150684729Y-95838077D01*
X150550467Y-95785131D01*
X150475756Y-95776159D01*
X150450000Y-95790019D01*
X150450000Y-97325000D01*
X150466102Y-97325000D01*
X150550467Y-97314868D01*
X150550468Y-97314868D01*
X150684729Y-97261922D01*
X150799721Y-97174721D01*
X150875881Y-97074288D01*
X150932073Y-97032765D01*
X151001794Y-97028213D01*
X151062908Y-97062077D01*
X151073488Y-97074287D01*
X151149921Y-97175077D01*
X151265023Y-97262363D01*
X151265024Y-97262363D01*
X151265025Y-97262364D01*
X151399410Y-97315359D01*
X151441567Y-97320421D01*
X151505780Y-97347958D01*
X151514463Y-97355856D01*
X154770897Y-100612290D01*
X154804382Y-100673613D01*
X154799398Y-100743305D01*
X154770897Y-100787652D01*
X153511369Y-102047181D01*
X153450046Y-102080666D01*
X153423688Y-102083500D01*
X152343731Y-102083500D01*
X152343727Y-102083499D01*
X152238273Y-102083499D01*
X152227255Y-102086451D01*
X152212414Y-102086800D01*
X152192421Y-102081436D01*
X152171730Y-102080942D01*
X152159358Y-102072566D01*
X152144930Y-102068696D01*
X152131012Y-102053376D01*
X152113872Y-102041773D01*
X152107992Y-102028039D01*
X152097947Y-102016982D01*
X152094520Y-101996568D01*
X152086375Y-101977541D01*
X152085500Y-101962834D01*
X152085500Y-101726929D01*
X152082710Y-101697185D01*
X152082710Y-101697181D01*
X152082708Y-101697177D01*
X152082708Y-101697173D01*
X152038852Y-101571844D01*
X152038852Y-101571843D01*
X151959999Y-101465001D01*
X151955864Y-101461949D01*
X151913615Y-101406301D01*
X151905500Y-101362181D01*
X151905500Y-101176380D01*
X151905500Y-101176378D01*
X151878207Y-101074518D01*
X151825480Y-100983192D01*
X151750913Y-100908625D01*
X151371808Y-100529520D01*
X151326145Y-100503156D01*
X151280484Y-100476793D01*
X151229552Y-100463146D01*
X151178622Y-100449500D01*
X150307727Y-100449500D01*
X150202273Y-100449500D01*
X150100410Y-100476793D01*
X150009087Y-100529520D01*
X150009084Y-100529522D01*
X149284522Y-101254084D01*
X149284518Y-101254090D01*
X149231792Y-101345412D01*
X149227300Y-101362181D01*
X149223567Y-101376114D01*
X149218264Y-101395905D01*
X149181897Y-101455564D01*
X149172115Y-101463585D01*
X149168624Y-101466161D01*
X149134216Y-101478724D01*
X149119050Y-101486092D01*
X149115276Y-101485640D01*
X149102993Y-101490126D01*
X149034824Y-101474804D01*
X149021365Y-101466154D01*
X149019803Y-101465001D01*
X148925794Y-101395619D01*
X148907543Y-101389232D01*
X148850769Y-101348511D01*
X148825022Y-101283558D01*
X148824500Y-101272192D01*
X148824500Y-100718311D01*
X148833143Y-100688874D01*
X148839667Y-100658885D01*
X148843422Y-100653867D01*
X148844185Y-100651272D01*
X148860814Y-100630633D01*
X148942781Y-100548666D01*
X148973174Y-100528363D01*
X148972544Y-100527272D01*
X148979585Y-100523207D01*
X149070910Y-100470480D01*
X150245897Y-99295491D01*
X150307218Y-99262008D01*
X150376909Y-99266992D01*
X150421257Y-99295493D01*
X150456284Y-99330520D01*
X150456286Y-99330521D01*
X150456290Y-99330524D01*
X150575152Y-99399148D01*
X150593216Y-99409577D01*
X150745943Y-99450500D01*
X150745945Y-99450500D01*
X150904055Y-99450500D01*
X150904057Y-99450500D01*
X151056784Y-99409577D01*
X151193716Y-99330520D01*
X151305520Y-99218716D01*
X151384577Y-99081784D01*
X151425500Y-98929057D01*
X151425500Y-98770943D01*
X151384577Y-98618216D01*
X151353452Y-98564305D01*
X151305524Y-98481290D01*
X151305518Y-98481282D01*
X151193717Y-98369481D01*
X151193709Y-98369475D01*
X151056790Y-98290426D01*
X151056786Y-98290424D01*
X151056784Y-98290423D01*
X150904057Y-98249500D01*
X150745943Y-98249500D01*
X150593216Y-98290423D01*
X150593209Y-98290426D01*
X150456290Y-98369475D01*
X150456282Y-98369481D01*
X150412583Y-98413181D01*
X150385655Y-98427884D01*
X150359837Y-98444477D01*
X150353636Y-98445368D01*
X150351260Y-98446666D01*
X150324902Y-98449500D01*
X150185336Y-98449500D01*
X150185320Y-98449499D01*
X150177724Y-98449499D01*
X150072270Y-98449499D01*
X149983398Y-98473312D01*
X149971488Y-98476504D01*
X149971487Y-98476503D01*
X149970412Y-98476792D01*
X149970410Y-98476792D01*
X149970410Y-98476793D01*
X149917145Y-98507546D01*
X149879081Y-98529522D01*
X149804515Y-98604089D01*
X148657270Y-99751332D01*
X148626880Y-99771640D01*
X148627509Y-99772729D01*
X148620470Y-99776793D01*
X148529144Y-99829520D01*
X148461646Y-99897018D01*
X148461645Y-99897017D01*
X148461643Y-99897020D01*
X148103522Y-100255141D01*
X148103520Y-100255144D01*
X148050793Y-100346469D01*
X148050793Y-100346470D01*
X148023500Y-100448330D01*
X148023500Y-101664216D01*
X148018168Y-101695595D01*
X148018869Y-101695748D01*
X148017258Y-101703121D01*
X148014500Y-101732538D01*
X148014500Y-102207453D01*
X148017258Y-102236874D01*
X148017260Y-102236884D01*
X148060618Y-102360792D01*
X148060619Y-102360794D01*
X148075000Y-102380279D01*
X148138578Y-102466425D01*
X148141060Y-102468907D01*
X148141703Y-102469201D01*
X148142330Y-102470177D01*
X148145148Y-102472995D01*
X148144535Y-102473607D01*
X148158072Y-102494671D01*
X148176380Y-102518780D01*
X148177509Y-102524916D01*
X148179477Y-102527979D01*
X148184500Y-102562914D01*
X148184500Y-102673958D01*
X148164815Y-102740997D01*
X148112011Y-102786752D01*
X148092596Y-102793732D01*
X148062516Y-102801792D01*
X148062515Y-102801792D01*
X147971186Y-102854522D01*
X147253522Y-103572186D01*
X147253520Y-103572189D01*
X147200793Y-103663512D01*
X147191275Y-103699037D01*
X147154909Y-103758697D01*
X147092062Y-103789226D01*
X147022687Y-103780931D01*
X146968809Y-103736445D01*
X146947535Y-103669893D01*
X146947500Y-103666943D01*
X146947500Y-100370529D01*
X146947501Y-100370516D01*
X146947501Y-100255074D01*
X146947501Y-100255073D01*
X146920207Y-100153213D01*
X146905564Y-100127850D01*
X146867480Y-100061887D01*
X146792913Y-99987320D01*
X146792911Y-99987318D01*
X146599419Y-99793826D01*
X146565934Y-99732503D01*
X146563100Y-99706145D01*
X146563100Y-97227775D01*
X146563100Y-97227773D01*
X146535807Y-97125912D01*
X146483080Y-97034587D01*
X146289595Y-96841102D01*
X149450000Y-96841102D01*
X149460131Y-96925467D01*
X149460131Y-96925468D01*
X149513077Y-97059729D01*
X149600278Y-97174721D01*
X149715270Y-97261922D01*
X149849532Y-97314868D01*
X149933898Y-97325000D01*
X149950000Y-97325000D01*
X149950000Y-96800000D01*
X149450000Y-96800000D01*
X149450000Y-96841102D01*
X146289595Y-96841102D01*
X146200369Y-96751876D01*
X146166884Y-96690553D01*
X146164050Y-96664195D01*
X146164050Y-96258897D01*
X149450000Y-96258897D01*
X149450000Y-96300000D01*
X149950000Y-96300000D01*
X149950000Y-95775000D01*
X149933898Y-95775000D01*
X149877235Y-95781804D01*
X149714060Y-95838995D01*
X149600278Y-95925278D01*
X149513077Y-96040270D01*
X149460131Y-96174531D01*
X149460131Y-96174532D01*
X149450000Y-96258897D01*
X146164050Y-96258897D01*
X146164050Y-95616760D01*
X150225000Y-95616760D01*
X150292518Y-95593136D01*
X150380132Y-95545989D01*
X150446792Y-95496792D01*
X150527346Y-95387645D01*
X150572149Y-95259604D01*
X150572149Y-95259600D01*
X150575000Y-95229206D01*
X150575000Y-94837500D01*
X150225000Y-94837500D01*
X150225000Y-95616760D01*
X146164050Y-95616760D01*
X146164050Y-95229196D01*
X149375001Y-95229196D01*
X149377851Y-95259606D01*
X149422653Y-95387645D01*
X149503207Y-95496792D01*
X149612354Y-95577346D01*
X149661618Y-95594583D01*
X149725000Y-95572369D01*
X149725000Y-94837500D01*
X149375001Y-94837500D01*
X149375001Y-95229196D01*
X146164050Y-95229196D01*
X146164050Y-94971279D01*
X146164051Y-94971266D01*
X146164051Y-94855825D01*
X146164051Y-94855823D01*
X146136757Y-94753962D01*
X146108733Y-94705424D01*
X146099012Y-94688586D01*
X146099010Y-94688584D01*
X146092541Y-94677379D01*
X146084030Y-94662637D01*
X146009463Y-94588070D01*
X146009460Y-94588068D01*
X145590673Y-94169281D01*
X145557189Y-94107959D01*
X145560424Y-94043283D01*
X145574488Y-94000000D01*
X145592100Y-93945793D01*
X149375000Y-93945793D01*
X149375000Y-94337500D01*
X149725000Y-94337500D01*
X149725000Y-93558237D01*
X149724999Y-93558237D01*
X149612355Y-93597653D01*
X149503207Y-93678207D01*
X149422653Y-93787354D01*
X149377850Y-93915395D01*
X149377850Y-93915399D01*
X149375000Y-93945793D01*
X145592100Y-93945793D01*
X145601977Y-93915395D01*
X145605491Y-93904580D01*
X145605492Y-93904578D01*
X145607170Y-93899411D01*
X145607171Y-93899409D01*
X145625678Y-93782559D01*
X145635500Y-93720551D01*
X145635500Y-93539448D01*
X145610989Y-93384699D01*
X145607171Y-93360591D01*
X145579191Y-93274476D01*
X145551212Y-93188363D01*
X145551211Y-93188360D01*
X145493749Y-93075587D01*
X145468996Y-93027006D01*
X145406401Y-92940851D01*
X145362558Y-92880505D01*
X145362554Y-92880500D01*
X145234499Y-92752445D01*
X145234494Y-92752441D01*
X145087997Y-92646006D01*
X145087996Y-92646005D01*
X145087994Y-92646004D01*
X145036300Y-92619664D01*
X144926639Y-92563788D01*
X144926636Y-92563787D01*
X144754410Y-92507829D01*
X144594321Y-92482473D01*
X144531186Y-92452544D01*
X144494255Y-92393232D01*
X144495253Y-92323370D01*
X144533863Y-92265137D01*
X144594321Y-92237527D01*
X144664425Y-92226422D01*
X144754409Y-92212171D01*
X144926639Y-92156211D01*
X145087994Y-92073996D01*
X145234501Y-91967553D01*
X145362553Y-91839501D01*
X145468996Y-91692994D01*
X145551211Y-91531639D01*
X145607171Y-91359409D01*
X145633812Y-91191206D01*
X145635500Y-91180551D01*
X145635500Y-91071102D01*
X148440000Y-91071102D01*
X148450131Y-91155467D01*
X148450131Y-91155468D01*
X148503077Y-91289729D01*
X148590278Y-91404721D01*
X148705270Y-91491922D01*
X148839532Y-91544868D01*
X148923898Y-91555000D01*
X148940000Y-91555000D01*
X148940000Y-91030000D01*
X148440000Y-91030000D01*
X148440000Y-91071102D01*
X145635500Y-91071102D01*
X145635500Y-90999454D01*
X145635276Y-90998041D01*
X145635276Y-90998036D01*
X145622273Y-90915942D01*
X145607171Y-90820591D01*
X145551211Y-90648361D01*
X145551211Y-90648360D01*
X145496756Y-90541487D01*
X145496755Y-90541485D01*
X145469960Y-90488897D01*
X148440000Y-90488897D01*
X148440000Y-90530000D01*
X148940000Y-90530000D01*
X148940000Y-90005000D01*
X148923898Y-90005000D01*
X148839532Y-90015131D01*
X148839531Y-90015131D01*
X148705270Y-90068077D01*
X148590278Y-90155278D01*
X148503077Y-90270270D01*
X148450131Y-90404531D01*
X148450131Y-90404532D01*
X148440000Y-90488897D01*
X145469960Y-90488897D01*
X145468995Y-90487004D01*
X145362558Y-90340505D01*
X145362554Y-90340500D01*
X145234499Y-90212445D01*
X145234494Y-90212441D01*
X145087997Y-90106006D01*
X145087996Y-90106005D01*
X145087994Y-90106004D01*
X145020277Y-90071500D01*
X144926639Y-90023788D01*
X144926636Y-90023787D01*
X144754410Y-89967828D01*
X144592720Y-89942219D01*
X144529585Y-89912289D01*
X144492654Y-89852978D01*
X144493652Y-89783115D01*
X144532262Y-89724883D01*
X144592721Y-89697273D01*
X144754292Y-89671683D01*
X144926444Y-89615748D01*
X144926452Y-89615745D01*
X145087730Y-89533568D01*
X145103532Y-89522085D01*
X145103533Y-89522085D01*
X144614410Y-89032962D01*
X144677993Y-89015925D01*
X144792007Y-88950099D01*
X144885099Y-88857007D01*
X144950925Y-88742993D01*
X144967962Y-88679409D01*
X145457085Y-89168532D01*
X145468568Y-89152730D01*
X145550745Y-88991452D01*
X145550748Y-88991444D01*
X145606682Y-88819293D01*
X145635000Y-88640506D01*
X145635000Y-88459493D01*
X145606682Y-88280706D01*
X145550748Y-88108555D01*
X145550747Y-88108552D01*
X145487759Y-87984933D01*
X145468571Y-87947275D01*
X145468566Y-87947267D01*
X145457085Y-87931466D01*
X144967962Y-88420589D01*
X144950925Y-88357007D01*
X144885099Y-88242993D01*
X144792007Y-88149901D01*
X144677993Y-88084075D01*
X144614409Y-88067037D01*
X145103533Y-87577913D01*
X145087730Y-87566431D01*
X144926447Y-87484252D01*
X144926444Y-87484251D01*
X144754293Y-87428317D01*
X144592720Y-87402726D01*
X144529585Y-87372797D01*
X144492654Y-87313485D01*
X144493652Y-87243623D01*
X144532262Y-87185390D01*
X144592720Y-87157780D01*
X144607270Y-87155475D01*
X144754409Y-87132171D01*
X144926639Y-87076211D01*
X145087994Y-86993996D01*
X145206284Y-86908054D01*
X145234495Y-86887558D01*
X145234497Y-86887555D01*
X145234501Y-86887553D01*
X145362553Y-86759501D01*
X145468996Y-86612994D01*
X145551211Y-86451639D01*
X145607171Y-86279409D01*
X145621765Y-86187259D01*
X145635500Y-86100551D01*
X145635500Y-85919448D01*
X145619019Y-85815397D01*
X145607171Y-85740591D01*
X145551211Y-85568361D01*
X145551211Y-85568360D01*
X145522740Y-85512484D01*
X145468996Y-85407006D01*
X145406401Y-85320851D01*
X145362558Y-85260505D01*
X145362554Y-85260500D01*
X145234499Y-85132445D01*
X145234494Y-85132441D01*
X145087997Y-85026006D01*
X145087996Y-85026005D01*
X145087994Y-85026004D01*
X145036300Y-84999664D01*
X144926639Y-84943788D01*
X144926636Y-84943787D01*
X144754410Y-84887829D01*
X144622728Y-84866972D01*
X144559594Y-84837042D01*
X144522663Y-84777731D01*
X144523661Y-84707868D01*
X144562271Y-84649636D01*
X144626235Y-84621522D01*
X144642120Y-84620499D01*
X145379864Y-84620499D01*
X145379879Y-84620497D01*
X145379882Y-84620497D01*
X145404987Y-84617586D01*
X145404988Y-84617585D01*
X145404991Y-84617585D01*
X145507765Y-84572206D01*
X145587206Y-84492765D01*
X145632585Y-84389991D01*
X145635500Y-84364865D01*
X145635499Y-83300000D01*
X145635499Y-82724500D01*
X145655183Y-82657461D01*
X145707987Y-82611706D01*
X145759499Y-82600500D01*
X148294842Y-82600500D01*
X148361881Y-82620185D01*
G37*
%TD.AperFunction*%
%TA.AperFunction,Conductor*%
G36*
X154741462Y-102052384D02*
G01*
X154778353Y-102080000D01*
X155261000Y-102080000D01*
X155328039Y-102099685D01*
X155373794Y-102152489D01*
X155385000Y-102204000D01*
X155385000Y-102456000D01*
X155365315Y-102523039D01*
X155312511Y-102568794D01*
X155261000Y-102580000D01*
X154675000Y-102580000D01*
X154675000Y-102946000D01*
X154655315Y-103013039D01*
X154602511Y-103058794D01*
X154551000Y-103070000D01*
X154425000Y-103070000D01*
X154425000Y-103196000D01*
X154405315Y-103263039D01*
X154352511Y-103308794D01*
X154301000Y-103320000D01*
X153741362Y-103320000D01*
X153738510Y-103319967D01*
X153521148Y-103314967D01*
X153489158Y-103304769D01*
X153456961Y-103295315D01*
X153455991Y-103294196D01*
X153454579Y-103293746D01*
X153433168Y-103267857D01*
X153411206Y-103242511D01*
X153410848Y-103240868D01*
X153410051Y-103239904D01*
X153409322Y-103233853D01*
X153400000Y-103191000D01*
X153400000Y-103008500D01*
X153419685Y-102941461D01*
X153472489Y-102895706D01*
X153524000Y-102884500D01*
X153693668Y-102884500D01*
X153693670Y-102884500D01*
X153795531Y-102857207D01*
X153839861Y-102831612D01*
X153855349Y-102827462D01*
X153866926Y-102820023D01*
X153901861Y-102815000D01*
X154083638Y-102815000D01*
X154100666Y-102820000D01*
X154175000Y-102820000D01*
X154175000Y-102567696D01*
X154194685Y-102500657D01*
X154211313Y-102480022D01*
X154610451Y-102080882D01*
X154671771Y-102047400D01*
X154741462Y-102052384D01*
G37*
%TD.AperFunction*%
%TA.AperFunction,Conductor*%
G36*
X163237084Y-101868532D02*
G01*
X163240772Y-101868242D01*
X163309149Y-101882606D01*
X163358905Y-101931658D01*
X163374500Y-101991860D01*
X163374500Y-102978113D01*
X163354815Y-103045152D01*
X163302011Y-103090907D01*
X163232853Y-103100851D01*
X163169297Y-103071826D01*
X163150182Y-103050998D01*
X163142558Y-103040505D01*
X163142554Y-103040500D01*
X163014499Y-102912445D01*
X163014494Y-102912441D01*
X162867997Y-102806006D01*
X162867996Y-102806005D01*
X162867994Y-102806004D01*
X162816300Y-102779664D01*
X162706639Y-102723788D01*
X162706636Y-102723787D01*
X162534410Y-102667828D01*
X162372720Y-102642219D01*
X162309585Y-102612289D01*
X162272654Y-102552978D01*
X162273652Y-102483115D01*
X162312262Y-102424883D01*
X162372721Y-102397273D01*
X162534292Y-102371683D01*
X162706444Y-102315748D01*
X162706452Y-102315745D01*
X162867730Y-102233568D01*
X162883532Y-102222085D01*
X162883533Y-102222085D01*
X162394410Y-101732962D01*
X162457993Y-101715925D01*
X162572007Y-101650099D01*
X162665099Y-101557007D01*
X162730925Y-101442993D01*
X162747962Y-101379409D01*
X163237084Y-101868532D01*
G37*
%TD.AperFunction*%
%TA.AperFunction,Conductor*%
G36*
X144019075Y-101442993D02*
G01*
X144084901Y-101557007D01*
X144177993Y-101650099D01*
X144292007Y-101715925D01*
X144355589Y-101732962D01*
X143866466Y-102222085D01*
X143866466Y-102222086D01*
X143882267Y-102233566D01*
X143882275Y-102233571D01*
X144043552Y-102315747D01*
X144043555Y-102315748D01*
X144215706Y-102371682D01*
X144377279Y-102397273D01*
X144440413Y-102427202D01*
X144477345Y-102486513D01*
X144476347Y-102556376D01*
X144437738Y-102614609D01*
X144377280Y-102642219D01*
X144215589Y-102667829D01*
X144043363Y-102723787D01*
X144043360Y-102723788D01*
X143882002Y-102806006D01*
X143735505Y-102912441D01*
X143735500Y-102912445D01*
X143607445Y-103040500D01*
X143607441Y-103040505D01*
X143599818Y-103050998D01*
X143544488Y-103093664D01*
X143474875Y-103099643D01*
X143413080Y-103067037D01*
X143378723Y-103006199D01*
X143375500Y-102978113D01*
X143375500Y-101991861D01*
X143395185Y-101924822D01*
X143447989Y-101879067D01*
X143509229Y-101868243D01*
X143512913Y-101868533D01*
X144002037Y-101379409D01*
X144019075Y-101442993D01*
G37*
%TD.AperFunction*%
%TA.AperFunction,Conductor*%
G36*
X143580703Y-99428173D02*
G01*
X143599818Y-99449001D01*
X143604066Y-99454847D01*
X143607446Y-99459500D01*
X143735500Y-99587554D01*
X143735505Y-99587558D01*
X143808779Y-99640794D01*
X143882006Y-99693996D01*
X143957580Y-99732503D01*
X144043360Y-99776211D01*
X144043363Y-99776212D01*
X144097575Y-99793826D01*
X144215591Y-99832171D01*
X144337567Y-99851490D01*
X144360189Y-99855073D01*
X144379420Y-99864189D01*
X144400218Y-99868714D01*
X144419649Y-99883260D01*
X144423323Y-99885002D01*
X144428472Y-99889865D01*
X144433146Y-99894539D01*
X144466631Y-99955862D01*
X144461647Y-100025554D01*
X144419775Y-100081487D01*
X144364863Y-100104693D01*
X144215706Y-100128317D01*
X144043555Y-100184251D01*
X144043547Y-100184254D01*
X143882269Y-100266432D01*
X143866466Y-100277912D01*
X143866466Y-100277913D01*
X144355590Y-100767037D01*
X144292007Y-100784075D01*
X144177993Y-100849901D01*
X144084901Y-100942993D01*
X144019075Y-101057007D01*
X144002037Y-101120590D01*
X143512913Y-100631466D01*
X143509229Y-100631756D01*
X143440852Y-100617392D01*
X143391095Y-100568340D01*
X143375500Y-100508138D01*
X143375500Y-99521886D01*
X143395185Y-99454847D01*
X143447989Y-99409092D01*
X143517147Y-99399148D01*
X143580703Y-99428173D01*
G37*
%TD.AperFunction*%
%TA.AperFunction,Conductor*%
G36*
X163336917Y-99432959D02*
G01*
X163371277Y-99493796D01*
X163374500Y-99521886D01*
X163374500Y-100508138D01*
X163354815Y-100575177D01*
X163302011Y-100620932D01*
X163240773Y-100631756D01*
X163237086Y-100631465D01*
X162747962Y-101120589D01*
X162730925Y-101057007D01*
X162665099Y-100942993D01*
X162572007Y-100849901D01*
X162457993Y-100784075D01*
X162394409Y-100767037D01*
X162883533Y-100277913D01*
X162867730Y-100266431D01*
X162706447Y-100184252D01*
X162706444Y-100184251D01*
X162534293Y-100128317D01*
X162372720Y-100102726D01*
X162309585Y-100072797D01*
X162272654Y-100013485D01*
X162273652Y-99943623D01*
X162312262Y-99885390D01*
X162372720Y-99857780D01*
X162389811Y-99855073D01*
X162534409Y-99832171D01*
X162706639Y-99776211D01*
X162867994Y-99693996D01*
X163014501Y-99587553D01*
X163142553Y-99459501D01*
X163150180Y-99449003D01*
X163205508Y-99406336D01*
X163275121Y-99400355D01*
X163336917Y-99432959D01*
G37*
%TD.AperFunction*%
%TA.AperFunction,Conductor*%
G36*
X153192539Y-90091185D02*
G01*
X153238294Y-90143989D01*
X153249500Y-90195500D01*
X153249500Y-97658745D01*
X153229815Y-97725784D01*
X153177011Y-97771539D01*
X153107853Y-97781483D01*
X153044297Y-97752458D01*
X153037819Y-97746426D01*
X152470553Y-97179160D01*
X152437068Y-97117837D01*
X152442052Y-97048145D01*
X152442880Y-97045989D01*
X152479236Y-96953796D01*
X152490359Y-96925590D01*
X152500500Y-96841144D01*
X152500500Y-96258856D01*
X152490359Y-96174410D01*
X152437364Y-96040025D01*
X152437363Y-96040024D01*
X152437363Y-96040023D01*
X152350081Y-95924926D01*
X152350075Y-95924919D01*
X152324573Y-95905580D01*
X152322093Y-95902224D01*
X152318297Y-95900491D01*
X152301502Y-95874357D01*
X152283051Y-95849387D01*
X152282135Y-95844222D01*
X152280523Y-95841713D01*
X152275500Y-95806778D01*
X152275500Y-95612628D01*
X152295185Y-95545589D01*
X152325866Y-95512857D01*
X152347150Y-95497150D01*
X152427793Y-95387882D01*
X152461189Y-95292441D01*
X152472646Y-95259701D01*
X152472646Y-95259699D01*
X152475500Y-95229269D01*
X152475500Y-93945730D01*
X152472646Y-93915300D01*
X152472646Y-93915298D01*
X152428146Y-93788127D01*
X152427793Y-93787118D01*
X152347150Y-93677850D01*
X152237882Y-93597207D01*
X152237880Y-93597206D01*
X152109700Y-93552353D01*
X152079270Y-93549500D01*
X152079266Y-93549500D01*
X151670734Y-93549500D01*
X151654852Y-93550989D01*
X151650462Y-93551401D01*
X151581878Y-93538060D01*
X151531394Y-93489757D01*
X151515038Y-93421829D01*
X151521847Y-93386984D01*
X151522646Y-93384699D01*
X151525500Y-93354269D01*
X151525500Y-92160574D01*
X151545185Y-92093535D01*
X151597989Y-92047780D01*
X151667147Y-92037836D01*
X151690456Y-92043533D01*
X151758216Y-92067244D01*
X151774999Y-92068817D01*
X152275000Y-92068817D01*
X152291780Y-92067244D01*
X152415561Y-92023931D01*
X152521065Y-91946065D01*
X152598933Y-91840559D01*
X152598934Y-91840557D01*
X152630621Y-91750000D01*
X152275000Y-91750000D01*
X152275000Y-92068817D01*
X151774999Y-92068817D01*
X151775000Y-92068816D01*
X151775000Y-91624000D01*
X151794685Y-91556961D01*
X151847489Y-91511206D01*
X151899000Y-91500000D01*
X152025000Y-91500000D01*
X152025000Y-91374000D01*
X152044685Y-91306961D01*
X152097489Y-91261206D01*
X152149000Y-91250000D01*
X152630622Y-91250000D01*
X152630621Y-91249999D01*
X152598934Y-91159442D01*
X152598932Y-91159439D01*
X152528535Y-91064056D01*
X152504563Y-90998427D01*
X152519878Y-90930257D01*
X152528529Y-90916794D01*
X152599381Y-90820794D01*
X152623876Y-90750792D01*
X152642741Y-90696881D01*
X152642741Y-90696879D01*
X152645500Y-90667457D01*
X152645499Y-90292544D01*
X152642741Y-90263121D01*
X152633410Y-90236454D01*
X152629849Y-90166675D01*
X152664578Y-90106048D01*
X152726572Y-90073821D01*
X152750452Y-90071500D01*
X153125500Y-90071500D01*
X153192539Y-90091185D01*
G37*
%TD.AperFunction*%
%TA.AperFunction,Conductor*%
G36*
X163237084Y-89168532D02*
G01*
X163240772Y-89168242D01*
X163309149Y-89182606D01*
X163358905Y-89231658D01*
X163374500Y-89291860D01*
X163374500Y-90278113D01*
X163354815Y-90345152D01*
X163302011Y-90390907D01*
X163232853Y-90400851D01*
X163169297Y-90371826D01*
X163150182Y-90350998D01*
X163142558Y-90340505D01*
X163142554Y-90340500D01*
X163014499Y-90212445D01*
X163014494Y-90212441D01*
X162867997Y-90106006D01*
X162867996Y-90106005D01*
X162867994Y-90106004D01*
X162800277Y-90071500D01*
X162706639Y-90023788D01*
X162706636Y-90023787D01*
X162534410Y-89967828D01*
X162372720Y-89942219D01*
X162309585Y-89912289D01*
X162272654Y-89852978D01*
X162273652Y-89783115D01*
X162312262Y-89724883D01*
X162372721Y-89697273D01*
X162534292Y-89671683D01*
X162706444Y-89615748D01*
X162706452Y-89615745D01*
X162867730Y-89533568D01*
X162883532Y-89522085D01*
X162883533Y-89522085D01*
X162394410Y-89032962D01*
X162457993Y-89015925D01*
X162572007Y-88950099D01*
X162665099Y-88857007D01*
X162730925Y-88742993D01*
X162747962Y-88679409D01*
X163237084Y-89168532D01*
G37*
%TD.AperFunction*%
%TA.AperFunction,Conductor*%
G36*
X144019075Y-88742993D02*
G01*
X144084901Y-88857007D01*
X144177993Y-88950099D01*
X144292007Y-89015925D01*
X144355590Y-89032962D01*
X143866466Y-89522085D01*
X143866466Y-89522086D01*
X143882267Y-89533566D01*
X143882275Y-89533571D01*
X144043552Y-89615747D01*
X144043555Y-89615748D01*
X144215706Y-89671682D01*
X144377279Y-89697273D01*
X144440413Y-89727202D01*
X144477345Y-89786513D01*
X144476347Y-89856376D01*
X144437738Y-89914609D01*
X144377280Y-89942219D01*
X144215589Y-89967829D01*
X144043363Y-90023787D01*
X144043360Y-90023788D01*
X143882002Y-90106006D01*
X143735505Y-90212441D01*
X143735500Y-90212445D01*
X143607445Y-90340500D01*
X143607441Y-90340505D01*
X143599818Y-90350998D01*
X143544488Y-90393664D01*
X143474875Y-90399643D01*
X143413080Y-90367037D01*
X143378723Y-90306199D01*
X143375500Y-90278113D01*
X143375500Y-89291861D01*
X143395185Y-89224822D01*
X143447989Y-89179067D01*
X143509229Y-89168243D01*
X143512913Y-89168533D01*
X144002037Y-88679409D01*
X144019075Y-88742993D01*
G37*
%TD.AperFunction*%
%TA.AperFunction,Conductor*%
G36*
X143580703Y-86728173D02*
G01*
X143599821Y-86749004D01*
X143607446Y-86759500D01*
X143735500Y-86887554D01*
X143735505Y-86887558D01*
X143817950Y-86947457D01*
X143882006Y-86993996D01*
X143987484Y-87047740D01*
X144043360Y-87076211D01*
X144043363Y-87076212D01*
X144120277Y-87101202D01*
X144215591Y-87132171D01*
X144335038Y-87151089D01*
X144377279Y-87157780D01*
X144440414Y-87187709D01*
X144477345Y-87247021D01*
X144476347Y-87316883D01*
X144437737Y-87375116D01*
X144377279Y-87402726D01*
X144215706Y-87428317D01*
X144043555Y-87484251D01*
X144043547Y-87484254D01*
X143882269Y-87566432D01*
X143866466Y-87577912D01*
X143866466Y-87577913D01*
X144355591Y-88067037D01*
X144292007Y-88084075D01*
X144177993Y-88149901D01*
X144084901Y-88242993D01*
X144019075Y-88357007D01*
X144002037Y-88420590D01*
X143512913Y-87931466D01*
X143509229Y-87931756D01*
X143440852Y-87917392D01*
X143391095Y-87868340D01*
X143375500Y-87808138D01*
X143375500Y-86821886D01*
X143395185Y-86754847D01*
X143447989Y-86709092D01*
X143517147Y-86699148D01*
X143580703Y-86728173D01*
G37*
%TD.AperFunction*%
%TA.AperFunction,Conductor*%
G36*
X163336917Y-86732959D02*
G01*
X163371277Y-86793796D01*
X163374500Y-86821886D01*
X163374500Y-87808138D01*
X163354815Y-87875177D01*
X163302011Y-87920932D01*
X163240773Y-87931756D01*
X163237086Y-87931465D01*
X162747962Y-88420589D01*
X162730925Y-88357007D01*
X162665099Y-88242993D01*
X162572007Y-88149901D01*
X162457993Y-88084075D01*
X162394409Y-88067037D01*
X162883533Y-87577913D01*
X162867730Y-87566431D01*
X162706447Y-87484252D01*
X162706444Y-87484251D01*
X162534293Y-87428317D01*
X162372720Y-87402726D01*
X162309585Y-87372797D01*
X162272654Y-87313485D01*
X162273652Y-87243623D01*
X162312262Y-87185390D01*
X162372720Y-87157780D01*
X162387270Y-87155475D01*
X162534409Y-87132171D01*
X162706639Y-87076211D01*
X162867994Y-86993996D01*
X163014501Y-86887553D01*
X163142553Y-86759501D01*
X163150180Y-86749003D01*
X163205508Y-86706336D01*
X163275121Y-86700355D01*
X163336917Y-86732959D01*
G37*
%TD.AperFunction*%
%TA.AperFunction,Conductor*%
G36*
X161057539Y-82620185D02*
G01*
X161103294Y-82672989D01*
X161114500Y-82724500D01*
X161114500Y-84002744D01*
X161094815Y-84069783D01*
X161078181Y-84090425D01*
X160746426Y-84422181D01*
X160685103Y-84455666D01*
X160658745Y-84458500D01*
X158482553Y-84458500D01*
X158415514Y-84438815D01*
X158369759Y-84386011D01*
X158359815Y-84316853D01*
X158379451Y-84265608D01*
X158403950Y-84228942D01*
X158403952Y-84228939D01*
X158464256Y-84083351D01*
X158464258Y-84083343D01*
X158494999Y-83928797D01*
X158495000Y-83928794D01*
X158495000Y-83800000D01*
X157995000Y-83800000D01*
X157995000Y-83300000D01*
X158495000Y-83300000D01*
X158495000Y-83171206D01*
X158494999Y-83171202D01*
X158464258Y-83016656D01*
X158464256Y-83016648D01*
X158403952Y-82871060D01*
X158403947Y-82871051D01*
X158352056Y-82793391D01*
X158331178Y-82726714D01*
X158349662Y-82659333D01*
X158401641Y-82612643D01*
X158455158Y-82600500D01*
X160990500Y-82600500D01*
X161057539Y-82620185D01*
G37*
%TD.AperFunction*%
%TD*%
%TA.AperFunction,NonConductor*%
G36*
X143549584Y-84610774D02*
G01*
X143565009Y-84617585D01*
X143590135Y-84620500D01*
X144327873Y-84620499D01*
X144394910Y-84640183D01*
X144440665Y-84692987D01*
X144450609Y-84762146D01*
X144421584Y-84825702D01*
X144362806Y-84863476D01*
X144347270Y-84866972D01*
X144215589Y-84887829D01*
X144043363Y-84943787D01*
X144043360Y-84943788D01*
X143882002Y-85026006D01*
X143735505Y-85132441D01*
X143735500Y-85132445D01*
X143607445Y-85260500D01*
X143607441Y-85260505D01*
X143599818Y-85270998D01*
X143544488Y-85313664D01*
X143474875Y-85319643D01*
X143413080Y-85287037D01*
X143378723Y-85226199D01*
X143375500Y-85198113D01*
X143375500Y-84724209D01*
X143395185Y-84657170D01*
X143447989Y-84611415D01*
X143517147Y-84601471D01*
X143549584Y-84610774D01*
G37*
%TD.AperFunction*%
%TA.AperFunction,NonConductor*%
G36*
X163332876Y-84631525D02*
G01*
X163369907Y-84690774D01*
X163374500Y-84724209D01*
X163374500Y-85198113D01*
X163354815Y-85265152D01*
X163302011Y-85310907D01*
X163232853Y-85320851D01*
X163169297Y-85291826D01*
X163150182Y-85270998D01*
X163142558Y-85260505D01*
X163142554Y-85260500D01*
X163014499Y-85132445D01*
X163014494Y-85132441D01*
X162867997Y-85026006D01*
X162867996Y-85026005D01*
X162867994Y-85026004D01*
X162816300Y-84999664D01*
X162706639Y-84943788D01*
X162706636Y-84943787D01*
X162534410Y-84887829D01*
X162402727Y-84866972D01*
X162339592Y-84837043D01*
X162302661Y-84777731D01*
X162303659Y-84707868D01*
X162342269Y-84649636D01*
X162406233Y-84621522D01*
X162422125Y-84620499D01*
X163159856Y-84620499D01*
X163159864Y-84620499D01*
X163159879Y-84620497D01*
X163159882Y-84620497D01*
X163184986Y-84617586D01*
X163184987Y-84617585D01*
X163184991Y-84617585D01*
X163200415Y-84610774D01*
X163269690Y-84601703D01*
X163332876Y-84631525D01*
G37*
%TD.AperFunction*%
%TA.AperFunction,NonConductor*%
G36*
X155131539Y-87340177D02*
G01*
X155177294Y-87392981D01*
X155188500Y-87444492D01*
X155188500Y-87495500D01*
X155168815Y-87562539D01*
X155116011Y-87608294D01*
X155064501Y-87619500D01*
X154930142Y-87619500D01*
X154930119Y-87619502D01*
X154895743Y-87623489D01*
X154895538Y-87621727D01*
X154854459Y-87621725D01*
X154854255Y-87623490D01*
X154844991Y-87622415D01*
X154839044Y-87621725D01*
X154819868Y-87619500D01*
X154819865Y-87619500D01*
X154621781Y-87619500D01*
X154601677Y-87613597D01*
X154580754Y-87612516D01*
X154568828Y-87603951D01*
X154554742Y-87599815D01*
X154541022Y-87583982D01*
X154524003Y-87571759D01*
X154515313Y-87554312D01*
X154508987Y-87547011D01*
X154506479Y-87541123D01*
X154503854Y-87534490D01*
X154498207Y-87513413D01*
X154489650Y-87498592D01*
X154486296Y-87490115D01*
X154483911Y-87464041D01*
X154477738Y-87438593D01*
X154480781Y-87429800D01*
X154479934Y-87420536D01*
X154492025Y-87397311D01*
X154500590Y-87372566D01*
X154507903Y-87366814D01*
X154512200Y-87358562D01*
X154534929Y-87345561D01*
X154555511Y-87329375D01*
X154567147Y-87327132D01*
X154572849Y-87323871D01*
X154581695Y-87324328D01*
X154601598Y-87320492D01*
X155064500Y-87320492D01*
X155131539Y-87340177D01*
G37*
%TD.AperFunction*%
%TA.AperFunction,NonConductor*%
G36*
X152678962Y-87329465D02*
G01*
X152709969Y-87336856D01*
X152712265Y-87339244D01*
X152715440Y-87340177D01*
X152736295Y-87364245D01*
X152758387Y-87387229D01*
X152759026Y-87390478D01*
X152761195Y-87392981D01*
X152765729Y-87424518D01*
X152771886Y-87455783D01*
X152770850Y-87460129D01*
X152771139Y-87462139D01*
X152768672Y-87469266D01*
X152763703Y-87490115D01*
X152760347Y-87498595D01*
X152751793Y-87513412D01*
X152751793Y-87513413D01*
X152746147Y-87534482D01*
X152743520Y-87541123D01*
X152726245Y-87563271D01*
X152711626Y-87587256D01*
X152705047Y-87590451D01*
X152700551Y-87596217D01*
X152674046Y-87605509D01*
X152648778Y-87617784D01*
X152641516Y-87616915D01*
X152634616Y-87619335D01*
X152628219Y-87619500D01*
X152430143Y-87619500D01*
X152430117Y-87619502D01*
X152395742Y-87623489D01*
X152395537Y-87621727D01*
X152354459Y-87621725D01*
X152354255Y-87623490D01*
X152344991Y-87622415D01*
X152319865Y-87619500D01*
X151930143Y-87619500D01*
X151930130Y-87619501D01*
X151901375Y-87622836D01*
X151832515Y-87611004D01*
X151780982Y-87563821D01*
X151763139Y-87496268D01*
X151784651Y-87429793D01*
X151799409Y-87411983D01*
X151854583Y-87356810D01*
X151915906Y-87323326D01*
X151942263Y-87320492D01*
X152648401Y-87320492D01*
X152678962Y-87329465D01*
G37*
%TD.AperFunction*%
%TA.AperFunction,NonConductor*%
G36*
X143513525Y-91779668D02*
G01*
X143517147Y-91779148D01*
X143545838Y-91792250D01*
X143575224Y-91803693D01*
X143578679Y-91807248D01*
X143580703Y-91808173D01*
X143599821Y-91829004D01*
X143607446Y-91839500D01*
X143735500Y-91967554D01*
X143735505Y-91967558D01*
X143863287Y-92060396D01*
X143882006Y-92073996D01*
X143987484Y-92127740D01*
X144043360Y-92156211D01*
X144043363Y-92156212D01*
X144129476Y-92184191D01*
X144215591Y-92212171D01*
X144288639Y-92223740D01*
X144375678Y-92237527D01*
X144438813Y-92267456D01*
X144475744Y-92326768D01*
X144474746Y-92396631D01*
X144436136Y-92454863D01*
X144375678Y-92482473D01*
X144215589Y-92507829D01*
X144043363Y-92563787D01*
X144043360Y-92563788D01*
X143882002Y-92646006D01*
X143735505Y-92752441D01*
X143735500Y-92752445D01*
X143607445Y-92880500D01*
X143607441Y-92880505D01*
X143599818Y-92890998D01*
X143544488Y-92933664D01*
X143474875Y-92939643D01*
X143413080Y-92907037D01*
X143378723Y-92846199D01*
X143375500Y-92818113D01*
X143375500Y-91901886D01*
X143384383Y-91871633D01*
X143391529Y-91840908D01*
X143394154Y-91838356D01*
X143395185Y-91834847D01*
X143419010Y-91814202D01*
X143441637Y-91792214D01*
X143445224Y-91791487D01*
X143447989Y-91789092D01*
X143479196Y-91784604D01*
X143510115Y-91778341D01*
X143513525Y-91779668D01*
G37*
%TD.AperFunction*%
%TA.AperFunction,NonConductor*%
G36*
X163336917Y-91812959D02*
G01*
X163371277Y-91873796D01*
X163374500Y-91901886D01*
X163374500Y-92818113D01*
X163354815Y-92885152D01*
X163302011Y-92930907D01*
X163232853Y-92940851D01*
X163169297Y-92911826D01*
X163150182Y-92890998D01*
X163142558Y-92880505D01*
X163142554Y-92880500D01*
X163014499Y-92752445D01*
X163014494Y-92752441D01*
X162867997Y-92646006D01*
X162867996Y-92646005D01*
X162867994Y-92646004D01*
X162816300Y-92619664D01*
X162706639Y-92563788D01*
X162706636Y-92563787D01*
X162534410Y-92507829D01*
X162374321Y-92482473D01*
X162311186Y-92452544D01*
X162274255Y-92393232D01*
X162275253Y-92323370D01*
X162313863Y-92265137D01*
X162374321Y-92237527D01*
X162444425Y-92226422D01*
X162534409Y-92212171D01*
X162706639Y-92156211D01*
X162867994Y-92073996D01*
X163014501Y-91967553D01*
X163142553Y-91839501D01*
X163150180Y-91829003D01*
X163205508Y-91786336D01*
X163275121Y-91780355D01*
X163336917Y-91812959D01*
G37*
%TD.AperFunction*%
%TA.AperFunction,NonConductor*%
G36*
X145024282Y-94735674D02*
G01*
X145326731Y-95038123D01*
X145360216Y-95099446D01*
X145363050Y-95125804D01*
X145363050Y-95142479D01*
X145343365Y-95209518D01*
X145290561Y-95255273D01*
X145221403Y-95265217D01*
X145166165Y-95242798D01*
X145087993Y-95186003D01*
X144926639Y-95103788D01*
X144926636Y-95103787D01*
X144754410Y-95047829D01*
X144594321Y-95022473D01*
X144531186Y-94992544D01*
X144494255Y-94933232D01*
X144495253Y-94863370D01*
X144533863Y-94805137D01*
X144594321Y-94777527D01*
X144664425Y-94766422D01*
X144754409Y-94752171D01*
X144898283Y-94705423D01*
X144968124Y-94703429D01*
X145024282Y-94735674D01*
G37*
%TD.AperFunction*%
%TA.AperFunction,NonConductor*%
G36*
X143513525Y-94319668D02*
G01*
X143517147Y-94319148D01*
X143545838Y-94332250D01*
X143575224Y-94343693D01*
X143578679Y-94347248D01*
X143580703Y-94348173D01*
X143599821Y-94369004D01*
X143607446Y-94379500D01*
X143735500Y-94507554D01*
X143735505Y-94507558D01*
X143837094Y-94581366D01*
X143882006Y-94613996D01*
X143977469Y-94662637D01*
X144043360Y-94696211D01*
X144043363Y-94696212D01*
X144129476Y-94724191D01*
X144215591Y-94752171D01*
X144288639Y-94763740D01*
X144375678Y-94777527D01*
X144438813Y-94807456D01*
X144475744Y-94866768D01*
X144474746Y-94936631D01*
X144436136Y-94994863D01*
X144375678Y-95022473D01*
X144215589Y-95047829D01*
X144043363Y-95103787D01*
X144043360Y-95103788D01*
X143882002Y-95186006D01*
X143735505Y-95292441D01*
X143735500Y-95292445D01*
X143607445Y-95420500D01*
X143607441Y-95420505D01*
X143599818Y-95430998D01*
X143544488Y-95473664D01*
X143474875Y-95479643D01*
X143413080Y-95447037D01*
X143378723Y-95386199D01*
X143375500Y-95358113D01*
X143375500Y-94441886D01*
X143384383Y-94411633D01*
X143391529Y-94380908D01*
X143394154Y-94378356D01*
X143395185Y-94374847D01*
X143419010Y-94354202D01*
X143441637Y-94332214D01*
X143445224Y-94331487D01*
X143447989Y-94329092D01*
X143479196Y-94324604D01*
X143510115Y-94318341D01*
X143513525Y-94319668D01*
G37*
%TD.AperFunction*%
%TA.AperFunction,NonConductor*%
G36*
X163336917Y-94352959D02*
G01*
X163371277Y-94413796D01*
X163374500Y-94441886D01*
X163374500Y-95358113D01*
X163354815Y-95425152D01*
X163302011Y-95470907D01*
X163232853Y-95480851D01*
X163169297Y-95451826D01*
X163150182Y-95430998D01*
X163142558Y-95420505D01*
X163142554Y-95420500D01*
X163014499Y-95292445D01*
X163014494Y-95292441D01*
X162867997Y-95186006D01*
X162867996Y-95186005D01*
X162867994Y-95186004D01*
X162816300Y-95159664D01*
X162706639Y-95103788D01*
X162706636Y-95103787D01*
X162534410Y-95047829D01*
X162374321Y-95022473D01*
X162311186Y-94992544D01*
X162274255Y-94933232D01*
X162275253Y-94863370D01*
X162313863Y-94805137D01*
X162374321Y-94777527D01*
X162444425Y-94766422D01*
X162534409Y-94752171D01*
X162706639Y-94696211D01*
X162867994Y-94613996D01*
X163014501Y-94507553D01*
X163142553Y-94379501D01*
X163150180Y-94369003D01*
X163205508Y-94326336D01*
X163275121Y-94320355D01*
X163336917Y-94352959D01*
G37*
%TD.AperFunction*%
%TA.AperFunction,NonConductor*%
G36*
X145024282Y-97275674D02*
G01*
X145268181Y-97519573D01*
X145282884Y-97546500D01*
X145299477Y-97572319D01*
X145300368Y-97578519D01*
X145301666Y-97580896D01*
X145304500Y-97607254D01*
X145304500Y-97639940D01*
X145284815Y-97706979D01*
X145232011Y-97752734D01*
X145162853Y-97762678D01*
X145107617Y-97740260D01*
X145092695Y-97729419D01*
X145087994Y-97726004D01*
X145034897Y-97698949D01*
X144926639Y-97643788D01*
X144926636Y-97643787D01*
X144754410Y-97587829D01*
X144594321Y-97562473D01*
X144531186Y-97532544D01*
X144494255Y-97473232D01*
X144495253Y-97403370D01*
X144533863Y-97345137D01*
X144594321Y-97317527D01*
X144665820Y-97306202D01*
X144754409Y-97292171D01*
X144898283Y-97245423D01*
X144968124Y-97243429D01*
X145024282Y-97275674D01*
G37*
%TD.AperFunction*%
%TA.AperFunction,NonConductor*%
G36*
X143580703Y-96888173D02*
G01*
X143599821Y-96909004D01*
X143607446Y-96919500D01*
X143735500Y-97047554D01*
X143735505Y-97047558D01*
X143832237Y-97117837D01*
X143882006Y-97153996D01*
X143987484Y-97207740D01*
X144043360Y-97236211D01*
X144043363Y-97236212D01*
X144084264Y-97249501D01*
X144215591Y-97292171D01*
X144288639Y-97303740D01*
X144375678Y-97317527D01*
X144438813Y-97347456D01*
X144475744Y-97406768D01*
X144474746Y-97476631D01*
X144436136Y-97534863D01*
X144375678Y-97562473D01*
X144215589Y-97587829D01*
X144043363Y-97643787D01*
X144043360Y-97643788D01*
X143882002Y-97726006D01*
X143735505Y-97832441D01*
X143735500Y-97832445D01*
X143607445Y-97960500D01*
X143607441Y-97960505D01*
X143599818Y-97970998D01*
X143544488Y-98013664D01*
X143474875Y-98019643D01*
X143413080Y-97987037D01*
X143378723Y-97926199D01*
X143375500Y-97898113D01*
X143375500Y-96981886D01*
X143395185Y-96914847D01*
X143447989Y-96869092D01*
X143517147Y-96859148D01*
X143580703Y-96888173D01*
G37*
%TD.AperFunction*%
%TA.AperFunction,NonConductor*%
G36*
X163336917Y-96892959D02*
G01*
X163371277Y-96953796D01*
X163374500Y-96981886D01*
X163374500Y-97898113D01*
X163354815Y-97965152D01*
X163302011Y-98010907D01*
X163232853Y-98020851D01*
X163169297Y-97991826D01*
X163150182Y-97970998D01*
X163142558Y-97960505D01*
X163142554Y-97960500D01*
X163014499Y-97832445D01*
X163014494Y-97832441D01*
X162867997Y-97726006D01*
X162867996Y-97726005D01*
X162867994Y-97726004D01*
X162816300Y-97699664D01*
X162706639Y-97643788D01*
X162706636Y-97643787D01*
X162534410Y-97587829D01*
X162374321Y-97562473D01*
X162311186Y-97532544D01*
X162274255Y-97473232D01*
X162275253Y-97403370D01*
X162313863Y-97345137D01*
X162374321Y-97317527D01*
X162445820Y-97306202D01*
X162534409Y-97292171D01*
X162706639Y-97236211D01*
X162867994Y-97153996D01*
X163014501Y-97047553D01*
X163142553Y-96919501D01*
X163150180Y-96909003D01*
X163205508Y-96866336D01*
X163275121Y-96860355D01*
X163336917Y-96892959D01*
G37*
%TD.AperFunction*%
%TA.AperFunction,NonConductor*%
G36*
X161851712Y-94705422D02*
G01*
X161944815Y-94735673D01*
X161995590Y-94752171D01*
X162155678Y-94777527D01*
X162218813Y-94807456D01*
X162255744Y-94866768D01*
X162254746Y-94936631D01*
X162216136Y-94994863D01*
X162155678Y-95022473D01*
X161995589Y-95047829D01*
X161823363Y-95103787D01*
X161823360Y-95103788D01*
X161662006Y-95186003D01*
X161530744Y-95281369D01*
X161530736Y-95281376D01*
X161515499Y-95292447D01*
X161387447Y-95420499D01*
X161376376Y-95435736D01*
X161376369Y-95435744D01*
X161281003Y-95567006D01*
X161198788Y-95728360D01*
X161198787Y-95728363D01*
X161142829Y-95900589D01*
X161114500Y-96079448D01*
X161114500Y-96260551D01*
X161142829Y-96439410D01*
X161189575Y-96583281D01*
X161191570Y-96653122D01*
X161159325Y-96709280D01*
X159873181Y-97995425D01*
X159811858Y-98028910D01*
X159742166Y-98023926D01*
X159686233Y-97982054D01*
X159661816Y-97916590D01*
X159661500Y-97907744D01*
X159661500Y-96851253D01*
X159681185Y-96784214D01*
X159697814Y-96763577D01*
X161725719Y-94735671D01*
X161787040Y-94702188D01*
X161851712Y-94705422D01*
G37*
%TD.AperFunction*%
%TA.AperFunction,NonConductor*%
G36*
X161851716Y-97245424D02*
G01*
X161995591Y-97292171D01*
X162068639Y-97303740D01*
X162155678Y-97317527D01*
X162218813Y-97347456D01*
X162255744Y-97406768D01*
X162254746Y-97476631D01*
X162216136Y-97534863D01*
X162155678Y-97562473D01*
X161995589Y-97587829D01*
X161823363Y-97643787D01*
X161823360Y-97643788D01*
X161662003Y-97726005D01*
X161522856Y-97827100D01*
X161457050Y-97850579D01*
X161388996Y-97834753D01*
X161384626Y-97830257D01*
X161389983Y-97844620D01*
X161402558Y-97866885D01*
X161401990Y-97876810D01*
X161405465Y-97886126D01*
X161400029Y-97911112D01*
X161398570Y-97936641D01*
X161391604Y-97949843D01*
X161390613Y-97954399D01*
X161382100Y-97967856D01*
X161281005Y-98107003D01*
X161198788Y-98268360D01*
X161198787Y-98268363D01*
X161142829Y-98440589D01*
X161114500Y-98619448D01*
X161114500Y-98800551D01*
X161142829Y-98979410D01*
X161189575Y-99123281D01*
X161191570Y-99193122D01*
X161159325Y-99249280D01*
X160274181Y-100134425D01*
X160212858Y-100167910D01*
X160143167Y-100162926D01*
X160087233Y-100121054D01*
X160062816Y-100055590D01*
X160062500Y-100046744D01*
X160062500Y-98990254D01*
X160082185Y-98923215D01*
X160098814Y-98902578D01*
X161194102Y-97807289D01*
X161216541Y-97795037D01*
X161236792Y-97779421D01*
X161246698Y-97778570D01*
X161255423Y-97773806D01*
X161280929Y-97775630D01*
X161306405Y-97773442D01*
X161315196Y-97778080D01*
X161325115Y-97778790D01*
X161345587Y-97794115D01*
X161353625Y-97798357D01*
X161340302Y-97784647D01*
X161326427Y-97716169D01*
X161351777Y-97651060D01*
X161362281Y-97639110D01*
X161725719Y-97275672D01*
X161787040Y-97242189D01*
X161851716Y-97245424D01*
G37*
%TD.AperFunction*%
%TA.AperFunction,NonConductor*%
G36*
X145281474Y-102182405D02*
G01*
X145330169Y-102232511D01*
X145344500Y-102290378D01*
X145344500Y-102749002D01*
X145324815Y-102816041D01*
X145272011Y-102861796D01*
X145202853Y-102871740D01*
X145147615Y-102849320D01*
X145087997Y-102806006D01*
X145087996Y-102806005D01*
X145087994Y-102806004D01*
X145036300Y-102779664D01*
X144926639Y-102723788D01*
X144926636Y-102723787D01*
X144754410Y-102667828D01*
X144592720Y-102642219D01*
X144529585Y-102612289D01*
X144492654Y-102552978D01*
X144493652Y-102483115D01*
X144532262Y-102424883D01*
X144592721Y-102397273D01*
X144754292Y-102371683D01*
X144926444Y-102315748D01*
X144926447Y-102315747D01*
X145087731Y-102233567D01*
X145147614Y-102190060D01*
X145213420Y-102166580D01*
X145281474Y-102182405D01*
G37*
%TD.AperFunction*%
%TA.AperFunction,NonConductor*%
G36*
X143580703Y-104508173D02*
G01*
X143599821Y-104529004D01*
X143607446Y-104539500D01*
X143735500Y-104667554D01*
X143735505Y-104667558D01*
X143827769Y-104734591D01*
X143882006Y-104773996D01*
X143987484Y-104827740D01*
X144043360Y-104856211D01*
X144043363Y-104856212D01*
X144194963Y-104905469D01*
X144206365Y-104912456D01*
X144216072Y-104914568D01*
X144244326Y-104935719D01*
X144303217Y-104994610D01*
X144336702Y-105055933D01*
X144331718Y-105125625D01*
X144289846Y-105181558D01*
X144234940Y-105204763D01*
X144215591Y-105207828D01*
X144043363Y-105263787D01*
X144043360Y-105263788D01*
X143882002Y-105346006D01*
X143735505Y-105452441D01*
X143735500Y-105452445D01*
X143607445Y-105580500D01*
X143607441Y-105580505D01*
X143599818Y-105590998D01*
X143544488Y-105633664D01*
X143474875Y-105639643D01*
X143413080Y-105607037D01*
X143378723Y-105546199D01*
X143375500Y-105518113D01*
X143375500Y-104601886D01*
X143395185Y-104534847D01*
X143447989Y-104489092D01*
X143517147Y-104479148D01*
X143580703Y-104508173D01*
G37*
%TD.AperFunction*%
%TA.AperFunction,NonConductor*%
G36*
X163336917Y-104512959D02*
G01*
X163371277Y-104573796D01*
X163374500Y-104601886D01*
X163374500Y-105518113D01*
X163354815Y-105585152D01*
X163302011Y-105630907D01*
X163232853Y-105640851D01*
X163169297Y-105611826D01*
X163150182Y-105590998D01*
X163142558Y-105580505D01*
X163142554Y-105580500D01*
X163014499Y-105452445D01*
X163014494Y-105452441D01*
X162867997Y-105346006D01*
X162867996Y-105346005D01*
X162867994Y-105346004D01*
X162812013Y-105317480D01*
X162706639Y-105263788D01*
X162706636Y-105263787D01*
X162534410Y-105207829D01*
X162374321Y-105182473D01*
X162311186Y-105152544D01*
X162274255Y-105093232D01*
X162275253Y-105023370D01*
X162313863Y-104965137D01*
X162374321Y-104937527D01*
X162444425Y-104926422D01*
X162534409Y-104912171D01*
X162706639Y-104856211D01*
X162867994Y-104773996D01*
X163014501Y-104667553D01*
X163142553Y-104539501D01*
X163150180Y-104529003D01*
X163205508Y-104486336D01*
X163275121Y-104480355D01*
X163336917Y-104512959D01*
G37*
%TD.AperFunction*%
%TA.AperFunction,NonConductor*%
G36*
X161851712Y-104865422D02*
G01*
X161944815Y-104895673D01*
X161995590Y-104912171D01*
X162155678Y-104937527D01*
X162218813Y-104967456D01*
X162255744Y-105026768D01*
X162254746Y-105096631D01*
X162216136Y-105154863D01*
X162155678Y-105182473D01*
X161995589Y-105207829D01*
X161823363Y-105263787D01*
X161823360Y-105263788D01*
X161662003Y-105346005D01*
X161530751Y-105441363D01*
X161530740Y-105441373D01*
X161515499Y-105452447D01*
X161387447Y-105580499D01*
X161376370Y-105595744D01*
X161376366Y-105595749D01*
X161281003Y-105727006D01*
X161198788Y-105888360D01*
X161198787Y-105888363D01*
X161142829Y-106060589D01*
X161114500Y-106239448D01*
X161114500Y-106420551D01*
X161142829Y-106599412D01*
X161189575Y-106743283D01*
X161191570Y-106813124D01*
X161159325Y-106869281D01*
X161076181Y-106952425D01*
X161014858Y-106985910D01*
X160945166Y-106980926D01*
X160889233Y-106939054D01*
X160864816Y-106873590D01*
X160864500Y-106864744D01*
X160864500Y-105808253D01*
X160884185Y-105741214D01*
X160900815Y-105720576D01*
X161725719Y-104895671D01*
X161787040Y-104862188D01*
X161851712Y-104865422D01*
G37*
%TD.AperFunction*%
%TA.AperFunction,NonConductor*%
G36*
X161851716Y-107405424D02*
G01*
X161995591Y-107452171D01*
X162068639Y-107463740D01*
X162155678Y-107477527D01*
X162218813Y-107507456D01*
X162255744Y-107566768D01*
X162254746Y-107636631D01*
X162216136Y-107694863D01*
X162155678Y-107722473D01*
X161995589Y-107747829D01*
X161823363Y-107803787D01*
X161823360Y-107803788D01*
X161694795Y-107869297D01*
X161626126Y-107882193D01*
X161561385Y-107855917D01*
X161521128Y-107798811D01*
X161514500Y-107758812D01*
X161514500Y-107698254D01*
X161534185Y-107631215D01*
X161550815Y-107610577D01*
X161725719Y-107435672D01*
X161739072Y-107428381D01*
X161749364Y-107417168D01*
X161769116Y-107411976D01*
X161787040Y-107402189D01*
X161803263Y-107403000D01*
X161816939Y-107399406D01*
X161851716Y-107405424D01*
G37*
%TD.AperFunction*%
%TA.AperFunction,NonConductor*%
G36*
X145024282Y-107435674D02*
G01*
X145268181Y-107679573D01*
X145301666Y-107740896D01*
X145304500Y-107767254D01*
X145304500Y-107799940D01*
X145284815Y-107866979D01*
X145232011Y-107912734D01*
X145162853Y-107922678D01*
X145107617Y-107900260D01*
X145092695Y-107889419D01*
X145087994Y-107886004D01*
X145011090Y-107846819D01*
X144926639Y-107803788D01*
X144926636Y-107803787D01*
X144754410Y-107747829D01*
X144594321Y-107722473D01*
X144531186Y-107692544D01*
X144494255Y-107633232D01*
X144495253Y-107563370D01*
X144533863Y-107505137D01*
X144594321Y-107477527D01*
X144664425Y-107466422D01*
X144754409Y-107452171D01*
X144898283Y-107405423D01*
X144968124Y-107403429D01*
X145024282Y-107435674D01*
G37*
%TD.AperFunction*%
%TA.AperFunction,NonConductor*%
G36*
X143580703Y-107048173D02*
G01*
X143599821Y-107069004D01*
X143607446Y-107079500D01*
X143735500Y-107207554D01*
X143735505Y-107207558D01*
X143863287Y-107300396D01*
X143882006Y-107313996D01*
X143987484Y-107367740D01*
X144043360Y-107396211D01*
X144043363Y-107396212D01*
X144091881Y-107411976D01*
X144215591Y-107452171D01*
X144288639Y-107463740D01*
X144375678Y-107477527D01*
X144438813Y-107507456D01*
X144475744Y-107566768D01*
X144474746Y-107636631D01*
X144436136Y-107694863D01*
X144375678Y-107722473D01*
X144215589Y-107747829D01*
X144043363Y-107803787D01*
X144043360Y-107803788D01*
X143882002Y-107886006D01*
X143735505Y-107992441D01*
X143735500Y-107992445D01*
X143607445Y-108120500D01*
X143607441Y-108120505D01*
X143599818Y-108130998D01*
X143544488Y-108173664D01*
X143474875Y-108179643D01*
X143413080Y-108147037D01*
X143378723Y-108086199D01*
X143375500Y-108058113D01*
X143375500Y-107141886D01*
X143395185Y-107074847D01*
X143447989Y-107029092D01*
X143517147Y-107019148D01*
X143580703Y-107048173D01*
G37*
%TD.AperFunction*%
%TA.AperFunction,NonConductor*%
G36*
X163336917Y-107052959D02*
G01*
X163371277Y-107113796D01*
X163374500Y-107141886D01*
X163374500Y-108058113D01*
X163354815Y-108125152D01*
X163302011Y-108170907D01*
X163232853Y-108180851D01*
X163169297Y-108151826D01*
X163150182Y-108130998D01*
X163142558Y-108120505D01*
X163142554Y-108120500D01*
X163014499Y-107992445D01*
X163014494Y-107992441D01*
X162867997Y-107886006D01*
X162867996Y-107886005D01*
X162867994Y-107886004D01*
X162791090Y-107846819D01*
X162706639Y-107803788D01*
X162706636Y-107803787D01*
X162534410Y-107747829D01*
X162374321Y-107722473D01*
X162311186Y-107692544D01*
X162274255Y-107633232D01*
X162275253Y-107563370D01*
X162313863Y-107505137D01*
X162374321Y-107477527D01*
X162444425Y-107466422D01*
X162534409Y-107452171D01*
X162706639Y-107396211D01*
X162867994Y-107313996D01*
X163014501Y-107207553D01*
X163142553Y-107079501D01*
X163150180Y-107069003D01*
X163205508Y-107026336D01*
X163275121Y-107020355D01*
X163336917Y-107052959D01*
G37*
%TD.AperFunction*%
%TA.AperFunction,NonConductor*%
G36*
X157203283Y-107830185D02*
G01*
X157249038Y-107882989D01*
X157258982Y-107952147D01*
X157229957Y-108015703D01*
X157223925Y-108022181D01*
X156682926Y-108563181D01*
X156621603Y-108596666D01*
X156595245Y-108599500D01*
X156571256Y-108599500D01*
X156504217Y-108579815D01*
X156458462Y-108527011D01*
X156448518Y-108457853D01*
X156477543Y-108394297D01*
X156483575Y-108387819D01*
X157024574Y-107846819D01*
X157051501Y-107832115D01*
X157077320Y-107815523D01*
X157083520Y-107814631D01*
X157085897Y-107813334D01*
X157112255Y-107810500D01*
X157136244Y-107810500D01*
X157203283Y-107830185D01*
G37*
%TD.AperFunction*%
%TA.AperFunction,NonConductor*%
G36*
X161659488Y-109859508D02*
G01*
X161661388Y-109859318D01*
X161694793Y-109870702D01*
X161731871Y-109889594D01*
X161823356Y-109936209D01*
X161823363Y-109936212D01*
X161909476Y-109964191D01*
X161995591Y-109992171D01*
X162068639Y-110003740D01*
X162155678Y-110017527D01*
X162218813Y-110047456D01*
X162255744Y-110106768D01*
X162254746Y-110176631D01*
X162216136Y-110234863D01*
X162155678Y-110262473D01*
X161995589Y-110287829D01*
X161823363Y-110343787D01*
X161823360Y-110343788D01*
X161694795Y-110409297D01*
X161626126Y-110422193D01*
X161561385Y-110395917D01*
X161521128Y-110338811D01*
X161514500Y-110298812D01*
X161514500Y-109981187D01*
X161515275Y-109978546D01*
X161514614Y-109975875D01*
X161525062Y-109945216D01*
X161534185Y-109914148D01*
X161536264Y-109912346D01*
X161537152Y-109909741D01*
X161562521Y-109889594D01*
X161586989Y-109868393D01*
X161589711Y-109868001D01*
X161591867Y-109866290D01*
X161624087Y-109863058D01*
X161656147Y-109858449D01*
X161659488Y-109859508D01*
G37*
%TD.AperFunction*%
%TA.AperFunction,NonConductor*%
G36*
X145241474Y-109832086D02*
G01*
X145290169Y-109882192D01*
X145304500Y-109940059D01*
X145304500Y-110339940D01*
X145284815Y-110406979D01*
X145232011Y-110452734D01*
X145162853Y-110462678D01*
X145107617Y-110440260D01*
X145092695Y-110429419D01*
X145087994Y-110426004D01*
X145028945Y-110395917D01*
X144926639Y-110343788D01*
X144926636Y-110343787D01*
X144754410Y-110287829D01*
X144594321Y-110262473D01*
X144531186Y-110232544D01*
X144494255Y-110173232D01*
X144495253Y-110103370D01*
X144533863Y-110045137D01*
X144594321Y-110017527D01*
X144664425Y-110006422D01*
X144754409Y-109992171D01*
X144926639Y-109936211D01*
X145087994Y-109853996D01*
X145107614Y-109839740D01*
X145173420Y-109816261D01*
X145241474Y-109832086D01*
G37*
%TD.AperFunction*%
%TA.AperFunction,NonConductor*%
G36*
X143513525Y-109559668D02*
G01*
X143517147Y-109559148D01*
X143545838Y-109572250D01*
X143575224Y-109583693D01*
X143578679Y-109587248D01*
X143580703Y-109588173D01*
X143599821Y-109609004D01*
X143607446Y-109619500D01*
X143735500Y-109747554D01*
X143735505Y-109747558D01*
X143830068Y-109816261D01*
X143882006Y-109853996D01*
X143951871Y-109889594D01*
X144043360Y-109936211D01*
X144043363Y-109936212D01*
X144129476Y-109964191D01*
X144215591Y-109992171D01*
X144288639Y-110003740D01*
X144375678Y-110017527D01*
X144438813Y-110047456D01*
X144475744Y-110106768D01*
X144474746Y-110176631D01*
X144436136Y-110234863D01*
X144375678Y-110262473D01*
X144215589Y-110287829D01*
X144043363Y-110343787D01*
X144043360Y-110343788D01*
X143882002Y-110426006D01*
X143735505Y-110532441D01*
X143735500Y-110532445D01*
X143607445Y-110660500D01*
X143607441Y-110660505D01*
X143599818Y-110670998D01*
X143544488Y-110713664D01*
X143474875Y-110719643D01*
X143413080Y-110687037D01*
X143378723Y-110626199D01*
X143375500Y-110598113D01*
X143375500Y-109681886D01*
X143384383Y-109651633D01*
X143391529Y-109620908D01*
X143394154Y-109618356D01*
X143395185Y-109614847D01*
X143419010Y-109594202D01*
X143441637Y-109572214D01*
X143445224Y-109571487D01*
X143447989Y-109569092D01*
X143479196Y-109564604D01*
X143510115Y-109558341D01*
X143513525Y-109559668D01*
G37*
%TD.AperFunction*%
%TA.AperFunction,NonConductor*%
G36*
X163336917Y-109592959D02*
G01*
X163371277Y-109653796D01*
X163374500Y-109681886D01*
X163374500Y-110598113D01*
X163354815Y-110665152D01*
X163302011Y-110710907D01*
X163232853Y-110720851D01*
X163169297Y-110691826D01*
X163150182Y-110670998D01*
X163142558Y-110660505D01*
X163142554Y-110660500D01*
X163014499Y-110532445D01*
X163014494Y-110532441D01*
X162867997Y-110426006D01*
X162867996Y-110426005D01*
X162867994Y-110426004D01*
X162808945Y-110395917D01*
X162706639Y-110343788D01*
X162706636Y-110343787D01*
X162534410Y-110287829D01*
X162374321Y-110262473D01*
X162311186Y-110232544D01*
X162274255Y-110173232D01*
X162275253Y-110103370D01*
X162313863Y-110045137D01*
X162374321Y-110017527D01*
X162444425Y-110006422D01*
X162534409Y-109992171D01*
X162706639Y-109936211D01*
X162867994Y-109853996D01*
X163014501Y-109747553D01*
X163142553Y-109619501D01*
X163150180Y-109609003D01*
X163205508Y-109566336D01*
X163275121Y-109560355D01*
X163336917Y-109592959D01*
G37*
%TD.AperFunction*%
%TA.AperFunction,NonConductor*%
G36*
X144965749Y-112534692D02*
G01*
X145165681Y-112734624D01*
X145199166Y-112795946D01*
X145194182Y-112865637D01*
X145152311Y-112921571D01*
X145086846Y-112945988D01*
X145021705Y-112932789D01*
X144926447Y-112884253D01*
X144926444Y-112884251D01*
X144754293Y-112828317D01*
X144592720Y-112802726D01*
X144529585Y-112772797D01*
X144492654Y-112713485D01*
X144493652Y-112643623D01*
X144532262Y-112585390D01*
X144592720Y-112557780D01*
X144685096Y-112543149D01*
X144754409Y-112532171D01*
X144839750Y-112504441D01*
X144909591Y-112502447D01*
X144965749Y-112534692D01*
G37*
%TD.AperFunction*%
%TA.AperFunction,NonConductor*%
G36*
X150249284Y-115082185D02*
G01*
X150269926Y-115098819D01*
X150338181Y-115167074D01*
X150371666Y-115228397D01*
X150374500Y-115254755D01*
X150374500Y-115458260D01*
X150384426Y-115526392D01*
X150384427Y-115526395D01*
X150386698Y-115531040D01*
X150398458Y-115599913D01*
X150371114Y-115664210D01*
X150313350Y-115703517D01*
X150275298Y-115709500D01*
X147325337Y-115709500D01*
X147317730Y-115709499D01*
X147317727Y-115709499D01*
X147265454Y-115709499D01*
X147226084Y-115697938D01*
X147198417Y-115689814D01*
X147198416Y-115689813D01*
X147198415Y-115689813D01*
X147152661Y-115637009D01*
X147144474Y-115580065D01*
X147142718Y-115567852D01*
X147142718Y-115567850D01*
X147163968Y-115521321D01*
X147171743Y-115504296D01*
X147177775Y-115497818D01*
X147576774Y-115098819D01*
X147638097Y-115065334D01*
X147664455Y-115062500D01*
X150182245Y-115062500D01*
X150249284Y-115082185D01*
G37*
%TD.AperFunction*%
%TA.AperFunction,NonConductor*%
G36*
X161199703Y-116953483D02*
G01*
X161228984Y-116990899D01*
X161249897Y-117031943D01*
X161281006Y-117092998D01*
X161382097Y-117232139D01*
X161405577Y-117297946D01*
X161389751Y-117365999D01*
X161385242Y-117370380D01*
X161399622Y-117365017D01*
X161421889Y-117352443D01*
X161431813Y-117353010D01*
X161441129Y-117349536D01*
X161466115Y-117354971D01*
X161491645Y-117356431D01*
X161504846Y-117363397D01*
X161509402Y-117364388D01*
X161522860Y-117372902D01*
X161638364Y-117456819D01*
X161662006Y-117473996D01*
X161767484Y-117527740D01*
X161823360Y-117556211D01*
X161823363Y-117556212D01*
X161908888Y-117584000D01*
X161995591Y-117612171D01*
X162068639Y-117623740D01*
X162155678Y-117637527D01*
X162218813Y-117667456D01*
X162255744Y-117726768D01*
X162254746Y-117796631D01*
X162216136Y-117854863D01*
X162155678Y-117882473D01*
X161995587Y-117907829D01*
X161851716Y-117954575D01*
X161781875Y-117956570D01*
X161725718Y-117924325D01*
X161362294Y-117560901D01*
X161350040Y-117538460D01*
X161334424Y-117518209D01*
X161333573Y-117508302D01*
X161328809Y-117499578D01*
X161330633Y-117474071D01*
X161328445Y-117448595D01*
X161333083Y-117439803D01*
X161333793Y-117429886D01*
X161349117Y-117409415D01*
X161353370Y-117401355D01*
X161339645Y-117414694D01*
X161271167Y-117428569D01*
X161206058Y-117403220D01*
X161194098Y-117392705D01*
X161030819Y-117229426D01*
X160997334Y-117168103D01*
X160994500Y-117141745D01*
X160994500Y-117047196D01*
X161014185Y-116980157D01*
X161066989Y-116934402D01*
X161136147Y-116924458D01*
X161199703Y-116953483D01*
G37*
%TD.AperFunction*%
%TA.AperFunction,NonConductor*%
G36*
X145360998Y-117365247D02*
G01*
X145409693Y-117415353D01*
X145423568Y-117483831D01*
X145398219Y-117548940D01*
X145387704Y-117560901D01*
X145024281Y-117924325D01*
X144962958Y-117957810D01*
X144898283Y-117954575D01*
X144754411Y-117907829D01*
X144754412Y-117907829D01*
X144594321Y-117882473D01*
X144531186Y-117852544D01*
X144494255Y-117793232D01*
X144495253Y-117723370D01*
X144533863Y-117665137D01*
X144594321Y-117637527D01*
X144664425Y-117626422D01*
X144754409Y-117612171D01*
X144926639Y-117556211D01*
X145087994Y-117473996D01*
X145227140Y-117372900D01*
X145292944Y-117349422D01*
X145360998Y-117365247D01*
G37*
%TD.AperFunction*%
%TA.AperFunction,NonConductor*%
G36*
X143580703Y-117208173D02*
G01*
X143599818Y-117229001D01*
X143600921Y-117230518D01*
X143607446Y-117239500D01*
X143735500Y-117367554D01*
X143735505Y-117367558D01*
X143858364Y-117456819D01*
X143882006Y-117473996D01*
X143987484Y-117527740D01*
X144043360Y-117556211D01*
X144043363Y-117556212D01*
X144128888Y-117584000D01*
X144215591Y-117612171D01*
X144288639Y-117623740D01*
X144375678Y-117637527D01*
X144438813Y-117667456D01*
X144475744Y-117726768D01*
X144474746Y-117796631D01*
X144436136Y-117854863D01*
X144375678Y-117882473D01*
X144215589Y-117907829D01*
X144043363Y-117963787D01*
X144043360Y-117963788D01*
X143882002Y-118046006D01*
X143735505Y-118152441D01*
X143735500Y-118152445D01*
X143607445Y-118280500D01*
X143607441Y-118280505D01*
X143599818Y-118290998D01*
X143544488Y-118333664D01*
X143474875Y-118339643D01*
X143413080Y-118307037D01*
X143378723Y-118246199D01*
X143375500Y-118218113D01*
X143375500Y-117301886D01*
X143395185Y-117234847D01*
X143447989Y-117189092D01*
X143517147Y-117179148D01*
X143580703Y-117208173D01*
G37*
%TD.AperFunction*%
%TA.AperFunction,NonConductor*%
G36*
X163336917Y-117212959D02*
G01*
X163371277Y-117273796D01*
X163374500Y-117301886D01*
X163374500Y-118218113D01*
X163354815Y-118285152D01*
X163302011Y-118330907D01*
X163232853Y-118340851D01*
X163169297Y-118311826D01*
X163150182Y-118290998D01*
X163142558Y-118280505D01*
X163142554Y-118280500D01*
X163014499Y-118152445D01*
X163014494Y-118152441D01*
X162867997Y-118046006D01*
X162867996Y-118046005D01*
X162867994Y-118046004D01*
X162816300Y-118019664D01*
X162706639Y-117963788D01*
X162706636Y-117963787D01*
X162534410Y-117907829D01*
X162374321Y-117882473D01*
X162311186Y-117852544D01*
X162274255Y-117793232D01*
X162275253Y-117723370D01*
X162313863Y-117665137D01*
X162374321Y-117637527D01*
X162444425Y-117626422D01*
X162534409Y-117612171D01*
X162706639Y-117556211D01*
X162867994Y-117473996D01*
X163014501Y-117367553D01*
X163142553Y-117239501D01*
X163150180Y-117229003D01*
X163205508Y-117186336D01*
X163275121Y-117180355D01*
X163336917Y-117212959D01*
G37*
%TD.AperFunction*%
%TA.AperFunction,NonConductor*%
G36*
X160798703Y-118130542D02*
G01*
X160805181Y-118136574D01*
X161159325Y-118490718D01*
X161192810Y-118552041D01*
X161189575Y-118616716D01*
X161142829Y-118760587D01*
X161114500Y-118939448D01*
X161114500Y-119120551D01*
X161142829Y-119299410D01*
X161198787Y-119471636D01*
X161198788Y-119471639D01*
X161229465Y-119531844D01*
X161264638Y-119600875D01*
X161281006Y-119632997D01*
X161382099Y-119772141D01*
X161405579Y-119837947D01*
X161389753Y-119906001D01*
X161385253Y-119910373D01*
X161399619Y-119905015D01*
X161421886Y-119892441D01*
X161431810Y-119893008D01*
X161441126Y-119889534D01*
X161466112Y-119894969D01*
X161491642Y-119896429D01*
X161504843Y-119903395D01*
X161509399Y-119904386D01*
X161522857Y-119912900D01*
X161651319Y-120006231D01*
X161662006Y-120013996D01*
X161759932Y-120063892D01*
X161823360Y-120096211D01*
X161823363Y-120096212D01*
X161909476Y-120124191D01*
X161995591Y-120152171D01*
X162068639Y-120163740D01*
X162155678Y-120177527D01*
X162218813Y-120207456D01*
X162255744Y-120266768D01*
X162254746Y-120336631D01*
X162216136Y-120394863D01*
X162155678Y-120422473D01*
X161995587Y-120447829D01*
X161851715Y-120494575D01*
X161781874Y-120496570D01*
X161725717Y-120464325D01*
X161362291Y-120100899D01*
X161350037Y-120078458D01*
X161334421Y-120058207D01*
X161333570Y-120048300D01*
X161328806Y-120039576D01*
X161330630Y-120014069D01*
X161328442Y-119988593D01*
X161333080Y-119979801D01*
X161333790Y-119969884D01*
X161349114Y-119949413D01*
X161353357Y-119941371D01*
X161339647Y-119954696D01*
X161271169Y-119968571D01*
X161206060Y-119943222D01*
X161194100Y-119932707D01*
X160629819Y-119368426D01*
X160596334Y-119307103D01*
X160593500Y-119280745D01*
X160593500Y-118224255D01*
X160613185Y-118157216D01*
X160665989Y-118111461D01*
X160735147Y-118101517D01*
X160798703Y-118130542D01*
G37*
%TD.AperFunction*%
%TA.AperFunction,NonConductor*%
G36*
X145843384Y-118340522D02*
G01*
X145899317Y-118382394D01*
X145923734Y-118447858D01*
X145924050Y-118456704D01*
X145924050Y-119513194D01*
X145904365Y-119580233D01*
X145887731Y-119600875D01*
X145555902Y-119932704D01*
X145494579Y-119966189D01*
X145424887Y-119961205D01*
X145389988Y-119935079D01*
X145409692Y-119955354D01*
X145423567Y-120023832D01*
X145398218Y-120088941D01*
X145387703Y-120100902D01*
X145024280Y-120464325D01*
X144962957Y-120497810D01*
X144898281Y-120494575D01*
X144754410Y-120447829D01*
X144594321Y-120422473D01*
X144531186Y-120392544D01*
X144494255Y-120333232D01*
X144495253Y-120263370D01*
X144533863Y-120205137D01*
X144594321Y-120177527D01*
X144664425Y-120166422D01*
X144754409Y-120152171D01*
X144926639Y-120096211D01*
X145087994Y-120013996D01*
X145227138Y-119912902D01*
X145292943Y-119889423D01*
X145360997Y-119905248D01*
X145365384Y-119909762D01*
X145344537Y-119853869D01*
X145359389Y-119785596D01*
X145367903Y-119772138D01*
X145417407Y-119704000D01*
X145468996Y-119632994D01*
X145551211Y-119471639D01*
X145607171Y-119299409D01*
X145622837Y-119200500D01*
X145635500Y-119120551D01*
X145635500Y-118939448D01*
X145615482Y-118813066D01*
X145607171Y-118760591D01*
X145560424Y-118616716D01*
X145558429Y-118546875D01*
X145590671Y-118490721D01*
X145712372Y-118369020D01*
X145773692Y-118335538D01*
X145843384Y-118340522D01*
G37*
%TD.AperFunction*%
%TA.AperFunction,NonConductor*%
G36*
X143580703Y-119748173D02*
G01*
X143599818Y-119769001D01*
X143602100Y-119772141D01*
X143607446Y-119779500D01*
X143735500Y-119907554D01*
X143735505Y-119907558D01*
X143863287Y-120000396D01*
X143882006Y-120013996D01*
X143979932Y-120063892D01*
X144043360Y-120096211D01*
X144043363Y-120096212D01*
X144129476Y-120124191D01*
X144215591Y-120152171D01*
X144288639Y-120163740D01*
X144375678Y-120177527D01*
X144438813Y-120207456D01*
X144475744Y-120266768D01*
X144474746Y-120336631D01*
X144436136Y-120394863D01*
X144375678Y-120422473D01*
X144215589Y-120447829D01*
X144043363Y-120503787D01*
X144043360Y-120503788D01*
X143882002Y-120586006D01*
X143735505Y-120692441D01*
X143735500Y-120692445D01*
X143607445Y-120820500D01*
X143607441Y-120820505D01*
X143599818Y-120830998D01*
X143544488Y-120873664D01*
X143474875Y-120879643D01*
X143413080Y-120847037D01*
X143378723Y-120786199D01*
X143375500Y-120758113D01*
X143375500Y-119841886D01*
X143395185Y-119774847D01*
X143447989Y-119729092D01*
X143517147Y-119719148D01*
X143580703Y-119748173D01*
G37*
%TD.AperFunction*%
%TA.AperFunction,NonConductor*%
G36*
X163336917Y-119752959D02*
G01*
X163371277Y-119813796D01*
X163374500Y-119841886D01*
X163374500Y-120758113D01*
X163354815Y-120825152D01*
X163302011Y-120870907D01*
X163232853Y-120880851D01*
X163169297Y-120851826D01*
X163150182Y-120830998D01*
X163142558Y-120820505D01*
X163142554Y-120820500D01*
X163014499Y-120692445D01*
X163014494Y-120692441D01*
X162867997Y-120586006D01*
X162867996Y-120586005D01*
X162867994Y-120586004D01*
X162816300Y-120559664D01*
X162706639Y-120503788D01*
X162706636Y-120503787D01*
X162534410Y-120447829D01*
X162374321Y-120422473D01*
X162311186Y-120392544D01*
X162274255Y-120333232D01*
X162275253Y-120263370D01*
X162313863Y-120205137D01*
X162374321Y-120177527D01*
X162444425Y-120166422D01*
X162534409Y-120152171D01*
X162706639Y-120096211D01*
X162867994Y-120013996D01*
X163014501Y-119907553D01*
X163142553Y-119779501D01*
X163150180Y-119769003D01*
X163205508Y-119726336D01*
X163275121Y-119720355D01*
X163336917Y-119752959D01*
G37*
%TD.AperFunction*%
%TA.AperFunction,NonConductor*%
G36*
X160397703Y-120269541D02*
G01*
X160404181Y-120275573D01*
X161159325Y-121030717D01*
X161192810Y-121092040D01*
X161189575Y-121156715D01*
X161142829Y-121300587D01*
X161114500Y-121479448D01*
X161114500Y-121660551D01*
X161142829Y-121839410D01*
X161198787Y-122011636D01*
X161198788Y-122011639D01*
X161281006Y-122172997D01*
X161376361Y-122304244D01*
X161376365Y-122304248D01*
X161387447Y-122319501D01*
X161515499Y-122447553D01*
X161530751Y-122458634D01*
X161530755Y-122458638D01*
X161590790Y-122502255D01*
X161662006Y-122553996D01*
X161767484Y-122607740D01*
X161823360Y-122636211D01*
X161823363Y-122636212D01*
X161856637Y-122647023D01*
X161995591Y-122692171D01*
X162068639Y-122703740D01*
X162155678Y-122717527D01*
X162218813Y-122747456D01*
X162255744Y-122806768D01*
X162254746Y-122876631D01*
X162216136Y-122934863D01*
X162155678Y-122962473D01*
X161995587Y-122987829D01*
X161851716Y-123034575D01*
X161781875Y-123036570D01*
X161725718Y-123004325D01*
X160228819Y-121507426D01*
X160195334Y-121446103D01*
X160192500Y-121419745D01*
X160192500Y-120363254D01*
X160212185Y-120296215D01*
X160264989Y-120250460D01*
X160334147Y-120240516D01*
X160397703Y-120269541D01*
G37*
%TD.AperFunction*%
%TA.AperFunction,NonConductor*%
G36*
X146244384Y-120479522D02*
G01*
X146300317Y-120521394D01*
X146324734Y-120586858D01*
X146325050Y-120595704D01*
X146325050Y-121652194D01*
X146305365Y-121719233D01*
X146288731Y-121739875D01*
X145555902Y-122472703D01*
X145024280Y-123004325D01*
X144962957Y-123037810D01*
X144898281Y-123034575D01*
X144754410Y-122987829D01*
X144594321Y-122962473D01*
X144531186Y-122932544D01*
X144494255Y-122873232D01*
X144495253Y-122803370D01*
X144533863Y-122745137D01*
X144594321Y-122717527D01*
X144664425Y-122706422D01*
X144754409Y-122692171D01*
X144926639Y-122636211D01*
X145087994Y-122553996D01*
X145234501Y-122447553D01*
X145362553Y-122319501D01*
X145468996Y-122172994D01*
X145551211Y-122011639D01*
X145607171Y-121839409D01*
X145628688Y-121703557D01*
X145635500Y-121660551D01*
X145635500Y-121479448D01*
X145619019Y-121375397D01*
X145607171Y-121300591D01*
X145560424Y-121156715D01*
X145558429Y-121086875D01*
X145590672Y-121030719D01*
X146113369Y-120508023D01*
X146174692Y-120474538D01*
X146244384Y-120479522D01*
G37*
%TD.AperFunction*%
%TA.AperFunction,NonConductor*%
G36*
X143580703Y-122288173D02*
G01*
X143599821Y-122309004D01*
X143607446Y-122319500D01*
X143735500Y-122447554D01*
X143735505Y-122447558D01*
X143770115Y-122472703D01*
X143882006Y-122553996D01*
X143987484Y-122607740D01*
X144043360Y-122636211D01*
X144043363Y-122636212D01*
X144076637Y-122647023D01*
X144215591Y-122692171D01*
X144288639Y-122703740D01*
X144375678Y-122717527D01*
X144438813Y-122747456D01*
X144475744Y-122806768D01*
X144474746Y-122876631D01*
X144436136Y-122934863D01*
X144375678Y-122962473D01*
X144215589Y-122987829D01*
X144043363Y-123043787D01*
X144043360Y-123043788D01*
X143882002Y-123126006D01*
X143735505Y-123232441D01*
X143735500Y-123232445D01*
X143607445Y-123360500D01*
X143607441Y-123360505D01*
X143599818Y-123370998D01*
X143544488Y-123413664D01*
X143474875Y-123419643D01*
X143413080Y-123387037D01*
X143378723Y-123326199D01*
X143375500Y-123298113D01*
X143375500Y-122381886D01*
X143395185Y-122314847D01*
X143447989Y-122269092D01*
X143517147Y-122259148D01*
X143580703Y-122288173D01*
G37*
%TD.AperFunction*%
%TA.AperFunction,NonConductor*%
G36*
X163336917Y-122292959D02*
G01*
X163371277Y-122353796D01*
X163374500Y-122381886D01*
X163374500Y-123298113D01*
X163354815Y-123365152D01*
X163302011Y-123410907D01*
X163232853Y-123420851D01*
X163169297Y-123391826D01*
X163150182Y-123370998D01*
X163142558Y-123360505D01*
X163142554Y-123360500D01*
X163014499Y-123232445D01*
X163014494Y-123232441D01*
X162867997Y-123126006D01*
X162867996Y-123126005D01*
X162867994Y-123126004D01*
X162816300Y-123099664D01*
X162706639Y-123043788D01*
X162706636Y-123043787D01*
X162534410Y-122987829D01*
X162374321Y-122962473D01*
X162311186Y-122932544D01*
X162274255Y-122873232D01*
X162275253Y-122803370D01*
X162313863Y-122745137D01*
X162374321Y-122717527D01*
X162444425Y-122706422D01*
X162534409Y-122692171D01*
X162706639Y-122636211D01*
X162867994Y-122553996D01*
X163014501Y-122447553D01*
X163142553Y-122319501D01*
X163150180Y-122309003D01*
X163205508Y-122266336D01*
X163275121Y-122260355D01*
X163336917Y-122292959D01*
G37*
%TD.AperFunction*%
%TA.AperFunction,NonConductor*%
G36*
X159595703Y-127087541D02*
G01*
X159602181Y-127093573D01*
X161159325Y-128650717D01*
X161192810Y-128712040D01*
X161189575Y-128776715D01*
X161142829Y-128920587D01*
X161114500Y-129099448D01*
X161114500Y-129280551D01*
X161142829Y-129459410D01*
X161198787Y-129631636D01*
X161198788Y-129631639D01*
X161281006Y-129792997D01*
X161376361Y-129924244D01*
X161376365Y-129924248D01*
X161387447Y-129939501D01*
X161515499Y-130067553D01*
X161530751Y-130078634D01*
X161530755Y-130078638D01*
X161649926Y-130165219D01*
X161662006Y-130173996D01*
X161767484Y-130227740D01*
X161823360Y-130256211D01*
X161823363Y-130256212D01*
X161909476Y-130284191D01*
X161995591Y-130312171D01*
X162068639Y-130323740D01*
X162155678Y-130337527D01*
X162218813Y-130367456D01*
X162255744Y-130426768D01*
X162254746Y-130496631D01*
X162216136Y-130554863D01*
X162155678Y-130582473D01*
X161995587Y-130607829D01*
X161851716Y-130654575D01*
X161781875Y-130656570D01*
X161725718Y-130624325D01*
X159426819Y-128325426D01*
X159393334Y-128264103D01*
X159390500Y-128237745D01*
X159390500Y-127181254D01*
X159410185Y-127114215D01*
X159462989Y-127068460D01*
X159532147Y-127058516D01*
X159595703Y-127087541D01*
G37*
%TD.AperFunction*%
%TA.AperFunction,NonConductor*%
G36*
X147046384Y-127297522D02*
G01*
X147102317Y-127339394D01*
X147126734Y-127404858D01*
X147127050Y-127413704D01*
X147127050Y-128470194D01*
X147107365Y-128537233D01*
X147090731Y-128557875D01*
X146016970Y-129631636D01*
X145423349Y-130225257D01*
X145387702Y-130260904D01*
X145387699Y-130260905D01*
X145024280Y-130624325D01*
X144962957Y-130657810D01*
X144898281Y-130654575D01*
X144754410Y-130607829D01*
X144594321Y-130582473D01*
X144531186Y-130552544D01*
X144494255Y-130493232D01*
X144495253Y-130423370D01*
X144533863Y-130365137D01*
X144594321Y-130337527D01*
X144664425Y-130326422D01*
X144754409Y-130312171D01*
X144926639Y-130256211D01*
X145087994Y-130173996D01*
X145234501Y-130067553D01*
X145362553Y-129939501D01*
X145468996Y-129792994D01*
X145551211Y-129631639D01*
X145607171Y-129459409D01*
X145621765Y-129367259D01*
X145635500Y-129280551D01*
X145635500Y-129099448D01*
X145619019Y-128995397D01*
X145607171Y-128920591D01*
X145560424Y-128776715D01*
X145558429Y-128706875D01*
X145590672Y-128650719D01*
X146915370Y-127326021D01*
X146976692Y-127292538D01*
X147046384Y-127297522D01*
G37*
%TD.AperFunction*%
%TA.AperFunction,NonConductor*%
G36*
X143580703Y-129908173D02*
G01*
X143599821Y-129929004D01*
X143607446Y-129939500D01*
X143735500Y-130067554D01*
X143735505Y-130067558D01*
X143863287Y-130160396D01*
X143882006Y-130173996D01*
X143987484Y-130227740D01*
X144043360Y-130256211D01*
X144043363Y-130256212D01*
X144129476Y-130284191D01*
X144215591Y-130312171D01*
X144288639Y-130323740D01*
X144375678Y-130337527D01*
X144438813Y-130367456D01*
X144475744Y-130426768D01*
X144474746Y-130496631D01*
X144436136Y-130554863D01*
X144375678Y-130582473D01*
X144215589Y-130607829D01*
X144043363Y-130663787D01*
X144043360Y-130663788D01*
X143882002Y-130746006D01*
X143735505Y-130852441D01*
X143735500Y-130852445D01*
X143607445Y-130980500D01*
X143607441Y-130980505D01*
X143599818Y-130990998D01*
X143544488Y-131033664D01*
X143474875Y-131039643D01*
X143413080Y-131007037D01*
X143378723Y-130946199D01*
X143375500Y-130918113D01*
X143375500Y-130001886D01*
X143395185Y-129934847D01*
X143447989Y-129889092D01*
X143517147Y-129879148D01*
X143580703Y-129908173D01*
G37*
%TD.AperFunction*%
%TA.AperFunction,NonConductor*%
G36*
X163336917Y-129912959D02*
G01*
X163371277Y-129973796D01*
X163374500Y-130001886D01*
X163374500Y-130918113D01*
X163354815Y-130985152D01*
X163302011Y-131030907D01*
X163232853Y-131040851D01*
X163169297Y-131011826D01*
X163150182Y-130990998D01*
X163142558Y-130980505D01*
X163142554Y-130980500D01*
X163014499Y-130852445D01*
X163014494Y-130852441D01*
X162867997Y-130746006D01*
X162867996Y-130746005D01*
X162867994Y-130746004D01*
X162816300Y-130719664D01*
X162706639Y-130663788D01*
X162706636Y-130663787D01*
X162534410Y-130607829D01*
X162374321Y-130582473D01*
X162311186Y-130552544D01*
X162274255Y-130493232D01*
X162275253Y-130423370D01*
X162313863Y-130365137D01*
X162374321Y-130337527D01*
X162444425Y-130326422D01*
X162534409Y-130312171D01*
X162706639Y-130256211D01*
X162867994Y-130173996D01*
X163014501Y-130067553D01*
X163142553Y-129939501D01*
X163150180Y-129929003D01*
X163205508Y-129886336D01*
X163275121Y-129880355D01*
X163336917Y-129912959D01*
G37*
%TD.AperFunction*%
M02*
