%TF.GenerationSoftware,KiCad,Pcbnew,9.0.6*%
%TF.CreationDate,2025-12-22T21:29:59-08:00*%
%TF.ProjectId,Devboard,44657662-6f61-4726-942e-6b696361645f,rev?*%
%TF.SameCoordinates,Original*%
%TF.FileFunction,Drillmap*%
%TF.FilePolarity,Positive*%
%FSLAX45Y45*%
G04 Gerber Fmt 4.5, Leading zero omitted, Abs format (unit mm)*
G04 Created by KiCad (PCBNEW 9.0.6) date 2025-12-22 21:29:59*
%MOMM*%
%LPD*%
G01*
G04 APERTURE LIST*
%ADD10C,0.050000*%
%ADD11C,0.200000*%
%ADD12C,0.100000*%
G04 APERTURE END LIST*
D10*
X14287500Y-8210000D02*
X16387500Y-8210000D01*
X16387500Y-13310000D01*
X14287500Y-13310000D01*
X14287500Y-8210000D01*
D11*
D12*
X14607500Y-9400000D02*
X14637500Y-9430000D01*
X14637500Y-9400000D02*
X14607500Y-9430000D01*
X14627500Y-9590000D02*
X14657500Y-9620000D01*
X14657500Y-9590000D02*
X14627500Y-9620000D01*
X14658301Y-11265000D02*
X14688301Y-11295000D01*
X14688301Y-11265000D02*
X14658301Y-11295000D01*
X14776500Y-10985000D02*
X14806500Y-11015000D01*
X14806500Y-10985000D02*
X14776500Y-11015000D01*
X14778926Y-10902573D02*
X14808926Y-10932573D01*
X14808926Y-10902573D02*
X14778926Y-10932573D01*
X14827500Y-11780000D02*
X14857500Y-11810000D01*
X14857500Y-11780000D02*
X14827500Y-11810000D01*
X14858505Y-10894374D02*
X14888505Y-10924374D01*
X14888505Y-10894374D02*
X14858505Y-10924374D01*
X14867500Y-10660000D02*
X14897500Y-10690000D01*
X14897500Y-10660000D02*
X14867500Y-10690000D01*
X14877500Y-9400000D02*
X14907500Y-9430000D01*
X14907500Y-9400000D02*
X14877500Y-9430000D01*
X14877500Y-9490000D02*
X14907500Y-9520000D01*
X14907500Y-9490000D02*
X14877500Y-9520000D01*
X14877500Y-9590000D02*
X14907500Y-9620000D01*
X14907500Y-9590000D02*
X14877500Y-9620000D01*
X14887500Y-10060000D02*
X14917500Y-10090000D01*
X14917500Y-10060000D02*
X14887500Y-10090000D01*
X14942926Y-10474574D02*
X14972926Y-10504574D01*
X14972926Y-10474574D02*
X14942926Y-10504574D01*
X14987500Y-10770000D02*
X15017500Y-10800000D01*
X15017500Y-10770000D02*
X14987500Y-10800000D01*
X15054045Y-10130000D02*
X15084045Y-10160000D01*
X15084045Y-10130000D02*
X15054045Y-10160000D01*
X15067500Y-9870000D02*
X15097500Y-9900000D01*
X15097500Y-9870000D02*
X15067500Y-9900000D01*
X15071607Y-11390102D02*
X15101607Y-11420102D01*
X15101607Y-11390102D02*
X15071607Y-11420102D01*
X15127500Y-11140000D02*
X15157500Y-11170000D01*
X15157500Y-11140000D02*
X15127500Y-11170000D01*
X15137500Y-10980000D02*
X15167500Y-11010000D01*
X15167500Y-10980000D02*
X15137500Y-11010000D01*
X15138500Y-11713853D02*
X15168500Y-11743853D01*
X15168500Y-11713853D02*
X15138500Y-11743853D01*
X15223765Y-11406493D02*
X15253765Y-11436493D01*
X15253765Y-11406493D02*
X15223765Y-11436493D01*
X15244000Y-10305759D02*
X15274000Y-10335759D01*
X15274000Y-10305759D02*
X15244000Y-10335759D01*
X15267500Y-9370000D02*
X15297500Y-9400000D01*
X15297500Y-9370000D02*
X15267500Y-9400000D01*
X15267500Y-9460000D02*
X15297500Y-9490000D01*
X15297500Y-9460000D02*
X15267500Y-9490000D01*
X15267500Y-9560000D02*
X15297500Y-9590000D01*
X15297500Y-9560000D02*
X15267500Y-9590000D01*
X15322500Y-11145000D02*
X15352500Y-11175000D01*
X15352500Y-11145000D02*
X15322500Y-11175000D01*
X15327500Y-10960000D02*
X15357500Y-10990000D01*
X15357500Y-10960000D02*
X15327500Y-10990000D01*
X15347500Y-10150000D02*
X15377500Y-10180000D01*
X15377500Y-10150000D02*
X15347500Y-10180000D01*
X15362500Y-10721408D02*
X15392500Y-10751408D01*
X15392500Y-10721408D02*
X15362500Y-10751408D01*
X15367353Y-11355000D02*
X15397353Y-11385000D01*
X15397353Y-11355000D02*
X15367353Y-11385000D01*
X15384939Y-10463208D02*
X15414939Y-10493208D01*
X15414939Y-10463208D02*
X15384939Y-10493208D01*
X15433674Y-10233674D02*
X15463674Y-10263674D01*
X15463674Y-10233674D02*
X15433674Y-10263674D01*
X15445810Y-11373457D02*
X15475810Y-11403457D01*
X15475810Y-11373457D02*
X15445810Y-11403457D01*
X15461356Y-10895000D02*
X15491356Y-10925000D01*
X15491356Y-10895000D02*
X15461356Y-10925000D01*
X15521356Y-10990000D02*
X15551356Y-11020000D01*
X15551356Y-10990000D02*
X15521356Y-11020000D01*
X15521356Y-11110000D02*
X15551356Y-11140000D01*
X15551356Y-11110000D02*
X15521356Y-11140000D01*
X15521356Y-11230000D02*
X15551356Y-11260000D01*
X15551356Y-11230000D02*
X15521356Y-11260000D01*
X15549500Y-10140000D02*
X15579500Y-10170000D01*
X15579500Y-10140000D02*
X15549500Y-10170000D01*
X15572173Y-9870000D02*
X15602173Y-9900000D01*
X15602173Y-9870000D02*
X15572173Y-9900000D01*
X15572618Y-11333926D02*
X15602618Y-11363926D01*
X15602618Y-11333926D02*
X15572618Y-11363926D01*
X15655000Y-8955000D02*
X15685000Y-8985000D01*
X15685000Y-8955000D02*
X15655000Y-8985000D01*
X15665000Y-8455000D02*
X15695000Y-8485000D01*
X15695000Y-8455000D02*
X15665000Y-8485000D01*
X15667500Y-11660000D02*
X15697500Y-11690000D01*
X15697500Y-11660000D02*
X15667500Y-11690000D01*
X15675000Y-10425000D02*
X15705000Y-10455000D01*
X15705000Y-10425000D02*
X15675000Y-10455000D01*
X15755000Y-10305000D02*
X15785000Y-10335000D01*
X15785000Y-10305000D02*
X15755000Y-10335000D01*
X15757500Y-11630000D02*
X15787500Y-11660000D01*
X15787500Y-11630000D02*
X15757500Y-11660000D01*
X15773500Y-10600323D02*
X15803500Y-10630323D01*
X15803500Y-10600323D02*
X15773500Y-10630323D01*
X15817500Y-10495000D02*
X15847500Y-10525000D01*
X15847500Y-10495000D02*
X15817500Y-10525000D01*
X15822324Y-10904305D02*
X15852324Y-10934305D01*
X15852324Y-10904305D02*
X15822324Y-10934305D01*
X15891200Y-10945000D02*
X15921200Y-10975000D01*
X15921200Y-10945000D02*
X15891200Y-10975000D01*
X15935000Y-8345000D02*
X15965000Y-8375000D01*
X15965000Y-8345000D02*
X15935000Y-8375000D01*
X16026500Y-11255644D02*
X16056500Y-11285644D01*
X16056500Y-11255644D02*
X16026500Y-11285644D01*
X16144500Y-11515000D02*
X16174500Y-11545000D01*
X16174500Y-11515000D02*
X16144500Y-11545000D01*
X16285000Y-11505000D02*
X16315000Y-11535000D01*
X16315000Y-11505000D02*
X16285000Y-11535000D01*
X14935500Y-8355000D02*
G75*
G02*
X14875500Y-8355000I-30000J0D01*
G01*
X14875500Y-8355000D02*
G75*
G02*
X14935500Y-8355000I30000J0D01*
G01*
X14935500Y-8385000D02*
X14935500Y-8325000D01*
X14875500Y-8325000D02*
G75*
G02*
X14935500Y-8325000I30000J0D01*
G01*
X14875500Y-8325000D02*
X14875500Y-8385000D01*
X14875500Y-8385000D02*
G75*
G03*
X14935500Y-8385000I30000J0D01*
G01*
X14935500Y-8773000D02*
G75*
G02*
X14875500Y-8773000I-30000J0D01*
G01*
X14875500Y-8773000D02*
G75*
G02*
X14935500Y-8773000I30000J0D01*
G01*
X14935500Y-8828000D02*
X14935500Y-8718000D01*
X14875500Y-8718000D02*
G75*
G02*
X14935500Y-8718000I30000J0D01*
G01*
X14875500Y-8718000D02*
X14875500Y-8828000D01*
X14875500Y-8828000D02*
G75*
G03*
X14935500Y-8828000I30000J0D01*
G01*
X15799500Y-8355000D02*
G75*
G02*
X15739500Y-8355000I-30000J0D01*
G01*
X15739500Y-8355000D02*
G75*
G02*
X15799500Y-8355000I30000J0D01*
G01*
X15799500Y-8385000D02*
X15799500Y-8325000D01*
X15739500Y-8325000D02*
G75*
G02*
X15799500Y-8325000I30000J0D01*
G01*
X15739500Y-8325000D02*
X15739500Y-8385000D01*
X15739500Y-8385000D02*
G75*
G03*
X15799500Y-8385000I30000J0D01*
G01*
X15799500Y-8773000D02*
G75*
G02*
X15739500Y-8773000I-30000J0D01*
G01*
X15739500Y-8773000D02*
G75*
G02*
X15799500Y-8773000I30000J0D01*
G01*
X15799500Y-8828000D02*
X15799500Y-8718000D01*
X15739500Y-8718000D02*
G75*
G02*
X15799500Y-8718000I30000J0D01*
G01*
X15739500Y-8718000D02*
X15739500Y-8828000D01*
X15739500Y-8828000D02*
G75*
G03*
X15799500Y-8828000I30000J0D01*
G01*
X14448500Y-8297000D02*
X14448500Y-8397000D01*
X14398500Y-8347000D02*
X14498500Y-8347000D01*
X14448500Y-8551000D02*
X14448500Y-8651000D01*
X14398500Y-8601000D02*
X14498500Y-8601000D01*
X14448500Y-8805000D02*
X14448500Y-8905000D01*
X14398500Y-8855000D02*
X14498500Y-8855000D01*
X14448500Y-9059000D02*
X14448500Y-9159000D01*
X14398500Y-9109000D02*
X14498500Y-9109000D01*
X14448500Y-9313000D02*
X14448500Y-9413000D01*
X14398500Y-9363000D02*
X14498500Y-9363000D01*
X14448500Y-9567000D02*
X14448500Y-9667000D01*
X14398500Y-9617000D02*
X14498500Y-9617000D01*
X14448500Y-9821000D02*
X14448500Y-9921000D01*
X14398500Y-9871000D02*
X14498500Y-9871000D01*
X14448500Y-10075000D02*
X14448500Y-10175000D01*
X14398500Y-10125000D02*
X14498500Y-10125000D01*
X14448500Y-10329000D02*
X14448500Y-10429000D01*
X14398500Y-10379000D02*
X14498500Y-10379000D01*
X14448500Y-10583000D02*
X14448500Y-10683000D01*
X14398500Y-10633000D02*
X14498500Y-10633000D01*
X14448500Y-10837000D02*
X14448500Y-10937000D01*
X14398500Y-10887000D02*
X14498500Y-10887000D01*
X14448500Y-11091000D02*
X14448500Y-11191000D01*
X14398500Y-11141000D02*
X14498500Y-11141000D01*
X14448500Y-11345000D02*
X14448500Y-11445000D01*
X14398500Y-11395000D02*
X14498500Y-11395000D01*
X14448500Y-11599000D02*
X14448500Y-11699000D01*
X14398500Y-11649000D02*
X14498500Y-11649000D01*
X14448500Y-11853000D02*
X14448500Y-11953000D01*
X14398500Y-11903000D02*
X14498500Y-11903000D01*
X14448500Y-12107000D02*
X14448500Y-12207000D01*
X14398500Y-12157000D02*
X14498500Y-12157000D01*
X14448500Y-12361000D02*
X14448500Y-12461000D01*
X14398500Y-12411000D02*
X14498500Y-12411000D01*
X14448500Y-12615000D02*
X14448500Y-12715000D01*
X14398500Y-12665000D02*
X14498500Y-12665000D01*
X14448500Y-12869000D02*
X14448500Y-12969000D01*
X14398500Y-12919000D02*
X14498500Y-12919000D01*
X14448500Y-13123000D02*
X14448500Y-13223000D01*
X14398500Y-13173000D02*
X14498500Y-13173000D01*
X15083500Y-13099000D02*
X15083500Y-13199000D01*
X15033500Y-13149000D02*
X15133500Y-13149000D01*
X15337500Y-13099000D02*
X15337500Y-13199000D01*
X15287500Y-13149000D02*
X15387500Y-13149000D01*
X15591500Y-13099000D02*
X15591500Y-13199000D01*
X15541500Y-13149000D02*
X15641500Y-13149000D01*
X16226500Y-8297000D02*
X16226500Y-8397000D01*
X16176500Y-8347000D02*
X16276500Y-8347000D01*
X16226500Y-8551000D02*
X16226500Y-8651000D01*
X16176500Y-8601000D02*
X16276500Y-8601000D01*
X16226500Y-8805000D02*
X16226500Y-8905000D01*
X16176500Y-8855000D02*
X16276500Y-8855000D01*
X16226500Y-9059000D02*
X16226500Y-9159000D01*
X16176500Y-9109000D02*
X16276500Y-9109000D01*
X16226500Y-9313000D02*
X16226500Y-9413000D01*
X16176500Y-9363000D02*
X16276500Y-9363000D01*
X16226500Y-9567000D02*
X16226500Y-9667000D01*
X16176500Y-9617000D02*
X16276500Y-9617000D01*
X16226500Y-9821000D02*
X16226500Y-9921000D01*
X16176500Y-9871000D02*
X16276500Y-9871000D01*
X16226500Y-10075000D02*
X16226500Y-10175000D01*
X16176500Y-10125000D02*
X16276500Y-10125000D01*
X16226500Y-10329000D02*
X16226500Y-10429000D01*
X16176500Y-10379000D02*
X16276500Y-10379000D01*
X16226500Y-10583000D02*
X16226500Y-10683000D01*
X16176500Y-10633000D02*
X16276500Y-10633000D01*
X16226500Y-10837000D02*
X16226500Y-10937000D01*
X16176500Y-10887000D02*
X16276500Y-10887000D01*
X16226500Y-11091000D02*
X16226500Y-11191000D01*
X16176500Y-11141000D02*
X16276500Y-11141000D01*
X16226500Y-11345000D02*
X16226500Y-11445000D01*
X16176500Y-11395000D02*
X16276500Y-11395000D01*
X16226500Y-11599000D02*
X16226500Y-11699000D01*
X16176500Y-11649000D02*
X16276500Y-11649000D01*
X16226500Y-11853000D02*
X16226500Y-11953000D01*
X16176500Y-11903000D02*
X16276500Y-11903000D01*
X16226500Y-12107000D02*
X16226500Y-12207000D01*
X16176500Y-12157000D02*
X16276500Y-12157000D01*
X16226500Y-12361000D02*
X16226500Y-12461000D01*
X16176500Y-12411000D02*
X16276500Y-12411000D01*
X16226500Y-12615000D02*
X16226500Y-12715000D01*
X16176500Y-12665000D02*
X16276500Y-12665000D01*
X16226500Y-12869000D02*
X16226500Y-12969000D01*
X16176500Y-12919000D02*
X16276500Y-12919000D01*
X16226500Y-13123000D02*
X16226500Y-13223000D01*
X16176500Y-13173000D02*
X16276500Y-13173000D01*
D11*
X14545777Y-13623984D02*
X14545777Y-13423984D01*
X14545777Y-13423984D02*
X14593396Y-13423984D01*
X14593396Y-13423984D02*
X14621967Y-13433508D01*
X14621967Y-13433508D02*
X14641015Y-13452555D01*
X14641015Y-13452555D02*
X14650539Y-13471603D01*
X14650539Y-13471603D02*
X14660062Y-13509698D01*
X14660062Y-13509698D02*
X14660062Y-13538269D01*
X14660062Y-13538269D02*
X14650539Y-13576365D01*
X14650539Y-13576365D02*
X14641015Y-13595412D01*
X14641015Y-13595412D02*
X14621967Y-13614460D01*
X14621967Y-13614460D02*
X14593396Y-13623984D01*
X14593396Y-13623984D02*
X14545777Y-13623984D01*
X14745777Y-13623984D02*
X14745777Y-13490650D01*
X14745777Y-13528746D02*
X14755301Y-13509698D01*
X14755301Y-13509698D02*
X14764824Y-13500174D01*
X14764824Y-13500174D02*
X14783872Y-13490650D01*
X14783872Y-13490650D02*
X14802920Y-13490650D01*
X14869586Y-13623984D02*
X14869586Y-13490650D01*
X14869586Y-13423984D02*
X14860062Y-13433508D01*
X14860062Y-13433508D02*
X14869586Y-13443031D01*
X14869586Y-13443031D02*
X14879110Y-13433508D01*
X14879110Y-13433508D02*
X14869586Y-13423984D01*
X14869586Y-13423984D02*
X14869586Y-13443031D01*
X14993396Y-13623984D02*
X14974348Y-13614460D01*
X14974348Y-13614460D02*
X14964824Y-13595412D01*
X14964824Y-13595412D02*
X14964824Y-13423984D01*
X15098158Y-13623984D02*
X15079110Y-13614460D01*
X15079110Y-13614460D02*
X15069586Y-13595412D01*
X15069586Y-13595412D02*
X15069586Y-13423984D01*
X15326729Y-13623984D02*
X15326729Y-13423984D01*
X15326729Y-13423984D02*
X15393396Y-13566841D01*
X15393396Y-13566841D02*
X15460062Y-13423984D01*
X15460062Y-13423984D02*
X15460062Y-13623984D01*
X15641015Y-13623984D02*
X15641015Y-13519222D01*
X15641015Y-13519222D02*
X15631491Y-13500174D01*
X15631491Y-13500174D02*
X15612443Y-13490650D01*
X15612443Y-13490650D02*
X15574348Y-13490650D01*
X15574348Y-13490650D02*
X15555301Y-13500174D01*
X15641015Y-13614460D02*
X15621967Y-13623984D01*
X15621967Y-13623984D02*
X15574348Y-13623984D01*
X15574348Y-13623984D02*
X15555301Y-13614460D01*
X15555301Y-13614460D02*
X15545777Y-13595412D01*
X15545777Y-13595412D02*
X15545777Y-13576365D01*
X15545777Y-13576365D02*
X15555301Y-13557317D01*
X15555301Y-13557317D02*
X15574348Y-13547793D01*
X15574348Y-13547793D02*
X15621967Y-13547793D01*
X15621967Y-13547793D02*
X15641015Y-13538269D01*
X15736253Y-13490650D02*
X15736253Y-13690650D01*
X15736253Y-13500174D02*
X15755301Y-13490650D01*
X15755301Y-13490650D02*
X15793396Y-13490650D01*
X15793396Y-13490650D02*
X15812443Y-13500174D01*
X15812443Y-13500174D02*
X15821967Y-13509698D01*
X15821967Y-13509698D02*
X15831491Y-13528746D01*
X15831491Y-13528746D02*
X15831491Y-13585888D01*
X15831491Y-13585888D02*
X15821967Y-13604936D01*
X15821967Y-13604936D02*
X15812443Y-13614460D01*
X15812443Y-13614460D02*
X15793396Y-13623984D01*
X15793396Y-13623984D02*
X15755301Y-13623984D01*
X15755301Y-13623984D02*
X15736253Y-13614460D01*
X15917205Y-13604936D02*
X15926729Y-13614460D01*
X15926729Y-13614460D02*
X15917205Y-13623984D01*
X15917205Y-13623984D02*
X15907682Y-13614460D01*
X15907682Y-13614460D02*
X15917205Y-13604936D01*
X15917205Y-13604936D02*
X15917205Y-13623984D01*
X15917205Y-13500174D02*
X15926729Y-13509698D01*
X15926729Y-13509698D02*
X15917205Y-13519222D01*
X15917205Y-13519222D02*
X15907682Y-13509698D01*
X15907682Y-13509698D02*
X15917205Y-13500174D01*
X15917205Y-13500174D02*
X15917205Y-13519222D01*
D12*
X14255000Y-13937500D02*
X14285000Y-13967500D01*
X14285000Y-13937500D02*
X14255000Y-13967500D01*
D11*
X14583872Y-13843984D02*
X14602920Y-13843984D01*
X14602920Y-13843984D02*
X14621967Y-13853508D01*
X14621967Y-13853508D02*
X14631491Y-13863031D01*
X14631491Y-13863031D02*
X14641015Y-13882079D01*
X14641015Y-13882079D02*
X14650539Y-13920174D01*
X14650539Y-13920174D02*
X14650539Y-13967793D01*
X14650539Y-13967793D02*
X14641015Y-14005888D01*
X14641015Y-14005888D02*
X14631491Y-14024936D01*
X14631491Y-14024936D02*
X14621967Y-14034460D01*
X14621967Y-14034460D02*
X14602920Y-14043984D01*
X14602920Y-14043984D02*
X14583872Y-14043984D01*
X14583872Y-14043984D02*
X14564824Y-14034460D01*
X14564824Y-14034460D02*
X14555301Y-14024936D01*
X14555301Y-14024936D02*
X14545777Y-14005888D01*
X14545777Y-14005888D02*
X14536253Y-13967793D01*
X14536253Y-13967793D02*
X14536253Y-13920174D01*
X14536253Y-13920174D02*
X14545777Y-13882079D01*
X14545777Y-13882079D02*
X14555301Y-13863031D01*
X14555301Y-13863031D02*
X14564824Y-13853508D01*
X14564824Y-13853508D02*
X14583872Y-13843984D01*
X14736253Y-14024936D02*
X14745777Y-14034460D01*
X14745777Y-14034460D02*
X14736253Y-14043984D01*
X14736253Y-14043984D02*
X14726729Y-14034460D01*
X14726729Y-14034460D02*
X14736253Y-14024936D01*
X14736253Y-14024936D02*
X14736253Y-14043984D01*
X14812443Y-13843984D02*
X14936253Y-13843984D01*
X14936253Y-13843984D02*
X14869586Y-13920174D01*
X14869586Y-13920174D02*
X14898158Y-13920174D01*
X14898158Y-13920174D02*
X14917205Y-13929698D01*
X14917205Y-13929698D02*
X14926729Y-13939222D01*
X14926729Y-13939222D02*
X14936253Y-13958269D01*
X14936253Y-13958269D02*
X14936253Y-14005888D01*
X14936253Y-14005888D02*
X14926729Y-14024936D01*
X14926729Y-14024936D02*
X14917205Y-14034460D01*
X14917205Y-14034460D02*
X14898158Y-14043984D01*
X14898158Y-14043984D02*
X14841015Y-14043984D01*
X14841015Y-14043984D02*
X14821967Y-14034460D01*
X14821967Y-14034460D02*
X14812443Y-14024936D01*
X15060062Y-13843984D02*
X15079110Y-13843984D01*
X15079110Y-13843984D02*
X15098158Y-13853508D01*
X15098158Y-13853508D02*
X15107682Y-13863031D01*
X15107682Y-13863031D02*
X15117205Y-13882079D01*
X15117205Y-13882079D02*
X15126729Y-13920174D01*
X15126729Y-13920174D02*
X15126729Y-13967793D01*
X15126729Y-13967793D02*
X15117205Y-14005888D01*
X15117205Y-14005888D02*
X15107682Y-14024936D01*
X15107682Y-14024936D02*
X15098158Y-14034460D01*
X15098158Y-14034460D02*
X15079110Y-14043984D01*
X15079110Y-14043984D02*
X15060062Y-14043984D01*
X15060062Y-14043984D02*
X15041015Y-14034460D01*
X15041015Y-14034460D02*
X15031491Y-14024936D01*
X15031491Y-14024936D02*
X15021967Y-14005888D01*
X15021967Y-14005888D02*
X15012443Y-13967793D01*
X15012443Y-13967793D02*
X15012443Y-13920174D01*
X15012443Y-13920174D02*
X15021967Y-13882079D01*
X15021967Y-13882079D02*
X15031491Y-13863031D01*
X15031491Y-13863031D02*
X15041015Y-13853508D01*
X15041015Y-13853508D02*
X15060062Y-13843984D01*
X15250539Y-13843984D02*
X15269586Y-13843984D01*
X15269586Y-13843984D02*
X15288634Y-13853508D01*
X15288634Y-13853508D02*
X15298158Y-13863031D01*
X15298158Y-13863031D02*
X15307682Y-13882079D01*
X15307682Y-13882079D02*
X15317205Y-13920174D01*
X15317205Y-13920174D02*
X15317205Y-13967793D01*
X15317205Y-13967793D02*
X15307682Y-14005888D01*
X15307682Y-14005888D02*
X15298158Y-14024936D01*
X15298158Y-14024936D02*
X15288634Y-14034460D01*
X15288634Y-14034460D02*
X15269586Y-14043984D01*
X15269586Y-14043984D02*
X15250539Y-14043984D01*
X15250539Y-14043984D02*
X15231491Y-14034460D01*
X15231491Y-14034460D02*
X15221967Y-14024936D01*
X15221967Y-14024936D02*
X15212443Y-14005888D01*
X15212443Y-14005888D02*
X15202920Y-13967793D01*
X15202920Y-13967793D02*
X15202920Y-13920174D01*
X15202920Y-13920174D02*
X15212443Y-13882079D01*
X15212443Y-13882079D02*
X15221967Y-13863031D01*
X15221967Y-13863031D02*
X15231491Y-13853508D01*
X15231491Y-13853508D02*
X15250539Y-13843984D01*
X15402920Y-14043984D02*
X15402920Y-13910650D01*
X15402920Y-13929698D02*
X15412443Y-13920174D01*
X15412443Y-13920174D02*
X15431491Y-13910650D01*
X15431491Y-13910650D02*
X15460063Y-13910650D01*
X15460063Y-13910650D02*
X15479110Y-13920174D01*
X15479110Y-13920174D02*
X15488634Y-13939222D01*
X15488634Y-13939222D02*
X15488634Y-14043984D01*
X15488634Y-13939222D02*
X15498158Y-13920174D01*
X15498158Y-13920174D02*
X15517205Y-13910650D01*
X15517205Y-13910650D02*
X15545777Y-13910650D01*
X15545777Y-13910650D02*
X15564824Y-13920174D01*
X15564824Y-13920174D02*
X15574348Y-13939222D01*
X15574348Y-13939222D02*
X15574348Y-14043984D01*
X15669586Y-14043984D02*
X15669586Y-13910650D01*
X15669586Y-13929698D02*
X15679110Y-13920174D01*
X15679110Y-13920174D02*
X15698158Y-13910650D01*
X15698158Y-13910650D02*
X15726729Y-13910650D01*
X15726729Y-13910650D02*
X15745777Y-13920174D01*
X15745777Y-13920174D02*
X15755301Y-13939222D01*
X15755301Y-13939222D02*
X15755301Y-14043984D01*
X15755301Y-13939222D02*
X15764824Y-13920174D01*
X15764824Y-13920174D02*
X15783872Y-13910650D01*
X15783872Y-13910650D02*
X15812443Y-13910650D01*
X15812443Y-13910650D02*
X15831491Y-13920174D01*
X15831491Y-13920174D02*
X15841015Y-13939222D01*
X15841015Y-13939222D02*
X15841015Y-14043984D01*
X16231491Y-13834460D02*
X16060063Y-14091603D01*
X16488634Y-13843984D02*
X16507682Y-13843984D01*
X16507682Y-13843984D02*
X16526729Y-13853508D01*
X16526729Y-13853508D02*
X16536253Y-13863031D01*
X16536253Y-13863031D02*
X16545777Y-13882079D01*
X16545777Y-13882079D02*
X16555301Y-13920174D01*
X16555301Y-13920174D02*
X16555301Y-13967793D01*
X16555301Y-13967793D02*
X16545777Y-14005888D01*
X16545777Y-14005888D02*
X16536253Y-14024936D01*
X16536253Y-14024936D02*
X16526729Y-14034460D01*
X16526729Y-14034460D02*
X16507682Y-14043984D01*
X16507682Y-14043984D02*
X16488634Y-14043984D01*
X16488634Y-14043984D02*
X16469586Y-14034460D01*
X16469586Y-14034460D02*
X16460063Y-14024936D01*
X16460063Y-14024936D02*
X16450539Y-14005888D01*
X16450539Y-14005888D02*
X16441015Y-13967793D01*
X16441015Y-13967793D02*
X16441015Y-13920174D01*
X16441015Y-13920174D02*
X16450539Y-13882079D01*
X16450539Y-13882079D02*
X16460063Y-13863031D01*
X16460063Y-13863031D02*
X16469586Y-13853508D01*
X16469586Y-13853508D02*
X16488634Y-13843984D01*
X16641015Y-14024936D02*
X16650539Y-14034460D01*
X16650539Y-14034460D02*
X16641015Y-14043984D01*
X16641015Y-14043984D02*
X16631491Y-14034460D01*
X16631491Y-14034460D02*
X16641015Y-14024936D01*
X16641015Y-14024936D02*
X16641015Y-14043984D01*
X16774348Y-13843984D02*
X16793396Y-13843984D01*
X16793396Y-13843984D02*
X16812444Y-13853508D01*
X16812444Y-13853508D02*
X16821968Y-13863031D01*
X16821968Y-13863031D02*
X16831491Y-13882079D01*
X16831491Y-13882079D02*
X16841015Y-13920174D01*
X16841015Y-13920174D02*
X16841015Y-13967793D01*
X16841015Y-13967793D02*
X16831491Y-14005888D01*
X16831491Y-14005888D02*
X16821968Y-14024936D01*
X16821968Y-14024936D02*
X16812444Y-14034460D01*
X16812444Y-14034460D02*
X16793396Y-14043984D01*
X16793396Y-14043984D02*
X16774348Y-14043984D01*
X16774348Y-14043984D02*
X16755301Y-14034460D01*
X16755301Y-14034460D02*
X16745777Y-14024936D01*
X16745777Y-14024936D02*
X16736253Y-14005888D01*
X16736253Y-14005888D02*
X16726729Y-13967793D01*
X16726729Y-13967793D02*
X16726729Y-13920174D01*
X16726729Y-13920174D02*
X16736253Y-13882079D01*
X16736253Y-13882079D02*
X16745777Y-13863031D01*
X16745777Y-13863031D02*
X16755301Y-13853508D01*
X16755301Y-13853508D02*
X16774348Y-13843984D01*
X17031491Y-14043984D02*
X16917206Y-14043984D01*
X16974348Y-14043984D02*
X16974348Y-13843984D01*
X16974348Y-13843984D02*
X16955301Y-13872555D01*
X16955301Y-13872555D02*
X16936253Y-13891603D01*
X16936253Y-13891603D02*
X16917206Y-13901127D01*
X17221968Y-14043984D02*
X17107682Y-14043984D01*
X17164825Y-14043984D02*
X17164825Y-13843984D01*
X17164825Y-13843984D02*
X17145777Y-13872555D01*
X17145777Y-13872555D02*
X17126729Y-13891603D01*
X17126729Y-13891603D02*
X17107682Y-13901127D01*
X17336253Y-13929698D02*
X17317206Y-13920174D01*
X17317206Y-13920174D02*
X17307682Y-13910650D01*
X17307682Y-13910650D02*
X17298158Y-13891603D01*
X17298158Y-13891603D02*
X17298158Y-13882079D01*
X17298158Y-13882079D02*
X17307682Y-13863031D01*
X17307682Y-13863031D02*
X17317206Y-13853508D01*
X17317206Y-13853508D02*
X17336253Y-13843984D01*
X17336253Y-13843984D02*
X17374349Y-13843984D01*
X17374349Y-13843984D02*
X17393396Y-13853508D01*
X17393396Y-13853508D02*
X17402920Y-13863031D01*
X17402920Y-13863031D02*
X17412444Y-13882079D01*
X17412444Y-13882079D02*
X17412444Y-13891603D01*
X17412444Y-13891603D02*
X17402920Y-13910650D01*
X17402920Y-13910650D02*
X17393396Y-13920174D01*
X17393396Y-13920174D02*
X17374349Y-13929698D01*
X17374349Y-13929698D02*
X17336253Y-13929698D01*
X17336253Y-13929698D02*
X17317206Y-13939222D01*
X17317206Y-13939222D02*
X17307682Y-13948746D01*
X17307682Y-13948746D02*
X17298158Y-13967793D01*
X17298158Y-13967793D02*
X17298158Y-14005888D01*
X17298158Y-14005888D02*
X17307682Y-14024936D01*
X17307682Y-14024936D02*
X17317206Y-14034460D01*
X17317206Y-14034460D02*
X17336253Y-14043984D01*
X17336253Y-14043984D02*
X17374349Y-14043984D01*
X17374349Y-14043984D02*
X17393396Y-14034460D01*
X17393396Y-14034460D02*
X17402920Y-14024936D01*
X17402920Y-14024936D02*
X17412444Y-14005888D01*
X17412444Y-14005888D02*
X17412444Y-13967793D01*
X17412444Y-13967793D02*
X17402920Y-13948746D01*
X17402920Y-13948746D02*
X17393396Y-13939222D01*
X17393396Y-13939222D02*
X17374349Y-13929698D01*
X17488634Y-13843984D02*
X17488634Y-13882079D01*
X17564825Y-13843984D02*
X17564825Y-13882079D01*
X17860063Y-14120174D02*
X17850539Y-14110650D01*
X17850539Y-14110650D02*
X17831491Y-14082079D01*
X17831491Y-14082079D02*
X17821968Y-14063031D01*
X17821968Y-14063031D02*
X17812444Y-14034460D01*
X17812444Y-14034460D02*
X17802920Y-13986841D01*
X17802920Y-13986841D02*
X17802920Y-13948746D01*
X17802920Y-13948746D02*
X17812444Y-13901127D01*
X17812444Y-13901127D02*
X17821968Y-13872555D01*
X17821968Y-13872555D02*
X17831491Y-13853508D01*
X17831491Y-13853508D02*
X17850539Y-13824936D01*
X17850539Y-13824936D02*
X17860063Y-13815412D01*
X18031491Y-13843984D02*
X17936253Y-13843984D01*
X17936253Y-13843984D02*
X17926730Y-13939222D01*
X17926730Y-13939222D02*
X17936253Y-13929698D01*
X17936253Y-13929698D02*
X17955301Y-13920174D01*
X17955301Y-13920174D02*
X18002920Y-13920174D01*
X18002920Y-13920174D02*
X18021968Y-13929698D01*
X18021968Y-13929698D02*
X18031491Y-13939222D01*
X18031491Y-13939222D02*
X18041015Y-13958269D01*
X18041015Y-13958269D02*
X18041015Y-14005888D01*
X18041015Y-14005888D02*
X18031491Y-14024936D01*
X18031491Y-14024936D02*
X18021968Y-14034460D01*
X18021968Y-14034460D02*
X18002920Y-14043984D01*
X18002920Y-14043984D02*
X17955301Y-14043984D01*
X17955301Y-14043984D02*
X17936253Y-14034460D01*
X17936253Y-14034460D02*
X17926730Y-14024936D01*
X18212444Y-13910650D02*
X18212444Y-14043984D01*
X18164825Y-13834460D02*
X18117206Y-13977317D01*
X18117206Y-13977317D02*
X18241015Y-13977317D01*
X18469587Y-14043984D02*
X18469587Y-13843984D01*
X18555301Y-14043984D02*
X18555301Y-13939222D01*
X18555301Y-13939222D02*
X18545777Y-13920174D01*
X18545777Y-13920174D02*
X18526730Y-13910650D01*
X18526730Y-13910650D02*
X18498158Y-13910650D01*
X18498158Y-13910650D02*
X18479111Y-13920174D01*
X18479111Y-13920174D02*
X18469587Y-13929698D01*
X18679111Y-14043984D02*
X18660063Y-14034460D01*
X18660063Y-14034460D02*
X18650539Y-14024936D01*
X18650539Y-14024936D02*
X18641015Y-14005888D01*
X18641015Y-14005888D02*
X18641015Y-13948746D01*
X18641015Y-13948746D02*
X18650539Y-13929698D01*
X18650539Y-13929698D02*
X18660063Y-13920174D01*
X18660063Y-13920174D02*
X18679111Y-13910650D01*
X18679111Y-13910650D02*
X18707682Y-13910650D01*
X18707682Y-13910650D02*
X18726730Y-13920174D01*
X18726730Y-13920174D02*
X18736253Y-13929698D01*
X18736253Y-13929698D02*
X18745777Y-13948746D01*
X18745777Y-13948746D02*
X18745777Y-14005888D01*
X18745777Y-14005888D02*
X18736253Y-14024936D01*
X18736253Y-14024936D02*
X18726730Y-14034460D01*
X18726730Y-14034460D02*
X18707682Y-14043984D01*
X18707682Y-14043984D02*
X18679111Y-14043984D01*
X18860063Y-14043984D02*
X18841015Y-14034460D01*
X18841015Y-14034460D02*
X18831492Y-14015412D01*
X18831492Y-14015412D02*
X18831492Y-13843984D01*
X19012444Y-14034460D02*
X18993396Y-14043984D01*
X18993396Y-14043984D02*
X18955301Y-14043984D01*
X18955301Y-14043984D02*
X18936253Y-14034460D01*
X18936253Y-14034460D02*
X18926730Y-14015412D01*
X18926730Y-14015412D02*
X18926730Y-13939222D01*
X18926730Y-13939222D02*
X18936253Y-13920174D01*
X18936253Y-13920174D02*
X18955301Y-13910650D01*
X18955301Y-13910650D02*
X18993396Y-13910650D01*
X18993396Y-13910650D02*
X19012444Y-13920174D01*
X19012444Y-13920174D02*
X19021968Y-13939222D01*
X19021968Y-13939222D02*
X19021968Y-13958269D01*
X19021968Y-13958269D02*
X18926730Y-13977317D01*
X19098158Y-14034460D02*
X19117206Y-14043984D01*
X19117206Y-14043984D02*
X19155301Y-14043984D01*
X19155301Y-14043984D02*
X19174349Y-14034460D01*
X19174349Y-14034460D02*
X19183873Y-14015412D01*
X19183873Y-14015412D02*
X19183873Y-14005888D01*
X19183873Y-14005888D02*
X19174349Y-13986841D01*
X19174349Y-13986841D02*
X19155301Y-13977317D01*
X19155301Y-13977317D02*
X19126730Y-13977317D01*
X19126730Y-13977317D02*
X19107682Y-13967793D01*
X19107682Y-13967793D02*
X19098158Y-13948746D01*
X19098158Y-13948746D02*
X19098158Y-13939222D01*
X19098158Y-13939222D02*
X19107682Y-13920174D01*
X19107682Y-13920174D02*
X19126730Y-13910650D01*
X19126730Y-13910650D02*
X19155301Y-13910650D01*
X19155301Y-13910650D02*
X19174349Y-13920174D01*
X19250539Y-14120174D02*
X19260063Y-14110650D01*
X19260063Y-14110650D02*
X19279111Y-14082079D01*
X19279111Y-14082079D02*
X19288634Y-14063031D01*
X19288634Y-14063031D02*
X19298158Y-14034460D01*
X19298158Y-14034460D02*
X19307682Y-13986841D01*
X19307682Y-13986841D02*
X19307682Y-13948746D01*
X19307682Y-13948746D02*
X19298158Y-13901127D01*
X19298158Y-13901127D02*
X19288634Y-13872555D01*
X19288634Y-13872555D02*
X19279111Y-13853508D01*
X19279111Y-13853508D02*
X19260063Y-13824936D01*
X19260063Y-13824936D02*
X19250539Y-13815412D01*
D12*
X14285000Y-14216500D02*
G75*
G02*
X14225000Y-14216500I-30000J0D01*
G01*
X14225000Y-14216500D02*
G75*
G02*
X14285000Y-14216500I30000J0D01*
G01*
D11*
X14583872Y-14107984D02*
X14602920Y-14107984D01*
X14602920Y-14107984D02*
X14621967Y-14117508D01*
X14621967Y-14117508D02*
X14631491Y-14127031D01*
X14631491Y-14127031D02*
X14641015Y-14146079D01*
X14641015Y-14146079D02*
X14650539Y-14184174D01*
X14650539Y-14184174D02*
X14650539Y-14231793D01*
X14650539Y-14231793D02*
X14641015Y-14269888D01*
X14641015Y-14269888D02*
X14631491Y-14288936D01*
X14631491Y-14288936D02*
X14621967Y-14298460D01*
X14621967Y-14298460D02*
X14602920Y-14307984D01*
X14602920Y-14307984D02*
X14583872Y-14307984D01*
X14583872Y-14307984D02*
X14564824Y-14298460D01*
X14564824Y-14298460D02*
X14555301Y-14288936D01*
X14555301Y-14288936D02*
X14545777Y-14269888D01*
X14545777Y-14269888D02*
X14536253Y-14231793D01*
X14536253Y-14231793D02*
X14536253Y-14184174D01*
X14536253Y-14184174D02*
X14545777Y-14146079D01*
X14545777Y-14146079D02*
X14555301Y-14127031D01*
X14555301Y-14127031D02*
X14564824Y-14117508D01*
X14564824Y-14117508D02*
X14583872Y-14107984D01*
X14736253Y-14288936D02*
X14745777Y-14298460D01*
X14745777Y-14298460D02*
X14736253Y-14307984D01*
X14736253Y-14307984D02*
X14726729Y-14298460D01*
X14726729Y-14298460D02*
X14736253Y-14288936D01*
X14736253Y-14288936D02*
X14736253Y-14307984D01*
X14917205Y-14107984D02*
X14879110Y-14107984D01*
X14879110Y-14107984D02*
X14860062Y-14117508D01*
X14860062Y-14117508D02*
X14850539Y-14127031D01*
X14850539Y-14127031D02*
X14831491Y-14155603D01*
X14831491Y-14155603D02*
X14821967Y-14193698D01*
X14821967Y-14193698D02*
X14821967Y-14269888D01*
X14821967Y-14269888D02*
X14831491Y-14288936D01*
X14831491Y-14288936D02*
X14841015Y-14298460D01*
X14841015Y-14298460D02*
X14860062Y-14307984D01*
X14860062Y-14307984D02*
X14898158Y-14307984D01*
X14898158Y-14307984D02*
X14917205Y-14298460D01*
X14917205Y-14298460D02*
X14926729Y-14288936D01*
X14926729Y-14288936D02*
X14936253Y-14269888D01*
X14936253Y-14269888D02*
X14936253Y-14222269D01*
X14936253Y-14222269D02*
X14926729Y-14203222D01*
X14926729Y-14203222D02*
X14917205Y-14193698D01*
X14917205Y-14193698D02*
X14898158Y-14184174D01*
X14898158Y-14184174D02*
X14860062Y-14184174D01*
X14860062Y-14184174D02*
X14841015Y-14193698D01*
X14841015Y-14193698D02*
X14831491Y-14203222D01*
X14831491Y-14203222D02*
X14821967Y-14222269D01*
X15060062Y-14107984D02*
X15079110Y-14107984D01*
X15079110Y-14107984D02*
X15098158Y-14117508D01*
X15098158Y-14117508D02*
X15107682Y-14127031D01*
X15107682Y-14127031D02*
X15117205Y-14146079D01*
X15117205Y-14146079D02*
X15126729Y-14184174D01*
X15126729Y-14184174D02*
X15126729Y-14231793D01*
X15126729Y-14231793D02*
X15117205Y-14269888D01*
X15117205Y-14269888D02*
X15107682Y-14288936D01*
X15107682Y-14288936D02*
X15098158Y-14298460D01*
X15098158Y-14298460D02*
X15079110Y-14307984D01*
X15079110Y-14307984D02*
X15060062Y-14307984D01*
X15060062Y-14307984D02*
X15041015Y-14298460D01*
X15041015Y-14298460D02*
X15031491Y-14288936D01*
X15031491Y-14288936D02*
X15021967Y-14269888D01*
X15021967Y-14269888D02*
X15012443Y-14231793D01*
X15012443Y-14231793D02*
X15012443Y-14184174D01*
X15012443Y-14184174D02*
X15021967Y-14146079D01*
X15021967Y-14146079D02*
X15031491Y-14127031D01*
X15031491Y-14127031D02*
X15041015Y-14117508D01*
X15041015Y-14117508D02*
X15060062Y-14107984D01*
X15250539Y-14107984D02*
X15269586Y-14107984D01*
X15269586Y-14107984D02*
X15288634Y-14117508D01*
X15288634Y-14117508D02*
X15298158Y-14127031D01*
X15298158Y-14127031D02*
X15307682Y-14146079D01*
X15307682Y-14146079D02*
X15317205Y-14184174D01*
X15317205Y-14184174D02*
X15317205Y-14231793D01*
X15317205Y-14231793D02*
X15307682Y-14269888D01*
X15307682Y-14269888D02*
X15298158Y-14288936D01*
X15298158Y-14288936D02*
X15288634Y-14298460D01*
X15288634Y-14298460D02*
X15269586Y-14307984D01*
X15269586Y-14307984D02*
X15250539Y-14307984D01*
X15250539Y-14307984D02*
X15231491Y-14298460D01*
X15231491Y-14298460D02*
X15221967Y-14288936D01*
X15221967Y-14288936D02*
X15212443Y-14269888D01*
X15212443Y-14269888D02*
X15202920Y-14231793D01*
X15202920Y-14231793D02*
X15202920Y-14184174D01*
X15202920Y-14184174D02*
X15212443Y-14146079D01*
X15212443Y-14146079D02*
X15221967Y-14127031D01*
X15221967Y-14127031D02*
X15231491Y-14117508D01*
X15231491Y-14117508D02*
X15250539Y-14107984D01*
X15402920Y-14307984D02*
X15402920Y-14174650D01*
X15402920Y-14193698D02*
X15412443Y-14184174D01*
X15412443Y-14184174D02*
X15431491Y-14174650D01*
X15431491Y-14174650D02*
X15460063Y-14174650D01*
X15460063Y-14174650D02*
X15479110Y-14184174D01*
X15479110Y-14184174D02*
X15488634Y-14203222D01*
X15488634Y-14203222D02*
X15488634Y-14307984D01*
X15488634Y-14203222D02*
X15498158Y-14184174D01*
X15498158Y-14184174D02*
X15517205Y-14174650D01*
X15517205Y-14174650D02*
X15545777Y-14174650D01*
X15545777Y-14174650D02*
X15564824Y-14184174D01*
X15564824Y-14184174D02*
X15574348Y-14203222D01*
X15574348Y-14203222D02*
X15574348Y-14307984D01*
X15669586Y-14307984D02*
X15669586Y-14174650D01*
X15669586Y-14193698D02*
X15679110Y-14184174D01*
X15679110Y-14184174D02*
X15698158Y-14174650D01*
X15698158Y-14174650D02*
X15726729Y-14174650D01*
X15726729Y-14174650D02*
X15745777Y-14184174D01*
X15745777Y-14184174D02*
X15755301Y-14203222D01*
X15755301Y-14203222D02*
X15755301Y-14307984D01*
X15755301Y-14203222D02*
X15764824Y-14184174D01*
X15764824Y-14184174D02*
X15783872Y-14174650D01*
X15783872Y-14174650D02*
X15812443Y-14174650D01*
X15812443Y-14174650D02*
X15831491Y-14184174D01*
X15831491Y-14184174D02*
X15841015Y-14203222D01*
X15841015Y-14203222D02*
X15841015Y-14307984D01*
X16231491Y-14098460D02*
X16060063Y-14355603D01*
X16488634Y-14107984D02*
X16507682Y-14107984D01*
X16507682Y-14107984D02*
X16526729Y-14117508D01*
X16526729Y-14117508D02*
X16536253Y-14127031D01*
X16536253Y-14127031D02*
X16545777Y-14146079D01*
X16545777Y-14146079D02*
X16555301Y-14184174D01*
X16555301Y-14184174D02*
X16555301Y-14231793D01*
X16555301Y-14231793D02*
X16545777Y-14269888D01*
X16545777Y-14269888D02*
X16536253Y-14288936D01*
X16536253Y-14288936D02*
X16526729Y-14298460D01*
X16526729Y-14298460D02*
X16507682Y-14307984D01*
X16507682Y-14307984D02*
X16488634Y-14307984D01*
X16488634Y-14307984D02*
X16469586Y-14298460D01*
X16469586Y-14298460D02*
X16460063Y-14288936D01*
X16460063Y-14288936D02*
X16450539Y-14269888D01*
X16450539Y-14269888D02*
X16441015Y-14231793D01*
X16441015Y-14231793D02*
X16441015Y-14184174D01*
X16441015Y-14184174D02*
X16450539Y-14146079D01*
X16450539Y-14146079D02*
X16460063Y-14127031D01*
X16460063Y-14127031D02*
X16469586Y-14117508D01*
X16469586Y-14117508D02*
X16488634Y-14107984D01*
X16641015Y-14288936D02*
X16650539Y-14298460D01*
X16650539Y-14298460D02*
X16641015Y-14307984D01*
X16641015Y-14307984D02*
X16631491Y-14298460D01*
X16631491Y-14298460D02*
X16641015Y-14288936D01*
X16641015Y-14288936D02*
X16641015Y-14307984D01*
X16774348Y-14107984D02*
X16793396Y-14107984D01*
X16793396Y-14107984D02*
X16812444Y-14117508D01*
X16812444Y-14117508D02*
X16821968Y-14127031D01*
X16821968Y-14127031D02*
X16831491Y-14146079D01*
X16831491Y-14146079D02*
X16841015Y-14184174D01*
X16841015Y-14184174D02*
X16841015Y-14231793D01*
X16841015Y-14231793D02*
X16831491Y-14269888D01*
X16831491Y-14269888D02*
X16821968Y-14288936D01*
X16821968Y-14288936D02*
X16812444Y-14298460D01*
X16812444Y-14298460D02*
X16793396Y-14307984D01*
X16793396Y-14307984D02*
X16774348Y-14307984D01*
X16774348Y-14307984D02*
X16755301Y-14298460D01*
X16755301Y-14298460D02*
X16745777Y-14288936D01*
X16745777Y-14288936D02*
X16736253Y-14269888D01*
X16736253Y-14269888D02*
X16726729Y-14231793D01*
X16726729Y-14231793D02*
X16726729Y-14184174D01*
X16726729Y-14184174D02*
X16736253Y-14146079D01*
X16736253Y-14146079D02*
X16745777Y-14127031D01*
X16745777Y-14127031D02*
X16755301Y-14117508D01*
X16755301Y-14117508D02*
X16774348Y-14107984D01*
X16917206Y-14127031D02*
X16926729Y-14117508D01*
X16926729Y-14117508D02*
X16945777Y-14107984D01*
X16945777Y-14107984D02*
X16993396Y-14107984D01*
X16993396Y-14107984D02*
X17012444Y-14117508D01*
X17012444Y-14117508D02*
X17021968Y-14127031D01*
X17021968Y-14127031D02*
X17031491Y-14146079D01*
X17031491Y-14146079D02*
X17031491Y-14165127D01*
X17031491Y-14165127D02*
X17021968Y-14193698D01*
X17021968Y-14193698D02*
X16907682Y-14307984D01*
X16907682Y-14307984D02*
X17031491Y-14307984D01*
X17098158Y-14107984D02*
X17221968Y-14107984D01*
X17221968Y-14107984D02*
X17155301Y-14184174D01*
X17155301Y-14184174D02*
X17183872Y-14184174D01*
X17183872Y-14184174D02*
X17202920Y-14193698D01*
X17202920Y-14193698D02*
X17212444Y-14203222D01*
X17212444Y-14203222D02*
X17221968Y-14222269D01*
X17221968Y-14222269D02*
X17221968Y-14269888D01*
X17221968Y-14269888D02*
X17212444Y-14288936D01*
X17212444Y-14288936D02*
X17202920Y-14298460D01*
X17202920Y-14298460D02*
X17183872Y-14307984D01*
X17183872Y-14307984D02*
X17126729Y-14307984D01*
X17126729Y-14307984D02*
X17107682Y-14298460D01*
X17107682Y-14298460D02*
X17098158Y-14288936D01*
X17393396Y-14107984D02*
X17355301Y-14107984D01*
X17355301Y-14107984D02*
X17336253Y-14117508D01*
X17336253Y-14117508D02*
X17326729Y-14127031D01*
X17326729Y-14127031D02*
X17307682Y-14155603D01*
X17307682Y-14155603D02*
X17298158Y-14193698D01*
X17298158Y-14193698D02*
X17298158Y-14269888D01*
X17298158Y-14269888D02*
X17307682Y-14288936D01*
X17307682Y-14288936D02*
X17317206Y-14298460D01*
X17317206Y-14298460D02*
X17336253Y-14307984D01*
X17336253Y-14307984D02*
X17374349Y-14307984D01*
X17374349Y-14307984D02*
X17393396Y-14298460D01*
X17393396Y-14298460D02*
X17402920Y-14288936D01*
X17402920Y-14288936D02*
X17412444Y-14269888D01*
X17412444Y-14269888D02*
X17412444Y-14222269D01*
X17412444Y-14222269D02*
X17402920Y-14203222D01*
X17402920Y-14203222D02*
X17393396Y-14193698D01*
X17393396Y-14193698D02*
X17374349Y-14184174D01*
X17374349Y-14184174D02*
X17336253Y-14184174D01*
X17336253Y-14184174D02*
X17317206Y-14193698D01*
X17317206Y-14193698D02*
X17307682Y-14203222D01*
X17307682Y-14203222D02*
X17298158Y-14222269D01*
X17488634Y-14107984D02*
X17488634Y-14146079D01*
X17564825Y-14107984D02*
X17564825Y-14146079D01*
X17860063Y-14384174D02*
X17850539Y-14374650D01*
X17850539Y-14374650D02*
X17831491Y-14346079D01*
X17831491Y-14346079D02*
X17821968Y-14327031D01*
X17821968Y-14327031D02*
X17812444Y-14298460D01*
X17812444Y-14298460D02*
X17802920Y-14250841D01*
X17802920Y-14250841D02*
X17802920Y-14212746D01*
X17802920Y-14212746D02*
X17812444Y-14165127D01*
X17812444Y-14165127D02*
X17821968Y-14136555D01*
X17821968Y-14136555D02*
X17831491Y-14117508D01*
X17831491Y-14117508D02*
X17850539Y-14088936D01*
X17850539Y-14088936D02*
X17860063Y-14079412D01*
X17974349Y-14107984D02*
X17993396Y-14107984D01*
X17993396Y-14107984D02*
X18012444Y-14117508D01*
X18012444Y-14117508D02*
X18021968Y-14127031D01*
X18021968Y-14127031D02*
X18031491Y-14146079D01*
X18031491Y-14146079D02*
X18041015Y-14184174D01*
X18041015Y-14184174D02*
X18041015Y-14231793D01*
X18041015Y-14231793D02*
X18031491Y-14269888D01*
X18031491Y-14269888D02*
X18021968Y-14288936D01*
X18021968Y-14288936D02*
X18012444Y-14298460D01*
X18012444Y-14298460D02*
X17993396Y-14307984D01*
X17993396Y-14307984D02*
X17974349Y-14307984D01*
X17974349Y-14307984D02*
X17955301Y-14298460D01*
X17955301Y-14298460D02*
X17945777Y-14288936D01*
X17945777Y-14288936D02*
X17936253Y-14269888D01*
X17936253Y-14269888D02*
X17926730Y-14231793D01*
X17926730Y-14231793D02*
X17926730Y-14184174D01*
X17926730Y-14184174D02*
X17936253Y-14146079D01*
X17936253Y-14146079D02*
X17945777Y-14127031D01*
X17945777Y-14127031D02*
X17955301Y-14117508D01*
X17955301Y-14117508D02*
X17974349Y-14107984D01*
X18279111Y-14307984D02*
X18279111Y-14107984D01*
X18364825Y-14307984D02*
X18364825Y-14203222D01*
X18364825Y-14203222D02*
X18355301Y-14184174D01*
X18355301Y-14184174D02*
X18336253Y-14174650D01*
X18336253Y-14174650D02*
X18307682Y-14174650D01*
X18307682Y-14174650D02*
X18288634Y-14184174D01*
X18288634Y-14184174D02*
X18279111Y-14193698D01*
X18488634Y-14307984D02*
X18469587Y-14298460D01*
X18469587Y-14298460D02*
X18460063Y-14288936D01*
X18460063Y-14288936D02*
X18450539Y-14269888D01*
X18450539Y-14269888D02*
X18450539Y-14212746D01*
X18450539Y-14212746D02*
X18460063Y-14193698D01*
X18460063Y-14193698D02*
X18469587Y-14184174D01*
X18469587Y-14184174D02*
X18488634Y-14174650D01*
X18488634Y-14174650D02*
X18517206Y-14174650D01*
X18517206Y-14174650D02*
X18536253Y-14184174D01*
X18536253Y-14184174D02*
X18545777Y-14193698D01*
X18545777Y-14193698D02*
X18555301Y-14212746D01*
X18555301Y-14212746D02*
X18555301Y-14269888D01*
X18555301Y-14269888D02*
X18545777Y-14288936D01*
X18545777Y-14288936D02*
X18536253Y-14298460D01*
X18536253Y-14298460D02*
X18517206Y-14307984D01*
X18517206Y-14307984D02*
X18488634Y-14307984D01*
X18669587Y-14307984D02*
X18650539Y-14298460D01*
X18650539Y-14298460D02*
X18641015Y-14279412D01*
X18641015Y-14279412D02*
X18641015Y-14107984D01*
X18821968Y-14298460D02*
X18802920Y-14307984D01*
X18802920Y-14307984D02*
X18764825Y-14307984D01*
X18764825Y-14307984D02*
X18745777Y-14298460D01*
X18745777Y-14298460D02*
X18736253Y-14279412D01*
X18736253Y-14279412D02*
X18736253Y-14203222D01*
X18736253Y-14203222D02*
X18745777Y-14184174D01*
X18745777Y-14184174D02*
X18764825Y-14174650D01*
X18764825Y-14174650D02*
X18802920Y-14174650D01*
X18802920Y-14174650D02*
X18821968Y-14184174D01*
X18821968Y-14184174D02*
X18831492Y-14203222D01*
X18831492Y-14203222D02*
X18831492Y-14222269D01*
X18831492Y-14222269D02*
X18736253Y-14241317D01*
X18907682Y-14298460D02*
X18926730Y-14307984D01*
X18926730Y-14307984D02*
X18964825Y-14307984D01*
X18964825Y-14307984D02*
X18983873Y-14298460D01*
X18983873Y-14298460D02*
X18993396Y-14279412D01*
X18993396Y-14279412D02*
X18993396Y-14269888D01*
X18993396Y-14269888D02*
X18983873Y-14250841D01*
X18983873Y-14250841D02*
X18964825Y-14241317D01*
X18964825Y-14241317D02*
X18936253Y-14241317D01*
X18936253Y-14241317D02*
X18917206Y-14231793D01*
X18917206Y-14231793D02*
X18907682Y-14212746D01*
X18907682Y-14212746D02*
X18907682Y-14203222D01*
X18907682Y-14203222D02*
X18917206Y-14184174D01*
X18917206Y-14184174D02*
X18936253Y-14174650D01*
X18936253Y-14174650D02*
X18964825Y-14174650D01*
X18964825Y-14174650D02*
X18983873Y-14184174D01*
X19231492Y-14231793D02*
X19383873Y-14231793D01*
X19307682Y-14307984D02*
X19307682Y-14155603D01*
X19717206Y-14174650D02*
X19717206Y-14307984D01*
X19669587Y-14098460D02*
X19621968Y-14241317D01*
X19621968Y-14241317D02*
X19745777Y-14241317D01*
X19964825Y-14298460D02*
X19983873Y-14307984D01*
X19983873Y-14307984D02*
X20021968Y-14307984D01*
X20021968Y-14307984D02*
X20041016Y-14298460D01*
X20041016Y-14298460D02*
X20050539Y-14279412D01*
X20050539Y-14279412D02*
X20050539Y-14269888D01*
X20050539Y-14269888D02*
X20041016Y-14250841D01*
X20041016Y-14250841D02*
X20021968Y-14241317D01*
X20021968Y-14241317D02*
X19993396Y-14241317D01*
X19993396Y-14241317D02*
X19974349Y-14231793D01*
X19974349Y-14231793D02*
X19964825Y-14212746D01*
X19964825Y-14212746D02*
X19964825Y-14203222D01*
X19964825Y-14203222D02*
X19974349Y-14184174D01*
X19974349Y-14184174D02*
X19993396Y-14174650D01*
X19993396Y-14174650D02*
X20021968Y-14174650D01*
X20021968Y-14174650D02*
X20041016Y-14184174D01*
X20164825Y-14307984D02*
X20145777Y-14298460D01*
X20145777Y-14298460D02*
X20136254Y-14279412D01*
X20136254Y-14279412D02*
X20136254Y-14107984D01*
X20269587Y-14307984D02*
X20250539Y-14298460D01*
X20250539Y-14298460D02*
X20241016Y-14288936D01*
X20241016Y-14288936D02*
X20231492Y-14269888D01*
X20231492Y-14269888D02*
X20231492Y-14212746D01*
X20231492Y-14212746D02*
X20241016Y-14193698D01*
X20241016Y-14193698D02*
X20250539Y-14184174D01*
X20250539Y-14184174D02*
X20269587Y-14174650D01*
X20269587Y-14174650D02*
X20298158Y-14174650D01*
X20298158Y-14174650D02*
X20317206Y-14184174D01*
X20317206Y-14184174D02*
X20326730Y-14193698D01*
X20326730Y-14193698D02*
X20336254Y-14212746D01*
X20336254Y-14212746D02*
X20336254Y-14269888D01*
X20336254Y-14269888D02*
X20326730Y-14288936D01*
X20326730Y-14288936D02*
X20317206Y-14298460D01*
X20317206Y-14298460D02*
X20298158Y-14307984D01*
X20298158Y-14307984D02*
X20269587Y-14307984D01*
X20393397Y-14174650D02*
X20469587Y-14174650D01*
X20421968Y-14107984D02*
X20421968Y-14279412D01*
X20421968Y-14279412D02*
X20431492Y-14298460D01*
X20431492Y-14298460D02*
X20450539Y-14307984D01*
X20450539Y-14307984D02*
X20469587Y-14307984D01*
X20526730Y-14298460D02*
X20545777Y-14307984D01*
X20545777Y-14307984D02*
X20583873Y-14307984D01*
X20583873Y-14307984D02*
X20602920Y-14298460D01*
X20602920Y-14298460D02*
X20612444Y-14279412D01*
X20612444Y-14279412D02*
X20612444Y-14269888D01*
X20612444Y-14269888D02*
X20602920Y-14250841D01*
X20602920Y-14250841D02*
X20583873Y-14241317D01*
X20583873Y-14241317D02*
X20555301Y-14241317D01*
X20555301Y-14241317D02*
X20536254Y-14231793D01*
X20536254Y-14231793D02*
X20526730Y-14212746D01*
X20526730Y-14212746D02*
X20526730Y-14203222D01*
X20526730Y-14203222D02*
X20536254Y-14184174D01*
X20536254Y-14184174D02*
X20555301Y-14174650D01*
X20555301Y-14174650D02*
X20583873Y-14174650D01*
X20583873Y-14174650D02*
X20602920Y-14184174D01*
X20679111Y-14384174D02*
X20688635Y-14374650D01*
X20688635Y-14374650D02*
X20707682Y-14346079D01*
X20707682Y-14346079D02*
X20717206Y-14327031D01*
X20717206Y-14327031D02*
X20726730Y-14298460D01*
X20726730Y-14298460D02*
X20736254Y-14250841D01*
X20736254Y-14250841D02*
X20736254Y-14212746D01*
X20736254Y-14212746D02*
X20726730Y-14165127D01*
X20726730Y-14165127D02*
X20717206Y-14136555D01*
X20717206Y-14136555D02*
X20707682Y-14117508D01*
X20707682Y-14117508D02*
X20688635Y-14088936D01*
X20688635Y-14088936D02*
X20679111Y-14079412D01*
D12*
X14235000Y-14430500D02*
X14235000Y-14530500D01*
X14185000Y-14480500D02*
X14285000Y-14480500D01*
D11*
X14650539Y-14571984D02*
X14536253Y-14571984D01*
X14593396Y-14571984D02*
X14593396Y-14371984D01*
X14593396Y-14371984D02*
X14574348Y-14400555D01*
X14574348Y-14400555D02*
X14555301Y-14419603D01*
X14555301Y-14419603D02*
X14536253Y-14429127D01*
X14736253Y-14552936D02*
X14745777Y-14562460D01*
X14745777Y-14562460D02*
X14736253Y-14571984D01*
X14736253Y-14571984D02*
X14726729Y-14562460D01*
X14726729Y-14562460D02*
X14736253Y-14552936D01*
X14736253Y-14552936D02*
X14736253Y-14571984D01*
X14869586Y-14371984D02*
X14888634Y-14371984D01*
X14888634Y-14371984D02*
X14907682Y-14381508D01*
X14907682Y-14381508D02*
X14917205Y-14391031D01*
X14917205Y-14391031D02*
X14926729Y-14410079D01*
X14926729Y-14410079D02*
X14936253Y-14448174D01*
X14936253Y-14448174D02*
X14936253Y-14495793D01*
X14936253Y-14495793D02*
X14926729Y-14533888D01*
X14926729Y-14533888D02*
X14917205Y-14552936D01*
X14917205Y-14552936D02*
X14907682Y-14562460D01*
X14907682Y-14562460D02*
X14888634Y-14571984D01*
X14888634Y-14571984D02*
X14869586Y-14571984D01*
X14869586Y-14571984D02*
X14850539Y-14562460D01*
X14850539Y-14562460D02*
X14841015Y-14552936D01*
X14841015Y-14552936D02*
X14831491Y-14533888D01*
X14831491Y-14533888D02*
X14821967Y-14495793D01*
X14821967Y-14495793D02*
X14821967Y-14448174D01*
X14821967Y-14448174D02*
X14831491Y-14410079D01*
X14831491Y-14410079D02*
X14841015Y-14391031D01*
X14841015Y-14391031D02*
X14850539Y-14381508D01*
X14850539Y-14381508D02*
X14869586Y-14371984D01*
X15060062Y-14371984D02*
X15079110Y-14371984D01*
X15079110Y-14371984D02*
X15098158Y-14381508D01*
X15098158Y-14381508D02*
X15107682Y-14391031D01*
X15107682Y-14391031D02*
X15117205Y-14410079D01*
X15117205Y-14410079D02*
X15126729Y-14448174D01*
X15126729Y-14448174D02*
X15126729Y-14495793D01*
X15126729Y-14495793D02*
X15117205Y-14533888D01*
X15117205Y-14533888D02*
X15107682Y-14552936D01*
X15107682Y-14552936D02*
X15098158Y-14562460D01*
X15098158Y-14562460D02*
X15079110Y-14571984D01*
X15079110Y-14571984D02*
X15060062Y-14571984D01*
X15060062Y-14571984D02*
X15041015Y-14562460D01*
X15041015Y-14562460D02*
X15031491Y-14552936D01*
X15031491Y-14552936D02*
X15021967Y-14533888D01*
X15021967Y-14533888D02*
X15012443Y-14495793D01*
X15012443Y-14495793D02*
X15012443Y-14448174D01*
X15012443Y-14448174D02*
X15021967Y-14410079D01*
X15021967Y-14410079D02*
X15031491Y-14391031D01*
X15031491Y-14391031D02*
X15041015Y-14381508D01*
X15041015Y-14381508D02*
X15060062Y-14371984D01*
X15250539Y-14371984D02*
X15269586Y-14371984D01*
X15269586Y-14371984D02*
X15288634Y-14381508D01*
X15288634Y-14381508D02*
X15298158Y-14391031D01*
X15298158Y-14391031D02*
X15307682Y-14410079D01*
X15307682Y-14410079D02*
X15317205Y-14448174D01*
X15317205Y-14448174D02*
X15317205Y-14495793D01*
X15317205Y-14495793D02*
X15307682Y-14533888D01*
X15307682Y-14533888D02*
X15298158Y-14552936D01*
X15298158Y-14552936D02*
X15288634Y-14562460D01*
X15288634Y-14562460D02*
X15269586Y-14571984D01*
X15269586Y-14571984D02*
X15250539Y-14571984D01*
X15250539Y-14571984D02*
X15231491Y-14562460D01*
X15231491Y-14562460D02*
X15221967Y-14552936D01*
X15221967Y-14552936D02*
X15212443Y-14533888D01*
X15212443Y-14533888D02*
X15202920Y-14495793D01*
X15202920Y-14495793D02*
X15202920Y-14448174D01*
X15202920Y-14448174D02*
X15212443Y-14410079D01*
X15212443Y-14410079D02*
X15221967Y-14391031D01*
X15221967Y-14391031D02*
X15231491Y-14381508D01*
X15231491Y-14381508D02*
X15250539Y-14371984D01*
X15402920Y-14571984D02*
X15402920Y-14438650D01*
X15402920Y-14457698D02*
X15412443Y-14448174D01*
X15412443Y-14448174D02*
X15431491Y-14438650D01*
X15431491Y-14438650D02*
X15460063Y-14438650D01*
X15460063Y-14438650D02*
X15479110Y-14448174D01*
X15479110Y-14448174D02*
X15488634Y-14467222D01*
X15488634Y-14467222D02*
X15488634Y-14571984D01*
X15488634Y-14467222D02*
X15498158Y-14448174D01*
X15498158Y-14448174D02*
X15517205Y-14438650D01*
X15517205Y-14438650D02*
X15545777Y-14438650D01*
X15545777Y-14438650D02*
X15564824Y-14448174D01*
X15564824Y-14448174D02*
X15574348Y-14467222D01*
X15574348Y-14467222D02*
X15574348Y-14571984D01*
X15669586Y-14571984D02*
X15669586Y-14438650D01*
X15669586Y-14457698D02*
X15679110Y-14448174D01*
X15679110Y-14448174D02*
X15698158Y-14438650D01*
X15698158Y-14438650D02*
X15726729Y-14438650D01*
X15726729Y-14438650D02*
X15745777Y-14448174D01*
X15745777Y-14448174D02*
X15755301Y-14467222D01*
X15755301Y-14467222D02*
X15755301Y-14571984D01*
X15755301Y-14467222D02*
X15764824Y-14448174D01*
X15764824Y-14448174D02*
X15783872Y-14438650D01*
X15783872Y-14438650D02*
X15812443Y-14438650D01*
X15812443Y-14438650D02*
X15831491Y-14448174D01*
X15831491Y-14448174D02*
X15841015Y-14467222D01*
X15841015Y-14467222D02*
X15841015Y-14571984D01*
X16231491Y-14362460D02*
X16060063Y-14619603D01*
X16488634Y-14371984D02*
X16507682Y-14371984D01*
X16507682Y-14371984D02*
X16526729Y-14381508D01*
X16526729Y-14381508D02*
X16536253Y-14391031D01*
X16536253Y-14391031D02*
X16545777Y-14410079D01*
X16545777Y-14410079D02*
X16555301Y-14448174D01*
X16555301Y-14448174D02*
X16555301Y-14495793D01*
X16555301Y-14495793D02*
X16545777Y-14533888D01*
X16545777Y-14533888D02*
X16536253Y-14552936D01*
X16536253Y-14552936D02*
X16526729Y-14562460D01*
X16526729Y-14562460D02*
X16507682Y-14571984D01*
X16507682Y-14571984D02*
X16488634Y-14571984D01*
X16488634Y-14571984D02*
X16469586Y-14562460D01*
X16469586Y-14562460D02*
X16460063Y-14552936D01*
X16460063Y-14552936D02*
X16450539Y-14533888D01*
X16450539Y-14533888D02*
X16441015Y-14495793D01*
X16441015Y-14495793D02*
X16441015Y-14448174D01*
X16441015Y-14448174D02*
X16450539Y-14410079D01*
X16450539Y-14410079D02*
X16460063Y-14391031D01*
X16460063Y-14391031D02*
X16469586Y-14381508D01*
X16469586Y-14381508D02*
X16488634Y-14371984D01*
X16641015Y-14552936D02*
X16650539Y-14562460D01*
X16650539Y-14562460D02*
X16641015Y-14571984D01*
X16641015Y-14571984D02*
X16631491Y-14562460D01*
X16631491Y-14562460D02*
X16641015Y-14552936D01*
X16641015Y-14552936D02*
X16641015Y-14571984D01*
X16774348Y-14371984D02*
X16793396Y-14371984D01*
X16793396Y-14371984D02*
X16812444Y-14381508D01*
X16812444Y-14381508D02*
X16821968Y-14391031D01*
X16821968Y-14391031D02*
X16831491Y-14410079D01*
X16831491Y-14410079D02*
X16841015Y-14448174D01*
X16841015Y-14448174D02*
X16841015Y-14495793D01*
X16841015Y-14495793D02*
X16831491Y-14533888D01*
X16831491Y-14533888D02*
X16821968Y-14552936D01*
X16821968Y-14552936D02*
X16812444Y-14562460D01*
X16812444Y-14562460D02*
X16793396Y-14571984D01*
X16793396Y-14571984D02*
X16774348Y-14571984D01*
X16774348Y-14571984D02*
X16755301Y-14562460D01*
X16755301Y-14562460D02*
X16745777Y-14552936D01*
X16745777Y-14552936D02*
X16736253Y-14533888D01*
X16736253Y-14533888D02*
X16726729Y-14495793D01*
X16726729Y-14495793D02*
X16726729Y-14448174D01*
X16726729Y-14448174D02*
X16736253Y-14410079D01*
X16736253Y-14410079D02*
X16745777Y-14391031D01*
X16745777Y-14391031D02*
X16755301Y-14381508D01*
X16755301Y-14381508D02*
X16774348Y-14371984D01*
X16907682Y-14371984D02*
X17031491Y-14371984D01*
X17031491Y-14371984D02*
X16964825Y-14448174D01*
X16964825Y-14448174D02*
X16993396Y-14448174D01*
X16993396Y-14448174D02*
X17012444Y-14457698D01*
X17012444Y-14457698D02*
X17021968Y-14467222D01*
X17021968Y-14467222D02*
X17031491Y-14486269D01*
X17031491Y-14486269D02*
X17031491Y-14533888D01*
X17031491Y-14533888D02*
X17021968Y-14552936D01*
X17021968Y-14552936D02*
X17012444Y-14562460D01*
X17012444Y-14562460D02*
X16993396Y-14571984D01*
X16993396Y-14571984D02*
X16936253Y-14571984D01*
X16936253Y-14571984D02*
X16917206Y-14562460D01*
X16917206Y-14562460D02*
X16907682Y-14552936D01*
X17126729Y-14571984D02*
X17164825Y-14571984D01*
X17164825Y-14571984D02*
X17183872Y-14562460D01*
X17183872Y-14562460D02*
X17193396Y-14552936D01*
X17193396Y-14552936D02*
X17212444Y-14524365D01*
X17212444Y-14524365D02*
X17221968Y-14486269D01*
X17221968Y-14486269D02*
X17221968Y-14410079D01*
X17221968Y-14410079D02*
X17212444Y-14391031D01*
X17212444Y-14391031D02*
X17202920Y-14381508D01*
X17202920Y-14381508D02*
X17183872Y-14371984D01*
X17183872Y-14371984D02*
X17145777Y-14371984D01*
X17145777Y-14371984D02*
X17126729Y-14381508D01*
X17126729Y-14381508D02*
X17117206Y-14391031D01*
X17117206Y-14391031D02*
X17107682Y-14410079D01*
X17107682Y-14410079D02*
X17107682Y-14457698D01*
X17107682Y-14457698D02*
X17117206Y-14476746D01*
X17117206Y-14476746D02*
X17126729Y-14486269D01*
X17126729Y-14486269D02*
X17145777Y-14495793D01*
X17145777Y-14495793D02*
X17183872Y-14495793D01*
X17183872Y-14495793D02*
X17202920Y-14486269D01*
X17202920Y-14486269D02*
X17212444Y-14476746D01*
X17212444Y-14476746D02*
X17221968Y-14457698D01*
X17393396Y-14438650D02*
X17393396Y-14571984D01*
X17345777Y-14362460D02*
X17298158Y-14505317D01*
X17298158Y-14505317D02*
X17421968Y-14505317D01*
X17488634Y-14371984D02*
X17488634Y-14410079D01*
X17564825Y-14371984D02*
X17564825Y-14410079D01*
X17860063Y-14648174D02*
X17850539Y-14638650D01*
X17850539Y-14638650D02*
X17831491Y-14610079D01*
X17831491Y-14610079D02*
X17821968Y-14591031D01*
X17821968Y-14591031D02*
X17812444Y-14562460D01*
X17812444Y-14562460D02*
X17802920Y-14514841D01*
X17802920Y-14514841D02*
X17802920Y-14476746D01*
X17802920Y-14476746D02*
X17812444Y-14429127D01*
X17812444Y-14429127D02*
X17821968Y-14400555D01*
X17821968Y-14400555D02*
X17831491Y-14381508D01*
X17831491Y-14381508D02*
X17850539Y-14352936D01*
X17850539Y-14352936D02*
X17860063Y-14343412D01*
X18021968Y-14438650D02*
X18021968Y-14571984D01*
X17974349Y-14362460D02*
X17926730Y-14505317D01*
X17926730Y-14505317D02*
X18050539Y-14505317D01*
X18107682Y-14371984D02*
X18231491Y-14371984D01*
X18231491Y-14371984D02*
X18164825Y-14448174D01*
X18164825Y-14448174D02*
X18193396Y-14448174D01*
X18193396Y-14448174D02*
X18212444Y-14457698D01*
X18212444Y-14457698D02*
X18221968Y-14467222D01*
X18221968Y-14467222D02*
X18231491Y-14486269D01*
X18231491Y-14486269D02*
X18231491Y-14533888D01*
X18231491Y-14533888D02*
X18221968Y-14552936D01*
X18221968Y-14552936D02*
X18212444Y-14562460D01*
X18212444Y-14562460D02*
X18193396Y-14571984D01*
X18193396Y-14571984D02*
X18136253Y-14571984D01*
X18136253Y-14571984D02*
X18117206Y-14562460D01*
X18117206Y-14562460D02*
X18107682Y-14552936D01*
X18469587Y-14571984D02*
X18469587Y-14371984D01*
X18555301Y-14571984D02*
X18555301Y-14467222D01*
X18555301Y-14467222D02*
X18545777Y-14448174D01*
X18545777Y-14448174D02*
X18526730Y-14438650D01*
X18526730Y-14438650D02*
X18498158Y-14438650D01*
X18498158Y-14438650D02*
X18479111Y-14448174D01*
X18479111Y-14448174D02*
X18469587Y-14457698D01*
X18679111Y-14571984D02*
X18660063Y-14562460D01*
X18660063Y-14562460D02*
X18650539Y-14552936D01*
X18650539Y-14552936D02*
X18641015Y-14533888D01*
X18641015Y-14533888D02*
X18641015Y-14476746D01*
X18641015Y-14476746D02*
X18650539Y-14457698D01*
X18650539Y-14457698D02*
X18660063Y-14448174D01*
X18660063Y-14448174D02*
X18679111Y-14438650D01*
X18679111Y-14438650D02*
X18707682Y-14438650D01*
X18707682Y-14438650D02*
X18726730Y-14448174D01*
X18726730Y-14448174D02*
X18736253Y-14457698D01*
X18736253Y-14457698D02*
X18745777Y-14476746D01*
X18745777Y-14476746D02*
X18745777Y-14533888D01*
X18745777Y-14533888D02*
X18736253Y-14552936D01*
X18736253Y-14552936D02*
X18726730Y-14562460D01*
X18726730Y-14562460D02*
X18707682Y-14571984D01*
X18707682Y-14571984D02*
X18679111Y-14571984D01*
X18860063Y-14571984D02*
X18841015Y-14562460D01*
X18841015Y-14562460D02*
X18831492Y-14543412D01*
X18831492Y-14543412D02*
X18831492Y-14371984D01*
X19012444Y-14562460D02*
X18993396Y-14571984D01*
X18993396Y-14571984D02*
X18955301Y-14571984D01*
X18955301Y-14571984D02*
X18936253Y-14562460D01*
X18936253Y-14562460D02*
X18926730Y-14543412D01*
X18926730Y-14543412D02*
X18926730Y-14467222D01*
X18926730Y-14467222D02*
X18936253Y-14448174D01*
X18936253Y-14448174D02*
X18955301Y-14438650D01*
X18955301Y-14438650D02*
X18993396Y-14438650D01*
X18993396Y-14438650D02*
X19012444Y-14448174D01*
X19012444Y-14448174D02*
X19021968Y-14467222D01*
X19021968Y-14467222D02*
X19021968Y-14486269D01*
X19021968Y-14486269D02*
X18926730Y-14505317D01*
X19098158Y-14562460D02*
X19117206Y-14571984D01*
X19117206Y-14571984D02*
X19155301Y-14571984D01*
X19155301Y-14571984D02*
X19174349Y-14562460D01*
X19174349Y-14562460D02*
X19183873Y-14543412D01*
X19183873Y-14543412D02*
X19183873Y-14533888D01*
X19183873Y-14533888D02*
X19174349Y-14514841D01*
X19174349Y-14514841D02*
X19155301Y-14505317D01*
X19155301Y-14505317D02*
X19126730Y-14505317D01*
X19126730Y-14505317D02*
X19107682Y-14495793D01*
X19107682Y-14495793D02*
X19098158Y-14476746D01*
X19098158Y-14476746D02*
X19098158Y-14467222D01*
X19098158Y-14467222D02*
X19107682Y-14448174D01*
X19107682Y-14448174D02*
X19126730Y-14438650D01*
X19126730Y-14438650D02*
X19155301Y-14438650D01*
X19155301Y-14438650D02*
X19174349Y-14448174D01*
X19250539Y-14648174D02*
X19260063Y-14638650D01*
X19260063Y-14638650D02*
X19279111Y-14610079D01*
X19279111Y-14610079D02*
X19288634Y-14591031D01*
X19288634Y-14591031D02*
X19298158Y-14562460D01*
X19298158Y-14562460D02*
X19307682Y-14514841D01*
X19307682Y-14514841D02*
X19307682Y-14476746D01*
X19307682Y-14476746D02*
X19298158Y-14429127D01*
X19298158Y-14429127D02*
X19288634Y-14400555D01*
X19288634Y-14400555D02*
X19279111Y-14381508D01*
X19279111Y-14381508D02*
X19260063Y-14352936D01*
X19260063Y-14352936D02*
X19250539Y-14343412D01*
M02*
