%TF.GenerationSoftware,KiCad,Pcbnew,9.0.6*%
%TF.CreationDate,2025-12-22T21:30:03-08:00*%
%TF.ProjectId,Devboard,44657662-6f61-4726-942e-6b696361645f,rev?*%
%TF.SameCoordinates,Original*%
%TF.FileFunction,Soldermask,Bot*%
%TF.FilePolarity,Negative*%
%FSLAX46Y46*%
G04 Gerber Fmt 4.6, Leading zero omitted, Abs format (unit mm)*
G04 Created by KiCad (PCBNEW 9.0.6) date 2025-12-22 21:30:03*
%MOMM*%
%LPD*%
G01*
G04 APERTURE LIST*
%ADD10R,1.700000X1.700000*%
%ADD11C,1.700000*%
%ADD12C,0.650000*%
%ADD13O,1.000000X2.100000*%
%ADD14O,1.000000X1.600000*%
G04 APERTURE END LIST*
D10*
%TO.C,J4*%
X150835000Y-131490000D03*
D11*
X153375000Y-131490000D03*
X155915000Y-131490000D03*
%TD*%
D12*
%TO.C,J1*%
X156265000Y-87200000D03*
X150485000Y-87200000D03*
D13*
X157695000Y-87730000D03*
D14*
X157695000Y-83550000D03*
D13*
X149055000Y-87730000D03*
D14*
X149055000Y-83550000D03*
%TD*%
D10*
%TO.C,J3*%
X162265000Y-83470000D03*
D11*
X162265000Y-86010000D03*
X162265000Y-88550000D03*
X162265000Y-91090000D03*
X162265000Y-93630000D03*
X162265000Y-96170000D03*
X162265000Y-98710000D03*
X162265000Y-101250000D03*
X162265000Y-103790000D03*
X162265000Y-106330000D03*
X162265000Y-108870000D03*
X162265000Y-111410000D03*
X162265000Y-113950000D03*
X162265000Y-116490000D03*
X162265000Y-119030000D03*
X162265000Y-121570000D03*
X162265000Y-124110000D03*
X162265000Y-126650000D03*
X162265000Y-129190000D03*
X162265000Y-131730000D03*
%TD*%
D10*
%TO.C,J2*%
X144485000Y-83470000D03*
D11*
X144485000Y-86010000D03*
X144485000Y-88550000D03*
X144485000Y-91090000D03*
X144485000Y-93630000D03*
X144485000Y-96170000D03*
X144485000Y-98710000D03*
X144485000Y-101250000D03*
X144485000Y-103790000D03*
X144485000Y-106330000D03*
X144485000Y-108870000D03*
X144485000Y-111410000D03*
X144485000Y-113950000D03*
X144485000Y-116490000D03*
X144485000Y-119030000D03*
X144485000Y-121570000D03*
X144485000Y-124110000D03*
X144485000Y-126650000D03*
X144485000Y-129190000D03*
X144485000Y-131730000D03*
%TD*%
M02*
