M48
; DRILL file {KiCad 9.0.6} date 2025-12-22T21:29:59-0800
; FORMAT={-:-/ absolute / metric / decimal}
; #@! TF.CreationDate,2025-12-22T21:29:59-08:00
; #@! TF.GenerationSoftware,Kicad,Pcbnew,9.0.6
; #@! TF.FileFunction,Plated,1,2,PTH
FMAT,2
METRIC
; #@! TA.AperFunction,Plated,PTH,ViaDrill
T1C0.300
; #@! TA.AperFunction,Plated,PTH,ComponentDrill
T2C0.600
; #@! TA.AperFunction,Plated,PTH,ComponentDrill
T3C1.000
%
G90
G05
T1
X146.225Y-94.15
X146.425Y-96.05
X146.733Y-112.8
X147.915Y-110.0
X147.939Y-109.176
X148.425Y-117.95
X148.735Y-109.094
X148.825Y-106.75
X148.925Y-94.15
X148.925Y-95.05
X148.925Y-96.05
X149.025Y-100.75
X149.579Y-104.896
X150.025Y-107.85
X150.69Y-101.45
X150.825Y-98.85
X150.866Y-114.051
X151.425Y-111.55
X151.525Y-109.95
X151.535Y-117.289
X152.388Y-114.215
X152.59Y-103.208
X152.825Y-93.85
X152.825Y-94.75
X152.825Y-95.75
X153.375Y-111.6
X153.425Y-109.75
X153.625Y-101.65
X153.775Y-107.364
X153.824Y-113.7
X153.999Y-104.782
X154.487Y-102.487
X154.608Y-113.885
X154.764Y-109.1
X155.364Y-110.05
X155.364Y-111.25
X155.364Y-112.45
X155.645Y-101.55
X155.872Y-98.85
X155.876Y-113.489
X156.7Y-89.7
X156.8Y-84.7
X156.825Y-116.75
X156.9Y-104.4
X157.7Y-103.2
X157.725Y-116.45
X157.885Y-106.153
X158.325Y-105.1
X158.373Y-109.193
X159.062Y-109.6
X159.5Y-83.6
X160.415Y-112.706
X161.595Y-115.3
X163.0Y-115.2
T3
X144.485Y-83.47
X144.485Y-86.01
X144.485Y-88.55
X144.485Y-91.09
X144.485Y-93.63
X144.485Y-96.17
X144.485Y-98.71
X144.485Y-101.25
X144.485Y-103.79
X144.485Y-106.33
X144.485Y-108.87
X144.485Y-111.41
X144.485Y-113.95
X144.485Y-116.49
X144.485Y-119.03
X144.485Y-121.57
X144.485Y-124.11
X144.485Y-126.65
X144.485Y-129.19
X144.485Y-131.73
X150.835Y-131.49
X153.375Y-131.49
X155.915Y-131.49
X162.265Y-83.47
X162.265Y-86.01
X162.265Y-88.55
X162.265Y-91.09
X162.265Y-93.63
X162.265Y-96.17
X162.265Y-98.71
X162.265Y-101.25
X162.265Y-103.79
X162.265Y-106.33
X162.265Y-108.87
X162.265Y-111.41
X162.265Y-113.95
X162.265Y-116.49
X162.265Y-119.03
X162.265Y-121.57
X162.265Y-124.11
X162.265Y-126.65
X162.265Y-129.19
X162.265Y-131.73
T2
X149.055Y-83.85G85X149.055Y-83.25
G05
X149.055Y-88.28G85X149.055Y-87.18
G05
X157.695Y-83.85G85X157.695Y-83.25
G05
X157.695Y-88.28G85X157.695Y-87.18
G05
M30
